<svg xmlns="http://www.w3.org/2000/svg" width="267" height="229" fill="none"><g filter="url(#a)"><rect width="247.307" height="209.386 2.033 0 .805.129 1.484.387 2.038.26.55.614.969 1.062 1.255.447.283.956.425 1.526.425.566 0 1.073-.142 1.52-.425.451-.286.806-.705 1.063-1.255.26-.554.391-1.233.391-2.038zm3.07 4.945v-7.417h1.395v1.178h.077c.135-.4.373-.713.715-.942a2.045 2.045 0 0 1 1.168-.347 6.104 6.104 0 0 1 .613.033v1.381a2.588 2.588 0 0 0-.309-.053 2.952 2.952 0 0 0-.444-.034c-.341 0-.645.073-.913.218a1.615 1.615 0 0 0-.859 1.453v4.53h-1.444zm7.576.144a2.874 2.874 0 0 1-1.603-.458c-.467-.31-.834-.749-1.101-1.319-.264-.572-.396-1.26-.396-2.061 0-.802.133-1.488.4-2.057.27-.57.641-1.006 1.111-1.309a2.888 2.888 0 0 1 1.598-.454c.46 0 .83.077 1.111.232.283.151.502.328.657.531.157.203.28.382.367.536h.087v-3.675h1.443v9.89h-1.41v-1.155h-.12a3.82 3.82 0 0 1-.377.541c-.16.203-.383.38-.666.532-.284.15-.65.226-1.101.226zm.318-1.23c.416 0 .767-.11 1.053-.33.29-.221.509-.529.657-.922.151-.392.227-.85.227-1.37 0-.516-.074-.967-.222-1.353a1.993 1.993 0 0 0-.652-.903c-.287-.216-.64-.323-1.063-.323-.434 0-.796.112-1.086.338-.29.225-.509.532-.657.922a3.76 3.76 0 0 0-.217 1.318c0 .496.074.942.222 1.338.148.396.367.71.657.941.293.229.653.343 1.081.343zm8.46 1.235c-.73 0-1.36-.156-1.887-.468a3.177 3.177 0 0 1-1.217-1.328c-.283-.573-.425-1.244-.425-2.014 0-.76.142-1.429.425-2.008a3.3 3.3 0 0 1 1.197-1.357c.515-.325 1.117-.488 1.806-.488.419 0 .824.07 1.217.208a2.95 2.95 0 0 1 1.058.652c.312.296.558.68.738 1.154.18.47.27 1.041.27 1.714v.512h-5.895v-1.082h4.481c0-.38-.077-.716-.232-1.01a1.752 1.752 0 0 0-.652-.7 1.822 1.822 0 0 0-.975-.255c-.406 0-.76.1-1.062.3-.3.196-.532.453-.696.772a2.23 2.23 0 0 0-.241 1.028v.845c0 .496.087.918.26 1.265.178.348.424.614.74.797.315.18.683.27 1.105.27.274 0 .523-.038.749-.115a1.553 1.553 0 0 0 .96-.942l1.367.246c-.11.403-.306.755-.59 1.058-.28.3-.632.533-1.057.7a3.957 3.957 0 0 1-1.443.246zm4.632-.15v-7.416h1.395v1.178h.078c.135-.4.373-.713.714-.942a2.045 2.045 0 0 1 1.169-.347 6.11 6.11 0 0 1 .613.033v1.381a2.586 2.586 0 0 0-.31-.053 2.954 2.954 0 0 0-.443-.034c-.342 0-.646.073-.913.218a1.614 1.614 0 0 0-.86 1.453v4.53h-1.443zm10.623-5.606-1.308.232a1.55 1.55 0 0 0-.261-.478 1.29 1.29 0 0 0-.473-.372c-.2-.096-.45-.145-.749-.145-.409 0-.75.092-1.023.276-.274.18-.41.413-.41.7 0 .248.09.447.274.599.184.151.48.275.889.371l1.178.27c.682.159 1.191.402 1.526.73.335.328.502.755.502 1.28 0 .444-.129.84-.386 1.188-.255.344-.61.614-1.067.81-.454.197-.98.295-1.58.295-.83 0-1.507-.177-2.032-.53-.525-.358-.847-.865-.966-1.522l1.396-.212c.086.363.265.639.535.825.27.184.623.276 1.058.276.473 0 .851-.099 1.135-.295.283-.2.425-.443.425-.73a.758.758 0 0 0-.261-.583c-.17-.158-.433-.277-.787-.358l-1.256-.275c-.692-.158-1.204-.409-1.535-.753-.328-.345-.493-.78-.493-1.309 0-.438.123-.82.367-1.15.245-.327.583-.583 1.014-.767.432-.187.926-.28 1.483-.28.801 0 1.432.174 1.893.522.46.344.764.806.912 1.385zm5.025 5.607v-7.417h1.396v1.178h.077c.135-.4.373-.713.715-.942a2.045 2.045 0 0 1 1.168-.347 6.11 6.11 0 0 1 .613.033v1.381a2.582 2.582 0 0 0-.309-.053 2.954 2.954 0 0 0-.444-.034c-.341 0-.645.073-.913.218a1.614 1.614 0 0 0-.86 1.453v4.53H74.9zm7.997.15c-.731 0-1.36-.157-1.888-.47a3.177 3.177 0 0 1-1.217-1.327c-.283-.573-.425-1.244-.425-2.014 0-.76.142-1.429.425-2.008a3.299 3.299 0 0 1 1.198-1.357c.514-.325 1.117-.488 1.805-.488.419 0 .825.07 1.217.208a2.95 2.95 0 0 1 1.058.652c.312.296.558.68.739 1.154.18.47.27 1.041.27 1.714v.512h-5.896v-1.082h4.481c0-.38-.077-.716-.232-1.01a1.752 1.752 0 0 0-.652-.7 1.821 1.821 0 0 0-.975-.255c-.406 0-.76.1-1.062.3a2.01 2.01 0 0 0-.696.772 2.23 2.23 0 0 0-.241 1.028v.845c0 .496.087.918.26 1.265.178.348.424.614.74.797.315.18.684.27 1.105.27.274 0 .523-.038.749-.115a1.552 1.552 0 0 0 .96-.942l1.367.246c-.11.403-.306.755-.589 1.058-.28.3-.632.533-1.057.7a3.957 3.957 0 0 1-1.444.246zm10.763-7.567-2.69 7.417h-1.544l-2.695-7.417h1.55l1.878 5.707h.078l1.873-5.707h1.55zm1.204 7.417v-7.417h1.444v7.417h-1.444zm.73-8.562a.918.918 0 0 1-.648-.25.816.816 0 0 1-.265-.61c0-.237.088-.44.265-.608a.908.908 0 0 1 .647-.256c.251 0 .465.086.642.256a.8.8 0 0 1 .27.609.81.81 0 0 1-.27.608.9.9 0 0 1-.642.251zm5.7 8.711c-.731 0-1.36-.156-1.888-.468a3.177 3.177 0 0 1-1.217-1.328c-.283-.573-.425-1.244-.425-2.014 0-.76.142-1.429.425-2.008a3.3 3.3 0 0 1 1.198-1.357c.515-.325 1.117-.488 1.806-.488.418 0 .824.07 1.216.208.393.138.746.356 1.058.652.312.296.558.68.739 1.154.18.47.27 1.041.27 1.714v.512H98.58v-1.082h4.481c0-.38-.077-.716-.232-1.01a1.747 1.747 0 0 0-.651-.7 1.823 1.823 0 0 0-.976-.255c-.405 0-.76.1-1.062.3-.3.196-.531.453-.695.772a2.23 2.23 0 0 0-.242 1.028v.845c0 .496.087.918.26 1.265.178.348.424.614.74.797.315.18.684.27 1.105.27.274 0 .524-.038.749-.115a1.557 1.557 0 0 0 .961-.942l1.366.246a2.473 2.473 0 0 1-.589 1.058c-.28.3-.632.533-1.057.7a3.959 3.959 0 0 1-1.444.246zm6.226-.15-2.183-7.416h1.492l1.454 5.447h.072l1.458-5.447h1.492l1.449 5.422h.072l1.444-5.422h1.492l-2.177 7.417h-1.473l-1.507-5.356h-.111l-1.506 5.356h-1.468z"/><rect width="100" height="100" x="26.996" y="62.623" fill="#2DA66C" rx="50"/><path fill="#2DA66C" d="M77.137 112.764h50.141c0 13.807-5.712 26.307-14.785 35.356l-35.356-35.356z"/><path fill="#00743A" d="M77.137 112.766h50.141c0-13.808-5.712-26.308-14.785-35.356l-35.356 35.356z" opacity=".9"/><path fill="#00561C" d="M77.136 112.765V62.623c13.808 0 26.308 5.712 35.356 14.786l-35.356 35.356z"/><path fill="#666" d="M157.479 78.264c0 .792-.145 1.473-.434 2.042a3.191 3.191 0 0 1-1.192 1.311 3.242 3.242 0 0 1-1.713.457 3.27 3.27 0 0 1-1.72-.457c-.502-.306-.898-.745-1.188-1.314-.29-.57-.434-1.25-.434-2.04 0-.791.144-1.47.434-2.038.29-.57.686-1.007 1.188-1.311.505-.307 1.078-.46 1.72-.46.64 0 1.211.153 1.713.46.505.304.902.741 1.192 1.31.289.568.434 1.248.434 2.04zm-1.108 0c0-.604-.098-1.112-.293-1.525-.193-.415-.459-.73-.797-.942a2.071 2.071 0 0 0-1.141-.322c-.427 0-.809.108-1.144.323-.336.212-.601.526-.797.941-.193.413-.29.921-.29 1.525 0 .603.097 1.113.29 1.528.196.413.461.727.797.942.335.212.717.318 1.144.318.425 0 .805-.106 1.141-.318.338-.215.604-.53.797-.942.195-.415.293-.925.293-1.528zm5.949 1.401V76.41h1.086v5.563h-1.065v-.963h-.057a1.74 1.74 0 0 1-.616.742c-.28.196-.629.294-1.047.294-.357 0-.673-.079-.949-.236a1.658 1.658 0 0 1-.644-.706c-.155-.311-.232-.697-.232-1.155V76.41h1.083v3.407c0 .38.105.681.315.906.21.224.483.337.818.337.203 0 .405-.051.605-.153.203-.101.371-.254.504-.46.135-.205.201-.466.199-.782zm5.146-3.256v.87h-3.038v-.87h3.038zm-2.223-1.332h1.082v5.262c0 .21.032.368.095.474a.487.487 0 0 0 .242.214.98.98 0 0 0 .33.054c.087 0 .163-.006.228-.018l.152-.029.196.895a2.12 2.12 0 0 1-.703.116 1.91 1.91 0 0 1-.797-.153 1.366 1.366 0 0 1-.597-.492c-.152-.222-.228-.501-.228-.837v-5.486zm8.48 7.007c-.521 0-.976-.12-1.365-.358a2.418 2.418 0 0 1-.906-1.003c-.214-.43-.322-.932-.322-1.507 0-.577.108-1.081.322-1.514.215-.432.517-.767.906-1.006.389-.24.844-.359 1.365-.359.522 0 .977.12 1.365.359.389.239.691.574.906 1.006.215.433.322.937.322 1.514 0 .575-.107 1.077-.322 1.507-.215.43-.517.764-.906 1.003-.388.239-.843.358-1.365.358zm.004-.909c.338 0 .618-.089.84-.268.222-.178.386-.416.492-.713a2.83 2.83 0 0 0 .163-.981c0-.355-.054-.681-.163-.978a1.59 1.59 0 0 0-.492-.72c-.222-.182-.502-.272-.84-.272-.341 0-.623.09-.848.271a1.621 1.621 0 0 0-.496.72 2.89 2.89 0 0 0-.159.979c0 .357.053.684.159.981.109.297.274.535.496.713.225.18.507.268.848.268zm6.454-4.766v.87h-3.144v-.87h3.144zm-2.282 5.563v-6.207c0-.348.076-.636.228-.866a1.4 1.4 0 0 1 .605-.517 1.93 1.93 0 0 1 .819-.174c.217 0 .403.018.557.054.155.034.269.065.344.094l-.253.877a5.163 5.163 0 0 0-.196-.051 1.112 1.112 0 0 0-.29-.033c-.263 0-.451.065-.564.196-.112.13-.167.319-.167.565v6.062h-1.083zm8.711-5.563v.87h-3.038v-.87h3.038zm-2.223-1.332h1.083v5.262c0 .21.031.368.094.474a.493.493 0 0 0 .243.214.97.97 0 0 0 .329.054c.087 0 .163-.006.228-.018l.152-.029.196.895a2.12 2.12 0 0 1-.703.116 1.903 1.903 0 0 1-.796-.153 1.363 1.363 0 0 1-.598-.492c-.152-.222-.228-.501-.228-.837v-5.486zm5.768 7.007c-.549 0-1.021-.117-1.417-.35a2.385 2.385 0 0 1-.912-.997c-.213-.43-.319-.933-.319-1.51 0-.57.106-1.072.319-1.507.215-.434.514-.773.898-1.017.386-.244.838-.366 1.354-.366.314 0 .619.052.913.156.295.104.559.267.793.489.234.222.419.51.554.865.135.353.203.781.203 1.286v.384h-4.422v-.811h3.361c0-.285-.058-.538-.174-.757a1.316 1.316 0 0 0-1.22-.717c-.305 0-.57.074-.797.224-.225.147-.398.34-.522.58-.12.236-.181.493-.181.771v.634c0 .371.066.688.196.949.133.26.317.46.554.597.237.135.513.203.829.203.206 0 .393-.03.562-.087a1.163 1.163 0 0 0 .72-.706l1.025.185a1.85 1.85 0 0 1-.442.793c-.21.224-.474.4-.793.525a2.963 2.963 0 0 1-1.082.184zm4.679-3.415v3.303h-1.083V76.41h1.039v.906h.069c.128-.295.329-.531.601-.71.276-.179.622-.268 1.04-.268a2 2 0 0 1 .996.24c.285.156.505.39.662.702.157.311.236.696.236 1.155v3.538h-1.083v-3.408c0-.403-.105-.718-.315-.945-.21-.23-.499-.344-.866-.344-.251 0-.474.054-.67.163a1.177 1.177 0 0 0-.46.478 1.579 1.579 0 0 0-.166.753zm7.103 3.412c-.449 0-.85-.115-1.202-.344a2.337 2.337 0 0 1-.826-.989c-.198-.43-.297-.945-.297-1.546 0-.602.1-1.116.3-1.543.203-.427.481-.755.833-.982a2.17 2.17 0 0 1 1.199-.34c.345 0 .623.058.833.174.213.113.377.246.493.398.118.152.21.286.275.402h.065v-2.756h1.083v7.417h-1.058v-.865h-.09a2.788 2.788 0 0 1-.283.405c-.12.152-.287.285-.499.399-.213.113-.488.17-.826.17zm.239-.924c.311 0 .575-.082.789-.246.218-.166.382-.397.493-.692.113-.294.17-.637.17-1.028 0-.386-.055-.725-.166-1.014a1.488 1.488 0 0 0-.489-.677c-.215-.162-.481-.243-.797-.243-.326 0-.598.084-.815.253a1.55 1.55 0 0 0-.492.692 2.813 2.813 0 0 0-.163.989c0 .372.055.706.166 1.003.111.297.275.532.493.706.219.172.49.257.811.257zm6.468.927c-.548 0-1.02-.117-1.416-.35a2.385 2.385 0 0 1-.912-.997c-.213-.43-.319-.933-.319-1.51 0-.57.106-1.072.319-1.507.215-.434.514-.773.898-1.017.386-.244.838-.366 1.354-.366.314 0 .618.052.913.156.294.104.559.267.793.489.234.222.419.51.554.865.135.353.203.781.203 1.286v.384h-4.422v-.811h3.361c0-.285-.058-.538-.174-.757a1.316 1.316 0 0 0-1.22-.717c-.305 0-.57.074-.797.224-.225.147-.399.34-.522.58-.12.236-.181.493-.181.771v.634c0 .371.065.688.196.949.133.26.317.46.554.597.236.135.513.203.829.203.205 0 .393-.03.562-.087a1.163 1.163 0 0 0 .72-.706l1.025.185a1.85 1.85 0 0 1-.442.793c-.21.224-.474.4-.793.525a2.965 2.965 0 0 1-1.083.184zm3.597-.112V76.41h1.046v.884h.058c.102-.3.28-.535.536-.706.259-.174.551-.26.877-.26a4.582 4.582 0 0 1 .46.025v1.035a1.97 1.97 0 0 0-.232-.04 2.21 2.21 0 0 0-.333-.025c-.256 0-.484.054-.685.163a1.202 1.202 0 0 0-.47.445 1.204 1.204 0 0 0-.174.645v3.397h-1.083z"/><path fill="#000" d="M218.701 80.524v-.906l3.205-5.063h.713v1.333h-.453l-2.292 3.629v.058h4.393v.949h-5.566zm3.516 1.448v-1.724l.007-.413v-5.28h1.061v7.417h-1.068zm5.769.102a2.79 2.79 0 0 1-1.224-.261 2.216 2.216 0 0 1-.862-.725 1.907 1.907 0 0 1-.344-1.05h1.086c.027.319.168.58.424.786.256.205.562.308.92.308a1.399 1.399 0 0 0 1.278-.742c.128-.232.192-.497.192-.794 0-.301-.065-.57-.196-.807a1.442 1.442 0 0 0-.539-.558 1.525 1.525 0 0 0-.782-.206c-.225 0-.451.038-.678.116a1.56 1.56 0 0 0-.55.304l-1.025-.152.416-3.738h4.078v.96h-3.147l-.235 2.075h.043a1.73 1.73 0 0 1 .576-.351c.241-.094.5-.141.775-.141a2.273 2.273 0 0 1 2.043 1.202c.205.37.306.794.304 1.275a2.48 2.48 0 0 1-.326 1.285 2.356 2.356 0 0 1-.906.891 2.656 2.656 0 0 1-1.321.323zm7.755-1.492v-.392c0-.28.058-.536.174-.767a1.39 1.39 0 0 1 .515-.562c.226-.142.5-.213.822-.213.328 0 .603.07.825.21.222.14.39.327.504.561.116.234.174.491.174.771v.392c0 .28-.058.537-.174.77a1.39 1.39 0 0 1-.511.562c-.222.14-.495.21-.818.21-.326 0-.602-.07-.826-.21a1.39 1.39 0 0 1-.511-.561 1.714 1.714 0 0 1-.174-.771zm.844-.392v.392c0 .207.05.396.149.565.099.168.271.253.518.253.243 0 .414-.085.51-.254a1.11 1.11 0 0 0 .145-.564v-.392c0-.207-.047-.396-.141-.565-.092-.169-.263-.253-.514-.253-.242 0-.413.084-.515.253a1.08 1.08 0 0 0-.152.565zm-4.574-3.853v-.391c0-.28.058-.537.174-.771a1.39 1.39 0 0 1 .514-.562c.227-.14.501-.21.822-.21.329 0 .604.07.826.21.222.14.39.327.504.562.113.234.17.49.17.771v.391c0 .28-.058.537-.174.772a1.374 1.374 0 0 1-.507.56c-.222.14-.495.21-.819.21-.328 0-.604-.07-.829-.21a1.403 1.403 0 0 1-.507-.56 1.714 1.714 0 0 1-.174-.772zm.848-.391v.391c0 .208.048.396.145.565.099.169.271.254.517.254.242 0 .411-.085.507-.254.099-.169.149-.357.149-.565v-.391c0-.208-.047-.396-.141-.565-.094-.169-.266-.254-.515-.254-.241 0-.412.085-.514.254a1.097 1.097 0 0 0-.148.565zm-.504 6.026 5.099-7.417h.866l-5.099 7.417h-.866z"/><circle cx="142.574" cy="77.921" r="1.7" fill="#2DA66C"/><path fill="#666" d="M157.197 145.805h-1.13a1.74 1.74 0 0 0-.677-1.104 1.88 1.88 0 0 0-.576-.29 2.257 2.257 0 0 0-.67-.098c-.428 0-.81.107-1.148.322-.336.215-.601.53-.797.946-.193.415-.29.922-.29 1.521 0 .603.097 1.113.29 1.528.196.415.462.729.8.941.338.213.719.319 1.141.319.234 0 .456-.031.667-.094.212-.065.404-.161.575-.286a1.749 1.749 0 0 0 .685-1.09l1.13.003a3.03 3.03 0 0 1-.352 1.007 2.779 2.779 0 0 1-.662.79 3 3 0 0 1-.92.51 3.394 3.394 0 0 1-1.13.181c-.642 0-1.214-.152-1.717-.456-.502-.306-.898-.745-1.188-1.314-.287-.57-.43-1.25-.43-2.039 0-.792.144-1.472.434-2.039.29-.57.686-1.007 1.188-1.311.502-.307 1.073-.46 1.713-.46.393 0 .76.057 1.101.17.343.111.651.275.923.493.273.214.499.478.678.789.178.309.299.663.362 1.061zm3.604 5.117c-.522 0-.977-.119-1.366-.358a2.42 2.42 0 0 1-.905-1.003c-.215-.43-.323-.932-.323-1.507 0-.577.108-1.082.323-1.514.215-.432.516-.767.905-1.007.389-.239.844-.358 1.366-.358.521 0 .976.119 1.365.358.389.24.69.575.905 1.007.215.432.323.937.323 1.514 0 .575-.108 1.077-.323 1.507a2.42 2.42 0 0 1-.905 1.003c-.389.239-.844.358-1.365.358zm.003-.909c.338 0 .618-.089.84-.268.222-.178.387-.416.493-.713.108-.297.163-.624.163-.982 0-.354-.055-.68-.163-.977a1.59 1.59 0 0 0-.493-.721c-.222-.181-.502-.272-.84-.272-.34 0-.623.091-.847.272a1.611 1.611 0 0 0-.496.721c-.107.297-.16.623-.16.977 0 .358.053.685.16.982.108.297.274.535.496.713.224.179.507.268.847.268zm3.807.797v-5.563h1.039v.906h.069c.116-.307.305-.546.568-.717a1.68 1.68 0 0 1 .946-.261c.371 0 .683.087.934.261.254.174.441.413.561.717h.058c.133-.297.344-.534.634-.71.29-.179.635-.268 1.036-.268.504 0 .916.158 1.235.474.321.317.481.794.481 1.431v3.73h-1.082v-3.629c0-.376-.103-.649-.308-.818a1.12 1.12 0 0 0-.735-.254c-.353 0-.627.109-.822.326-.196.215-.294.492-.294.83v3.545h-1.079v-3.698c0-.301-.094-.544-.283-.727-.188-.184-.433-.276-.735-.276-.205 0-.394.055-.568.163a1.196 1.196 0 0 0-.417.446c-.104.19-.155.411-.155.662v3.43h-1.083zm9.021 2.086v-7.649h1.058v.902h.09c.063-.116.154-.25.272-.402.118-.152.282-.285.492-.398.21-.116.488-.174.833-.174.449 0 .85.113 1.203.34.352.227.629.554.829.982.203.427.304.941.304 1.543 0 .601-.1 1.116-.3 1.546a2.355 2.355 0 0 1-.826.989c-.35.229-.75.344-1.199.344-.338 0-.614-.057-.829-.171a1.562 1.562 0 0 1-.5-.398 2.985 2.985 0 0 1-.279-.405h-.065v2.951h-1.083zm1.061-4.867c0 .391.057.734.171 1.028.113.295.277.525.492.692.215.164.478.246.79.246.323 0 .594-.085.811-.257.217-.174.381-.409.492-.706a2.78 2.78 0 0 0 .171-1.003c0-.367-.056-.697-.167-.989a1.516 1.516 0 0 0-.493-.692c-.217-.169-.488-.253-.814-.253-.314 0-.58.081-.797.242a1.49 1.49 0 0 0-.489.678 2.82 2.82 0 0 0-.167 1.014zm6.325-4.636v7.417h-1.083v-7.417h1.083zm3.863 7.529c-.549 0-1.021-.117-1.417-.351a2.39 2.39 0 0 1-.912-.996c-.213-.43-.319-.933-.319-1.51 0-.57.106-1.072.319-1.507.215-.434.514-.773.898-1.017.386-.244.838-.366 1.354-.366.314 0 .619.052.913.156.295.104.559.266.793.489.234.222.419.51.554.865.135.353.203.781.203 1.286v.384h-4.422v-.812h3.361c0-.284-.058-.537-.174-.756a1.313 1.313 0 0 0-.489-.526 1.363 1.363 0 0 0-.731-.192c-.305 0-.57.075-.797.225-.225.147-.398.34-.522.579-.12.237-.181.494-.181.772v.634c0 .371.066.688.196.948.133.261.317.46.554.598.237.135.513.203.829.203.206 0 .393-.029.562-.087a1.158 1.158 0 0 0 .72-.706l1.025.184a1.852 1.852 0 0 1-.442.794 2.15 2.15 0 0 1-.793.525 2.968 2.968 0 0 1-1.082.184zm6.193-5.675v.87h-3.039v-.87h3.039zm-2.224-1.332h1.083v5.262c0 .21.031.368.094.474a.495.495 0 0 0 .243.214.975.975 0 0 0 .329.054c.087 0 .163-.006.228-.018l.153-.029.195.895a1.834 1.834 0 0 1-.268.072 2.07 2.07 0 0 1-.435.043 1.89 1.89 0 0 1-.796-.152 1.361 1.361 0 0 1-.598-.492c-.152-.222-.228-.501-.228-.837v-5.486zm5.768 7.007c-.548 0-1.02-.117-1.416-.351a2.386 2.386 0 0 1-.913-.996c-.212-.43-.319-.933-.319-1.51 0-.57.107-1.072.319-1.507.215-.434.514-.773.898-1.017.386-.244.838-.366 1.355-.366.313 0 .618.052.912.156.295.104.559.266.793.489.235.222.419.51.554.865.136.353.203.781.203 1.286v.384h-4.422v-.812h3.361c0-.284-.058-.537-.174-.756a1.313 1.313 0 0 0-.489-.526 1.363 1.363 0 0 0-.731-.192c-.304 0-.57.075-.797.225-.224.147-.398.34-.521.579a1.672 1.672 0 0 0-.181.772v.634c0 .371.065.688.195.948.133.261.318.46.554.598.237.135.513.203.83.203.205 0 .392-.029.561-.087a1.172 1.172 0 0 0 .721-.706l1.024.184a1.86 1.86 0 0 1-.441.794c-.21.224-.475.399-.793.525a2.977 2.977 0 0 1-1.083.184z"/><path fill="#000" d="M203.721 143.393v7.417h-1.123v-6.294h-.043l-1.775 1.159v-1.072l1.851-1.21h1.09zm4.463 7.518a2.79 2.79 0 0 1-1.224-.26 2.229 2.229 0 0 1-.862-.725 1.904 1.904 0 0 1-.344-1.05h1.086c.027.319.168.581.424.786.256.205.563.308.92.308a1.392 1.392 0 0 0 1.278-.743 1.61 1.61 0 0 0 .192-.793c0-.301-.065-.571-.195-.807a1.441 1.441 0 0 0-.54-.558 1.52 1.52 0 0 0-.782-.206c-.225 0-.45.038-.677.115a1.581 1.581 0 0 0-.551.305l-1.025-.152.417-3.738h4.078v.96h-3.147l-.236 2.075h.044c.145-.14.336-.257.575-.351.242-.094.5-.142.775-.142a2.267 2.267 0 0 1 2.043 1.203c.205.369.307.794.304 1.275.003.48-.106.909-.326 1.285a2.355 2.355 0 0 1-.905.891 2.66 2.66 0 0 1-1.322.322zm7.756-1.492v-.391c0-.28.058-.536.174-.767.118-.235.289-.422.514-.562a1.52 1.52 0 0 1 .822-.214c.328 0 .604.071.826.211.222.14.39.327.503.561.116.234.174.491.174.771v.391c0 .28-.058.538-.174.772a1.39 1.39 0 0 1-.51.561c-.223.14-.495.21-.819.21-.326 0-.601-.07-.826-.21a1.39 1.39 0 0 1-.51-.561 1.716 1.716 0 0 1-.174-.772zm.844-.391v.391c0 .208.049.396.148.565.099.169.272.254.518.254.244 0 .414-.085.511-.254.096-.169.145-.357.145-.565v-.391c0-.207-.048-.396-.142-.565-.091-.169-.263-.253-.514-.253-.241 0-.413.084-.514.253a1.073 1.073 0 0 0-.152.565zm-4.574-3.853v-.391c0-.28.058-.537.174-.772.118-.234.289-.421.514-.561.227-.14.501-.21.822-.21.328 0 .603.07.826.21.222.14.39.327.503.561.113.235.17.492.17.772v.391c0 .28-.058.537-.174.771a1.364 1.364 0 0 1-.507.562c-.222.14-.495.21-.818.21-.328 0-.605-.07-.829-.21a1.392 1.392 0 0 1-.507-.562 1.712 1.712 0 0 1-.174-.771zm.847-.391v.391c0 .208.048.396.145.565.099.169.272.253.518.253.241 0 .41-.084.507-.253.099-.169.148-.357.148-.565v-.391c0-.208-.047-.396-.141-.565-.094-.169-.265-.254-.514-.254-.242 0-.413.085-.514.254a1.097 1.097 0 0 0-.149.565zm-.503 6.026 5.099-7.417h.865l-5.099 7.417h-.865z"/><circle cx="142.574" cy="146.759" r="1.7" fill="#00561C"/><path fill="#666" d="M151.663 104.918h-1.188l2.669-7.416h1.293l2.669 7.416h-1.188l-2.097-6.07h-.057l-2.101 6.07zm.199-2.904h3.854v.942h-3.854v-.942zm6.746 2.904-1.637-5.562h1.119l1.09 4.085h.054l1.094-4.085h1.119l1.086 4.067h.055l1.083-4.067h1.119l-1.634 5.562h-1.104l-1.13-4.016h-.083l-1.13 4.016h-1.101zm8.837.124a2.28 2.28 0 0 1-.957-.196 1.62 1.62 0 0 1-.677-.576c-.164-.251-.246-.559-.246-.923 0-.314.06-.572.181-.775.121-.203.284-.364.489-.482.205-.118.435-.208.688-.268.254-.06.512-.106.775-.138l.811-.094c.208-.026.359-.069.453-.126.094-.058.141-.153.141-.283v-.025c0-.317-.089-.562-.268-.735-.176-.174-.439-.261-.789-.261-.365 0-.652.081-.862.242a1.3 1.3 0 0 0-.431.533l-1.018-.232c.121-.338.297-.611.529-.819a2.14 2.14 0 0 1 .808-.456 3.168 3.168 0 0 1 1.665-.065c.252.05.486.145.703.282.22.138.4.335.54.591.14.253.21.583.21.989v3.693h-1.058v-.76h-.043c-.07.14-.175.278-.315.413-.14.135-.32.247-.54.337a2.1 2.1 0 0 1-.789.134zm.235-.87c.299 0 .555-.059.768-.177.215-.118.378-.273.489-.464.113-.193.17-.399.17-.619v-.717a.567.567 0 0 1-.225.109 3.522 3.522 0 0 1-.373.083l-.409.062c-.133.016-.244.031-.333.043-.21.027-.402.071-.576.134a.99.99 0 0 0-.413.272.68.68 0 0 0-.152.463c0 .268.099.471.297.609.198.135.45.202.757.202zm3.96.746v-5.562h1.083v5.562h-1.083zm.547-6.42a.688.688 0 0 1-.485-.189.611.611 0 0 1-.199-.456c0-.179.066-.33.199-.456a.68.68 0 0 1 .485-.192c.189 0 .349.064.482.192a.6.6 0 0 1 .203.456.608.608 0 0 1-.203.456.676.676 0 0 1-.482.189zm4.598.858v.869h-3.038v-.87h3.038zm-2.223-1.333h1.082v5.262c0 .21.032.368.095.475a.486.486 0 0 0 .242.213.98.98 0 0 0 .33.055c.087 0 .163-.006.228-.019.065-.012.116-.021.152-.029l.196.895a2.13 2.13 0 0 1-.703.116 1.91 1.91 0 0 1-.797-.152 1.366 1.366 0 0 1-.597-.493c-.152-.222-.228-.501-.228-.836v-5.487zm3.429 6.895v-5.562h1.083v5.562h-1.083zm.547-6.42a.688.688 0 0 1-.485-.189.611.611 0 0 1-.199-.456c0-.179.066-.33.199-.456a.68.68 0 0 1 .485-.192c.189 0 .349.064.482.192a.6.6 0 0 1 .203.456.608.608 0 0 1-.203.456.676.676 0 0 1-.482.189zm3.084 3.118v3.302h-1.082v-5.562h1.039v.905h.069c.128-.294.328-.531.601-.71.275-.178.622-.268 1.039-.268a2 2 0 0 1 .996.24c.285.156.506.39.663.702.157.311.235.697.235 1.155v3.538H184.1v-3.407c0-.404-.106-.719-.316-.946-.21-.229-.498-.344-.865-.344-.251 0-.475.055-.67.163a1.172 1.172 0 0 0-.46.478 1.582 1.582 0 0 0-.167.754zm7.353 5.504c-.441 0-.822-.058-1.14-.173a2.212 2.212 0 0 1-.775-.46 1.93 1.93 0 0 1-.45-.627l.931-.384c.065.106.152.219.261.337.111.121.261.223.449.308.191.084.436.127.735.127.411 0 .75-.101 1.018-.301.268-.198.402-.514.402-.949v-1.094h-.069c-.065.119-.159.25-.282.395a1.532 1.532 0 0 1-.5.377c-.213.106-.489.159-.83.159-.439 0-.835-.102-1.187-.308a2.18 2.18 0 0 1-.833-.916c-.203-.406-.305-.904-.305-1.496 0-.591.101-1.098.301-1.521.203-.422.48-.746.833-.97.352-.227.752-.34 1.199-.34.345 0 .624.057.836.173.213.114.378.247.496.399.121.152.214.286.279.402h.08v-.902h1.061v5.686c0 .478-.111.87-.333 1.177a1.961 1.961 0 0 1-.902.68 3.462 3.462 0 0 1-1.275.221zm-.011-3.183c.312 0 .575-.072.79-.217a1.37 1.37 0 0 0 .493-.63c.113-.276.17-.605.17-.989 0-.374-.056-.704-.167-.989a1.464 1.464 0 0 0-.489-.666c-.215-.162-.48-.243-.797-.243-.325 0-.597.085-.814.254a1.517 1.517 0 0 0-.493.681 2.695 2.695 0 0 0-.163.963c0 .364.056.684.167.96.111.275.275.49.492.644.22.155.49.232.811.232z"/><path fill="#000" d="M195.639 104.918v-.811l2.509-2.6c.268-.282.489-.53.663-.742.176-.215.308-.419.395-.612.087-.194.13-.399.13-.616 0-.246-.058-.459-.174-.638a1.132 1.132 0 0 0-.474-.416 1.507 1.507 0 0 0-.677-.148c-.266 0-.498.054-.695.163a1.117 1.117 0 0 0-.457.46 1.45 1.45 0 0 0-.159.695h-1.069c0-.452.104-.847.312-1.184.208-.338.492-.6.855-.786a2.634 2.634 0 0 1 1.235-.283c.466 0 .876.093 1.231.279.357.183.636.435.836.753.201.317.301.674.301 1.072 0 .275-.052.545-.156.808-.101.263-.279.556-.532.88-.254.321-.606.711-1.058 1.17l-1.473 1.542v.055h3.339v.959h-4.882zm8.845.124c-.572-.003-1.061-.154-1.467-.453-.406-.299-.716-.735-.931-1.307-.215-.573-.322-1.262-.322-2.068 0-.804.107-1.491.322-2.061.218-.57.529-1.004.935-1.304.408-.3.895-.449 1.463-.449.567 0 1.054.151 1.459.453.406.3.716.734.931 1.304.217.567.326 1.253.326 2.057 0 .808-.108 1.499-.322 2.071-.215.57-.526 1.006-.931 1.308-.406.299-.893.449-1.463.449zm0-.967c.502 0 .894-.245 1.177-.736.285-.49.427-1.198.427-2.125 0-.616-.065-1.136-.195-1.561-.128-.428-.313-.751-.555-.97a1.21 1.21 0 0 0-.854-.334c-.5 0-.892.246-1.177.739-.285.492-.429 1.201-.431 2.126 0 .618.064 1.14.192 1.568.13.425.315.747.554.967.239.217.526.326.862.326zm7.881-.547v-.391c0-.28.057-.536.173-.768.119-.234.29-.421.515-.561a1.51 1.51 0 0 1 .822-.214c.328 0 .603.07.825.21.223.14.39.327.504.561.116.234.174.492.174.772v.391c0 .28-.058.537-.174.771a1.395 1.395 0 0 1-.511.562c-.222.14-.495.21-.818.21-.326 0-.601-.07-.826-.21a1.395 1.395 0 0 1-.511-.562 1.711 1.711 0 0 1-.173-.771zm.843-.391v.391c0 .207.05.396.149.565.099.169.271.253.518.253.244 0 .414-.084.51-.253.097-.169.145-.358.145-.565v-.391c0-.208-.047-.396-.141-.565-.092-.169-.263-.254-.514-.254-.242 0-.413.085-.515.254a1.08 1.08 0 0 0-.152.565zm-4.574-3.854v-.39c0-.28.058-.538.174-.772.119-.234.29-.421.514-.561.227-.14.501-.21.823-.21.328 0 .603.07.825.21.222.14.39.327.504.56.113.235.17.492.17.772v.391c0 .28-.058.538-.174.772a1.356 1.356 0 0 1-.507.561c-.222.14-.495.21-.818.21-.329 0-.605-.07-.83-.21a1.397 1.397 0 0 1-.507-.561 1.715 1.715 0 0 1-.174-.772zm.848-.39v.39c0 .208.048.396.145.565.099.169.271.254.518.254.241 0 .41-.085.507-.254.099-.169.148-.357.148-.565v-.39c0-.208-.047-.397-.141-.566-.094-.169-.266-.253-.514-.253-.242 0-.413.084-.515.253a1.096 1.096 0 0 0-.148.565zm-.504 6.025 5.1-7.416h.865l-5.099 7.416h-.866z"/><circle cx="142.574" cy="100.868" r="1.7" fill="#10C15B"/><path fill="#666" d="M151.037 127.864v-7.417h2.643c.575 0 1.052.099 1.431.297.381.198.666.472.854.822.189.348.283.75.283 1.206 0 .454-.095.853-.286 1.199a1.932 1.932 0 0 1-.855.8c-.379.191-.856.286-1.43.286h-2.003v-.963h1.901c.362 0 .657-.052.884-.156.229-.104.397-.255.503-.453a1.49 1.49 0 0 0 .16-.713c0-.28-.055-.523-.163-.728a1.057 1.057 0 0 0-.504-.471c-.227-.111-.525-.166-.894-.166h-1.405v6.457h-1.119zm3.661-3.347 1.832 3.347h-1.274l-1.797-3.347h1.239zm5.161 3.459c-.548 0-1.02-.117-1.416-.351a2.386 2.386 0 0 1-.913-.996c-.212-.43-.318-.933-.318-1.51 0-.57.106-1.072.318-1.507.215-.434.515-.774.898-1.018.387-.243.838-.365 1.355-.365.314 0 .618.052.912.155.295.104.559.267.794.489.234.222.418.511.554.866.135.352.202.781.202 1.285v.384h-4.421v-.811h3.36a1.61 1.61 0 0 0-.173-.757 1.316 1.316 0 0 0-1.221-.717c-.304 0-.57.075-.797.225-.224.147-.398.34-.521.579a1.672 1.672 0 0 0-.181.772v.633c0 .372.065.688.195.949.133.261.318.46.554.598.237.135.513.203.83.203.205 0 .392-.029.561-.087.169-.061.315-.15.438-.268.123-.119.218-.265.283-.439l1.025.185c-.082.302-.23.566-.442.793-.21.225-.475.4-.793.525a2.973 2.973 0 0 1-1.083.185zm5.94 0c-.539 0-1.002-.122-1.391-.366a2.424 2.424 0 0 1-.891-1.017c-.208-.433-.311-.927-.311-1.485 0-.565.106-1.064.318-1.496.213-.434.512-.774.898-1.018.387-.243.842-.365 1.366-.365.422 0 .799.078 1.13.235.33.155.597.372.8.652.205.28.327.607.366.981h-1.054a1.266 1.266 0 0 0-.398-.673c-.206-.189-.481-.283-.826-.283-.302 0-.566.08-.793.239-.225.157-.4.382-.525.674-.126.29-.189.632-.189 1.028 0 .406.062.756.185 1.051.123.294.297.522.521.684.227.162.494.243.801.243.205 0 .391-.038.558-.112.169-.078.31-.188.423-.33.116-.142.197-.314.243-.514h1.054a2.006 2.006 0 0 1-1.137 1.629c-.326.162-.709.243-1.148.243zm5.849 0c-.548 0-1.02-.117-1.416-.351a2.386 2.386 0 0 1-.913-.996c-.212-.43-.319-.933-.319-1.51 0-.57.107-1.072.319-1.507a2.48 2.48 0 0 1 .898-1.018c.386-.243.838-.365 1.355-.365.313 0 .618.052.912.155.295.104.559.267.793.489.235.222.419.511.554.866.136.352.203.781.203 1.285v.384h-4.422v-.811h3.361c0-.285-.058-.537-.174-.757a1.316 1.316 0 0 0-1.22-.717c-.304 0-.57.075-.797.225-.224.147-.398.34-.521.579a1.672 1.672 0 0 0-.181.772v.633c0 .372.065.688.195.949.133.261.318.46.554.598.237.135.513.203.83.203.205 0 .392-.029.561-.087.169-.061.315-.15.438-.268.123-.119.217-.265.283-.439l1.024.185a1.857 1.857 0 0 1-.441.793c-.21.225-.475.4-.793.525a2.977 2.977 0 0 1-1.083.185zm3.596-.112v-5.563h1.083v5.563h-1.083zm.547-6.421a.687.687 0 0 1-.485-.189.61.61 0 0 1-.199-.456c0-.178.066-.331.199-.456a.68.68 0 0 1 .485-.192.67.67 0 0 1 .482.192.6.6 0 0 1 .203.456.606.606 0 0 1-.203.456.676.676 0 0 1-.482.189zm6.76.858-2.017 5.563h-1.159l-2.021-5.563h1.163l1.408 4.281h.058l1.405-4.281h1.163zm3.234 5.675c-.548 0-1.02-.117-1.416-.351a2.39 2.39 0 0 1-.912-.996c-.213-.43-.319-.933-.319-1.51 0-.57.106-1.072.319-1.507a2.48 2.48 0 0 1 .898-1.018c.386-.243.838-.365 1.354-.365.314 0 .618.052.913.155.294.104.559.267.793.489.234.222.419.511.554.866.135.352.203.781.203 1.285v.384h-4.422v-.811h3.361c0-.285-.058-.537-.174-.757a1.316 1.316 0 0 0-1.22-.717c-.305 0-.57.075-.797.225a1.5 1.5 0 0 0-.522.579c-.12.237-.181.494-.181.772v.633c0 .372.065.688.196.949.133.261.317.46.554.598.236.135.513.203.829.203.205 0 .393-.029.562-.087.169-.061.315-.15.438-.268a1.17 1.17 0 0 0 .282-.439l1.025.185a1.848 1.848 0 0 1-.442.793c-.21.225-.474.4-.793.525a2.97 2.97 0 0 1-1.083.185zm5.679-.004c-.449 0-.85-.114-1.202-.344-.35-.231-.625-.561-.826-.988-.198-.43-.297-.946-.297-1.547s.1-1.115.301-1.542c.203-.428.48-.755.833-.982.352-.227.752-.34 1.198-.34.346 0 .623.058.833.174.213.113.377.246.493.398.118.152.21.286.275.402h.065v-2.756h1.083v7.417h-1.057v-.866h-.091a2.81 2.81 0 0 1-.282.406 1.573 1.573 0 0 1-.5.398c-.213.114-.488.17-.826.17zm.239-.923c.312 0 .575-.082.79-.246.217-.167.381-.397.492-.692.114-.295.17-.637.17-1.029 0-.386-.055-.724-.166-1.014a1.493 1.493 0 0 0-.489-.677c-.215-.162-.48-.242-.797-.242-.326 0-.597.084-.815.253-.217.169-.381.4-.492.692a2.809 2.809 0 0 0-.163.988c0 .372.055.707.167 1.004.111.297.275.532.492.706.22.171.49.257.811.257z"/><path fill="#000" d="M198.467 127.864v-.811l2.51-2.601c.268-.282.489-.53.663-.742.176-.215.307-.419.394-.612.087-.193.131-.399.131-.616 0-.246-.058-.459-.174-.637a1.14 1.14 0 0 0-.475-.417 1.506 1.506 0 0 0-.677-.148 1.42 1.42 0 0 0-.695.163 1.11 1.11 0 0 0-.456.46c-.107.198-.16.429-.16.695h-1.068c0-.451.104-.846.311-1.184.208-.338.493-.6.855-.786a2.642 2.642 0 0 1 1.235-.283c.466 0 .876.093 1.231.279.358.184.636.435.837.754.2.316.3.673.3 1.072 0 .275-.051.544-.155.807-.102.263-.279.557-.533.88a15.05 15.05 0 0 1-1.057 1.17l-1.474 1.543v.054h3.339v.96h-4.882zm8.845.123c-.572-.003-1.061-.153-1.467-.453-.405-.299-.715-.735-.93-1.307-.359-.069.453-.127.094-.058.141-.152.141-.282v-.025c0-.317-.089-.562-.268-.736-.176-.173-.439-.26-.79-.26-.364 0-.651.081-.861.242a1.3 1.3 0 0 0-.431.533l-1.018-.232c.121-.338.297-.611.53-.819.233-.21.502-.362.807-.456a3.17 3.17 0 0 1 1.666-.065c.25.051.485.145.702.282.22.138.4.335.54.591.14.253.21.583.21.988v3.694h-1.058v-.76h-.043c-.07.14-.175.277-.315.413a1.67 1.67 0 0 1-.54.336 2.08 2.08 0 0 1-.79.134zm.235-.869c.3 0 .555-.059.768-.177a1.24 1.24 0 0 0 .489-.464 1.2 1.2 0 0 0 .17-.619v-.717a.561.561 0 0 1-.224.109 3.562 3.562 0 0 1-.373.083c-.14.022-.277.042-.41.061l-.333.044a2.64 2.64 0 0 0-.576.134.985.985 0 0 0-.413.272.676.676 0 0 0-.152.463c0 .268.1.471.297.609.198.135.45.202.757.202zm8.129-3.458-.981.174a1.167 1.167 0 0 0-.196-.359.978.978 0 0 0-.355-.279 1.292 1.292 0 0 0-.561-.108c-.307 0-.563.068-.768.206-.205.135-.308.31-.308.525 0 .186.069.336.207.449.137.114.36.207.666.279l.884.203c.511.118.893.3 1.144.547.251.246.377.566.377.959 0 .334-.097.631-.29.891a1.9 1.9 0 0 1-.8.609c-.34.147-.736.221-1.185.221-.623 0-1.13-.133-1.524-.399-.394-.268-.635-.648-.725-1.141l1.047-.159a1 1 0 0 0 .402.619c.203.138.467.207.793.207.355 0 .639-.074.851-.221.213-.15.319-.332.319-.547a.567.567 0 0 0-.196-.438c-.128-.118-.325-.208-.59-.268l-.942-.207c-.519-.118-.903-.306-1.151-.565-.247-.258-.37-.585-.37-.981a1.4 1.4 0 0 1 .276-.862c.183-.246.437-.438.76-.576.324-.14.694-.21 1.112-.21.601 0 1.074.131 1.42.391.345.259.573.605.684 1.04zm3.904-1.358v.869H44.34v-.869h3.038zm-2.223-1.333h1.083v5.262c0 .21.03.368.094.474a.493.493 0 0 0 .242.214.978.978 0 0 0 .33.054c.087 0 .163-.006.228-.018.065-.012.116-.021.152-.029l.196.895a2.127 2.127 0 0 1-.703.116 1.908 1.908 0 0 1-.797-.152 1.374 1.374 0 0 1-.597-.493c-.152-.222-.228-.501-.228-.836v-5.487zm9.66 4.588v-3.255h1.087v5.562h-1.064v-.963h-.058a1.735 1.735 0 0 1-.616.742c-.28.196-.629.294-1.047.294-.357 0-.673-.079-.949-.236a1.648 1.648 0 0 1-.644-.706c-.155-.311-.232-.696-.232-1.155v-3.538h1.083v3.408c0 .379.105.68.315.905.21.224.483.337.819.337a1.333 1.333 0 0 0 1.108-.612c.135-.206.201-.466.199-.783zm2.55 4.393v-7.648h1.058v.901h.09c.063-.115.154-.249.272-.402.119-.152.283-.284.493-.398.21-.116.488-.174.833-.174.449 0 .85.114 1.202.341.353.227.63.554.83.981.202.427.304.942.304 1.543s-.1 1.117-.3 1.546a2.35 2.35 0 0 1-.827.989 2.14 2.14 0 0 1-1.198.344c-.338 0-.615-.057-.83-.17a1.565 1.565 0 0 1-.5-.399 3.028 3.028 0 0 1-.278-.405h-.065v2.951h-1.083zm1.062-4.867c0 .391.057.734.17 1.029.114.294.278.525.493.691.215.164.478.247.79.247.323 0 .593-.086.81-.258a1.59 1.59 0 0 0 .493-.706c.113-.297.17-.631.17-1.003 0-.367-.055-.697-.166-.989a1.513 1.513 0 0 0-.493-.691c-.217-.169-.489-.254-.815-.254-.314 0-.58.081-.797.243a1.49 1.49 0 0 0-.489.677c-.11.29-.166.628-.166 1.014zm7.324 2.89c-.45 0-.85-.115-1.203-.344a2.343 2.343 0 0 1-.825-.989c-.198-.429-.297-.945-.297-1.546 0-.601.1-1.116.3-1.543.203-.427.48-.754.833-.981a2.166 2.166 0 0 1 1.2-.341c.344 0 .622.058.832.174.212.114.377.246.492.398.119.153.21.287.276.402h.065v-2.756h1.083v7.417h-1.058v-.865h-.09a2.88 2.88 0 0 1-.283.405c-.12.153-.287.285-.5.399-.212.113-.487.17-.825.17zm.239-.923c.311 0 .575-.083.79-.247.217-.166.38-.397.492-.691.113-.295.17-.638.17-1.029 0-.386-.056-.724-.166-1.014a1.489 1.489 0 0 0-.49-.677c-.214-.162-.48-.243-.796-.243-.326 0-.598.085-.815.254a1.547 1.547 0 0 0-.493.691 2.821 2.821 0 0 0-.162.989c0 .372.055.706.166 1.003.111.297.275.533.493.706.22.172.49.258.81.258zm5.69.937a2.28 2.28 0 0 1-.957-.195 1.613 1.613 0 0 1-.677-.576c-.164-.251-.246-.559-.246-.923 0-.314.06-.573.181-.775a1.33 1.33 0 0 1 .489-.482c.205-.118.435-.208.688-.268.254-.06.512-.106.775-.138l.811-.094c.208-.026.359-.069.453-.127.094-.058.141-.152.141-.282v-.025c0-.317-.09-.562-.268-.736-.176-.173-.44-.26-.79-.26-.364 0-.651.081-.861.242a1.3 1.3 0 0 0-.431.533l-1.018-.232c.121-.338.297-.611.529-.819.234-.21.503-.362.808-.456a3.17 3.17 0 0 1 1.666-.065c.25.051.485.145.702.282.22.138.4.335.54.591.14.253.21.583.21.988v3.694h-1.058v-.76h-.043c-.07.14-.175.277-.315.413a1.67 1.67 0 0 1-.54.336 2.08 2.08 0 0 1-.79.134zm.235-.869c.3 0 .555-.059.768-.177a1.24 1.24 0 0 0 .489-.464 1.2 1.2 0 0 0 .17-.619v-.717a.561.561 0 0 1-.225.109 3.558 3.558 0 0 1-.373.083c-.14.022-.276.042-.409.061l-.333.044c-.21.026-.402.071-.576.134a.985.985 0 0 0-.413.272.676.676 0 0 0-.152.463c0 .268.1.471.297.609.198.135.45.202.757.202zm6.557-4.816v.869h-3.038v-.869h3.038zm-2.224-1.333h1.083v5.262c0 .21.032.368.094.474a.493.493 0 0 0 .243.214.978.978 0 0 0 .33.054c.087 0 .163-.006.228-.018.065-.012.116-.021.152-.029l.196.895a2.125 2.125 0 0 1-.703.116 1.908 1.908 0 0 1-.797-.152 1.374 1.374 0 0 1-.597-.493c-.152-.222-.228-.501-.228-.836v-5.487zm5.768 7.008c-.548 0-1.02-.117-1.416-.352a2.376 2.376 0 0 1-.913-.996c-.212-.429-.318-.933-.318-1.51 0-.57.106-1.072.319-1.506.214-.435.514-.774.898-1.018.386-.244.837-.366 1.354-.366.314 0 .618.052.913.156.294.104.559.267.793.489a2.3 2.3 0 0 1 .554.865c.135.353.203.781.203 1.286v.384H79.98v-.811h3.36c0-.285-.057-.537-.173-.757a1.315 1.315 0 0 0-1.22-.717c-.305 0-.57.075-.797.224a1.514 1.514 0 0 0-.522.58c-.12.236-.181.493-.181.771v.634c0 .372.065.688.196.949.132.26.317.46.554.597.236.135.513.203.829.203.205 0 .392-.029.561-.087a1.16 1.16 0 0 0 .72-.706l1.026.185a1.86 1.86 0 0 1-.442.793 2.15 2.15 0 0 1-.793.525 2.971 2.971 0 0 1-1.083.185zm8.647 0c-.521 0-.976-.12-1.365-.359a2.416 2.416 0 0 1-.906-1.003c-.214-.43-.322-.932-.322-1.507 0-.577.108-1.081.322-1.513.215-.433.517-.768.906-1.007.389-.239.844-.359 1.365-.359.522 0 .977.12 1.365.359.39.239.691.574.906 1.007.215.432.322.936.322 1.513 0 .575-.107 1.077-.322 1.507-.215.43-.517.764-.906 1.003-.388.239-.843.359-1.365.359zm.004-.909c.338 0 .618-.09.84-.268.222-.179.386-.417.493-.714.108-.297.163-.624.163-.981 0-.355-.055-.681-.163-.978a1.596 1.596 0 0 0-.493-.721c-.222-.181-.502-.271-.84-.271-.34 0-.623.09-.848.271a1.62 1.62 0 0 0-.496.721c-.106.297-.16.623-.16.978 0 .357.054.684.16.981.109.297.274.535.496.714.225.178.507.268.848.268zm4.89-2.506v3.302h-1.084v-5.562h1.04v.905h.069c.128-.294.328-.531.6-.71.276-.178.623-.268 1.04-.268.38 0 .711.08.996.239.285.157.506.391.663.703.157.311.235.696.235 1.155v3.538h-1.083v-3.408c0-.403-.105-.718-.315-.945-.21-.229-.498-.344-.865-.344-.251 0-.475.055-.67.163a1.174 1.174 0 0 0-.46.478 1.58 1.58 0 0 0-.167.754zm10.527-4.115v7.417h-1.123v-6.294h-.043l-1.775 1.159v-1.072l1.851-1.21h1.09zm4.597 7.519c-.498 0-.942-.086-1.333-.257a2.266 2.266 0 0 1-.923-.714 1.89 1.89 0 0 1-.363-1.065h1.138c.014.22.088.411.221.573.135.159.311.282.528.369.218.087.459.13.725.13.292 0 .55-.05.775-.152.227-.101.404-.242.532-.423.128-.184.192-.395.192-.634a1.14 1.14 0 0 0-.192-.656c-.126-.19-.31-.34-.554-.449a2.142 2.142 0 0 0-.877-.163h-.626v-.912h.626c.276 0 .517-.05.725-.149.21-.099.374-.236.492-.413a1.1 1.1 0 0 0 .178-.626c0-.23-.052-.429-.156-.598a1.046 1.046 0 0 0-.435-.402 1.417 1.417 0 0 0-.659-.145c-.241 0-.467.045-.677.134a1.248 1.248 0 0 0-.507.377.973.973 0 0 0-.21.583h-1.083a1.83 1.83 0 0 1 .355-1.057c.227-.305.526-.542.898-.714a2.932 2.932 0 0 1 1.239-.257c.475 0 .886.093 1.231.279.348.183.616.428.804.735.191.307.285.642.283 1.007.002.415-.114.768-.348 1.057-.232.29-.541.484-.927.583v.058c.492.075.874.271 1.144.587.273.316.408.709.406 1.177.002.408-.111.774-.341 1.097a2.318 2.318 0 0 1-.93.765 3.172 3.172 0 0 1-1.351.275zm6.808-.102v-7.417h4.599v.964h-3.48v2.26h3.151v.959h-3.151v3.234h-1.119zm7.886.113c-.548 0-1.02-.117-1.416-.352a2.378 2.378 0 0 1-.912-.996c-.213-.429-.319-.933-.319-1.51 0-.57.106-1.072.319-1.506.215-.435.514-.774.898-1.018.386-.244.838-.366 1.354-.366.314 0 .618.052.913.156.294.104.559.267.793.489a2.3 2.3 0 0 1 .554.865c.135.353.203.781.203 1.286v.384h-4.422v-.811h3.361c0-.285-.058-.537-.174-.757a1.316 1.316 0 0 0-1.221-.717c-.304 0-.569.075-.796.224a1.51 1.51 0 0 0-.522.58c-.12.236-.181.493-.181.771v.634c0 .372.065.688.196.949.133.26.317.46.554.597.236.135.513.203.829.203.205 0 .392-.029.561-.087a1.158 1.158 0 0 0 .721-.706l1.025.185a1.854 1.854 0 0 1-.442.793 2.15 2.15 0 0 1-.793.525 2.97 2.97 0 0 1-1.083.185zm3.684-.113v-7.417h1.083v2.756h.065a3.19 3.19 0 0 1 .271-.402c.119-.152.283-.284.493-.398.21-.116.488-.174.833-.174.449 0 .85.114 1.202.341.353.227.629.554.83.981.202.427.304.942.304 1.543s-.1 1.117-.301 1.546c-.2.428-.475.757-.826.989-.35.229-.749.344-1.198.344-.338 0-.615-.057-.83-.17a1.56 1.56 0 0 1-.499-.399 2.985 2.985 0 0 1-.279-.405h-.091v.865h-1.057zm1.061-2.781c0 .391.057.734.17 1.029.114.294.278.525.493.691.214.164.478.247.789.247.324 0 .594-.086.811-.258.218-.173.382-.409.493-.706.113-.297.17-.631.17-1.003 0-.367-.056-.697-.167-.989a1.504 1.504 0 0 0-.492-.691c-.217-.169-.489-.254-.815-.254-.314 0-.579.081-.797.243a1.488 1.488 0 0 0-.489.677c-.111.29-.166.628-.166 1.014zm6.653 1.767-.054.395c-.037.29-.098.592-.185.905a14.6 14.6 0 0 1-.264.88c-.09.271-.163.486-.221.645h-.768c.031-.15.075-.352.13-.608.056-.254.11-.538.163-.851.053-.314.093-.634.12-.96l.036-.406h1.043zm4.111 1.014v-.811l2.51-2.6c.268-.283.489-.53.662-.743a2.73 2.73 0 0 0 .395-.612 1.48 1.48 0 0 0 .131-.615c0-.247-.058-.459-.174-.638a1.13 1.13 0 0 0-.475-.416 1.507 1.507 0 0 0-.677-.149 1.43 1.43 0 0 0-.695.163c-.198.109-.35.262-.457.46-.106.198-.159.43-.159.696h-1.068c0-.452.104-.847.311-1.185.208-.338.493-.6.855-.785a2.63 2.63 0 0 1 1.235-.283c.466 0 .876.093 1.231.279.358.183.636.434.837.753.2.316.3.674.3 1.072 0 .275-.052.545-.155.808-.102.263-.279.556-.533.88a15.05 15.05 0 0 1-1.057 1.17l-1.474 1.542v.055h3.339v.959h-4.882zm8.845.123c-.572-.002-1.061-.153-1.467-.452-.405-.3-.716-.735-.93-1.308-.215-.572-.323-1.261-.323-2.067 0-.804.108-1.491.323-2.061.217-.57.528-1.004.934-1.304.408-.299.896-.449 1.463-.449.567 0 1.054.151 1.46.453.405.299.715.734.93 1.303.218.568.326 1.254.326 2.058 0 .808-.107 1.499-.322 2.071-.215.57-.525 1.006-.931 1.307-.405.3-.893.449-1.463.449zm0-.966c.502 0 .895-.246 1.177-.736.285-.49.427-1.198.427-2.125 0-.616-.065-1.136-.195-1.561-.128-.428-.313-.751-.554-.971a1.213 1.213 0 0 0-.855-.333c-.5 0-.892.246-1.177.739-.285.492-.428 1.201-.431 2.126 0 .618.064 1.14.192 1.568.13.425.315.747.554.967.239.217.526.326.862.326zm4.009.843v-.811l2.51-2.6c.268-.283.489-.53.663-.743.176-.214.308-.418.395-.612.087-.193.13-.398.13-.615 0-.247-.058-.459-.174-.638a1.134 1.134 0 0 0-.474-.416 1.51 1.51 0 0 0-.677-.149c-.266 0-.498.055-.696.163-.198.109-.35.262-.456.46-.106.198-.159.43-.159.696h-1.069c0-.452.104-.847.312-1.185.207-.338.492-.6.854-.785a2.63 2.63 0 0 1 1.235-.283c.466 0 .877.093 1.232.279.357.183.636.434.836.753.201.316.301.674.301 1.072 0 .275-.052.545-.156.808-.101.263-.279.556-.532.88-.254.321-.606.711-1.058 1.17l-1.474 1.542v.055h3.339v.959h-4.882zm5.948-1.448v-.906l3.205-5.063h.714v1.333h-.453l-2.292 3.629v.058h4.393v.949h-5.567zm3.517 1.448v-1.724l.007-.412v-5.281h1.061v7.417h-1.068z"/></g><defs><filter id="a" width="265.596" height="227.353" x=".855" y=".942" color-interpolation-filters="sRGB" filterUnits="userSpaceOnUse"><feFlood flood-opacity="0" result="BackgroundImageFix"/><feColorMatrix in="SourceAlpha" result="hardAlpha" values="0 0 0 0 0 0 0 0 0 0 0 0 0 0 0 0 0 0 127 0"/><feOffset dy="1.564"/><feGaussianBlur stdDeviation="1.361"/><feColorMatrix values="0 0 0 0 0 0 0 0 0 0 0 0 0 0 0 0 0 0 0.0282725 0"/><feBlend in2="BackgroundImageFix" result="effect1_dropShadow_5075_9677"/><feColorMatrix in="SourceAlpha" result="hardAlpha" values="0 0 0 0 0 0 0 0 0 0 0 0 0 0 0 0 0 0 127 0"/><feOffset dy="5.253"/><feGaussianBlur stdDeviation="4.572"/><feColorMatrix values="0 0 0 0 0 0 0 0 0 0 0 0 0 0 0 0 0 0 0.0417275 0"/><feBlend in2="effect1_dropShadow_5075_9677" result="effect2_dropShadow_5075_9677"/><feBlend in="SourceGraphic" in2="effect2_dropShadow_5075_9677" result="shape"/></filter></defs></svg>