<svg xmlns="http://www.w3.org/2000/svg" width="446" height="215" fill="none"><g filter="url(#a)"><rect width="180.9" height="148.5" x="21.008" y="30" fill="#fff" rx="14.4"/><path fill="#000" d="M40.789 63H39.32l3.298-9.164h1.597L47.514 63h-1.468l-2.59-7.5h-.072L40.789 63zm.246-3.589h4.76v1.164h-4.76V59.41zm10.317 3.728c-.665 0-1.238-.15-1.718-.452a2.992 2.992 0 0 1-1.101-1.258c-.257-.534-.385-1.145-.385-1.834 0-.698.131-1.314.394-1.848a3.016 3.016 0 0 1 1.11-1.257c.477-.302 1.04-.452 1.686-.452.522 0 .988.097 1.396.29.41.191.739.46.99.806.253.346.404.75.451 1.213h-1.302a1.56 1.56 0 0 0-.492-.833c-.254-.232-.594-.349-1.02-.349-.373 0-.7.099-.98.296-.278.194-.494.471-.649.832-.155.358-.233.781-.233 1.27 0 .502.076.934.229 1.298.152.364.366.646.644.846.28.2.61.3.989.3.253 0 .483-.047.689-.139.209-.096.383-.231.523-.407.144-.176.243-.388.3-.636h1.302a2.53 2.53 0 0 1-.434 1.19 2.497 2.497 0 0 1-.97.824c-.404.2-.876.3-1.42.3zM55.444 63v-6.873h1.293v1.092h.072c.125-.37.346-.66.662-.873a1.9 1.9 0 0 1 1.083-.322 5.677 5.677 0 0 1 .568.032v1.28a2.384 2.384 0 0 0-.286-.05 2.73 2.73 0 0 0-.412-.031c-.316 0-.598.067-.846.201a1.496 1.496 0 0 0-.796 1.347V63h-1.338zm7.39.139c-.678 0-1.26-.145-1.75-.434a2.944 2.944 0 0 1-1.127-1.23c-.263-.532-.394-1.154-.394-1.867 0-.704.131-1.324.394-1.861a3.058 3.058 0 0 1 1.11-1.257c.477-.302 1.034-.452 1.673-.452.387 0 .763.064 1.127.192.364.129.69.33.98.604.29.275.518.631.685 1.07.167.435.25.965.25 1.588v.474H60.32v-1.002h4.152c0-.352-.071-.664-.215-.935a1.624 1.624 0 0 0-.603-.649 1.688 1.688 0 0 0-.904-.237c-.376 0-.704.092-.985.277a1.866 1.866 0 0 0-.644.716c-.15.293-.224.61-.224.953v.783c0 .46.08.85.242 1.173.164.322.392.568.684.738.293.167.634.25 1.025.25.254 0 .485-.035.694-.107a1.438 1.438 0 0 0 .89-.872l1.266.228c-.101.373-.283.7-.546.98a2.65 2.65 0 0 1-.98.648c-.39.153-.836.229-1.337.229zm7.55-.139v-9.164h3.267c.71 0 1.299.123 1.767.367.472.245.824.583 1.056 1.016.233.43.35.926.35 1.49 0 .56-.118 1.054-.354 1.481a2.378 2.378 0 0 1-1.056.989c-.468.235-1.058.353-1.767.353h-2.475v-1.19h2.35c.447 0 .81-.064 1.091-.192.283-.129.49-.315.622-.56a1.84 1.84 0 0 0 .197-.881c0-.346-.067-.646-.202-.9a1.3 1.3 0 0 0-.621-.581c-.28-.137-.65-.206-1.106-.206h-1.736V63h-1.382zm4.524-4.134L77.172 63h-1.575l-2.219-4.134h1.53zm6.204 4.273c-.677 0-1.26-.145-1.75-.434a2.944 2.944 0 0 1-1.127-1.23c-.262-.532-.394-1.154-.394-1.867 0-.704.132-1.324.394-1.861a3.058 3.058 0 0 1 1.11-1.257c.477-.302 1.035-.452 1.673-.452.388 0 .764.064 1.128.192.364.129.69.33.98.604.29.275.517.631.684 1.07.167.435.25.965.25 1.588v.474h-5.462v-1.002h4.152c0-.352-.072-.664-.215-.935a1.625 1.625 0 0 0-.604-.649 1.688 1.688 0 0 0-.904-.237c-.376 0-.704.092-.984.277a1.858 1.858 0 0 0-.644.716c-.15.293-.224.61-.224.953v.783c0 .46.08.85.242 1.173.163.322.392.568.684.738.292.167.634.25 1.025.25.253 0 .484-.035.693-.107a1.439 1.439 0 0 0 .89-.872l1.267.228c-.102.373-.284.7-.546.98a2.65 2.65 0 0 1-.98.648c-.39.153-.837.229-1.338.229zm9.421-5.334-1.212.215a1.435 1.435 0 0 0-.242-.443 1.194 1.194 0 0 0-.438-.344 1.588 1.588 0 0 0-.694-.135c-.379 0-.695.085-.948.255-.254.167-.38.384-.38.65 0 .229.084.414.254.554.17.14.445.255.824.344l1.091.251c.633.146 1.104.371 1.414.676.31.304.466.7.466 1.185 0 .412-.12.779-.358 1.101-.236.32-.566.57-.99.752-.42.182-.907.273-1.462.273-.77 0-1.398-.164-1.884-.492-.486-.332-.785-.801-.895-1.41l1.293-.197c.08.337.246.592.497.765.25.17.577.255.98.255.438 0 .789-.09 1.051-.273.263-.184.394-.41.394-.675a.702.702 0 0 0-.242-.542c-.158-.146-.4-.256-.729-.33l-1.163-.256c-.642-.146-1.116-.379-1.423-.698-.304-.319-.457-.723-.457-1.212 0-.406.114-.761.34-1.065a2.23 2.23 0 0 1 .94-.712c.4-.173.858-.26 1.374-.26.743 0 1.327.162 1.754.484.426.32.708.747.845 1.284zM91.977 63v-6.873h1.337V63h-1.337zm.675-7.933a.85.85 0 0 1-.6-.233.757.757 0 0 1-.245-.564c0-.22.082-.408.246-.563a.842.842 0 0 1 .6-.238c.232 0 .43.08.594.238a.74.74 0 0 1 .25.563.75.75 0 0 1-.25.564.835.835 0 0 1-.595.233zm4.873 8.067c-.555 0-1.05-.142-1.485-.425-.433-.286-.773-.693-1.02-1.221-.245-.531-.367-1.168-.367-1.91 0-.744.123-1.38.37-1.907.252-.528.595-.932 1.03-1.213.436-.28.93-.42 1.481-.42.427 0 .77.071 1.03.215.262.14.465.304.608.492.146.188.26.353.34.496h.08v-3.405h1.338V63h-1.306v-1.07h-.112c-.08.147-.197.314-.35.502a1.915 1.915 0 0 1-.617.492c-.262.14-.602.21-1.02.21zm.295-1.14c.385 0 .71-.102.976-.305a1.88 1.88 0 0 0 .608-.855c.14-.364.21-.787.21-1.27 0-.478-.068-.895-.205-1.253a1.84 1.84 0 0 0-.604-.837c-.266-.2-.594-.3-.985-.3-.402 0-.738.105-1.006.313a1.915 1.915 0 0 0-.609.855 3.487 3.487 0 0 0-.201 1.222c0 .459.068.872.206 1.24.137.366.34.657.608.872.272.211.606.317 1.002.317zm7.82 1.145c-.677 0-1.261-.145-1.75-.434a2.94 2.94 0 0 1-1.127-1.23c-.263-.532-.394-1.154-.394-1.867 0-.704.131-1.324.394-1.861a3.055 3.055 0 0 1 1.109-1.257c.478-.302 1.035-.452 1.674-.452.387 0 .763.064 1.127.192.364.129.691.33.98.604.29.275.518.631.685 1.07.167.435.25.965.25 1.588v.474h-5.463v-1.002h4.152c0-.352-.071-.664-.214-.935a1.629 1.629 0 0 0-.605-.649 1.684 1.684 0 0 0-.903-.237 1.75 1.75 0 0 0-.985.277 1.866 1.866 0 0 0-.644.716 2.07 2.07 0 0 0-.224.953v.783c0 .46.081.85.242 1.173.164.322.392.568.684.738.293.167.634.25 1.025.25.254 0 .485-.035.694-.107a1.433 1.433 0 0 0 .89-.872l1.266.228c-.101.373-.283.7-.546.98a2.644 2.644 0 0 1-.979.648 3.67 3.67 0 0 1-1.338.229zm5.609-4.22V63h-1.338v-6.873h1.284v1.119h.085c.158-.364.406-.656.743-.877.34-.22.768-.331 1.284-.331.468 0 .878.098 1.23.295.352.194.625.483.819.868.194.385.291.86.291 1.428V63h-1.338v-4.21c0-.499-.13-.888-.389-1.168-.26-.284-.616-.425-1.07-.425-.31 0-.586.067-.827.201a1.452 1.452 0 0 0-.569.59c-.137.257-.205.567-.205.931zm9.238-2.792v1.074h-3.754v-1.074h3.754zm-2.747-1.646h1.338v6.501c0 .26.039.455.116.586a.611.611 0 0 0 .3.264c.125.045.261.067.407.067.108 0 .202-.007.282-.022l.188-.036.242 1.105a2.636 2.636 0 0 1-.868.143 2.358 2.358 0 0 1-.985-.187 1.69 1.69 0 0 1-.738-.609c-.188-.274-.282-.619-.282-1.034v-6.778zM121.805 63v-6.873h1.338V63h-1.338zm.676-7.933a.85.85 0 0 1-.6-.233.757.757 0 0 1-.246-.564c0-.22.082-.408.246-.563a.842.842 0 0 1 .6-.238c.233 0 .431.08.595.238a.742.742 0 0 1 .251.563.751.751 0 0 1-.251.564.834.834 0 0 1-.595.233zm4.3 8.085c-.435 0-.829-.08-1.181-.242a1.992 1.992 0 0 1-.837-.71c-.203-.311-.304-.692-.304-1.142 0-.388.074-.707.224-.957.149-.251.35-.45.604-.596.253-.146.537-.256.85-.33a8.44 8.44 0 0 1 .957-.17l1.003-.117c.256-.033.442-.085.559-.157.116-.071.174-.188.174-.349v-.03c0-.392-.11-.694-.331-.91-.218-.214-.543-.321-.975-.321-.451 0-.806.1-1.065.3a1.603 1.603 0 0 0-.533.657l-1.257-.286a2.42 2.42 0 0 1 .653-1.011c.29-.26.622-.448.998-.564.376-.12.771-.18 1.186-.18.274 0 .565.034.872.1.311.062.6.178.868.348.272.17.494.413.667.73.173.313.26.72.26 1.221V63h-1.307v-.94h-.054a1.893 1.893 0 0 1-.389.51 2.065 2.065 0 0 1-.667.417 2.59 2.59 0 0 1-.975.165zm.291-1.074c.37 0 .686-.073.948-.219a1.54 1.54 0 0 0 .605-.573c.14-.238.21-.493.21-.765v-.886c-.048.048-.14.093-.278.135a4.32 4.32 0 0 1-.46.102c-.173.027-.342.053-.506.076l-.412.054a3.32 3.32 0 0 0-.711.166c-.212.077-.382.19-.51.335-.126.143-.188.334-.188.573 0 .331.122.582.367.752.244.167.556.25.935.25zm6.058-8.242V63h-1.337v-9.164h1.337z"/><path fill="#5926DA" d="M130.526 118.301h-1.258l2.827-7.855h1.369l2.827 7.855h-1.258l-2.221-6.428h-.061l-2.225 6.428zm.211-3.076h4.081v.997h-4.081v-.997zm8.991 3.195c-.57 0-1.061-.129-1.472-.388a2.564 2.564 0 0 1-.944-1.077c-.22-.458-.33-.982-.33-1.573 0-.598.113-1.126.338-1.584.225-.46.542-.819.951-1.077.409-.259.891-.388 1.446-.388.447 0 .846.083 1.197.249.35.164.632.394.847.691.217.296.347.643.387 1.039h-1.116a1.337 1.337 0 0 0-.421-.713c-.218-.2-.509-.299-.875-.299-.319 0-.599.084-.84.253a1.626 1.626 0 0 0-.556.713c-.133.307-.199.67-.199 1.089 0 .43.065.801.195 1.113.131.311.315.553.553.724.24.172.522.257.847.257.217 0 .414-.039.591-.119.179-.081.328-.198.448-.349.123-.15.209-.332.257-.544h1.116c-.04.381-.164.721-.372 1.02a2.145 2.145 0 0 1-.832.706c-.345.171-.75.257-1.216.257zm3.656-.119v-5.891h1.108v.936h.062a1.42 1.42 0 0 1 .567-.748c.274-.184.583-.276.928-.276a4.931 4.931 0 0 1 .487.027v1.096a2.39 2.39 0 0 0-.245-.042 2.331 2.331 0 0 0-.353-.027c-.271 0-.513.058-.725.173a1.277 1.277 0 0 0-.682 1.154v3.598h-1.147zm6.482.119c-.581 0-1.081-.124-1.5-.372a2.518 2.518 0 0 1-.966-1.055c-.225-.455-.338-.988-.338-1.599 0-.604.113-1.136.338-1.596.227-.46.544-.819.951-1.077.409-.259.887-.388 1.434-.388.333 0 .655.055.967.165.312.11.592.283.84.518.248.235.443.541.586.916.144.374.215.828.215 1.362v.406h-4.683v-.859h3.559a1.69 1.69 0 0 0-.184-.801 1.386 1.386 0 0 0-.517-.556 1.445 1.445 0 0 0-.775-.204c-.322 0-.604.08-.844.238a1.593 1.593 0 0 0-.552.614c-.128.25-.192.523-.192.817v.671c0 .394.069.729.207 1.005a1.5 1.5 0 0 0 .587.633c.251.143.543.214.878.214.218 0 .416-.03.595-.092.179-.064.333-.158.464-.283.13-.126.23-.28.299-.465l1.085.196c-.087.32-.243.6-.468.84a2.258 2.258 0 0 1-.84.556 3.15 3.15 0 0 1-1.146.196z"/><path fill="#666" d="M130.526 97.6h-1.258l2.827-7.854h1.369l2.827 7.855h-1.258l-2.221-6.428h-.061l-2.225 6.428zm.211-3.075h4.081v.997h-4.081v-.997zm8.991 3.194c-.57 0-1.061-.129-1.472-.387a2.567 2.567 0 0 1-.944-1.078c-.22-.457-.33-.981-.33-1.572 0-.598.113-1.126.338-1.584.225-.46.542-.82.951-1.078.409-.258.891-.387 1.446-.387.447 0 .846.083 1.197.25.35.163.632.393.847.69.217.296.347.643.387 1.039h-1.116a1.339 1.339 0 0 0-.421-.713c-.218-.2-.509-.3-.875-.3-.319 0-.599.085-.84.254a1.626 1.626 0 0 0-.556.713c-.133.307-.199.67-.199 1.09 0 .429.065.8.195 1.111.131.312.315.554.553.725.24.171.522.257.847.257.217 0 .414-.04.591-.119.179-.081.328-.198.448-.349.123-.15.209-.332.257-.544h1.116c-.04.38-.164.72-.372 1.02a2.145 2.145 0 0 1-.832.706c-.345.17-.75.257-1.216.257zm6.137 0c-.57 0-1.061-.129-1.473-.387a2.565 2.565 0 0 1-.943-1.078c-.22-.457-.33-.981-.33-1.572 0-.598.113-1.126.338-1.584.225-.46.542-.82.951-1.078.409-.258.891-.387 1.446-.387.447 0 .846.083 1.196.25a2.09 2.09 0 0 1 1.235 1.73h-1.116a1.334 1.334 0 0 0-.422-.714c-.217-.2-.509-.3-.874-.3-.32 0-.6.085-.84.254a1.626 1.626 0 0 0-.556.713c-.133.307-.2.67-.2 1.09 0 .429.066.8.196 1.111.13.312.314.554.552.725.241.171.523.257.848.257.217 0 .414-.04.59-.119.179-.081.329-.198.449-.349.123-.15.209-.332.257-.544h1.116a2.17 2.17 0 0 1-.372 1.02 2.145 2.145 0 0 1-.832.706c-.345.17-.75.257-1.216.257zm6.137 0c-.552 0-1.034-.126-1.446-.38a2.561 2.561 0 0 1-.959-1.062c-.227-.455-.341-.987-.341-1.595 0-.611.114-1.145.341-1.603.228-.458.547-.813.959-1.066.412-.254.894-.38 1.446-.38.552 0 1.034.127 1.446.38.411.253.731.608.959 1.066.227.458.341.992.341 1.603 0 .608-.114 1.14-.341 1.595-.228.456-.548.81-.959 1.063-.412.253-.894.38-1.446.38zm.004-.962c.358 0 .654-.095.89-.284a1.66 1.66 0 0 0 .521-.755 3.01 3.01 0 0 0 .173-1.04c0-.376-.058-.72-.173-1.035a1.684 1.684 0 0 0-.521-.764c-.236-.191-.532-.287-.89-.287-.361 0-.66.096-.898.287-.235.192-.41.447-.525.764-.113.314-.169.66-.169 1.035 0 .379.056.725.169 1.04.115.314.29.566.525.755.238.19.537.284.898.284zm7.763-1.6V91.71h1.15v5.89h-1.127v-1.02h-.062a1.836 1.836 0 0 1-.652.787c-.296.207-.666.31-1.108.31-.378 0-.713-.083-1.005-.249a1.756 1.756 0 0 1-.683-.748c-.163-.33-.245-.738-.245-1.223V91.71h1.147v3.609c0 .401.111.72.333.958.223.238.512.357.867.357a1.41 1.41 0 0 0 1.174-.648c.143-.217.213-.493.211-.829zm3.847-1.054V97.6h-1.147v-5.89h1.101v.959h.073c.135-.312.347-.563.636-.752.292-.19.659-.284 1.101-.284.401 0 .753.084 1.055.253.301.166.535.414.701.744.167.33.25.738.25 1.224V97.6h-1.147v-3.61c0-.426-.111-.76-.334-1-.222-.243-.528-.365-.916-.365-.266 0-.503.058-.71.173a1.243 1.243 0 0 0-.487.506 1.68 1.68 0 0 0-.176.798zm8.067-2.393v.92h-3.218v-.92h3.218zm-2.355-1.412h1.146v5.573c0 .222.034.39.1.502.067.11.152.186.257.227a1.238 1.238 0 0 0 .591.037l.161-.03.207.948a2.251 2.251 0 0 1-.744.123 2.02 2.02 0 0 1-.844-.162 1.446 1.446 0 0 1-.633-.521c-.161-.236-.241-.53-.241-.886v-5.81z"/><path fill="#000" d="M40.137 118.301v-7.855h2.8c.608 0 1.113.105 1.515.315.404.209.705.5.905.87.2.369.299.794.299 1.277 0 .481-.101.904-.303 1.27-.2.363-.501.646-.905.847-.401.202-.907.303-1.515.303h-2.12v-1.02h2.013c.383 0 .695-.055.935-.165.243-.11.421-.269.533-.479a1.58 1.58 0 0 0 .17-.756c0-.296-.058-.553-.173-.77a1.112 1.112 0 0 0-.533-.499c-.24-.118-.557-.176-.948-.176h-1.488v6.838h-1.185zm3.877-3.544 1.941 3.544h-1.35l-1.902-3.544h1.311zm5.466 3.663c-.58 0-1.08-.124-1.5-.372a2.524 2.524 0 0 1-.966-1.055c-.225-.455-.338-.988-.338-1.599 0-.604.113-1.136.338-1.596.228-.46.545-.819.951-1.077.41-.259.887-.388 1.434-.388.333 0 .655.055.967.165.312.11.592.283.84.518.248.235.444.541.587.916.143.374.215.828.215 1.362v.406h-4.683v-.859h3.559c0-.301-.062-.568-.184-.801a1.39 1.39 0 0 0-.518-.556 1.443 1.443 0 0 0-.775-.204c-.322 0-.603.08-.843.238a1.598 1.598 0 0 0-.553.614 1.77 1.77 0 0 0-.192.817v.671c0 .394.07.729.207 1.005.141.276.337.487.587.633.25.143.544.214.879.214.217 0 .415-.03.594-.092.179-.064.334-.158.464-.283.13-.126.23-.28.3-.465l1.085.196c-.087.32-.243.6-.468.84a2.265 2.265 0 0 1-.84.556c-.335.13-.717.196-1.147.196zm4.956-3.617v3.498h-1.147v-5.891h1.1v.959h.073c.136-.312.348-.563.637-.752.292-.189.658-.284 1.1-.284.402 0 .754.085 1.056.253.301.166.535.414.701.744.166.33.25.738.25 1.224v3.747h-1.147v-3.609c0-.427-.111-.761-.334-1.001-.222-.243-.528-.365-.916-.365-.266 0-.503.058-.71.173a1.243 1.243 0 0 0-.487.506c-.118.22-.176.486-.176.798zm8.066-2.393v.92h-3.217v-.92h3.217zm-2.354-1.411h1.146v5.572c0 .223.034.39.1.503a.525.525 0 0 0 .257.226c.107.038.224.057.349.057.092 0 .173-.006.242-.019l.16-.031.208.948a1.944 1.944 0 0 1-.284.076 2.151 2.151 0 0 1-.46.046 1.997 1.997 0 0 1-.844-.161 1.444 1.444 0 0 1-.633-.521c-.16-.235-.241-.531-.241-.886v-5.81z"/><path fill="#666" d="M39.863 89.746H41.3l2.5 6.106h.093l2.5-6.106h1.439v7.855h-1.128v-5.684h-.073l-2.316 5.672h-.936l-2.317-5.676h-.073V97.6h-1.127v-7.855zm11.324 7.985c-.373 0-.711-.07-1.013-.207a1.705 1.705 0 0 1-.717-.61c-.174-.266-.26-.592-.26-.978 0-.332.063-.606.191-.82.128-.215.3-.385.518-.51.217-.126.46-.22.729-.284a6.96 6.96 0 0 1 .82-.146l.86-.1c.22-.028.379-.073.479-.134.1-.062.15-.161.15-.3v-.026c0-.335-.095-.595-.285-.779-.186-.184-.465-.276-.835-.276-.387 0-.69.086-.913.257-.22.169-.372.357-.457.564l-1.077-.246c.127-.358.314-.646.56-.866a2.27 2.27 0 0 1 .855-.484c.322-.102.66-.153 1.016-.153.235 0 .485.028.748.084.266.054.514.154.744.3.233.145.423.354.572.625.148.268.222.617.222 1.047V97.6h-1.12v-.806h-.046a1.633 1.633 0 0 1-.334.437 1.772 1.772 0 0 1-.571.357 2.217 2.217 0 0 1-.836.142zm.25-.92c.316 0 .587-.063.812-.188.228-.126.4-.29.518-.491.12-.205.18-.424.18-.656v-.76a.59.59 0 0 1-.238.116 3.717 3.717 0 0 1-.395.088l-.433.065-.353.046a2.84 2.84 0 0 0-.61.142 1.047 1.047 0 0 0-.437.287.722.722 0 0 0-.161.491c0 .284.105.499.315.645.21.143.476.215.801.215zm5.34-2.708V97.6H55.63v-5.89h1.101v.959h.073c.135-.312.348-.563.636-.752.292-.19.659-.284 1.101-.284.402 0 .753.084 1.055.253.302.166.536.414.702.744.166.33.249.738.249 1.224V97.6H59.4v-3.61c0-.426-.11-.76-.333-1-.223-.243-.528-.365-.917-.365-.266 0-.502.058-.71.173a1.241 1.241 0 0 0-.487.506 1.68 1.68 0 0 0-.176.798zm7.031 3.628c-.373 0-.71-.07-1.012-.207a1.706 1.706 0 0 1-.717-.61c-.174-.266-.261-.592-.261-.978 0-.332.064-.606.192-.82.127-.215.3-.385.517-.51.218-.126.46-.22.729-.284.269-.065.542-.113.82-.146l.86-.1c.22-.028.38-.073.48-.134.099-.062.149-.161.149-.3v-.026c0-.335-.095-.595-.284-.779-.187-.184-.465-.276-.836-.276-.386 0-.69.086-.913.257-.22.169-.372.357-.456.564l-1.078-.246c.128-.358.315-.646.56-.866a2.27 2.27 0 0 1 .855-.484 3.348 3.348 0 0 1 1.017-.153c.235 0 .484.028.747.084.266.054.514.154.744.3.233.145.424.354.572.625.148.268.222.617.222 1.047V97.6h-1.12v-.806h-.046a1.631 1.631 0 0 1-.333.437 1.77 1.77 0 0 1-.572.357 2.217 2.217 0 0 1-.836.142zm.25-.92c.317 0 .588-.063.813-.188.227-.126.4-.29.517-.491.12-.205.18-.424.18-.656v-.76a.591.591 0 0 1-.237.116 3.717 3.717 0 0 1-.395.088l-.434.065-.352.046a2.838 2.838 0 0 0-.61.142 1.047 1.047 0 0 0-.437.287c-.108.123-.161.287-.161.491 0 .284.104.499.314.645.21.143.477.215.802.215zm6.664 3.121c-.468 0-.87-.061-1.208-.184a2.338 2.338 0 0 1-.821-.487 2.042 2.042 0 0 1-.476-.663l.986-.407c.069.113.161.232.276.357.118.128.276.236.476.326.202.09.461.134.778.134.435 0 .794-.106 1.078-.318.284-.21.426-.545.426-1.005v-1.158h-.073a2.61 2.61 0 0 1-.3.418 1.619 1.619 0 0 1-.529.399c-.225.112-.517.168-.878.168-.465 0-.885-.108-1.258-.326a2.313 2.313 0 0 1-.882-.97c-.215-.43-.322-.957-.322-1.584 0-.626.106-1.163.318-1.61.215-.448.509-.79.882-1.029a2.3 2.3 0 0 1 1.27-.36c.365 0 .66.061.886.184.225.12.4.26.525.422.128.161.226.303.295.426h.085v-.955h1.123v6.021c0 .506-.117.922-.352 1.246a2.077 2.077 0 0 1-.955.721 3.684 3.684 0 0 1-1.35.234zm-.012-3.37c.33 0 .609-.078.836-.23.23-.157.404-.38.522-.668.12-.292.18-.64.18-1.047a2.87 2.87 0 0 0-.176-1.047 1.555 1.555 0 0 0-.518-.706c-.228-.171-.509-.257-.844-.257-.345 0-.633.09-.863.269a1.61 1.61 0 0 0-.521.72 2.865 2.865 0 0 0-.173 1.02c0 .387.059.726.176 1.017.118.292.292.52.522.683.233.163.52.245.86.245zm6.755 1.157c-.58 0-1.08-.123-1.5-.371A2.524 2.524 0 0 1 75 96.292c-.225-.455-.337-.988-.337-1.6 0-.603.112-1.135.337-1.595.228-.46.545-.82.951-1.078.41-.258.888-.387 1.435-.387.332 0 .654.055.966.165.312.11.592.282.84.518.248.235.444.54.587.916.143.374.215.827.215 1.362V95H75.31v-.859h3.559c0-.302-.061-.569-.184-.801a1.393 1.393 0 0 0-.518-.556 1.447 1.447 0 0 0-.775-.204c-.322 0-.603.08-.843.238-.238.156-.422.36-.553.614a1.77 1.77 0 0 0-.191.817v.67c0 .395.069.73.207 1.006.14.276.336.487.587.632.25.144.543.215.878.215.217 0 .415-.03.594-.092a1.232 1.232 0 0 0 .763-.748l1.086.196c-.087.32-.243.6-.468.84a2.268 2.268 0 0 1-.84.556c-.335.13-.717.195-1.147.195zm3.81-.118V91.71h1.107v.936h.062c.107-.318.296-.567.567-.748.274-.184.583-.276.929-.276a4.909 4.909 0 0 1 .487.026v1.097a2.048 2.048 0 0 0-.246-.042 2.341 2.341 0 0 0-.353-.027c-.27 0-.512.058-.725.173a1.282 1.282 0 0 0-.682 1.154v3.598h-1.147z"/><rect width="111.6" height="20.7" x="39.008" y="139.8" fill="#2772FF" fill-opacity=".12" rx="10.35"/><path fill="#2772FF" d="M46.921 154.3v-7.2h2.7c.553 0 1.017.103 1.392.309.378.206.662.49.855.851.194.359.291.766.291 1.223 0 .462-.097.872-.291 1.231a2.087 2.087 0 0 1-.862.847c-.38.204-.847.306-1.403.306h-1.789v-1.072h1.614c.323 0 .588-.057.794-.169.206-.113.359-.267.457-.464.101-.197.151-.423.151-.679 0-.255-.05-.48-.15-.675a1.03 1.03 0 0 0-.461-.453c-.206-.11-.473-.165-.798-.165h-1.196v6.11h-1.304zm6.731 0v-7.2h2.7c.553 0 1.018.096 1.393.288.377.192.662.462.854.809.194.344.292.746.292 1.206 0 .461-.099.862-.296 1.202a1.952 1.952 0 0 1-.861.784c-.38.183-.846.274-1.4.274h-1.922v-1.083h1.747c.323 0 .588-.044.794-.133a.947.947 0 0 0 .457-.398c.101-.175.152-.391.152-.646 0-.256-.05-.474-.151-.654a.962.962 0 0 0-.461-.415c-.206-.096-.472-.144-.798-.144h-1.195v6.11h-1.305zm3.72-3.263 1.782 3.263H57.7l-1.751-3.263h1.424zm9.513-.337c0 .776-.146 1.44-.436 1.993a3.087 3.087 0 0 1-1.181 1.266c-.497.293-1.061.439-1.691.439-.63 0-1.196-.146-1.695-.439a3.151 3.151 0 0 1-1.181-1.269c-.288-.553-.433-1.217-.433-1.99 0-.776.145-1.439.433-1.99.29-.553.684-.976 1.181-1.269.5-.293 1.064-.44 1.695-.44.63 0 1.194.147 1.69.44.5.293.894.716 1.182 1.269.29.551.436 1.214.436 1.99zm-1.312 0c0-.546-.085-1.007-.256-1.382-.169-.377-.403-.662-.703-.854a1.86 1.86 0 0 0-1.038-.292 1.86 1.86 0 0 0-1.037.292c-.3.192-.535.477-.706.854-.169.375-.253.836-.253 1.382 0 .546.084 1.008.253 1.385.17.375.406.66.706.854.3.192.646.289 1.038.289.39 0 .737-.097 1.037-.289.3-.194.534-.479.703-.854.17-.377.256-.839.256-1.385zm2.905 3.6v-7.2h2.7c.553 0 1.017.103 1.392.309.377.206.662.49.854.851.195.359.292.766.292 1.223 0 .462-.097.872-.292 1.231a2.086 2.086 0 0 1-.861.847c-.38.204-.847.306-1.403.306h-1.79v-1.072h1.614c.324 0 .589-.057.795-.169.206-.113.359-.267.457-.464.1-.197.151-.423.151-.679 0-.255-.05-.48-.15-.675a1.03 1.03 0 0 0-.462-.453c-.206-.11-.472-.165-.797-.165h-1.196v6.11h-1.304zm6.731 0v-7.2h4.683v1.093h-3.379v1.955h3.136v1.093h-3.136v1.965h3.407v1.094h-4.711zm6.373 0v-7.2h2.7c.554 0 1.018.096 1.393.288.377.192.662.462.854.809.195.344.292.746.292 1.206 0 .461-.099.862-.296 1.202a1.951 1.951 0 0 1-.86.784c-.38.183-.847.274-1.4.274h-1.923v-1.083h1.747c.324 0 .588-.044.795-.133a.947.947 0 0 0 .457-.398c.1-.175.15-.391.15-.646 0-.256-.05-.474-.15-.654a.962.962 0 0 0-.46-.415c-.207-.096-.473-.144-.799-.144h-1.195v6.11h-1.305zm3.72-3.263 1.782 3.263H85.63l-1.75-3.263h1.423zm2.763-2.844V147.1h5.745v1.093h-2.226v6.107H90.29v-6.107h-2.225zm6.72-1.093h1.473l1.761 3.185h.07l1.762-3.185h1.473l-2.62 4.514v2.686h-1.3v-2.686l-2.62-4.514zm17.072 3.6c0 .776-.146 1.44-.436 1.993a3.086 3.086 0 0 1-1.181 1.266c-.497.293-1.061.439-1.691.439a3.284 3.284 0 0 1-1.695-.439 3.146 3.146 0 0 1-1.181-1.269c-.288-.553-.433-1.217-.433-1.99 0-.776.145-1.439.433-1.99.29-.553.684-.976 1.181-1.269a3.285 3.285 0 0 1 1.695-.44c.63 0 1.194.147 1.691.44.499.293.893.716 1.181 1.269.29.551.436 1.214.436 1.99zm-1.312 0c0-.546-.085-1.007-.256-1.382-.169-.377-.403-.662-.703-.854a1.86 1.86 0 0 0-1.037-.292c-.392 0-.738.097-1.038.292-.3.192-.535.477-.706.854-.169.375-.253.836-.253 1.382 0 .546.084 1.008.253 1.385.171.375.406.66.706.854.3.192.646.289 1.038.289.391 0 .737-.097 1.037-.289.3-.194.534-.479.703-.854.171-.377.256-.839.256-1.385zm4.236 3.6-2.032-7.2h1.403l1.297 5.291h.067l1.385-5.291h1.277l1.388 5.294h.063l1.298-5.294h1.402l-2.032 7.2h-1.286l-1.442-5.052h-.056l-1.445 5.052h-1.287zm14.73-7.2v7.2h-1.16l-3.393-4.904h-.06v4.904h-1.304v-7.2h1.167l3.389 4.908h.063V147.1h1.298zm1.781 7.2v-7.2h4.683v1.093h-3.379v1.955h3.136v1.093h-3.136v1.965h3.407v1.094h-4.711zm6.373 0v-7.2h2.7c.553 0 1.018.096 1.393.288.377.192.662.462.854.809.194.344.292.746.292 1.206 0 .461-.099.862-.296 1.202a1.946 1.946 0 0 1-.861.784c-.38.183-.846.274-1.399.274h-1.923v-1.083h1.747c.323 0 .588-.044.795-.133a.95.95 0 0 0 .457-.398c.1-.175.151-.391.151-.646 0-.256-.051-.474-.151-.654a.965.965 0 0 0-.461-.415c-.206-.096-.472-.144-.798-.144h-1.195v6.11h-1.305zm3.72-3.263 1.782 3.263h-1.455l-1.751-3.263h1.424z"/></g><g filter="url(#b)"><rect width="201" height="165" x="11" y="5" fill="#fff" rx="16"/><path fill="#000" d="M35.842 31.818V42h-1.54v-8.64h-.06l-2.437 1.59v-1.47l2.54-1.66h1.497zM38.417 42v-1.114l3.445-3.57c.368-.387.671-.727.91-1.018.242-.295.422-.576.542-.84.119-.266.179-.547.179-.846 0-.338-.08-.63-.24-.875a1.559 1.559 0 0 0-.65-.572 2.07 2.07 0 0 0-.93-.203c-.365 0-.683.074-.955.223-.271.15-.48.36-.626.632a1.99 1.99 0 0 0-.219.954h-1.466c0-.62.142-1.161.427-1.625a2.904 2.904 0 0 1 1.173-1.08c.498-.258 1.063-.387 1.696-.387.64 0 1.203.128 1.69.383.49.252.873.596 1.149 1.034.275.434.412.925.412 1.472 0 .377-.071.747-.214 1.108-.139.361-.382.764-.73 1.208-.348.441-.832.976-1.452 1.606l-2.023 2.118v.075h4.583V42h-6.701zm7.973-1.989V38.77l4.4-6.95h.98v1.829h-.622L48 38.629v.08h6.03v1.302h-7.64zM51.217 42v-2.367l.01-.566v-7.249h1.457V42h-1.467zm8.031 0V31.818h6.384v1.323h-4.848v3.102H65.3v1.317h-4.515v3.118h4.907V42h-6.443zm9.623-10.182V42h-1.487V31.818h1.487zM70.691 42v-7.636h1.427v1.242h.094c.16-.42.42-.748.78-.984.362-.239.794-.358 1.298-.358.51 0 .938.12 1.283.358.348.239.605.567.77.984h.08a2.15 2.15 0 0 1 .87-.974c.398-.245.872-.368 1.422-.368.693 0 1.258.217 1.695.651.441.435.662 1.09.662 1.964V42h-1.487v-4.981c0-.518-.14-.892-.423-1.124a1.537 1.537 0 0 0-1.009-.348c-.484 0-.86.149-1.128.447-.269.295-.403.675-.403 1.139V42H75.14v-5.076c0-.414-.129-.747-.387-1-.259-.251-.595-.377-1.01-.377-.281 0-.542.074-.78.224-.235.145-.426.35-.572.611a1.872 1.872 0 0 0-.214.91V42h-1.486zm15.757-7.636v1.193h-4.17v-1.193h4.17zm-3.052-1.83h1.486v7.224c0 .288.043.505.13.651a.67.67 0 0 0 .333.293c.139.05.29.075.452.075.12 0 .224-.008.313-.025.09-.016.16-.03.21-.04l.268 1.228a2.499 2.499 0 0 1-.368.1 3 3 0 0 1-.597.06 2.615 2.615 0 0 1-1.094-.21 1.876 1.876 0 0 1-.82-.675c-.209-.305-.313-.688-.313-1.149v-7.532zM87.913 42v-7.636h1.437v1.213h.08c.138-.411.384-.734.735-.97a2.106 2.106 0 0 1 1.203-.358 6.382 6.382 0 0 1 .632.035v1.422a2.666 2.666 0 0 0-.319-.055 3.037 3.037 0 0 0-.457-.035 1.94 1.94 0 0 0-.94.224 1.662 1.662 0 0 0-.885 1.497V42h-1.486zm8.21.154c-.752 0-1.4-.16-1.943-.482a3.272 3.272 0 0 1-1.253-1.367c-.292-.59-.438-1.281-.438-2.074 0-.782.146-1.471.438-2.068a3.398 3.398 0 0 1 1.233-1.397c.53-.334 1.15-.502 1.86-.502.43 0 .848.072 1.252.214.404.142.767.366 1.089.671.321.305.575.701.76 1.188.186.484.279 1.073.279 1.765v.527h-6.07v-1.113h4.613c0-.392-.08-.738-.238-1.04a1.803 1.803 0 0 0-.672-.72 1.875 1.875 0 0 0-1.004-.264 1.94 1.94 0 0 0-1.094.308 2.07 2.07 0 0 0-.716.796 2.296 2.296 0 0 0-.248 1.059v.87c0 .51.09.944.268 1.302.183.358.436.632.761.82.325.186.704.28 1.138.28.282 0 .54-.04.771-.12a1.599 1.599 0 0 0 .99-.97l1.406.254a2.548 2.548 0 0 1-.606 1.089 2.941 2.941 0 0 1-1.089.72c-.434.17-.93.254-1.486.254zm8.037 0c-.752 0-1.4-.16-1.943-.482a3.267 3.267 0 0 1-1.253-1.367c-.292-.59-.438-1.281-.438-2.074 0-.782.146-1.471.438-2.068a3.398 3.398 0 0 1 1.233-1.397c.53-.334 1.15-.502 1.859-.502.431 0 .848.072 1.253.214.404.142.767.366 1.089.671.321.305.575.701.76 1.188.186.484.279 1.073.279 1.765v.527h-6.071v-1.113h4.614c0-.392-.08-.738-.239-1.04a1.798 1.798 0 0 0-.671-.72 1.875 1.875 0 0 0-1.004-.264c-.418 0-.782.103-1.094.308a2.071 2.071 0 0 0-.716.796 2.305 2.305 0 0 0-.248 1.059v.87c0 .51.089.944.268 1.302.182.358.436.632.761.82.325.186.704.28 1.138.28.282 0 .539-.04.771-.12a1.585 1.585 0 0 0 .989-.97l1.407.254a2.547 2.547 0 0 1-.606 1.089 2.951 2.951 0 0 1-1.089.72c-.434.17-.93.254-1.487.254zm8.39-.154V31.818h3.729c.723 0 1.321.12 1.795.358.474.235.828.555 1.064.96.235.4.353.853.353 1.357 0 .424-.078.782-.234 1.074-.156.288-.365.52-.626.696a2.77 2.77 0 0 1-.855.378v.1c.338.016.667.125.989.327.325.199.593.482.805.85.212.368.318.816.318 1.343 0 .52-.122.987-.367 1.402-.242.41-.617.737-1.124.979-.507.239-1.155.358-1.944.358h-3.903zm1.537-1.318h2.217c.736 0 1.263-.142 1.581-.427.318-.285.477-.641.477-1.069a1.68 1.68 0 0 0-.243-.885 1.749 1.749 0 0 0-.696-.641c-.299-.16-.653-.239-1.064-.239h-2.272v3.261zm0-4.459h2.058c.345 0 .654-.066.93-.199.278-.132.498-.318.661-.557a1.48 1.48 0 0 0 .248-.855c0-.42-.147-.774-.442-1.059-.295-.285-.748-.427-1.357-.427h-2.098v3.097zm10.541 5.931c-.716 0-1.341-.164-1.874-.492a3.316 3.316 0 0 1-1.243-1.377c-.295-.59-.443-1.28-.443-2.068 0-.792.148-1.485.443-2.078a3.31 3.31 0 0 1 1.243-1.383c.533-.328 1.158-.492 1.874-.492.716 0 1.341.164 1.874.492a3.31 3.31 0 0 1 1.243 1.383c.295.593.443 1.285.443 2.078 0 .788-.148 1.478-.443 2.068a3.316 3.316 0 0 1-1.243 1.377c-.533.328-1.158.492-1.874.492zm.005-1.248c.464 0 .848-.122 1.153-.368.305-.245.531-.571.676-.98.15-.407.224-.856.224-1.346a3.86 3.86 0 0 0-.224-1.343 2.18 2.18 0 0 0-.676-.989c-.305-.249-.689-.373-1.153-.373-.467 0-.855.124-1.164.373a2.235 2.235 0 0 0-.681.99 3.98 3.98 0 0 0-.218 1.342c0 .49.073.94.218 1.347.15.408.377.734.681.98.309.245.697.367 1.164.367zm9.871-2.073v-4.47h1.492V42h-1.462v-1.322h-.08a2.376 2.376 0 0 1-.845 1.019c-.384.268-.863.402-1.437.402-.49 0-.924-.107-1.302-.323a2.265 2.265 0 0 1-.885-.97c-.212-.427-.318-.955-.318-1.585v-4.857h1.486v4.678c0 .52.144.935.433 1.243.288.308.663.462 1.123.462.279 0 .556-.07.831-.209.278-.139.508-.35.691-.631.185-.282.276-.64.273-1.074zm4.795-7.015V42h-1.486V31.818h1.486zm5.111 10.336c-.752 0-1.4-.16-1.943-.482a3.267 3.267 0 0 1-1.253-1.367c-.292-.59-.438-1.281-.438-2.074 0-.782.146-1.471.438-2.068a3.398 3.398 0 0 1 1.233-1.397c.53-.334 1.15-.502 1.859-.502.431 0 .849.072 1.253.214.404.142.767.366 1.089.671.321.305.575.701.76 1.188.186.484.279 1.073.279 1.765v.527h-6.071v-1.113h4.614c0-.392-.079-.738-.239-1.04a1.798 1.798 0 0 0-.671-.72 1.875 1.875 0 0 0-1.004-.264c-.418 0-.782.103-1.094.308a2.071 2.071 0 0 0-.716.796 2.305 2.305 0 0 0-.248 1.059v.87c0 .51.089.944.268 1.302.183.358.436.632.761.82.325.186.704.28 1.138.28.282 0 .539-.04.771-.12a1.591 1.591 0 0 0 .989-.97l1.407.254a2.547 2.547 0 0 1-.606 1.089 2.951 2.951 0 0 1-1.089.72c-.434.17-.93.254-1.487.254zm11.06-7.79L152.701 42h-1.591l-2.774-7.636h1.596l1.934 5.876h.079l1.929-5.876h1.596zm3.221 7.805c-.484 0-.922-.09-1.313-.268a2.214 2.214 0 0 1-.93-.79c-.225-.346-.338-.768-.338-1.269 0-.43.083-.785.249-1.064a1.83 1.83 0 0 1 .671-.66 3.51 3.51 0 0 1 .945-.369 9.357 9.357 0 0 1 1.064-.189l1.113-.129c.285-.036.492-.094.622-.174.129-.08.194-.209.194-.388v-.035c0-.434-.123-.77-.368-1.009-.242-.238-.604-.358-1.084-.358-.501 0-.895.111-1.183.333-.285.22-.483.463-.592.731l-1.397-.318c.166-.464.408-.839.726-1.123a2.937 2.937 0 0 1 1.109-.627 4.32 4.32 0 0 1 1.317-.199c.305 0 .628.037.969.11.345.07.667.198.965.387.302.19.548.46.741.81.192.349.288.801.288 1.358V42h-1.452v-1.044h-.059a2.12 2.12 0 0 1-.433.567c-.192.185-.439.34-.741.462-.301.123-.662.184-1.083.184zm.323-1.193c.411 0 .762-.081 1.054-.244.295-.162.518-.374.671-.636a1.65 1.65 0 0 0 .234-.85v-.985c-.053.053-.156.103-.309.15-.149.043-.32.08-.512.114-.192.03-.379.058-.562.084l-.457.06a3.678 3.678 0 0 0-.79.184 1.35 1.35 0 0 0-.567.373c-.139.159-.209.371-.209.636 0 .368.136.646.408.835.271.186.618.279 1.039.279zM164.259 42v-7.636h1.437v1.213h.079c.14-.411.385-.734.736-.97a2.107 2.107 0 0 1 1.203-.358 6.372 6.372 0 0 1 .632.035v1.422a2.676 2.676 0 0 0-.319-.055 3.021 3.021 0 0 0-.457-.035c-.351 0-.664.075-.94.224a1.666 1.666 0 0 0-.885 1.497V42h-1.486zm7.778.15a2.958 2.958 0 0 1-1.65-.473c-.481-.318-.859-.77-1.134-1.357-.272-.59-.408-1.298-.408-2.123 0-.826.138-1.532.413-2.118.279-.587.66-1.036 1.144-1.348a2.97 2.97 0 0 1 1.645-.467c.474 0 .855.08 1.144.239.291.156.517.338.676.547.162.209.288.393.378.552h.089v-3.784h1.487V42h-1.452v-1.188h-.124a4.02 4.02 0 0 1-.388.557 2.165 2.165 0 0 1-.686.547c-.292.155-.67.233-1.134.233zm.328-1.269c.428 0 .789-.112 1.084-.338.298-.228.524-.545.676-.95.156-.404.234-.874.234-1.411 0-.53-.076-.995-.229-1.392-.152-.398-.376-.708-.671-.93-.295-.222-.659-.333-1.094-.333-.447 0-.82.116-1.118.348a2.118 2.118 0 0 0-.676.95c-.15.4-.224.853-.224 1.357 0 .51.076.97.229 1.377.152.408.377.73.676.97.301.235.673.352 1.113.352z"/><path fill="#5926DA" d="m132.279 104 3.81-7.534v-.064h-4.406v-1.13h5.77v1.168l-3.797 7.56h-1.377zm9.439.119c-.611 0-1.151-.105-1.62-.315-.466-.21-.831-.5-1.095-.869a2.094 2.094 0 0 1-.392-1.262 2.232 2.232 0 0 1 .861-1.798c.267-.21.565-.344.895-.4v-.052a1.76 1.76 0 0 1-1.044-.699 2.04 2.04 0 0 1-.388-1.244 2.038 2.038 0 0 1 .354-1.193c.241-.352.572-.63.992-.831.421-.202.9-.303 1.437-.303.531 0 1.005.103 1.423.307.42.202.751.479.993.831.241.35.363.746.366 1.19a2.075 2.075 0 0 1-.4 1.243 1.782 1.782 0 0 1-1.032.7v.05c.327.057.621.19.883.401.264.207.474.467.63.78.159.309.24.649.243 1.018a2.142 2.142 0 0 1-.4 1.262c-.265.369-.631.659-1.1.869-.466.21-1.001.315-1.606.315zm0-1.078c.36 0 .673-.059.937-.179.264-.122.469-.291.614-.507.145-.219.218-.474.221-.767a1.438 1.438 0 0 0-.238-.805 1.597 1.597 0 0 0-.627-.55 1.978 1.978 0 0 0-.907-.2c-.344 0-.65.066-.917.2a1.579 1.579 0 0 0-.63.55 1.4 1.4 0 0 0-.226.805 1.35 1.35 0 0 0 .209.767c.145.216.351.385.618.507.267.12.582.179.946.179zm0-4.06c.289 0 .546-.06.771-.176.224-.116.4-.278.528-.485.131-.208.198-.45.201-.73a1.359 1.359 0 0 0-.196-.715 1.244 1.244 0 0 0-.525-.473 1.701 1.701 0 0 0-.779-.17 1.75 1.75 0 0 0-.793.17c-.224.11-.399.269-.524.473a1.317 1.317 0 0 0-.183.716 1.33 1.33 0 0 0 .187.729c.128.207.304.369.528.485a1.7 1.7 0 0 0 .785.175zm7.681 5.164c-.673-.003-1.248-.181-1.726-.533-.477-.352-.842-.865-1.095-1.538s-.379-1.485-.379-2.433c0-.946.126-1.755.379-2.425.256-.67.622-1.182 1.099-1.534.481-.353 1.054-.529 1.722-.529.668 0 1.24.178 1.717.533.478.352.843.864 1.096 1.534.255.668.383 1.475.383 2.42 0 .952-.126 1.765-.379 2.438-.253.671-.618 1.183-1.095 1.538-.478.353-1.051.529-1.722.529zm0-1.138c.591 0 1.053-.288 1.385-.865.335-.577.503-1.41.503-2.501 0-.725-.077-1.337-.23-1.837-.151-.503-.368-.883-.652-1.142a1.428 1.428 0 0 0-1.006-.392c-.588 0-1.05.29-1.385.87-.335.579-.504 1.413-.507 2.5 0 .728.075 1.343.226 1.846.153.5.371.879.652 1.138.281.255.619.383 1.014.383zm7.411 2.084v-10.91h.699v10.91h-.699zm2.186-7.526a1.245 1.245 0 0 0-.562-.937c-.33-.225-.745-.337-1.245-.337a2.32 2.32 0 0 0-.929.17 1.441 1.441 0 0 0-.609.46 1.087 1.087 0 0 0-.213.661.97.97 0 0 0 .145.537c.099.15.228.277.388.38.161.099.335.183.519.251.185.065.363.12.533.162l.852.221c.279.069.564.161.857.278.293.116.564.27.814.46s.452.426.605.707c.156.281.234.618.234 1.01 0 .494-.128.933-.383 1.317-.253.383-.621.686-1.104.907-.48.222-1.061.333-1.743.333-.653 0-1.219-.104-1.696-.311-.477-.208-.851-.502-1.121-.882-.269-.384-.419-.838-.447-1.364h1.321c.026.315.128.578.307.788.182.208.413.363.694.465.285.099.596.149.934.149.372 0 .703-.058.993-.175.292-.119.522-.284.69-.494a1.17 1.17 0 0 0 .251-.746.92.92 0 0 0-.221-.635 1.65 1.65 0 0 0-.593-.409 5.746 5.746 0 0 0-.839-.285l-1.031-.281c-.699-.19-1.253-.47-1.662-.84-.407-.37-.61-.858-.61-1.466 0-.503.137-.942.409-1.317a2.687 2.687 0 0 1 1.108-.873 3.8 3.8 0 0 1 1.577-.316c.591 0 1.112.104 1.564.311.455.208.813.493 1.074.857.261.36.398.776.409 1.244h-1.27z"/><path fill="#666" d="M132.696 81h-1.398l3.141-8.727h1.521L139.101 81h-1.398l-2.467-7.142h-.068L132.696 81zm.234-3.418h4.534v1.108h-4.534v-1.108zm9.991 3.55c-.634 0-1.179-.143-1.637-.43a2.85 2.85 0 0 1-1.048-1.198c-.244-.508-.367-1.09-.367-1.747 0-.665.125-1.251.375-1.76.25-.511.603-.91 1.057-1.197.455-.287.99-.43 1.607-.43.497 0 .94.092 1.329.276.389.182.703.438.942.767.242.33.385.715.43 1.155h-1.24a1.486 1.486 0 0 0-.468-.792c-.242-.222-.566-.333-.972-.333-.355 0-.666.094-.933.281-.264.185-.47.45-.618.793-.148.341-.222.744-.222 1.21 0 .477.073.89.218 1.236.145.347.349.615.613.806.267.19.581.285.942.285.242 0 .46-.044.656-.132.199-.091.365-.22.499-.388a1.47 1.47 0 0 0 .285-.605h1.24a2.405 2.405 0 0 1-.413 1.133c-.23.333-.538.594-.925.785-.383.19-.833.285-1.35.285zm6.818 0c-.633 0-1.179-.143-1.636-.43a2.853 2.853 0 0 1-1.049-1.198c-.244-.508-.366-1.09-.366-1.747 0-.665.125-1.251.375-1.76a2.87 2.87 0 0 1 1.057-1.197c.454-.287.99-.43 1.606-.43.497 0 .941.092 1.33.276.389.182.703.438.942.767.241.33.385.715.43 1.155h-1.24a1.481 1.481 0 0 0-.469-.792c-.241-.222-.565-.333-.971-.333-.355 0-.667.094-.934.281-.264.185-.47.45-.618.793-.147.341-.221.744-.221 1.21 0 .477.072.89.217 1.236.145.347.35.615.614.806.267.19.581.285.942.285.241 0 .46-.044.656-.132a1.33 1.33 0 0 0 .498-.388c.137-.168.232-.37.286-.605h1.24a2.405 2.405 0 0 1-.413 1.133c-.23.333-.539.594-.925.785-.384.19-.834.285-1.351.285zm6.819 0c-.614 0-1.149-.14-1.607-.422a2.847 2.847 0 0 1-1.065-1.18c-.253-.506-.379-1.097-.379-1.773 0-.679.126-1.273.379-1.781a2.841 2.841 0 0 1 1.065-1.185c.458-.281.993-.422 1.607-.422.613 0 1.149.14 1.606.422.458.281.813.676 1.066 1.185.252.508.379 1.102.379 1.781 0 .676-.127 1.267-.379 1.773a2.845 2.845 0 0 1-1.066 1.18c-.457.282-.993.422-1.606.422zm.004-1.07c.398 0 .727-.105.989-.315.261-.21.454-.49.579-.84a3.33 3.33 0 0 0 .192-1.154c0-.418-.064-.801-.192-1.15a1.876 1.876 0 0 0-.579-.849c-.262-.213-.591-.32-.989-.32-.401 0-.733.107-.997.32a1.9 1.9 0 0 0-.584.848c-.125.35-.188.733-.188 1.15 0 .421.063.806.188 1.156.128.35.322.629.584.84.264.21.596.314.997.314zm8.625-1.776v-3.832h1.279V81h-1.253v-1.133h-.068c-.151.349-.392.64-.725.873-.329.23-.74.345-1.231.345-.421 0-.793-.092-1.117-.277a1.94 1.94 0 0 1-.758-.83c-.182-.367-.273-.82-.273-1.36v-4.163h1.274v4.01c0 .445.124.8.371 1.065.247.264.568.396.963.396a1.568 1.568 0 0 0 1.304-.72c.159-.242.237-.548.234-.92zm4.275-1.172V81h-1.274v-6.546h1.223v1.066h.081c.15-.347.386-.625.707-.835.324-.21.732-.316 1.223-.316.446 0 .837.094 1.172.282.335.184.595.46.78.826.185.367.277.82.277 1.36V81h-1.274v-4.01c0-.474-.124-.845-.371-1.112-.247-.27-.587-.405-1.019-.405-.295 0-.558.064-.788.192a1.377 1.377 0 0 0-.541.562c-.131.245-.196.54-.196.887zm8.963-2.66v1.023h-3.575v-1.023h3.575zm-2.616-1.568h1.274v6.192c0 .247.037.433.111.558a.576.576 0 0 0 .285.252c.119.042.249.064.388.064.102 0 .192-.007.268-.022a6.69 6.69 0 0 0 .179-.034l.23 1.053a2.494 2.494 0 0 1-.826.136 2.244 2.244 0 0 1-.938-.179 1.606 1.606 0 0 1-.703-.58c-.179-.26-.268-.589-.268-.984v-6.456z"/><path fill="#000" d="M33.597 104v-8.727h3.11c.677 0 1.238.116 1.684.35.449.232.784.555 1.006.966.221.41.332.883.332 1.42 0 .534-.112 1.004-.337 1.41a2.269 2.269 0 0 1-1.006.942c-.446.224-1.007.336-1.683.336h-2.356v-1.133h2.237c.426 0 .773-.061 1.04-.183.27-.123.467-.3.592-.533.125-.233.188-.513.188-.84 0-.329-.064-.614-.192-.856a1.238 1.238 0 0 0-.593-.554c-.267-.13-.617-.196-1.052-.196h-1.654V104h-1.316zm4.308-3.938L40.061 104h-1.5l-2.113-3.938h1.457zm6.073 4.07c-.645 0-1.2-.138-1.666-.413a2.807 2.807 0 0 1-1.074-1.172c-.25-.506-.375-1.098-.375-1.777 0-.671.125-1.261.375-1.773.253-.511.605-.91 1.057-1.197.454-.287.985-.43 1.593-.43.37 0 .728.06 1.074.183.347.122.658.314.933.575.276.261.493.6.652 1.018.16.415.24.919.24 1.513v.452h-5.204v-.955h3.955a1.88 1.88 0 0 0-.205-.89 1.547 1.547 0 0 0-.575-.618 1.608 1.608 0 0 0-.861-.226c-.358 0-.67.088-.938.264-.264.173-.468.4-.613.682a1.968 1.968 0 0 0-.213.908v.745c0 .438.076.81.23 1.117.156.307.373.541.652.703.278.159.603.239.976.239.241 0 .461-.035.66-.103a1.366 1.366 0 0 0 .848-.831l1.206.218c-.096.355-.27.666-.52.933-.247.264-.558.47-.933.618a3.49 3.49 0 0 1-1.274.217zm5.506-4.018V104H48.21v-6.546h1.223v1.066h.08c.151-.347.387-.625.708-.835.324-.21.732-.316 1.223-.316.446 0 .837.094 1.172.282.335.184.595.46.78.826.185.367.277.82.277 1.36V104h-1.274v-4.01c0-.474-.124-.845-.371-1.112-.247-.27-.587-.405-1.018-.405-.296 0-.559.064-.789.192a1.378 1.378 0 0 0-.541.562c-.13.245-.196.54-.196.887zm8.963-2.66v1.023h-3.575v-1.023h3.575zm-2.616-1.568h1.274v6.192c0 .247.037.433.11.558a.578.578 0 0 0 .286.252c.12.042.249.064.388.064.102 0 .192-.007.268-.022l.18-.034.23 1.053a2.527 2.527 0 0 1-.827.136 2.239 2.239 0 0 1-.938-.179 1.61 1.61 0 0 1-.703-.579c-.179-.262-.268-.59-.268-.985v-6.456z"/><path fill="#666" d="M31.528 73.406v-1.133h6.755v1.133H35.56V81h-1.313v-7.594h-2.719zm8.21 10.048a2.69 2.69 0 0 1-.52-.046 1.634 1.634 0 0 1-.349-.094l.307-1.044c.233.062.44.09.622.08a.746.746 0 0 0 .481-.204c.143-.127.268-.336.375-.626l.158-.435-2.395-6.63h1.364l1.658 5.08h.068l1.657-5.08h1.368l-2.697 7.419c-.125.34-.284.629-.477.865a1.852 1.852 0 0 1-.69.537 2.27 2.27 0 0 1-.93.178zm6.002 0v-9h1.244v1.062h.107a3.56 3.56 0 0 1 .32-.473 1.8 1.8 0 0 1 .579-.47c.247-.135.574-.204.98-.204.528 0 1 .134 1.415.4.415.268.74.653.976 1.156.238.503.358 1.108.358 1.815 0 .707-.118 1.314-.354 1.82-.236.502-.56.89-.972 1.163-.412.27-.882.405-1.41.405-.398 0-.723-.067-.976-.2a1.847 1.847 0 0 1-.588-.47 3.544 3.544 0 0 1-.328-.477h-.077v3.474H45.74zm1.248-5.727c0 .46.067.864.2 1.21.134.347.327.618.58.814.253.194.563.29.93.29.38 0 .698-.1.954-.302.255-.205.449-.482.58-.831a3.3 3.3 0 0 0 .2-1.18c0-.432-.066-.82-.196-1.164a1.782 1.782 0 0 0-.58-.814c-.256-.199-.575-.298-.959-.298-.37 0-.682.095-.937.285-.253.19-.445.456-.576.797a3.34 3.34 0 0 0-.196 1.193zm8.99 3.405c-.646 0-1.201-.138-1.667-.413a2.805 2.805 0 0 1-1.074-1.172c-.25-.506-.375-1.098-.375-1.777 0-.67.125-1.261.375-1.773.253-.511.605-.91 1.057-1.197.454-.287.986-.43 1.594-.43.369 0 .727.06 1.074.183a2.6 2.6 0 0 1 .933.575c.275.261.493.6.652 1.018.159.415.238.92.238 1.513v.452h-5.203v-.955h3.955a1.88 1.88 0 0 0-.205-.89 1.547 1.547 0 0 0-.575-.618 1.608 1.608 0 0 0-.86-.226c-.359 0-.671.088-.938.264-.265.173-.47.4-.614.682a1.968 1.968 0 0 0-.213.908v.745c0 .438.077.81.23 1.117.156.307.374.541.652.703.278.159.604.239.976.239a2 2 0 0 0 .66-.103 1.37 1.37 0 0 0 .848-.831l1.206.218c-.096.355-.27.666-.52.933-.247.264-.558.47-.933.618a3.492 3.492 0 0 1-1.274.217z"/><rect width="78" height="23" x="31" y="127" fill="#25B670" opacity=".12" rx="11.5"/><path fill="#199258" d="M39.79 143v-8h3c.614 0 1.13.115 1.546.344.42.229.736.544.95.945.215.398.323.852.323 1.359 0 .513-.108.969-.324 1.368a2.318 2.318 0 0 1-.957.941c-.422.227-.941.34-1.559.34h-1.988v-1.192h1.793c.36 0 .654-.062.883-.187.23-.125.398-.297.508-.516a1.63 1.63 0 0 0 .168-.754c0-.283-.056-.533-.168-.75a1.135 1.135 0 0 0-.512-.503c-.229-.123-.525-.184-.887-.184h-1.328V143H39.79zm7.478 0v-8h3c.615 0 1.13.107 1.547.32.42.214.736.513.95.899.215.383.324.829.324 1.34 0 .513-.11.958-.329 1.336a2.167 2.167 0 0 1-.957.871c-.422.203-.94.304-1.554.304h-2.137v-1.203h1.941c.36 0 .654-.049.883-.148.23-.102.399-.249.508-.442.112-.195.168-.435.168-.718 0-.284-.056-.526-.168-.727a1.068 1.068 0 0 0-.512-.461c-.229-.107-.525-.16-.887-.16h-1.328V143h-1.449zm4.133-3.625 1.98 3.625h-1.617l-1.945-3.625H51.4zm10.57-.375c0 .862-.162 1.6-.484 2.215a3.423 3.423 0 0 1-1.313 1.406c-.552.326-1.178.488-1.879.488-.7 0-1.328-.162-1.883-.488a3.484 3.484 0 0 1-1.312-1.41c-.32-.615-.48-1.352-.48-2.211 0-.862.16-1.599.48-2.211.323-.615.76-1.085 1.312-1.41.555-.326 1.183-.488 1.883-.488s1.327.162 1.879.488c.555.325.992.795 1.313 1.41.322.612.484 1.349.484 2.211zm-1.457 0c0-.607-.095-1.118-.285-1.535-.188-.419-.448-.736-.782-.949a2.065 2.065 0 0 0-1.152-.325c-.435 0-.819.108-1.152.325-.334.213-.595.53-.785.949-.188.417-.282.928-.282 1.535 0 .607.094 1.12.282 1.539.19.417.451.733.785.949.333.214.717.321 1.152.321.435 0 .82-.107 1.152-.321.334-.216.594-.532.782-.949.19-.419.285-.932.285-1.539zm3.227 4v-8h3c.615 0 1.13.115 1.547.344.42.229.736.544.95.945.215.398.323.852.323 1.359 0 .513-.108.969-.324 1.368a2.317 2.317 0 0 1-.957.941c-.422.227-.941.34-1.558.34h-1.989v-1.192h1.793c.36 0 .654-.062.883-.187.23-.125.398-.297.508-.516a1.63 1.63 0 0 0 .168-.754c0-.283-.056-.533-.168-.75a1.136 1.136 0 0 0-.512-.503c-.23-.123-.525-.184-.887-.184H65.19V143h-1.449zm7.48 0v-8h5.202v1.215H72.67v2.172h3.485v1.215H72.67v2.183h3.785V143H71.22zm7.08 0v-8h3c.615 0 1.131.107 1.548.32.419.214.735.513.949.899.216.383.324.829.324 1.34 0 .513-.11.958-.328 1.336a2.167 2.167 0 0 1-.957.871c-.422.203-.94.304-1.555.304h-2.136v-1.203h1.94c.36 0 .655-.049.884-.148.229-.102.398-.249.508-.442.112-.195.168-.435.168-.718 0-.284-.056-.526-.168-.727a1.068 1.068 0 0 0-.512-.461c-.23-.107-.525-.16-.887-.16h-1.328V143h-1.45zm4.134-3.625 1.98 3.625h-1.617l-1.945-3.625h1.582zm3.07-3.16V135h6.382v1.215h-2.472V143h-1.438v-6.785h-2.473zM92.97 135h1.637l1.957 3.539h.078L98.6 135h1.637l-2.91 5.016V143H95.88v-2.984L92.971 135z"/></g><g filter="url(#c)"><rect width="180.9" height="148.5" x="244.055" y="30.25" fill="#fff" rx="14.4"/><path fill="#000" d="M263.836 63.25h-1.468l3.298-9.164h1.597l3.298 9.164h-1.468l-2.591-7.5h-.071l-2.595 7.5zm.246-3.589h4.76v1.164h-4.76V59.66zm10.317 3.728c-.665 0-1.238-.15-1.718-.452a2.984 2.984 0 0 1-1.101-1.258c-.257-.534-.385-1.145-.385-1.834 0-.698.131-1.314.394-1.848a3.013 3.013 0 0 1 1.109-1.257c.478-.302 1.04-.452 1.687-.452.522 0 .988.097 1.396.29a2.5 2.5 0 0 1 .989.806c.254.346.404.75.452 1.213h-1.302a1.566 1.566 0 0 0-.492-.833c-.254-.232-.594-.349-1.02-.349-.373 0-.7.099-.98.296-.278.194-.494.471-.649.832-.155.358-.233.781-.233 1.27 0 .502.076.934.229 1.298.152.364.366.646.644.846.28.2.61.3.989.3.253 0 .483-.047.689-.139.209-.096.383-.231.523-.407.143-.176.243-.388.3-.636h1.302a2.528 2.528 0 0 1-.434 1.19 2.498 2.498 0 0 1-.971.824c-.403.2-.875.3-1.418.3zm4.092-.139v-6.873h1.293v1.092h.071c.126-.37.347-.66.663-.873a1.9 1.9 0 0 1 1.083-.322 5.7 5.7 0 0 1 .568.032v1.28a2.381 2.381 0 0 0-.287-.05 2.722 2.722 0 0 0-.411-.031c-.316 0-.598.067-.846.201a1.5 1.5 0 0 0-.796 1.347v4.197h-1.338zm7.39.139c-.678 0-1.261-.145-1.75-.434a2.95 2.95 0 0 1-1.128-1.23c-.262-.532-.393-1.154-.393-1.867 0-.704.131-1.324.393-1.861a3.064 3.064 0 0 1 1.11-1.257c.477-.302 1.035-.452 1.674-.452.387 0 .763.064 1.127.192.364.129.691.33.98.604.289.275.518.631.685 1.07.167.435.25.965.25 1.588v.474h-5.463v-1.002h4.152c0-.352-.071-.664-.215-.935a1.62 1.62 0 0 0-.604-.649 1.685 1.685 0 0 0-.904-.237c-.375 0-.703.092-.984.277a1.866 1.866 0 0 0-.644.716 2.07 2.07 0 0 0-.224.953v.783c0 .46.081.85.242 1.173.164.322.392.568.684.738.293.167.634.25 1.025.25.253 0 .485-.035.693-.107.209-.074.39-.185.542-.331.152-.146.268-.327.349-.541l1.266.228c-.101.373-.283.7-.546.98a2.64 2.64 0 0 1-.98.648 3.66 3.66 0 0 1-1.337.229zm7.551-.139v-9.164h3.266c.71 0 1.299.123 1.767.367.472.245.824.583 1.056 1.016.233.43.349.926.349 1.49 0 .56-.118 1.054-.353 1.481a2.381 2.381 0 0 1-1.056.989c-.469.235-1.058.353-1.768.353h-2.474v-1.19h2.349c.448 0 .811-.064 1.092-.192.283-.129.491-.315.622-.56a1.84 1.84 0 0 0 .197-.881c0-.346-.067-.646-.202-.9a1.296 1.296 0 0 0-.622-.581c-.28-.137-.648-.206-1.105-.206h-1.736v7.978h-1.382zm4.523-4.134 2.264 4.134h-1.575l-2.219-4.134h1.53zm6.204 4.273c-.677 0-1.26-.145-1.749-.434a2.943 2.943 0 0 1-1.128-1.23c-.262-.532-.394-1.154-.394-1.867 0-.704.132-1.324.394-1.861a3.057 3.057 0 0 1 1.11-1.257c.477-.302 1.035-.452 1.673-.452.388 0 .764.064 1.128.192.364.129.69.33.98.604.289.275.517.631.684 1.07.167.435.251.965.251 1.588v.474h-5.463v-1.002h4.152c0-.352-.072-.664-.215-.935a1.626 1.626 0 0 0-.604-.649 1.69 1.69 0 0 0-.904-.237c-.376 0-.704.092-.984.277a1.869 1.869 0 0 0-.645.716 2.07 2.07 0 0 0-.223.953v.783c0 .46.08.85.241 1.173.164.322.393.568.685.738.292.167.634.25 1.025.25.253 0 .484-.035.693-.107a1.5 1.5 0 0 0 .542-.331c.152-.146.268-.327.349-.541l1.266.228c-.102.373-.284.7-.546.98a2.65 2.65 0 0 1-.98.648 3.67 3.67 0 0 1-1.338.229zm9.421-5.334-1.212.215a1.45 1.45 0 0 0-.242-.443 1.189 1.189 0 0 0-.438-.344 1.591 1.591 0 0 0-.694-.135c-.379 0-.695.085-.949.255-.253.167-.38.384-.38.65 0 .229.085.414.255.554.17.14.445.255.823.344l1.092.251c.633.146 1.104.371 1.414.676.31.304.466.7.466 1.185 0 .412-.12.779-.358 1.101-.236.32-.566.57-.989.752-.421.182-.909.273-1.463.273-.77 0-1.398-.164-1.884-.492-.486-.332-.785-.801-.895-1.41l1.293-.197c.081.337.246.592.497.765.25.17.577.255.98.255.438 0 .789-.09 1.051-.273.263-.184.394-.41.394-.675a.703.703 0 0 0-.242-.542c-.158-.146-.401-.256-.729-.33l-1.163-.256c-.642-.146-1.116-.379-1.423-.698-.305-.319-.457-.723-.457-1.212 0-.406.114-.761.34-1.065a2.23 2.23 0 0 1 .94-.712c.4-.173.858-.26 1.374-.26.742 0 1.327.162 1.754.484.426.32.708.747.845 1.284zm1.443 5.195v-6.873h1.338v6.873h-1.338zm.676-7.933a.849.849 0 0 1-.599-.233.754.754 0 0 1-.247-.564c0-.22.082-.408.247-.563a.84.84 0 0 1 .599-.238c.233 0 .431.08.595.238a.742.742 0 0 1 .251.563.751.751 0 0 1-.251.564.834.834 0 0 1-.595.233zm4.873 8.067c-.555 0-1.05-.142-1.486-.425-.432-.286-.772-.693-1.02-1.221-.244-.531-.367-1.168-.367-1.91 0-.744.124-1.38.372-1.907.25-.528.593-.932 1.029-1.213.435-.28.929-.42 1.481-.42.426 0 .77.071 1.029.215.263.14.465.304.609.492.146.188.259.353.34.496h.08v-3.405h1.338v9.164h-1.307v-1.07h-.111a3.586 3.586 0 0 1-.349.502c-.15.188-.355.352-.618.492-.262.14-.602.21-1.02.21zm.295-1.14c.385 0 .71-.102.976-.305a1.88 1.88 0 0 0 .608-.855c.14-.364.211-.787.211-1.27 0-.478-.069-.895-.206-1.253a1.849 1.849 0 0 0-.604-.837c-.266-.2-.594-.3-.985-.3-.402 0-.738.105-1.006.313a1.91 1.91 0 0 0-.609.855 3.491 3.491 0 0 0-.201 1.222c0 .459.068.872.205 1.24.138.366.341.657.609.872.271.211.606.317 1.002.317zm7.82 1.145c-.678 0-1.261-.145-1.75-.434a2.95 2.95 0 0 1-1.128-1.23c-.262-.532-.393-1.154-.393-1.867 0-.704.131-1.324.393-1.861a3.064 3.064 0 0 1 1.11-1.257c.477-.302 1.035-.452 1.674-.452.387 0 .763.064 1.127.192.364.129.691.33.98.604.289.275.518.631.685 1.07.167.435.25.965.25 1.588v.474h-5.463v-1.002h4.152c0-.352-.071-.664-.215-.935a1.62 1.62 0 0 0-.604-.649 1.684 1.684 0 0 0-.903-.237 1.75 1.75 0 0 0-.985.277 1.866 1.866 0 0 0-.644.716 2.07 2.07 0 0 0-.224.953v.783c0 .46.081.85.242 1.173.164.322.392.568.684.738.293.167.634.25 1.025.25.254 0 .485-.035.694-.107a1.5 1.5 0 0 0 .541-.331c.152-.146.268-.327.349-.541l1.266.228c-.101.373-.283.7-.546.98a2.64 2.64 0 0 1-.98.648 3.66 3.66 0 0 1-1.337.229zm5.608-4.22v4.081h-1.337v-6.873h1.284v1.119h.085a1.96 1.96 0 0 1 .743-.877c.34-.22.768-.331 1.284-.331.468 0 .878.098 1.23.295.352.194.625.483.819.868.194.385.291.86.291 1.428v4.371h-1.338v-4.21c0-.499-.13-.888-.389-1.168-.26-.284-.616-.425-1.07-.425-.31 0-.586.067-.827.201a1.446 1.446 0 0 0-.569.59c-.137.257-.206.567-.206.931zm9.239-2.792v1.074h-3.754v-1.074h3.754zm-2.747-1.646h1.338v6.501c0 .26.039.455.116.586a.611.611 0 0 0 .3.264c.125.045.261.067.407.067.107 0 .201-.007.282-.022l.188-.036.242 1.105a2.62 2.62 0 0 1-.869.143 2.353 2.353 0 0 1-.984-.187 1.69 1.69 0 0 1-.738-.609c-.188-.274-.282-.619-.282-1.034v-6.778zm4.065 8.519v-6.873h1.338v6.873h-1.338zm.676-7.933a.85.85 0 0 1-.6-.233.757.757 0 0 1-.246-.564c0-.22.082-.408.246-.563a.842.842 0 0 1 .6-.238c.232 0 .431.08.595.238a.74.74 0 0 1 .25.563.75.75 0 0 1-.25.564.836.836 0 0 1-.595.233zm4.3 8.085a2.79 2.79 0 0 1-1.181-.242 1.992 1.992 0 0 1-.837-.71c-.203-.311-.304-.692-.304-1.142 0-.388.074-.707.223-.957.15-.251.351-.45.604-.596.254-.146.537-.256.851-.33a8.44 8.44 0 0 1 .957-.17l1.002-.117c.257-.033.443-.085.56-.157.116-.071.174-.188.174-.349v-.03c0-.392-.11-.694-.331-.91-.218-.214-.543-.321-.975-.321-.451 0-.806.1-1.065.3a1.603 1.603 0 0 0-.533.657l-1.257-.286a2.42 2.42 0 0 1 .653-1.011c.29-.26.622-.448.998-.564.376-.12.771-.18 1.186-.18.274 0 .565.034.872.1.311.062.6.178.868.348.272.17.494.413.667.73.173.313.26.72.26 1.221v4.564h-1.307v-.94h-.054a1.893 1.893 0 0 1-.389.51 2.065 2.065 0 0 1-.667.417 2.59 2.59 0 0 1-.975.165zm.291-1.074c.37 0 .686-.073.948-.219a1.53 1.53 0 0 0 .604-.573c.141-.238.211-.493.211-.765v-.886c-.048.048-.141.093-.278.135a4.342 4.342 0 0 1-.461.102c-.173.027-.341.053-.505.076l-.412.054a3.306 3.306 0 0 0-.711.166c-.212.077-.382.19-.51.335-.126.143-.188.334-.188.573 0 .331.122.582.367.752.244.167.556.25.935.25zm6.058-8.242v9.164h-1.338v-9.164h1.338z"/><path fill="#5926DA" d="M353.573 118.551h-1.258l2.827-7.855h1.369l2.827 7.855h-1.258l-2.221-6.428h-.061l-2.225 6.428zm.211-3.076h4.081v.997h-4.081v-.997zm8.991 3.195c-.57 0-1.061-.129-1.472-.388a2.564 2.564 0 0 1-.944-1.077c-.22-.458-.33-.982-.33-1.573 0-.598.113-1.126.338-1.584.225-.46.542-.819.951-1.077.409-.259.891-.388 1.446-.388.447 0 .846.083 1.196.249.351.164.633.394.848.691.217.296.346.643.387 1.039h-1.116a1.333 1.333 0 0 0-.422-.713c-.217-.2-.508-.299-.874-.299-.32 0-.6.084-.84.253a1.626 1.626 0 0 0-.556.713c-.133.307-.199.67-.199 1.089 0 .43.065.801.195 1.113.131.311.315.553.552.724.241.172.523.257.848.257.217 0 .414-.039.591-.119.179-.081.328-.198.448-.349.123-.15.209-.332.257-.544h1.116a2.169 2.169 0 0 1-.372 1.02 2.145 2.145 0 0 1-.832.706c-.345.171-.75.257-1.216.257zm3.656-.119v-5.891h1.108v.936h.061c.108-.317.297-.567.568-.748.274-.184.583-.276.928-.276a4.931 4.931 0 0 1 .487.027v1.096a2.443 2.443 0 0 0-.245-.042 2.331 2.331 0 0 0-.353-.027c-.271 0-.513.058-.725.173a1.27 1.27 0 0 0-.498.472 1.272 1.272 0 0 0-.185.682v3.598h-1.146zm6.482.119c-.581 0-1.081-.124-1.5-.372a2.518 2.518 0 0 1-.966-1.055c-.225-.455-.338-.988-.338-1.599 0-.604.113-1.136.338-1.596.227-.46.544-.819.951-1.077.409-.259.887-.388 1.434-.388.332 0 .655.055.967.165.311.11.591.283.839.518.248.235.444.541.587.916.143.374.215.828.215 1.362v.406h-4.683v-.859h3.559a1.69 1.69 0 0 0-.184-.801 1.388 1.388 0 0 0-.518-.556 1.44 1.44 0 0 0-.774-.204c-.322 0-.604.08-.844.238a1.593 1.593 0 0 0-.552.614c-.128.25-.192.523-.192.817v.671c0 .394.069.729.207 1.005a1.5 1.5 0 0 0 .587.633c.25.143.543.214.878.214.217 0 .416-.03.595-.092.179-.064.333-.158.464-.283.13-.126.23-.28.299-.465l1.085.196c-.087.32-.243.6-.468.84a2.258 2.258 0 0 1-.84.556 3.15 3.15 0 0 1-1.146.196z"/><path fill="#666" d="M353.573 97.85h-1.258l2.827-7.854h1.369l2.827 7.855h-1.258l-2.221-6.428h-.061l-2.225 6.428zm.211-3.075h4.081v.997h-4.081v-.997zm8.991 3.194c-.57 0-1.061-.129-1.472-.387a2.567 2.567 0 0 1-.944-1.078c-.22-.457-.33-.981-.33-1.572 0-.598.113-1.126.338-1.584.225-.46.542-.82.951-1.078.409-.258.891-.387 1.446-.387.447 0 .846.083 1.196.25a2.09 2.09 0 0 1 1.235 1.73h-1.116a1.334 1.334 0 0 0-.422-.714c-.217-.2-.508-.3-.874-.3-.32 0-.6.085-.84.254a1.626 1.626 0 0 0-.556.713c-.133.307-.199.67-.199 1.09 0 .429.065.8.195 1.111.131.312.315.554.552.725.241.171.523.257.848.257.217 0 .414-.04.591-.119.179-.081.328-.198.448-.349.123-.15.209-.332.257-.544h1.116a2.17 2.17 0 0 1-.372 1.02 2.145 2.145 0 0 1-.832.706c-.345.17-.75.257-1.216.257zm6.137 0c-.57 0-1.061-.129-1.473-.387a2.565 2.565 0 0 1-.943-1.078c-.22-.457-.33-.981-.33-1.572 0-.598.113-1.126.338-1.584.225-.46.542-.82.951-1.078.409-.258.891-.387 1.446-.387.447 0 .846.083 1.196.25a2.09 2.09 0 0 1 1.235 1.73h-1.116a1.334 1.334 0 0 0-.422-.714c-.217-.2-.509-.3-.874-.3-.32 0-.6.085-.84.254a1.626 1.626 0 0 0-.556.713c-.133.307-.2.67-.2 1.09 0 .429.065.8.196 1.111.13.312.314.554.552.725.24.171.523.257.848.257.217 0 .414-.04.59-.119.179-.081.329-.198.449-.349.123-.15.208-.332.257-.544h1.116a2.17 2.17 0 0 1-.372 1.02 2.145 2.145 0 0 1-.832.706c-.345.17-.751.257-1.216.257zm6.137 0c-.552 0-1.034-.126-1.446-.38a2.561 2.561 0 0 1-.959-1.062c-.227-.455-.341-.987-.341-1.595 0-.611.114-1.145.341-1.603.228-.458.547-.813.959-1.066.412-.254.894-.38 1.446-.38.552 0 1.034.127 1.446.38.411.253.731.608.958 1.066.228.458.342.992.342 1.603 0 .608-.114 1.14-.342 1.595a2.56 2.56 0 0 1-.958 1.063c-.412.253-.894.38-1.446.38zm.004-.962c.358 0 .654-.095.889-.284.236-.19.41-.441.522-.755a3.01 3.01 0 0 0 .173-1.04c0-.376-.058-.72-.173-1.035a1.678 1.678 0 0 0-.522-.764c-.235-.191-.531-.287-.889-.287-.361 0-.66.096-.898.287-.235.192-.41.447-.525.764-.113.314-.169.66-.169 1.035 0 .379.056.725.169 1.04.115.314.29.566.525.755.238.19.537.284.898.284zm7.763-1.6V91.96h1.15v5.89h-1.127v-1.02h-.062a1.836 1.836 0 0 1-.652.787c-.296.207-.666.31-1.108.31a1.99 1.99 0 0 1-1.005-.249 1.75 1.75 0 0 1-.683-.748c-.163-.33-.245-.738-.245-1.223V91.96h1.147v3.609c0 .401.111.72.333.958.223.238.512.357.867.357.215 0 .428-.054.64-.161.215-.107.393-.27.534-.487.143-.217.213-.493.211-.829zm3.847-1.054v3.498h-1.147V91.96h1.101v.959h.072c.136-.312.348-.563.637-.752.292-.19.658-.284 1.101-.284.401 0 .753.084 1.055.253.301.166.535.414.701.744.167.33.25.738.25 1.224v3.747h-1.147v-3.61c0-.426-.111-.76-.334-1-.222-.243-.528-.365-.916-.365-.266 0-.503.058-.71.173a1.243 1.243 0 0 0-.487.506c-.118.22-.176.486-.176.798zm8.066-2.393v.92h-3.217v-.92h3.217zm-2.354-1.412h1.146v5.573c0 .222.034.39.1.502.067.11.152.186.257.227a1.238 1.238 0 0 0 .591.037l.161-.03.207.948a2.251 2.251 0 0 1-.744.123 2.02 2.02 0 0 1-.844-.162 1.446 1.446 0 0 1-.633-.521c-.161-.236-.241-.53-.241-.886v-5.81z"/><path fill="#000" d="M263.184 118.551v-7.855h2.8c.608 0 1.113.105 1.515.315.404.209.705.5.905.87.199.369.299.794.299 1.277 0 .481-.101.904-.303 1.27-.2.363-.501.646-.905.847-.402.202-.907.303-1.515.303h-2.121v-1.02h2.013c.384 0 .696-.055.936-.165.243-.11.421-.269.533-.479.113-.21.169-.462.169-.756 0-.296-.057-.553-.172-.77a1.116 1.116 0 0 0-.534-.499c-.24-.118-.556-.176-.947-.176h-1.488v6.838h-1.185zm3.877-3.544 1.941 3.544h-1.35l-1.902-3.544h1.311zm5.466 3.663c-.58 0-1.08-.124-1.5-.372a2.524 2.524 0 0 1-.966-1.055c-.225-.455-.338-.988-.338-1.599 0-.604.113-1.136.338-1.596.227-.46.545-.819.951-1.077.409-.259.887-.388 1.434-.388.333 0 .655.055.967.165.312.11.592.283.84.518.248.235.443.541.587.916.143.374.214.828.214 1.362v.406h-4.682v-.859h3.559c0-.301-.062-.568-.184-.801a1.395 1.395 0 0 0-.518-.556 1.443 1.443 0 0 0-.775-.204c-.322 0-.603.08-.844.238a1.6 1.6 0 0 0-.552.614c-.128.25-.192.523-.192.817v.671c0 .394.069.729.207 1.005.141.276.337.487.587.633.251.143.544.214.878.214.218 0 .416-.03.595-.092.179-.064.334-.158.464-.283.13-.126.23-.28.299-.465l1.086.196c-.087.32-.243.6-.468.84a2.274 2.274 0 0 1-.84.556c-.335.13-.717.196-1.147.196zm4.955-3.617v3.498h-1.146v-5.891h1.1v.959h.073c.136-.312.348-.563.637-.752.291-.189.658-.284 1.101-.284.401 0 .753.085 1.054.253.302.166.536.414.702.744.166.33.249.738.249 1.224v3.747h-1.146v-3.609c0-.427-.111-.761-.334-1.001-.222-.243-.528-.365-.917-.365-.265 0-.502.058-.709.173a1.239 1.239 0 0 0-.487.506c-.118.22-.177.486-.177.798zm8.067-2.393v.92h-3.218v-.92h3.218zm-2.355-1.411h1.147v5.572c0 .223.033.39.1.503a.522.522 0 0 0 .257.226c.107.038.224.057.349.057.092 0 .172-.006.241-.019l.162-.031.207.948a1.955 1.955 0 0 1-.284.076 2.15 2.15 0 0 1-.46.046 1.998 1.998 0 0 1-.844-.161 1.443 1.443 0 0 1-.633-.521c-.161-.235-.242-.531-.242-.886v-5.81z"/><path fill="#666" d="M262.91 89.996h1.438l2.501 6.106h.092l2.5-6.106h1.438v7.855h-1.127v-5.684h-.073l-2.317 5.672h-.935l-2.317-5.676h-.073v5.688h-1.127v-7.855zm11.324 7.985c-.374 0-.711-.07-1.013-.207a1.7 1.7 0 0 1-.717-.61c-.174-.266-.261-.592-.261-.978 0-.332.064-.606.192-.82.128-.215.3-.385.518-.51a2.7 2.7 0 0 1 .728-.284c.269-.065.542-.113.821-.146l.859-.1c.22-.028.38-.073.48-.134.099-.062.149-.161.149-.3v-.026c0-.335-.094-.595-.284-.779-.186-.184-.465-.276-.836-.276-.386 0-.69.086-.912.257a1.38 1.38 0 0 0-.457.564l-1.078-.246c.128-.358.315-.646.56-.866.248-.223.533-.384.856-.484a3.337 3.337 0 0 1 1.016-.153c.235 0 .485.028.748.084.266.054.514.154.744.3.233.145.423.354.571.625.149.268.223.617.223 1.047v3.912h-1.12v-.806h-.046a1.616 1.616 0 0 1-.334.437 1.774 1.774 0 0 1-.571.357 2.22 2.22 0 0 1-.836.142zm.249-.92c.317 0 .588-.063.813-.188.228-.126.4-.29.518-.491.12-.205.18-.424.18-.656v-.76a.597.597 0 0 1-.238.116 3.673 3.673 0 0 1-.395.088l-.433.065a47.18 47.18 0 0 0-.353.046 2.847 2.847 0 0 0-.61.142 1.05 1.05 0 0 0-.437.287.722.722 0 0 0-.161.491c0 .284.105.499.314.645.21.143.477.215.802.215zm5.341-2.708v3.498h-1.147V91.96h1.101v.959h.073c.135-.312.347-.563.636-.752.292-.19.659-.284 1.101-.284.402 0 .753.084 1.055.253a1.7 1.7 0 0 1 .702.744c.166.33.249.738.249 1.224v3.747h-1.147v-3.61c0-.426-.111-.76-.333-1-.223-.243-.528-.365-.917-.365-.266 0-.503.058-.71.173a1.243 1.243 0 0 0-.487.506 1.68 1.68 0 0 0-.176.798zm7.031 3.628c-.373 0-.711-.07-1.012-.207a1.7 1.7 0 0 1-.717-.61c-.174-.266-.261-.592-.261-.978 0-.332.064-.606.191-.82a1.42 1.42 0 0 1 .518-.51c.218-.126.46-.22.729-.284a6.94 6.94 0 0 1 .821-.146l.859-.1c.22-.028.379-.073.479-.134.1-.062.15-.161.15-.3v-.026c0-.335-.095-.595-.284-.779-.187-.184-.465-.276-.836-.276-.386 0-.69.086-.913.257a1.37 1.37 0 0 0-.456.564l-1.078-.246a2.07 2.07 0 0 1 .56-.866 2.27 2.27 0 0 1 .855-.484 3.339 3.339 0 0 1 1.017-.153c.235 0 .484.028.747.084.266.054.514.154.744.3.233.145.424.354.572.625.148.268.222.617.222 1.047v3.912h-1.12v-.806h-.046a1.632 1.632 0 0 1-.333.437 1.78 1.78 0 0 1-.572.357 2.213 2.213 0 0 1-.836.142zm.249-.92c.318 0 .589-.063.814-.188.227-.126.4-.29.517-.491a1.28 1.28 0 0 0 .181-.656v-.76a.604.604 0 0 1-.238.116 3.728 3.728 0 0 1-.395.088l-.434.065-.352.046a2.833 2.833 0 0 0-.61.142 1.037 1.037 0 0 0-.437.287c-.108.123-.162.287-.162.491 0 .284.105.499.315.645.21.143.477.215.801.215zm6.665 3.121c-.468 0-.871-.061-1.209-.184a2.342 2.342 0 0 1-.82-.487 2.05 2.05 0 0 1-.476-.663l.986-.407c.069.113.161.232.276.357.118.128.276.236.476.326.202.09.461.134.778.134.435 0 .794-.106 1.078-.318.284-.21.425-.545.425-1.005v-1.158h-.072a2.584 2.584 0 0 1-.3.418 1.608 1.608 0 0 1-.529.399c-.225.112-.518.168-.878.168-.465 0-.885-.108-1.258-.326a2.309 2.309 0 0 1-.882-.97c-.215-.43-.322-.957-.322-1.584 0-.626.106-1.163.318-1.61.215-.448.509-.79.882-1.029.373-.24.797-.36 1.27-.36.365 0 .661.061.886.184.225.12.4.26.525.422.128.161.226.303.295.426h.085v-.955h1.123v6.021c0 .506-.117.922-.352 1.246a2.083 2.083 0 0 1-.955.721 3.693 3.693 0 0 1-1.35.234zm-.012-3.37c.33 0 .609-.078.836-.23.23-.157.404-.38.522-.668.12-.292.18-.64.18-1.047 0-.397-.059-.746-.176-1.047a1.563 1.563 0 0 0-.518-.706c-.228-.171-.509-.257-.844-.257-.345 0-.633.09-.863.269a1.61 1.61 0 0 0-.521.72 2.845 2.845 0 0 0-.173 1.02c0 .387.059.726.176 1.017.118.292.292.52.522.683.233.163.519.245.859.245zm6.755 1.157c-.58 0-1.08-.123-1.499-.371a2.526 2.526 0 0 1-.967-1.055c-.225-.455-.337-.988-.337-1.6 0-.603.112-1.135.337-1.595.228-.46.545-.82.951-1.078.409-.258.888-.387 1.435-.387.332 0 .654.055.966.165.312.11.592.282.84.518.248.235.444.54.587.916.143.374.215.827.215 1.362v.406h-4.683v-.859h3.559a1.69 1.69 0 0 0-.184-.801 1.391 1.391 0 0 0-.518-.556 1.447 1.447 0 0 0-.775-.204c-.322 0-.603.08-.843.238a1.6 1.6 0 0 0-.553.614c-.128.25-.191.523-.191.817v.67c0 .395.069.73.207 1.006.14.276.336.487.586.632.251.144.544.215.879.215.217 0 .415-.03.594-.092a1.225 1.225 0 0 0 .763-.748l1.086.196c-.087.32-.243.6-.468.84a2.277 2.277 0 0 1-.84.556c-.335.13-.717.195-1.147.195zm3.809-.118V91.96h1.108v.936h.062a1.42 1.42 0 0 1 .567-.748c.274-.184.583-.276.928-.276a4.954 4.954 0 0 1 .488.026v1.097a2.042 2.042 0 0 0-.246-.042 2.344 2.344 0 0 0-.353-.027 1.5 1.5 0 0 0-.725.173 1.287 1.287 0 0 0-.682 1.154v3.598h-1.147z"/><rect width="111.6" height="20.7" x="262.055" y="140.05" fill="#2772FF" fill-opacity=".12" rx="10.35"/><path fill="#2772FF" d="M269.968 154.55v-7.2h2.7c.553 0 1.017.103 1.392.309.378.206.662.49.854.851.195.359.292.766.292 1.223 0 .462-.097.872-.292 1.231a2.08 2.08 0 0 1-.861.847c-.38.204-.847.306-1.403.306h-1.789v-1.072h1.614c.323 0 .588-.057.794-.169.206-.113.359-.267.457-.464.101-.197.151-.423.151-.679 0-.255-.05-.48-.151-.675a1.029 1.029 0 0 0-.46-.453c-.207-.11-.473-.165-.798-.165h-1.196v6.11h-1.304zm6.731 0v-7.2h2.7c.553 0 1.017.096 1.392.288.378.192.662.462.855.809.194.344.291.746.291 1.206 0 .461-.098.862-.295 1.202a1.951 1.951 0 0 1-.861.784c-.38.183-.846.274-1.399.274h-1.923v-1.083h1.747c.323 0 .588-.044.794-.133a.941.941 0 0 0 .457-.398c.101-.175.152-.391.152-.646 0-.256-.051-.474-.152-.654a.959.959 0 0 0-.46-.415c-.206-.096-.472-.144-.798-.144h-1.196v6.11h-1.304zm3.72-3.263 1.782 3.263h-1.455l-1.751-3.263h1.424zm9.513-.337c0 .776-.146 1.44-.436 1.993a3.088 3.088 0 0 1-1.182 1.266c-.496.293-1.06.439-1.691.439-.63 0-1.195-.146-1.694-.439a3.146 3.146 0 0 1-1.181-1.269c-.289-.553-.433-1.217-.433-1.99 0-.776.144-1.439.433-1.99.29-.553.684-.976 1.181-1.269a3.284 3.284 0 0 1 1.694-.44c.631 0 1.195.147 1.691.44.5.293.893.716 1.182 1.269.29.551.436 1.214.436 1.99zm-1.312 0c0-.546-.085-1.007-.256-1.382-.169-.377-.403-.662-.703-.854a1.862 1.862 0 0 0-1.038-.292 1.86 1.86 0 0 0-1.037.292c-.3.192-.535.477-.706.854-.169.375-.253.836-.253 1.382 0 .546.084 1.008.253 1.385.171.375.406.66.706.854.3.192.646.289 1.037.289.392 0 .738-.097 1.038-.289.3-.194.534-.479.703-.854.171-.377.256-.839.256-1.385zm2.905 3.6v-7.2h2.7c.553 0 1.017.103 1.392.309.377.206.662.49.854.851.195.359.292.766.292 1.223 0 .462-.097.872-.292 1.231a2.08 2.08 0 0 1-.861.847c-.38.204-.847.306-1.403.306h-1.789v-1.072h1.613c.324 0 .589-.057.795-.169a1.07 1.07 0 0 0 .457-.464c.101-.197.151-.423.151-.679 0-.255-.05-.48-.151-.675a1.031 1.031 0 0 0-.461-.453c-.206-.11-.472-.165-.798-.165h-1.195v6.11h-1.304zm6.731 0v-7.2h4.683v1.093h-3.379v1.955h3.136v1.093h-3.136v1.965h3.407v1.094h-4.711zm6.373 0v-7.2h2.7c.554 0 1.018.096 1.393.288.377.192.662.462.854.809.194.344.292.746.292 1.206 0 .461-.099.862-.296 1.202a1.946 1.946 0 0 1-.861.784c-.38.183-.846.274-1.399.274h-1.923v-1.083h1.747c.323 0 .588-.044.795-.133a.95.95 0 0 0 .457-.398c.1-.175.151-.391.151-.646 0-.256-.051-.474-.151-.654a.965.965 0 0 0-.461-.415c-.206-.096-.472-.144-.798-.144h-1.195v6.11h-1.305zm3.72-3.263 1.782 3.263h-1.455l-1.751-3.263h1.424zm2.763-2.844v-1.093h5.744v1.093h-2.225v6.107h-1.294v-6.107h-2.225zm6.72-1.093h1.473l1.761 3.185h.07l1.762-3.185h1.473l-2.619 4.514v2.686h-1.301v-2.686l-2.619-4.514zm17.072 3.6c0 .776-.146 1.44-.436 1.993a3.088 3.088 0 0 1-1.182 1.266c-.496.293-1.06.439-1.691.439-.63 0-1.195-.146-1.694-.439a3.146 3.146 0 0 1-1.181-1.269c-.289-.553-.433-1.217-.433-1.99 0-.776.144-1.439.433-1.99.29-.553.684-.976 1.181-1.269a3.284 3.284 0 0 1 1.694-.44c.631 0 1.195.147 1.691.44.5.293.893.716 1.182 1.269.29.551.436 1.214.436 1.99zm-1.312 0c0-.546-.085-1.007-.256-1.382-.169-.377-.403-.662-.703-.854a1.862 1.862 0 0 0-1.038-.292 1.86 1.86 0 0 0-1.037.292c-.3.192-.535.477-.706.854-.169.375-.253.836-.253 1.382 0 .546.084 1.008.253 1.385.171.375.406.66.706.854.3.192.646.289 1.037.289.392 0 .738-.097 1.038-.289.3-.194.534-.479.703-.854.171-.377.256-.839.256-1.385zm4.236 3.6-2.032-7.2h1.403l1.297 5.291h.067l1.385-5.291h1.276l1.389 5.294h.063l1.298-5.294h1.402l-2.032 7.2h-1.286l-1.442-5.052h-.056l-1.445 5.052h-1.287zm14.73-7.2v7.2h-1.161l-3.392-4.904h-.06v4.904h-1.304v-7.2h1.167l3.389 4.908h.063v-4.908h1.298zm1.781 7.2v-7.2h4.683v1.093h-3.379v1.955h3.136v1.093h-3.136v1.965h3.407v1.094h-4.711zm6.373 0v-7.2h2.7c.553 0 1.017.096 1.392.288.378.192.663.462.855.809.194.344.292.746.292 1.206 0 .461-.099.862-.296 1.202a1.946 1.946 0 0 1-.861.784c-.38.183-.846.274-1.399.274h-1.923v-1.083h1.747c.323 0 .588-.044.794-.133a.941.941 0 0 0 .457-.398c.101-.175.152-.391.152-.646 0-.256-.051-.474-.152-.654a.959.959 0 0 0-.46-.415c-.206-.096-.472-.144-.798-.144h-1.195v6.11h-1.305zm3.72-3.263 1.782 3.263h-1.455l-1.751-3.263h1.424z"/></g><g filter="url(#d)"><rect width="201" height="165" x="234" y="5" fill="#fff" rx="16"/><path fill="#000" d="M255.979 42h-1.631l3.664-10.182h1.775L263.451 42h-1.631l-2.878-8.332h-.08L255.979 42zm.273-3.987h5.29v1.292h-5.29v-1.292zm11.464 4.141c-.74 0-1.376-.167-1.909-.502a3.329 3.329 0 0 1-1.224-1.397c-.285-.593-.427-1.273-.427-2.038 0-.776.146-1.46.437-2.054a3.356 3.356 0 0 1 1.233-1.397c.531-.334 1.155-.502 1.875-.502.58 0 1.097.108 1.551.323a2.714 2.714 0 0 1 1.601 2.243h-1.447a1.737 1.737 0 0 0-.547-.925c-.282-.259-.66-.388-1.133-.388-.415 0-.778.11-1.089.328-.308.216-.549.524-.721.925-.172.398-.259.868-.259 1.412 0 .557.085 1.037.254 1.442.169.404.408.717.716.94a1.85 1.85 0 0 0 1.099.332c.281 0 .536-.051.765-.154a1.57 1.57 0 0 0 .582-.452c.159-.196.27-.431.333-.706h1.447a2.805 2.805 0 0 1-.483 1.322 2.774 2.774 0 0 1-1.078.915c-.448.222-.973.333-1.576.333zm4.546-.154v-7.636h1.437v1.213h.08c.139-.411.384-.734.735-.97a2.108 2.108 0 0 1 1.204-.358 6.404 6.404 0 0 1 .631.035v1.422a2.688 2.688 0 0 0-.318-.055 3.044 3.044 0 0 0-.458-.035 1.94 1.94 0 0 0-.939.224 1.654 1.654 0 0 0-.885 1.496V42h-1.487zm8.211.154c-.752 0-1.4-.16-1.944-.482a3.273 3.273 0 0 1-1.253-1.367c-.291-.59-.437-1.281-.437-2.074 0-.782.146-1.471.437-2.068a3.398 3.398 0 0 1 1.233-1.397c.531-.334 1.15-.502 1.86-.502.431 0 .848.072 1.253.214a3.03 3.03 0 0 1 1.088.671c.322.305.575.701.761 1.188.186.484.278 1.073.278 1.765v.527h-6.07v-1.113h4.614c0-.392-.08-.738-.239-1.04a1.805 1.805 0 0 0-.671-.72 1.875 1.875 0 0 0-1.004-.264 1.94 1.94 0 0 0-1.094.308 2.071 2.071 0 0 0-.716.796 2.293 2.293 0 0 0-.249 1.059v.87c0 .51.09.944.269 1.302.182.358.436.632.761.82.324.186.704.28 1.138.28.282 0 .539-.04.771-.12a1.593 1.593 0 0 0 .989-.97l1.407.254a2.549 2.549 0 0 1-.607 1.089 2.939 2.939 0 0 1-1.088.72c-.435.17-.93.254-1.487.254zm8.39-.154V31.818h3.629c.789 0 1.444.136 1.964.408.524.272.915.648 1.173 1.128.259.478.388 1.03.388 1.656 0 .623-.131 1.172-.392 1.646-.259.47-.65.836-1.174 1.098-.52.262-1.175.393-1.964.393h-2.749v-1.322h2.61c.497 0 .902-.072 1.213-.214a1.41 1.41 0 0 0 .691-.622c.146-.271.219-.598.219-.98 0-.383-.074-.717-.224-.998a1.44 1.44 0 0 0-.691-.647c-.311-.152-.721-.228-1.228-.228h-1.929V42h-1.536zm5.026-4.594L296.405 42h-1.75l-2.466-4.594h1.7zm6.894 4.748c-.753 0-1.401-.16-1.944-.482a3.273 3.273 0 0 1-1.253-1.367c-.292-.59-.437-1.281-.437-2.074 0-.782.145-1.471.437-2.068a3.398 3.398 0 0 1 1.233-1.397c.53-.334 1.15-.502 1.859-.502.431 0 .849.072 1.253.214.405.142.767.366 1.089.671.321.305.575.701.761 1.188.185.484.278 1.073.278 1.765v.527h-6.07v-1.113h4.613c0-.392-.079-.738-.238-1.04a1.805 1.805 0 0 0-.671-.72 1.876 1.876 0 0 0-1.005-.264c-.417 0-.782.103-1.093.308a2.063 2.063 0 0 0-.716.796 2.293 2.293 0 0 0-.249 1.059v.87c0 .51.09.944.269 1.302.182.358.435.632.76.82.325.186.704.28 1.139.28.281 0 .538-.04.77-.12.232-.083.433-.206.602-.368.169-.163.298-.363.388-.602l1.407.254a2.549 2.549 0 0 1-.607 1.089 2.935 2.935 0 0 1-1.089.72c-.434.17-.929.254-1.486.254zm10.468-5.926-1.348.239a1.58 1.58 0 0 0-.268-.493 1.33 1.33 0 0 0-.487-.382c-.206-.1-.463-.15-.771-.15-.421 0-.772.095-1.054.284-.282.185-.422.426-.422.72a.76.76 0 0 0 .283.617c.189.156.494.284.915.383l1.213.278c.702.163 1.226.413 1.571.751.344.338.517.777.517 1.318 0 .457-.133.865-.398 1.223-.262.354-.628.633-1.099.835-.467.202-1.009.303-1.625.303-.855 0-1.553-.182-2.093-.547-.541-.368-.872-.89-.995-1.566l1.437-.219c.09.375.274.658.552.85.278.19.641.284 1.089.284.487 0 .876-.101 1.168-.303.292-.206.438-.456.438-.751a.78.78 0 0 0-.269-.602c-.176-.162-.446-.285-.81-.367l-1.293-.284c-.713-.162-1.24-.42-1.581-.775-.338-.355-.507-.804-.507-1.348 0-.45.126-.845.378-1.183.252-.338.6-.602 1.044-.79.444-.193.953-.289 1.526-.289.825 0 1.475.18 1.949.537.474.355.787.83.94 1.427zM312.854 42v-7.636h1.487V42h-1.487zm.751-8.815a.943.943 0 0 1-.666-.258.838.838 0 0 1-.274-.627c0-.245.091-.454.274-.626a.933.933 0 0 1 .666-.264c.258 0 .479.088.661.264a.823.823 0 0 1 .279.626.835.835 0 0 1-.279.627.927.927 0 0 1-.661.258zm5.414 8.964a2.958 2.958 0 0 1-1.65-.472c-.481-.318-.859-.77-1.134-1.357-.272-.59-.408-1.298-.408-2.123 0-.826.138-1.532.413-2.118.278-.587.66-1.036 1.144-1.348a2.97 2.97 0 0 1 1.645-.467c.474 0 .855.08 1.144.239.291.156.517.338.676.547.162.209.288.393.378.552h.089v-3.784h1.487V42h-1.452v-1.188h-.124a4.02 4.02 0 0 1-.388.557 2.165 2.165 0 0 1-.686.547c-.292.155-.67.233-1.134.233zm.328-1.268c.428 0 .789-.112 1.084-.338.298-.228.524-.545.676-.95.156-.404.234-.874.234-1.411 0-.53-.076-.995-.229-1.392-.152-.398-.376-.708-.671-.93-.295-.222-.659-.333-1.094-.333-.447 0-.82.116-1.118.348a2.118 2.118 0 0 0-.676.95c-.15.4-.224.853-.224 1.357 0 .51.076.97.229 1.377.152.408.377.73.676.97.301.235.673.352 1.113.352zm8.688 1.273c-.752 0-1.4-.16-1.943-.482a3.267 3.267 0 0 1-1.253-1.367c-.292-.59-.438-1.281-.438-2.074 0-.782.146-1.471.438-2.068a3.398 3.398 0 0 1 1.233-1.397c.53-.334 1.15-.502 1.859-.502.431 0 .848.072 1.253.214.404.142.767.366 1.089.671.321.305.575.701.76 1.188.186.484.279 1.073.279 1.765v.527h-6.071v-1.113h4.614c0-.392-.08-.738-.239-1.04a1.798 1.798 0 0 0-.671-.72 1.875 1.875 0 0 0-1.004-.264c-.418 0-.782.103-1.094.308a2.071 2.071 0 0 0-.716.796 2.305 2.305 0 0 0-.248 1.059v.87c0 .51.089.944.268 1.302.182.358.436.632.761.82.325.186.704.28 1.138.28.282 0 .539-.04.771-.12a1.585 1.585 0 0 0 .989-.97l1.407.254a2.547 2.547 0 0 1-.606 1.089 2.951 2.951 0 0 1-1.089.72c-.434.17-.93.254-1.487.254zm6.233-4.688V42h-1.487v-7.636h1.427v1.242h.094c.176-.404.451-.729.826-.974.377-.245.853-.368 1.426-.368.521 0 .977.11 1.368.328.391.216.694.537.909.965.216.427.324.956.324 1.586V42h-1.487v-4.678c0-.554-.144-.986-.432-1.298-.289-.315-.685-.472-1.189-.472a1.86 1.86 0 0 0-.919.224 1.6 1.6 0 0 0-.632.656c-.152.285-.228.63-.228 1.034zm10.265-3.102v1.193h-4.171v-1.193h4.171zm-3.053-1.83h1.487v7.224c0 .288.043.505.129.651a.67.67 0 0 0 .333.293c.139.05.29.075.453.075.119 0 .223-.008.313-.025.089-.016.159-.03.209-.04l.268 1.228a2.497 2.497 0 0 1-.368.1 2.913 2.913 0 0 1-.596.06 2.613 2.613 0 0 1-1.094-.21 1.88 1.88 0 0 1-.821-.675c-.208-.305-.313-.688-.313-1.149v-7.532zM345.997 42v-7.636h1.487V42h-1.487zm.751-8.815a.943.943 0 0 1-.666-.258.838.838 0 0 1-.274-.627c0-.245.091-.454.274-.626a.933.933 0 0 1 .666-.264c.258 0 .479.088.661.264a.823.823 0 0 1 .279.626.835.835 0 0 1-.279.627.927.927 0 0 1-.661.258zm4.778 8.984c-.484 0-.922-.09-1.313-.268a2.206 2.206 0 0 1-.929-.79c-.226-.346-.338-.768-.338-1.269 0-.43.082-.785.248-1.064.166-.278.39-.498.671-.66a3.51 3.51 0 0 1 .945-.369 9.396 9.396 0 0 1 1.064-.189l1.113-.129c.285-.036.493-.094.622-.174.129-.08.194-.209.194-.388v-.035c0-.434-.123-.77-.368-1.009-.242-.238-.603-.358-1.084-.358-.5 0-.895.111-1.183.333-.285.22-.482.463-.592.731l-1.397-.318c.166-.464.408-.839.726-1.123a2.945 2.945 0 0 1 1.109-.627 4.325 4.325 0 0 1 1.317-.199c.305 0 .628.037.97.11.344.07.666.198.964.387.302.19.549.46.741.81.192.349.288.801.288 1.358V42h-1.451v-1.044h-.06a2.1 2.1 0 0 1-.433.567c-.192.185-.439.34-.74.462-.302.123-.663.184-1.084.184zm.323-1.193c.411 0 .762-.081 1.054-.244.295-.162.519-.374.671-.636a1.65 1.65 0 0 0 .234-.85v-.985c-.053.053-.156.103-.308.15-.15.043-.32.08-.513.114-.192.03-.379.058-.561.084l-.458.06a3.678 3.678 0 0 0-.79.184 1.35 1.35 0 0 0-.567.373c-.139.159-.209.371-.209.636 0 .368.136.646.408.835.272.186.618.279 1.039.279zm6.732-9.158V42h-1.487V31.818h1.487z"/><path fill="#5926DA" d="M355.696 104h-1.398l3.141-8.727h1.521l3.141 8.727h-1.398l-2.467-7.142h-.068L355.696 104zm.234-3.418h4.534v1.108h-4.534v-1.108zm9.991 3.55c-.634 0-1.179-.143-1.637-.43a2.85 2.85 0 0 1-1.048-1.198c-.244-.508-.367-1.091-.367-1.747 0-.665.125-1.251.375-1.76.25-.511.603-.91 1.057-1.197.455-.287.99-.43 1.607-.43.497 0 .94.092 1.329.276.389.182.703.438.942.767.242.33.385.715.43 1.155h-1.24a1.486 1.486 0 0 0-.468-.792c-.242-.222-.566-.333-.972-.333-.355 0-.666.094-.933.281-.264.185-.47.45-.618.793-.148.341-.222.744-.222 1.21 0 .478.073.889.218 1.236.145.347.349.615.613.805.267.191.581.286.942.286.242 0 .46-.044.656-.132.199-.091.365-.22.499-.388.136-.168.231-.369.285-.605h1.24a2.403 2.403 0 0 1-.413 1.133c-.23.333-.538.594-.925.785-.383.19-.833.285-1.35.285zm4.061-.132v-6.546h1.232v1.04h.068a1.58 1.58 0 0 1 .63-.83 1.806 1.806 0 0 1 1.032-.308 5.445 5.445 0 0 1 .541.03v1.22a2.285 2.285 0 0 0-.273-.048 2.613 2.613 0 0 0-.392-.03c-.301 0-.57.064-.805.192a1.422 1.422 0 0 0-.759 1.283V104h-1.274zm7.202.132c-.645 0-1.2-.138-1.666-.413a2.808 2.808 0 0 1-1.074-1.172c-.25-.506-.375-1.098-.375-1.777 0-.671.125-1.261.375-1.773.253-.511.605-.91 1.057-1.197.454-.287.986-.43 1.594-.43a3.2 3.2 0 0 1 1.073.183c.347.122.658.314.934.575.275.261.493.6.652 1.018.159.415.238.919.238 1.513v.452h-5.203v-.955h3.955a1.87 1.87 0 0 0-.205-.89 1.545 1.545 0 0 0-.575-.618 1.607 1.607 0 0 0-.861-.226c-.358 0-.67.088-.937.264-.265.173-.469.4-.614.682a1.97 1.97 0 0 0-.213.908v.745c0 .438.077.81.23 1.117.156.307.374.541.652.703.278.159.604.239.976.239.241 0 .462-.035.66-.103a1.356 1.356 0 0 0 .848-.831l1.206.218a2.176 2.176 0 0 1-.519.933c-.248.264-.559.47-.934.618a3.49 3.49 0 0 1-1.274.217z"/><path fill="#666" d="M355.696 81h-1.398l3.141-8.727h1.521L362.101 81h-1.398l-2.467-7.142h-.068L355.696 81zm.234-3.418h4.534v1.108h-4.534v-1.108zm9.991 3.55c-.634 0-1.179-.143-1.637-.43a2.85 2.85 0 0 1-1.048-1.198c-.244-.508-.367-1.09-.367-1.747 0-.665.125-1.251.375-1.76.25-.511.603-.91 1.057-1.197.455-.287.99-.43 1.607-.43.497 0 .94.092 1.329.276.389.182.703.438.942.767.242.33.385.715.43 1.155h-1.24a1.486 1.486 0 0 0-.468-.792c-.242-.222-.566-.333-.972-.333-.355 0-.666.094-.933.281-.264.185-.47.45-.618.793-.148.341-.222.744-.222 1.21 0 .477.073.89.218 1.236.145.347.349.615.613.806.267.19.581.285.942.285.242 0 .46-.044.656-.132.199-.091.365-.22.499-.388a1.47 1.47 0 0 0 .285-.605h1.24a2.405 2.405 0 0 1-.413 1.133c-.23.333-.538.594-.925.785-.383.19-.833.285-1.35.285zm6.818 0c-.633 0-1.179-.143-1.636-.43a2.853 2.853 0 0 1-1.049-1.198c-.244-.508-.366-1.09-.366-1.747 0-.665.125-1.251.375-1.76a2.87 2.87 0 0 1 1.057-1.197c.454-.287.99-.43 1.606-.43.497 0 .941.092 1.33.276.389.182.703.438.942.767.241.33.385.715.43 1.155h-1.24a1.481 1.481 0 0 0-.469-.792c-.241-.222-.565-.333-.971-.333-.355 0-.667.094-.934.281-.264.185-.47.45-.618.793-.147.341-.221.744-.221 1.21 0 .477.072.89.217 1.236.145.347.35.615.614.806.267.19.581.285.942.285.241 0 .46-.044.656-.132a1.33 1.33 0 0 0 .498-.388c.137-.168.232-.37.286-.605h1.24a2.405 2.405 0 0 1-.413 1.133c-.23.333-.539.594-.925.785-.384.19-.834.285-1.351.285zm6.819 0c-.614 0-1.149-.14-1.607-.422a2.847 2.847 0 0 1-1.065-1.18c-.253-.506-.379-1.097-.379-1.773 0-.679.126-1.273.379-1.781a2.841 2.841 0 0 1 1.065-1.185c.458-.281.993-.422 1.607-.422.613 0 1.149.14 1.606.422.458.281.813.676 1.066 1.185.252.508.379 1.102.379 1.781 0 .676-.127 1.267-.379 1.773a2.845 2.845 0 0 1-1.066 1.18c-.457.282-.993.422-1.606.422zm.004-1.07c.398 0 .727-.105.989-.315.261-.21.454-.49.579-.84a3.33 3.33 0 0 0 .192-1.154c0-.418-.064-.801-.192-1.15a1.876 1.876 0 0 0-.579-.849c-.262-.213-.591-.32-.989-.32-.401 0-.733.107-.997.32a1.9 1.9 0 0 0-.584.848c-.125.35-.188.733-.188 1.15 0 .421.063.806.188 1.156.128.35.322.629.584.84.264.21.596.314.997.314zm8.625-1.776v-3.832h1.279V81h-1.253v-1.133h-.068c-.151.349-.392.64-.725.873-.329.23-.74.345-1.231.345-.421 0-.793-.092-1.117-.277a1.94 1.94 0 0 1-.758-.83c-.182-.367-.273-.82-.273-1.36v-4.163h1.274v4.01c0 .445.124.8.371 1.065.247.264.568.396.963.396a1.568 1.568 0 0 0 1.304-.72c.159-.242.237-.548.234-.92zm4.275-1.172V81h-1.274v-6.546h1.223v1.066h.081c.15-.347.386-.625.707-.835.324-.21.732-.316 1.223-.316.446 0 .837.094 1.172.282.335.184.595.46.78.826.185.367.277.82.277 1.36V81h-1.274v-4.01c0-.474-.124-.845-.371-1.112-.247-.27-.587-.405-1.019-.405-.295 0-.558.064-.788.192a1.377 1.377 0 0 0-.541.562c-.131.245-.196.54-.196.887zm8.963-2.66v1.023h-3.575v-1.023h3.575zm-2.616-1.568h1.274v6.192c0 .247.037.433.111.558a.576.576 0 0 0 .285.252c.119.042.249.064.388.064.102 0 .192-.007.268-.022a6.69 6.69 0 0 0 .179-.034l.23 1.053a2.494 2.494 0 0 1-.826.136 2.244 2.244 0 0 1-.938-.179 1.606 1.606 0 0 1-.703-.58c-.179-.26-.268-.589-.268-.984v-6.456z"/><path fill="#000" d="M255.597 104v-8.727h3.111c.676 0 1.237.116 1.683.35a2.31 2.31 0 0 1 1.005.966c.222.41.333.883.333 1.42 0 .534-.112 1.004-.337 1.41a2.268 2.268 0 0 1-1.005.942c-.446.224-1.008.336-1.684.336h-2.356v-1.133h2.237c.426 0 .773-.061 1.04-.183.27-.123.467-.3.592-.533.125-.233.188-.513.188-.84 0-.329-.064-.614-.192-.856a1.242 1.242 0 0 0-.592-.554c-.268-.13-.618-.196-1.053-.196h-1.653V104h-1.317zm4.308-3.938 2.156 3.938h-1.5l-2.113-3.938h1.457zm6.073 4.07c-.645 0-1.2-.138-1.666-.413a2.808 2.808 0 0 1-1.074-1.172c-.25-.506-.375-1.098-.375-1.777 0-.671.125-1.261.375-1.773.253-.511.605-.91 1.057-1.197.454-.287.985-.43 1.593-.43.37 0 .728.06 1.074.183.347.122.658.314.933.575.276.261.493.6.652 1.018.16.415.239.919.239 1.513v.452h-5.203v-.955h3.955c0-.335-.069-.632-.205-.89a1.545 1.545 0 0 0-.575-.618 1.612 1.612 0 0 0-.861-.226c-.358 0-.671.088-.938.264-.264.173-.468.4-.613.682a1.97 1.97 0 0 0-.213.908v.745c0 .438.076.81.23 1.117.156.307.373.541.652.703.278.159.603.239.976.239.241 0 .461-.035.66-.103a1.368 1.368 0 0 0 .848-.831l1.206.218c-.096.355-.27.666-.52.933-.247.264-.558.47-.933.618a3.49 3.49 0 0 1-1.274.217zm5.506-4.018V104h-1.274v-6.546h1.223v1.066h.081c.15-.347.386-.625.707-.835.324-.21.732-.316 1.223-.316.446 0 .837.094 1.172.282.335.184.595.46.78.826.185.367.277.82.277 1.36V104h-1.274v-4.01c0-.474-.124-.845-.371-1.112-.247-.27-.587-.405-1.018-.405-.296 0-.559.064-.789.192a1.383 1.383 0 0 0-.541.562c-.131.245-.196.54-.196.887zm8.963-2.66v1.023h-3.575v-1.023h3.575zm-2.616-1.568h1.274v6.192c0 .247.037.433.111.558a.575.575 0 0 0 .285.252c.119.042.249.064.388.064.102 0 .192-.007.268-.022a6.69 6.69 0 0 0 .179-.034l.23 1.053a2.523 2.523 0 0 1-.826.136 2.239 2.239 0 0 1-.938-.179 1.608 1.608 0 0 1-.703-.579c-.179-.262-.268-.59-.268-.985v-6.456z"/><path fill="#666" d="M254.959 72.273h1.598l2.778 6.784h.103l2.778-6.784h1.598V81h-1.253v-6.315h-.081l-2.574 6.302h-1.04l-2.573-6.307h-.081V81h-1.253v-8.727zm12.582 8.872c-.415 0-.79-.077-1.125-.23a1.897 1.897 0 0 1-.797-.678c-.193-.295-.29-.657-.29-1.086 0-.37.071-.674.213-.912a1.57 1.57 0 0 1 .576-.567 3 3 0 0 1 .809-.316c.299-.07.603-.124.912-.161l.955-.111c.244-.031.422-.081.532-.15.111-.067.167-.178.167-.332v-.03c0-.372-.106-.66-.316-.865-.207-.204-.517-.306-.929-.306-.429 0-.767.095-1.014.285a1.532 1.532 0 0 0-.507.626l-1.197-.272a2.3 2.3 0 0 1 .622-.963 2.51 2.51 0 0 1 .95-.537c.358-.114.734-.17 1.129-.17.262 0 .539.03.831.093.296.06.571.17.827.333.258.161.47.393.635.694.165.298.247.686.247 1.163V81h-1.244v-.895h-.051a1.822 1.822 0 0 1-.371.486 1.977 1.977 0 0 1-.635.396 2.464 2.464 0 0 1-.929.158zm.277-1.023c.352 0 .653-.07.903-.209.253-.139.445-.32.576-.545.133-.227.2-.47.2-.729v-.843a.673.673 0 0 1-.264.127c-.128.037-.274.07-.439.098l-.482.073-.392.05a3.143 3.143 0 0 0-.677.159 1.16 1.16 0 0 0-.486.32c-.12.135-.179.317-.179.545 0 .315.116.554.349.715.233.16.53.24.891.24zm5.934-3.008V81h-1.274v-6.546h1.223v1.066h.081c.151-.347.386-.625.707-.835.324-.21.732-.316 1.223-.316.446 0 .837.094 1.172.282.336.184.596.46.78.826.185.367.277.82.277 1.36V81h-1.274v-4.01c0-.474-.124-.845-.371-1.112-.247-.27-.586-.405-1.018-.405-.296 0-.558.064-.789.192a1.383 1.383 0 0 0-.541.562c-.13.245-.196.54-.196.887zm7.813 4.03c-.415 0-.79-.076-1.125-.23a1.897 1.897 0 0 1-.797-.677c-.193-.295-.29-.657-.29-1.086 0-.37.071-.674.213-.912a1.57 1.57 0 0 1 .576-.567 3 3 0 0 1 .809-.316c.298-.07.602-.124.912-.161l.955-.111c.244-.031.422-.081.532-.15.111-.067.167-.178.167-.332v-.03c0-.372-.106-.66-.316-.865-.207-.204-.517-.306-.929-.306-.429 0-.767.095-1.014.285a1.532 1.532 0 0 0-.507.626l-1.198-.272c.142-.398.35-.719.623-.963a2.51 2.51 0 0 1 .95-.537c.358-.114.734-.17 1.129-.17.262 0 .538.03.831.093.296.06.571.17.827.333.258.161.47.393.635.694.165.298.247.686.247 1.163V81h-1.244v-.895h-.052a1.817 1.817 0 0 1-.37.486 1.977 1.977 0 0 1-.635.396 2.464 2.464 0 0 1-.929.158zm.277-1.022c.352 0 .653-.07.903-.209a1.45 1.45 0 0 0 .776-1.274v-.843a.673.673 0 0 1-.264.127c-.128.037-.275.07-.439.098l-.482.073-.392.05a3.143 3.143 0 0 0-.677.159 1.16 1.16 0 0 0-.486.32c-.12.135-.179.317-.179.545 0 .315.116.554.349.715.233.16.53.24.891.24zm7.404 3.469c-.52 0-.967-.068-1.342-.205a2.605 2.605 0 0 1-.912-.54 2.262 2.262 0 0 1-.528-.738l1.095-.452c.077.125.179.257.307.397.13.142.306.262.528.362.224.1.513.149.865.149.483 0 .882-.118 1.198-.354.315-.233.473-.605.473-1.116v-1.287h-.081a2.911 2.911 0 0 1-.333.464c-.142.17-.338.319-.588.444-.25.124-.575.187-.976.187-.517 0-.983-.12-1.397-.362-.412-.245-.739-.604-.981-1.078-.238-.478-.358-1.064-.358-1.76s.118-1.293.354-1.79c.239-.497.566-.878.98-1.142a2.55 2.55 0 0 1 1.411-.4c.406 0 .734.067.984.204.25.133.445.29.584.469.142.179.251.336.328.473h.094v-1.062h1.248v6.69c0 .563-.13 1.025-.392 1.386-.261.36-.615.628-1.061.801a4.09 4.09 0 0 1-1.5.26zm-.012-3.746c.366 0 .676-.085.929-.255.255-.174.448-.421.579-.742.134-.324.2-.712.2-1.163 0-.44-.065-.829-.196-1.164a1.722 1.722 0 0 0-.575-.784c-.253-.19-.565-.285-.937-.285-.384 0-.704.1-.959.298a1.8 1.8 0 0 0-.58.801 3.18 3.18 0 0 0-.192 1.134c0 .429.066.805.196 1.129.131.324.324.577.58.758.259.182.577.273.955.273zm7.505 1.287c-.645 0-1.2-.138-1.666-.413a2.806 2.806 0 0 1-1.074-1.172c-.25-.506-.375-1.098-.375-1.777 0-.67.125-1.261.375-1.773.253-.511.605-.91 1.057-1.197.455-.287.986-.43 1.594-.43.369 0 .727.06 1.074.183.346.122.657.314.933.575.275.261.493.6.652 1.018.159.415.239.92.239 1.513v.452h-5.204v-.955h3.955a1.87 1.87 0 0 0-.205-.89 1.545 1.545 0 0 0-.575-.618 1.607 1.607 0 0 0-.861-.226c-.358 0-.67.088-.937.264a1.77 1.77 0 0 0-.614.682 1.969 1.969 0 0 0-.213.908v.745c0 .438.077.81.23 1.117.156.307.374.541.652.703.279.159.604.239.976.239.242 0 .462-.034.661-.103a1.373 1.373 0 0 0 .848-.831l1.206.218c-.097.355-.27.666-.52.933-.247.264-.559.47-.934.618a3.488 3.488 0 0 1-1.274.217zm4.232-.132v-6.546h1.232v1.04h.068c.119-.352.329-.629.631-.83a1.803 1.803 0 0 1 1.031-.308 5.445 5.445 0 0 1 .541.03v1.22a2.285 2.285 0 0 0-.273-.048c-.13-.02-.261-.03-.392-.03a1.66 1.66 0 0 0-.805.192 1.422 1.422 0 0 0-.759 1.283V81h-1.274z"/><rect width="124" height="23" x="254" y="127" fill="#2772FF" fill-opacity=".12" rx="11.5"/><path fill="#2772FF" d="M262.789 143v-8h3c.615 0 1.13.115 1.547.344.419.229.736.544.949.945.216.398.324.852.324 1.359 0 .513-.108.969-.324 1.368a2.316 2.316 0 0 1-.957.941c-.422.227-.941.34-1.558.34h-1.989v-1.192h1.793c.36 0 .654-.062.883-.187.229-.125.398-.297.508-.516a1.63 1.63 0 0 0 .168-.754c0-.283-.056-.533-.168-.75a1.139 1.139 0 0 0-.512-.503c-.229-.123-.525-.184-.887-.184h-1.328V143h-1.449zm7.479 0v-8h3c.615 0 1.13.107 1.547.32.419.214.736.513.949.899.216.383.324.829.324 1.34 0 .513-.109.958-.328 1.336a2.166 2.166 0 0 1-.957.871c-.422.203-.94.304-1.554.304h-2.137v-1.203h1.941c.36 0 .654-.049.883-.148.229-.102.399-.249.508-.442.112-.195.168-.435.168-.718 0-.284-.056-.526-.168-.727a1.07 1.07 0 0 0-.512-.461c-.229-.107-.525-.16-.886-.16h-1.329V143h-1.449zm4.133-3.625 1.98 3.625h-1.617l-1.945-3.625h1.582zm10.57-.375c0 .862-.162 1.6-.484 2.215-.321.612-.758 1.081-1.313 1.406-.552.326-1.178.488-1.879.488-.7 0-1.328-.162-1.883-.488-.552-.328-.989-.798-1.312-1.41-.321-.615-.481-1.352-.481-2.211 0-.862.16-1.599.481-2.211.323-.615.76-1.085 1.312-1.41.555-.326 1.183-.488 1.883-.488.701 0 1.327.162 1.879.488.555.325.992.795 1.313 1.41.322.612.484 1.349.484 2.211zm-1.457 0c0-.607-.095-1.118-.285-1.535-.188-.419-.448-.736-.782-.949a2.062 2.062 0 0 0-1.152-.325c-.435 0-.819.108-1.152.325-.334.213-.595.53-.785.949-.188.417-.282.928-.282 1.535 0 .607.094 1.12.282 1.539.19.417.451.733.785.949.333.214.717.321 1.152.321.435 0 .819-.107 1.152-.321.334-.216.594-.532.782-.949.19-.419.285-.932.285-1.539zm3.227 4v-8h3c.615 0 1.13.115 1.547.344.419.229.736.544.949.945.216.398.324.852.324 1.359 0 .513-.108.969-.324 1.368a2.316 2.316 0 0 1-.957.941c-.422.227-.941.34-1.559.34h-1.988v-1.192h1.793c.36 0 .654-.062.883-.187.229-.125.398-.297.508-.516a1.63 1.63 0 0 0 .168-.754c0-.283-.056-.533-.168-.75a1.139 1.139 0 0 0-.512-.503c-.229-.123-.525-.184-.887-.184h-1.328V143h-1.449zm7.479 0v-8h5.203v1.215h-3.754v2.172h3.485v1.215h-3.485v2.183h3.785V143h-5.234zm7.082 0v-8h3c.614 0 1.13.107 1.547.32.419.214.735.513.949.899.216.383.324.829.324 1.34 0 .513-.109.958-.328 1.336a2.166 2.166 0 0 1-.957.871c-.422.203-.94.304-1.555.304h-2.136v-1.203h1.941c.359 0 .654-.049.883-.148.229-.102.398-.249.508-.442.112-.195.168-.435.168-.718 0-.284-.056-.526-.168-.727a1.07 1.07 0 0 0-.512-.461c-.229-.107-.525-.16-.887-.16h-1.328V143h-1.449zm4.133-3.625 1.98 3.625h-1.617l-1.945-3.625h1.582zm3.069-3.16V135h6.383v1.215h-2.472V143h-1.438v-6.785h-2.473zm7.467-1.215h1.637l1.957 3.539h.078L321.6 135h1.637l-2.911 5.016V143h-1.445v-2.984l-2.91-5.016zm18.969 4c0 .862-.162 1.6-.485 2.215-.32.612-.757 1.081-1.312 1.406-.552.326-1.178.488-1.879.488-.7 0-1.328-.162-1.883-.488-.552-.328-.989-.798-1.312-1.41-.321-.615-.481-1.352-.481-2.211 0-.862.16-1.599.481-2.211.323-.615.76-1.085 1.312-1.41.555-.326 1.183-.488 1.883-.488.701 0 1.327.162 1.879.488.555.325.992.795 1.312 1.41.323.612.485 1.349.485 2.211zm-1.457 0c0-.607-.095-1.118-.285-1.535-.188-.419-.448-.736-.782-.949a2.062 2.062 0 0 0-1.152-.325c-.435 0-.819.108-1.152.325-.334.213-.595.53-.785.949-.188.417-.282.928-.282 1.535 0 .607.094 1.12.282 1.539.19.417.451.733.785.949.333.214.717.321 1.152.321.435 0 .819-.107 1.152-.321.334-.216.594-.532.782-.949.19-.419.285-.932.285-1.539zm4.706 4-2.257-8h1.558l1.442 5.879h.074l1.539-5.879h1.418l1.543 5.883h.07l1.442-5.883h1.558l-2.258 8h-1.429l-1.602-5.613h-.062L339.619 143h-1.43zm16.366-8v8h-1.289l-3.769-5.449h-.067V143h-1.449v-8h1.297l3.766 5.453h.07V135h1.441zm1.979 8v-8h5.204v1.215h-3.754v2.172h3.484v1.215h-3.484v2.183h3.785V143h-5.235zm7.082 0v-8h3c.615 0 1.13.107 1.547.32.419.214.736.513.949.899.216.383.324.829.324 1.34 0 .513-.109.958-.328 1.336a2.166 2.166 0 0 1-.957.871c-.422.203-.94.304-1.555.304h-2.136v-1.203h1.941c.36 0 .654-.049.883-.148.229-.102.398-.249.508-.442.112-.195.168-.435.168-.718 0-.284-.056-.526-.168-.727a1.07 1.07 0 0 0-.512-.461c-.229-.107-.525-.16-.887-.16h-1.328V143h-1.449zm4.133-3.625 1.98 3.625h-1.617l-1.945-3.625h1.582z"/></g><path stroke="#DCDCDC" stroke-linejoin="round" d="M109 193v15a6 6 0 0 0 6 6h215a6 6 0 0 0 6-6v-15"/><path stroke="url(#e)" stroke-linecap="round" stroke-linejoin="round" stroke-width="2" d="M279 214h51a6 6 0 0 0 6-6v0"/><circle cx="109" cy="193" r="3" fill="#fff" stroke="#DCDCDC" stroke-linejoin="round"/><circle cx="336" cy="193" r="3" fill="#fff" stroke="#DCDCDC" stroke-linejoin="round"/><defs><filter id="a" width="200.269" height="167.869" x="11.323" y="25.879" color-interpolation-filters="sRGB" filterUnits="userSpaceOnUse"><feFlood flood-opacity="0" result="BackgroundImageFix"/><feColorMatrix in="SourceAlpha" result="hardAlpha" values="0 0 0 0 0 0 0 0 0 0 0 0 0 0 0 0 0 0 127 0"/><feOffset dy="1.656"/><feGaussianBlur stdDeviation="1.442"/><feColorMatrix values="0 0 0 0 0 0 0 0 0 0 0 0 0 0 0 0 0 0 0.0282725 0"/><feBlend in2="BackgroundImageFix" result="effect1_dropShadow_3161_25465"/><feColorMatrix in="SourceAlpha" result="hardAlpha" values="0 0 0 0 0 0 0 0 0 0 0 0 0 0 0 0 0 0 127 0"/><feOffset dy="5.563"/><feGaussianBlur stdDeviation="4.842"/><feColorMatrix values="0 0 0 0 0 0 0 0 0 0 0 0 0 0 0 0 0 0 0.0417275 0"/><feBlend in2="effect1_dropShadow_3161_25465" result="effect2_dropShadow_3161_25465"/><feBlend in="SourceGraphic" in2="effect2_dropShadow_3161_25465" result="shape"/></filter><filter id="b" width="222.521" height="186.521" x=".24" y=".421" color-interpolation-filters="sRGB" filterUnits="userSpaceOnUse"><feFlood flood-opacity="0" result="BackgroundImageFix"/><feColorMatrix in="SourceAlpha" result="hardAlpha" values="0 0 0 0 0 0 0 0 0 0 0 0 0 0 0 0 0 0 127 0"/><feOffset dy="1.84"/><feGaussianBlur stdDeviation="1.602"/><feColorMatrix values="0 0 0 0 0 0 0 0 0 0 0 0 0 0 0 0 0 0 0.0282725 0"/><feBlend in2="BackgroundImageFix" result="effect1_dropShadow_3161_25465"/><feColorMatrix in="SourceAlpha" result="hardAlpha" values="0 0 0 0 0 0 0 0 0 0 0 0 0 0 0 0 0 0 127 0"/><feOffset dy="6.182"/><feGaussianBlur stdDeviation="5.38"/><feColorMatrix values="0 0 0 0 0 0 0 0 0 0 0 0 0 0 0 0 0 0 0.0417275 0"/><feBlend in2="effect1_dropShadow_3161_25465" result="effect2_dropShadow_3161_25465"/><feBlend in="SourceGraphic" in2="effect2_dropShadow_3161_25465" result="shape"/></filter><filter id="c" width="200.269" height="167.869" x="234.37" y="26.129" color-interpolation-filters="sRGB" filterUnits="userSpaceOnUse"><feFlood flood-opacity="0" result="BackgroundImageFix"/><feColorMatrix in="SourceAlpha" result="hardAlpha" values="0 0 0 0 0 0 0 0 0 0 0 0 0 0 0 0 0 0 127 0"/><feOffset dy="1.656"/><feGaussianBlur stdDeviation="1.442"/><feColorMatrix values="0 0 0 0 0 0 0 0 0 0 0 0 0 0 0 0 0 0 0.0282725 0"/><feBlend in2="BackgroundImageFix" result="effect1_dropShadow_3161_25465"/><feColorMatrix in="SourceAlpha" result="hardAlpha" values="0 0 0 0 0 0 0 0 0 0 0 0 0 0 0 0 0 0 127 0"/><feOffset dy="5.563"/><feGaussianBlur stdDeviation="4.842"/><feColorMatrix values="0 0 0 0 0 0 0 0 0 0 0 0 0 0 0 0 0 0 0.0417275 0"/><feBlend in2="effect1_dropShadow_3161_25465" result="effect2_dropShadow_3161_25465"/><feBlend in="SourceGraphic" in2="effect2_dropShadow_3161_25465" result="shape"/></filter><filter id="d" width="222.521" height="186.521" x="223.24" y=".421" color-interpolation-filters="sRGB" filterUnits="userSpaceOnUse"><feFlood flood-opacity="0" result="BackgroundImageFix"/><feColorMatrix in="SourceAlpha" result="hardAlpha" values="0 0 0 0 0 0 0 0 0 0 0 0 0 0 0 0 0 0 127 0"/><feOffset dy="1.84"/><feGaussianBlur stdDeviation="1.602"/><feColorMatrix values="0 0 0 0 0 0 0 0 0 0 0 0 0 0 0 0 0 0 0.0282725 0"/><feBlend in2="BackgroundImageFix" result="effect1_dropShadow_3161_25465"/><feColorMatrix in="SourceAlpha" result="hardAlpha" values="0 0 0 0 0 0 0 0 0 0 0 0 0 0 0 0 0 0 127 0"/><feOffset dy="6.182"/><feGaussianBlur stdDeviation="5.38"/><feColorMatrix values="0 0 0 0 0 0 0 0 0 0 0 0 0 0 0 0 0 0 0.0417275 0"/><feBlend in2="effect1_dropShadow_3161_25465" result="effect2_dropShadow_3161_25465"/><feBlend in="SourceGraphic" in2="effect2_dropShadow_3161_25465" result="shape"/></filter><linearGradient id="e" x1="336.006" x2="286.506" y1="205.035" y2="214.037" gradientUnits="userSpaceOnUse"><stop stop-color="#2772FF"/><stop offset="1" stop-color="#2772FF" stop-opacity="0"/></linearGradient></defs></svg>