<svg xmlns="http://www.w3.org/2000/svg" width="71" height="29" viewBox="0 0 71 29" fill="none" id="svg-398633406_2486">
<path d="M0.55957 0.385742V2.30143H14.1849V0.385742H0.55957ZM16.1154 0.385742V2.30143H35.5322C35.5322 2.30143 33.5489 0.385742 30.9221 0.385742H16.1154ZM39.3412 0.385742V2.30143H51.088L50.3908 0.385742H39.3412ZM59.5099 0.385742L58.8127 2.30143H70.4529V0.385742H59.5099ZM0.55957 4.11128V6.02697H14.1849V4.11128H0.55957ZM16.1154 4.11401V6.02704H37.7853C37.7853 6.02704 37.5322 4.55263 37.0908 4.11401H16.1154ZM39.3412 4.11401V6.02704H52.376L51.7306 4.11401H39.3412ZM58.1154 4.11401L57.4701 6.02704H70.4529V4.11401H58.1154ZM4.47516 7.83682V9.75524H10.3759V7.83682H4.47516ZM20.0311 7.83682V9.75524H25.9318V7.83682H20.0311ZM31.6713 7.83682V9.75524H37.5721C37.5721 9.75524 37.9467 8.74213 37.9467 7.83682H31.6713ZM43.2568 7.83682V9.75524H53.7186L53.0213 7.83682H43.2568ZM56.8303 7.83682L56.1303 9.75524H66.6439V7.83682H56.8303ZM4.47516 11.5652V13.4809H10.3759V11.5652H4.47516ZM20.0311 11.5652V13.4809H35.1029C35.1029 13.4809 36.3637 12.4979 36.7654 11.5652H20.0311ZM43.2568 11.5652V13.4809H49.1576V12.4145L49.5323 13.4809H60.3413L60.7432 12.4145V13.4809H66.644V11.5652H55.567L54.9791 13.1878L54.3885 11.5652H43.2568ZM4.47516 15.2907V17.2064H10.3759V15.2907H4.47516ZM20.0311 15.2907V17.2064H36.7654C36.3637 16.2767 35.1029 15.2907 35.1029 15.2907H20.0311ZM43.2568 15.2907V17.2064H49.1576V15.2907H43.2568ZM50.2295 15.2907L50.9431 17.2064H59.0478L59.726 15.2907H50.2295ZM60.7431 15.2907V17.2064H66.6439V15.2907H60.7431ZM4.47516 19.0162V20.9319H10.3759V19.0162H4.47516ZM20.0311 19.0162V20.9319H25.9318V19.0162H20.0311ZM31.6713 19.0162V20.9319H37.9466C37.9466 20.0278 37.572 19.0162 37.572 19.0162H31.6713ZM43.2568 19.0162V20.9319H49.1576V19.0162H43.2568ZM51.5693 19.0162L52.2612 20.9319H57.6943L58.3916 19.0162H51.5693ZM60.7431 19.0162V20.9319H66.6439V19.0162H60.7431ZM0.66618 22.7418V24.6602H14.2915V22.7418H0.66618ZM16.1154 22.7418V24.6602H37.0908C37.5322 24.221 37.7853 22.7418 37.7853 22.7418H16.1154ZM39.4479 22.7418V24.6602H49.1576V22.7418H39.4479ZM52.9119 22.7418L53.6228 24.6602H56.3872L57.0544 22.7418H52.9119ZM60.7431 22.7418V24.6602H70.5596V22.7418H60.7431ZM0.66618 26.4701V28.3857H14.2915V26.4701H0.66618ZM16.1154 26.4701V28.383H30.9221C33.5489 28.383 35.5322 26.4701 35.5322 26.4701H16.1154ZM39.4479 26.4701V28.3857H49.1576V26.4701H39.4479ZM54.2599 26.4701L54.9436 28.3804L55.0611 28.383L55.7557 26.4701H54.2599ZM60.7431 26.4701V28.3857H70.5596V26.4701H60.7431Z" fill="#B7B7B7"></path>
</svg>