<svg xmlns="http://www.w3.org/2000/svg" width="438" height="248" fill="none"><g filter="url(#a)"><rect width="416" height="158" x="11" y="5" fill="#fff" rx="24"/></g><path fill="#000" d="M205.456 124v-10h.64v10h-.64zm2.003-6.898a1.14 1.14 0 0 0-.515-.86c-.302-.206-.682-.308-1.141-.308-.328 0-.612.052-.851.156-.24.101-.426.242-.559.422a.997.997 0 0 0-.195.605c0 .19.044.354.133.492.091.138.209.254.355.348.148.091.307.168.477.231.169.059.332.109.488.148l.781.203c.255.063.517.147.785.254.269.107.517.247.746.422.23.174.414.39.555.648.143.258.215.567.215.926 0 .453-.117.856-.352 1.207-.231.352-.569.629-1.011.832-.44.203-.973.305-1.598.305-.599 0-1.117-.095-1.555-.285-.437-.19-.78-.46-1.027-.809a2.348 2.348 0 0 1-.41-1.25h1.211c.023.289.117.53.281.723.167.19.379.332.637.425.26.092.545.137.855.137.341 0 .645-.053.91-.16.269-.109.479-.26.633-.453.154-.195.231-.423.231-.684a.837.837 0 0 0-.204-.582 1.492 1.492 0 0 0-.542-.375 5.285 5.285 0 0 0-.77-.261l-.945-.258c-.641-.175-1.149-.431-1.524-.77-.372-.338-.558-.786-.558-1.344a2 2 0 0 1 .375-1.207c.25-.343.588-.61 1.015-.8a3.473 3.473 0 0 1 1.446-.289c.541 0 1.019.095 1.433.285.417.19.745.452.985.785.239.331.364.711.375 1.141h-1.165zm5.642-2.102v8h-1.211v-6.789h-.047l-1.914 1.25v-1.156l1.996-1.305h1.176zm1.996 6.438v-.977l3.457-5.461h.77v1.437h-.489l-2.472 3.915v.062h4.738v1.024h-6.004zM218.89 123v-1.859l.008-.446V115h1.144v8h-1.152zm6.358.109a3.547 3.547 0 0 1-1.438-.277 2.437 2.437 0 0 1-.996-.77 2.047 2.047 0 0 1-.391-1.148h1.227c.016.237.095.443.238.617.146.172.336.305.57.399.235.093.495.14.782.14.315 0 .593-.054.836-.164.244-.109.436-.261.574-.457.138-.198.207-.426.207-.683 0-.269-.069-.504-.207-.707a1.35 1.35 0 0 0-.598-.485c-.26-.117-.575-.176-.945-.176h-.676v-.984h.676c.297 0 .557-.053.781-.16.227-.107.404-.255.531-.445.128-.193.192-.418.192-.676 0-.248-.056-.462-.168-.645a1.13 1.13 0 0 0-.469-.433 1.522 1.522 0 0 0-.711-.157c-.26 0-.504.049-.73.145a1.347 1.347 0 0 0-.547.406 1.047 1.047 0 0 0-.227.629h-1.168c.013-.432.141-.812.383-1.141a2.48 2.48 0 0 1 .969-.769 3.15 3.15 0 0 1 1.336-.277c.513 0 .956.1 1.328.3.375.198.664.463.867.793.206.331.307.693.305 1.086.002.448-.123.828-.375 1.141-.25.312-.584.522-1 .629v.062c.531.081.943.292 1.234.633.294.341.44.764.438 1.27.002.44-.12.834-.368 1.183a2.49 2.49 0 0 1-1.003.824c-.425.198-.911.297-1.457.297z"/><path fill="#999" d="M201.242 133v8h-1.211v-6.789h-.047l-1.914 1.25v-1.156l1.996-1.305h1.176zm2.164 8v-.875l2.707-2.805c.289-.304.527-.571.715-.8.19-.232.332-.452.425-.661.094-.208.141-.429.141-.664 0-.265-.062-.494-.187-.687a1.228 1.228 0 0 0-.512-.449 1.626 1.626 0 0 0-.731-.161 1.54 1.54 0 0 0-.75.176 1.212 1.212 0 0 0-.492.496 1.572 1.572 0 0 0-.172.75h-1.152c0-.487.112-.912.336-1.277.224-.365.531-.647.922-.848.39-.203.834-.304 1.332-.304.502 0 .945.1 1.328.3.385.198.686.469.902.813.216.341.324.726.324 1.156 0 .297-.056.587-.167.871-.11.284-.301.601-.575.949-.273.347-.653.767-1.14 1.262l-1.59 1.664v.059h3.601V141h-5.265zm8.281-1.094-.059.426a6.808 6.808 0 0 1-.199.977 15.03 15.03 0 0 1-.285.949c-.096.291-.176.523-.238.695h-.828c.033-.161.08-.38.14-.656.06-.274.119-.58.176-.918.057-.339.1-.684.129-1.035l.039-.438h1.125zm1.466-.468v-.977L216.61 133h.769v1.437h-.488l-2.473 3.915v.062h4.739v1.024h-6.004zm3.793 1.562v-1.859l.008-.446V133h1.144v8h-1.152zm6.232-8.109a3.07 3.07 0 0 1 1.055.195c.346.128.659.336.937.625.282.289.506.68.672 1.172.17.489.255 1.099.258 1.828 0 .7-.07 1.324-.211 1.871-.14.544-.342 1.004-.605 1.379-.261.375-.577.66-.95.855a2.654 2.654 0 0 1-1.257.293c-.477 0-.9-.093-1.27-.281a2.41 2.41 0 0 1-.902-.777 2.567 2.567 0 0 1-.434-1.149h1.192c.078.344.237.623.476.836.242.211.555.317.938.317.586 0 1.043-.256 1.371-.766.328-.513.493-1.229.496-2.148h-.063a2.159 2.159 0 0 1-.507.578 2.313 2.313 0 0 1-1.477.508c-.461 0-.88-.114-1.258-.34a2.513 2.513 0 0 1-.902-.934 2.705 2.705 0 0 1-.336-1.355c0-.506.114-.964.344-1.375.231-.412.554-.737.968-.977.417-.242.905-.361 1.465-.355zm.004 1.015c-.305 0-.579.076-.824.227-.242.148-.434.35-.574.605a1.703 1.703 0 0 0-.211.844c0 .31.067.591.203.844.138.25.325.449.562.597.24.146.513.219.821.219.229 0 .442-.044.64-.133.198-.088.371-.211.52-.367.148-.159.264-.338.348-.539.083-.2.125-.411.125-.633 0-.294-.071-.567-.211-.82a1.637 1.637 0 0 0-.571-.609 1.487 1.487 0 0 0-.828-.235zm6.97 7.203c-.49 0-.93-.093-1.32-.281a2.399 2.399 0 0 1-.93-.781 2.056 2.056 0 0 1-.371-1.133h1.172c.028.344.181.626.457.848.276.221.606.332.992.332.307 0 .579-.071.816-.211.24-.143.427-.34.563-.59a1.74 1.74 0 0 0 .207-.856c0-.325-.071-.615-.211-.871a1.564 1.564 0 0 0-.582-.601 1.647 1.647 0 0 0-.844-.223c-.242 0-.486.042-.73.125a1.714 1.714 0 0 0-.594.328l-1.106-.164.45-4.031h4.398v1.035h-3.394l-.254 2.238h.046c.157-.151.364-.277.622-.378a2.27 2.27 0 0 1 .836-.153 2.446 2.446 0 0 1 2.203 1.297c.221.398.33.857.328 1.375a2.68 2.68 0 0 1-.352 1.387c-.234.406-.56.726-.976.961-.414.231-.89.347-1.426.347z"/><rect width="20" height="75" x="206" y="25" fill="#25B670" opacity=".2" rx="6"/><path fill="#25B670" d="M206 88h20v6a6 6 0 0 1-6 6h-8a6 6 0 0 1-6-6v-6z"/><path fill="#000" d="M262.504 124v-10h.641v10h-.641zm2.004-6.898a1.143 1.143 0 0 0-.516-.86c-.302-.206-.682-.308-1.14-.308-.329 0-.612.052-.852.156-.24.101-.426.242-.559.422a.997.997 0 0 0-.195.605c0 .19.044.354.133.492.091.138.21.254.355.348.149.091.308.168.477.231.169.059.332.109.488.148l.781.203c.256.063.517.147.786.254.268.107.517.247.746.422.229.174.414.39.554.648.144.258.215.567.215.926 0 .453-.117.856-.351 1.207-.232.352-.569.629-1.012.832-.44.203-.973.305-1.598.305-.599 0-1.117-.095-1.554-.285-.438-.19-.78-.46-1.028-.809a2.348 2.348 0 0 1-.41-1.25h1.211c.024.289.117.53.281.723.167.19.379.332.637.425.26.092.546.137.856.137.341 0 .644-.053.91-.16.268-.109.479-.26.632-.453.154-.195.231-.423.231-.684a.84.84 0 0 0-.203-.582 1.505 1.505 0 0 0-.543-.375 5.244 5.244 0 0 0-.77-.261l-.945-.258c-.641-.175-1.148-.431-1.523-.77-.373-.338-.559-.786-.559-1.344a2 2 0 0 1 .375-1.207c.25-.343.589-.61 1.016-.8a3.469 3.469 0 0 1 1.445-.289c.542 0 1.019.095 1.434.285.416.19.744.452.984.785.239.331.364.711.375 1.141h-1.164zm5.641-2.102v8h-1.211v-6.789h-.046l-1.914 1.25v-1.156l1.996-1.305h1.175zm4.95 8.109a3.547 3.547 0 0 1-1.438-.277 2.437 2.437 0 0 1-.996-.77 2.047 2.047 0 0 1-.391-1.148h1.227c.016.237.095.443.238.617.146.172.336.305.571.399.234.093.494.14.781.14.315 0 .594-.054.836-.164.245-.109.436-.261.574-.457.138-.198.207-.426.207-.683 0-.269-.069-.504-.207-.707a1.345 1.345 0 0 0-.598-.485c-.26-.117-.575-.176-.945-.176h-.676v-.984h.676c.297 0 .557-.053.781-.16.227-.107.404-.255.532-.445.127-.193.191-.418.191-.676 0-.248-.056-.462-.168-.645a1.125 1.125 0 0 0-.469-.433 1.522 1.522 0 0 0-.711-.157c-.26 0-.504.049-.73.145a1.353 1.353 0 0 0-.547.406 1.047 1.047 0 0 0-.227.629h-1.168c.013-.432.141-.812.383-1.141a2.48 2.48 0 0 1 .969-.769 3.15 3.15 0 0 1 1.336-.277c.513 0 .956.1 1.328.3.375.198.664.463.867.793.206.331.307.693.305 1.086.002.448-.123.828-.375 1.141-.25.312-.583.522-1 .629v.062c.531.081.943.292 1.234.633.295.341.44.764.438 1.27.002.44-.12.834-.367 1.183a2.5 2.5 0 0 1-1.004.824c-.425.198-.91.297-1.457.297zm7.089.024c-.617-.003-1.144-.166-1.582-.488-.437-.323-.772-.793-1.003-1.411-.232-.617-.348-1.36-.348-2.23 0-.867.116-1.608.348-2.223.234-.614.57-1.083 1.007-1.406.44-.323.966-.484 1.578-.484.612 0 1.137.162 1.575.488.437.323.772.792 1.004 1.406.234.612.351 1.352.351 2.219 0 .872-.116 1.617-.347 2.234-.232.615-.567 1.085-1.004 1.41-.438.323-.964.485-1.579.485zm0-1.043c.542 0 .965-.264 1.27-.793.307-.529.461-1.293.461-2.293 0-.664-.07-1.225-.211-1.684-.138-.461-.337-.81-.598-1.047a1.308 1.308 0 0 0-.922-.359c-.539 0-.962.266-1.269.797-.307.531-.462 1.296-.465 2.293 0 .667.069 1.23.207 1.691.141.459.34.806.598 1.043.258.235.567.352.929.352z"/><path fill="#999" d="M257.897 133v8h-1.21v-6.789h-.047l-1.914 1.25v-1.156l1.996-1.305h1.175zm4.95 8.109a3.547 3.547 0 0 1-1.438-.277 2.437 2.437 0 0 1-.996-.77 2.047 2.047 0 0 1-.391-1.148h1.227c.016.237.095.443.238.617.146.172.336.305.571.399.234.093.494.14.781.14.315 0 .594-.054.836-.164.245-.109.436-.261.574-.457.138-.198.207-.426.207-.683 0-.269-.069-.504-.207-.707a1.345 1.345 0 0 0-.598-.485c-.26-.117-.575-.176-.945-.176h-.676v-.984h.676c.297 0 .557-.053.781-.16.227-.107.404-.255.532-.445.127-.193.191-.418.191-.676 0-.248-.056-.462-.168-.645a1.125 1.125 0 0 0-.469-.433 1.522 1.522 0 0 0-.711-.157c-.26 0-.504.049-.73.145a1.353 1.353 0 0 0-.547.406 1.047 1.047 0 0 0-.227.629h-1.168c.013-.432.141-.812.383-1.141a2.48 2.48 0 0 1 .969-.769 3.15 3.15 0 0 1 1.336-.277c.513 0 .956.1 1.328.3.375.198.664.463.867.793.206.331.308.693.305 1.086.003.448-.122.828-.375 1.141-.25.312-.583.522-1 .629v.062c.531.081.943.292 1.234.633.295.341.44.764.438 1.27.002.44-.12.834-.367 1.183a2.5 2.5 0 0 1-1.004.824c-.425.198-.91.297-1.457.297zm5.603-1.203-.058.426a6.816 6.816 0 0 1-.2.977 15.03 15.03 0 0 1-.285.949c-.096.291-.176.523-.238.695h-.828l.14-.656c.06-.274.119-.58.176-.918.058-.339.1-.684.129-1.035l.039-.438h1.125zm1.634 1.094v-.875l2.707-2.805c.289-.304.527-.571.715-.8a3.02 3.02 0 0 0 .426-.661c.093-.208.14-.429.14-.664 0-.265-.062-.494-.187-.687a1.228 1.228 0 0 0-.512-.449 1.625 1.625 0 0 0-.73-.161c-.287 0-.537.059-.75.176a1.208 1.208 0 0 0-.493.496 1.572 1.572 0 0 0-.171.75h-1.153c0-.487.112-.912.336-1.277.224-.365.531-.647.922-.848a2.848 2.848 0 0 1 1.332-.304c.503 0 .945.1 1.328.3.386.198.686.469.902.813.217.341.325.726.325 1.156 0 .297-.056.587-.168.871-.11.284-.301.601-.574.949-.274.347-.654.767-1.141 1.262l-1.59 1.664v.059h3.602V141h-5.266zm9.531.133c-.617-.003-1.144-.166-1.582-.488-.437-.323-.772-.793-1.004-1.411-.231-.617-.347-1.36-.347-2.23 0-.867.116-1.608.347-2.223.235-.614.571-1.083 1.008-1.406.44-.323.966-.484 1.578-.484.612 0 1.137.162 1.574.488.438.323.773.792 1.004 1.406.235.612.352 1.352.352 2.219 0 .872-.116 1.617-.348 2.234-.232.615-.566 1.085-1.004 1.41-.437.323-.963.485-1.578.485zm0-1.043c.542 0 .965-.264 1.27-.793.307-.529.461-1.293.461-2.293 0-.664-.071-1.225-.211-1.684-.138-.461-.337-.81-.598-1.047a1.31 1.31 0 0 0-.922-.359c-.539 0-.962.266-1.269.797-.308.531-.463 1.296-.465 2.293 0 .667.069 1.23.207 1.691.141.459.34.806.598 1.043.257.235.567.352.929.352zm4.316.91v-.875l2.707-2.805c.289-.304.527-.571.715-.8.19-.232.332-.452.425-.661.094-.208.141-.429.141-.664 0-.265-.063-.494-.188-.687a1.225 1.225 0 0 0-.511-.449 1.626 1.626 0 0 0-.731-.161 1.54 1.54 0 0 0-.75.176 1.212 1.212 0 0 0-.492.496 1.56 1.56 0 0 0-.172.75h-1.152c0-.487.112-.912.336-1.277.224-.365.531-.647.922-.848.39-.203.834-.304 1.332-.304.502 0 .945.1 1.328.3.385.198.686.469.902.813.216.341.324.726.324 1.156 0 .297-.056.587-.168.871-.109.284-.3.601-.574.949-.273.347-.653.767-1.14 1.262l-1.59 1.664v.059h3.601V141h-5.265z"/><rect width="20" height="75" x="263" y="25" fill="#25B670" opacity=".2" rx="6"/><path fill="#25B670" d="M263 77h20v17a6 6 0 0 1-6 6h-8a6 6 0 0 1-6-6V77z"/><path fill="#000" d="M318.284 124v-10h.641v10h-.641zm2.004-6.898a1.14 1.14 0 0 0-.516-.86c-.302-.206-.682-.308-1.14-.308-.328 0-.612.052-.852.156a1.301 1.301 0 0 0-.558.422.991.991 0 0 0-.196.605c0 .19.045.354.133.492.091.138.21.254.356.348.148.091.307.168.476.231.169.059.332.109.488.148l.782.203c.255.063.517.147.785.254.268.107.517.247.746.422.229.174.414.39.555.648.143.258.215.567.215.926 0 .453-.118.856-.352 1.207-.232.352-.569.629-1.012.832-.44.203-.972.305-1.597.305-.599 0-1.118-.095-1.555-.285-.438-.19-.78-.46-1.027-.809a2.34 2.34 0 0 1-.411-1.25h1.211c.024.289.118.53.282.723.166.19.378.332.636.425.261.092.546.137.856.137.341 0 .644-.053.91-.16.268-.109.479-.26.633-.453.153-.195.23-.423.23-.684a.836.836 0 0 0-.203-.582 1.505 1.505 0 0 0-.543-.375 5.23 5.23 0 0 0-.769-.261l-.946-.258c-.64-.175-1.148-.431-1.523-.77-.373-.338-.559-.786-.559-1.344a2 2 0 0 1 .375-1.207c.25-.343.589-.61 1.016-.8a3.472 3.472 0 0 1 1.445-.289c.542 0 1.02.095 1.434.285.416.19.745.452.984.785.24.331.365.711.375 1.141h-1.164zm2.607 5.898v-.875l2.707-2.805c.289-.304.527-.571.714-.8.191-.232.332-.452.426-.661.094-.208.141-.429.141-.664 0-.265-.063-.494-.188-.687a1.225 1.225 0 0 0-.511-.449 1.629 1.629 0 0 0-.731-.161 1.54 1.54 0 0 0-.75.176 1.212 1.212 0 0 0-.492.496 1.56 1.56 0 0 0-.172.75h-1.152c0-.487.112-.912.336-1.277.224-.365.531-.647.922-.848.39-.203.834-.304 1.332-.304.502 0 .945.1 1.328.3.385.198.686.469.902.813.216.341.324.726.324 1.156 0 .297-.056.587-.168.871-.109.284-.3.601-.574.949a16.03 16.03 0 0 1-1.141 1.262l-1.589 1.664v.059h3.601V123h-5.265zm9.539.109a3.22 3.22 0 0 1-1.055-.195 2.474 2.474 0 0 1-.938-.625c-.281-.292-.506-.684-.675-1.176-.167-.492-.25-1.106-.25-1.843 0-.698.069-1.318.207-1.86.14-.542.342-.999.605-1.371a2.68 2.68 0 0 1 .953-.855 2.654 2.654 0 0 1 1.254-.293c.477 0 .9.093 1.27.281.369.187.669.446.898.777.232.331.379.707.442 1.129h-1.192a1.545 1.545 0 0 0-.48-.816c-.24-.211-.552-.317-.938-.317-.586 0-1.043.256-1.371.766-.325.51-.49 1.22-.492 2.129h.058c.138-.227.308-.419.508-.578a2.38 2.38 0 0 1 1.477-.504c.463 0 .883.113 1.258.34.377.224.678.534.902.929.224.396.336.849.336 1.36 0 .51-.116.972-.348 1.386a2.551 2.551 0 0 1-.968.985c-.417.239-.904.357-1.461.351zm-.004-1.015c.307 0 .582-.076.824-.227.242-.151.434-.354.574-.609a1.74 1.74 0 0 0 .211-.856c0-.307-.069-.587-.207-.84a1.563 1.563 0 0 0-.562-.601 1.495 1.495 0 0 0-.813-.223 1.57 1.57 0 0 0-1.16.5 1.788 1.788 0 0 0-.352.539 1.652 1.652 0 0 0-.125.637 1.695 1.695 0 0 0 .782 1.449c.244.154.52.231.828.231zm6.989 1.015a3.547 3.547 0 0 1-1.438-.277 2.437 2.437 0 0 1-.996-.77 2.038 2.038 0 0 1-.39-1.148h1.226c.016.237.095.443.239.617.145.172.336.305.57.399a2.1 2.1 0 0 0 .781.14c.315 0 .594-.054.836-.164.245-.109.436-.261.574-.457.138-.198.207-.426.207-.683 0-.269-.069-.504-.207-.707a1.342 1.342 0 0 0-.597-.485c-.261-.117-.576-.176-.946-.176h-.675v-.984h.675c.297 0 .558-.053.782-.16.226-.107.403-.255.531-.445.127-.193.191-.418.191-.676 0-.248-.056-.462-.168-.645a1.122 1.122 0 0 0-.468-.433 1.528 1.528 0 0 0-.711-.157c-.261 0-.504.049-.731.145a1.353 1.353 0 0 0-.547.406c-.14.175-.216.384-.226.629h-1.168c.013-.432.14-.812.383-1.141.244-.328.567-.584.968-.769a3.153 3.153 0 0 1 1.336-.277c.513 0 .956.1 1.328.3.375.198.664.463.868.793.205.331.307.693.304 1.086.003.448-.122.828-.375 1.141-.25.312-.583.522-1 .629v.062c.531.081.943.292 1.235.633.294.341.44.764.437 1.27.003.44-.12.834-.367 1.183a2.5 2.5 0 0 1-1.004.824c-.425.198-.91.297-1.457.297z"/><path fill="#999" d="M311.137 141v-.875l2.707-2.805c.289-.304.528-.571.715-.8a3.02 3.02 0 0 0 .426-.661c.094-.208.14-.429.14-.664 0-.265-.062-.494-.187-.687a1.228 1.228 0 0 0-.512-.449 1.622 1.622 0 0 0-.73-.161c-.287 0-.537.059-.75.176a1.2 1.2 0 0 0-.492.496 1.56 1.56 0 0 0-.172.75h-1.153c0-.487.112-.912.336-1.277.224-.365.532-.647.922-.848a2.848 2.848 0 0 1 1.332-.304c.503 0 .946.1 1.328.3.386.198.687.469.903.813.216.341.324.726.324 1.156 0 .297-.056.587-.168.871-.109.284-.301.601-.574.949-.274.347-.654.767-1.141 1.262l-1.59 1.664v.059h3.602V141h-5.266zm9.539.109a3.214 3.214 0 0 1-1.054-.195 2.466 2.466 0 0 1-.938-.625c-.281-.292-.506-.684-.676-1.176-.166-.492-.25-1.106-.25-1.843 0-.698.069-1.318.207-1.86.141-.542.343-.999.606-1.371a2.68 2.68 0 0 1 .953-.855c.372-.196.79-.293 1.254-.293.476 0 .9.093 1.269.281.37.187.67.446.899.777.232.331.379.707.441 1.129h-1.191a1.54 1.54 0 0 0-.481-.816c-.239-.211-.552-.317-.937-.317-.586 0-1.043.256-1.371.766-.326.51-.49 1.22-.492 2.129h.058c.138-.227.307-.419.508-.578a2.377 2.377 0 0 1 1.477-.504c.463 0 .882.113 1.257.34.378.224.679.534.903.929.224.396.336.849.336 1.36 0 .51-.116.972-.348 1.386a2.547 2.547 0 0 1-.969.985c-.416.239-.903.357-1.461.351zm-.004-1.015c.308 0 .582-.076.825-.227.242-.151.433-.354.574-.609.14-.255.211-.541.211-.856 0-.307-.069-.587-.207-.84a1.565 1.565 0 0 0-.563-.601 1.494 1.494 0 0 0-.812-.223 1.57 1.57 0 0 0-1.16.5 1.788 1.788 0 0 0-.352.539 1.652 1.652 0 0 0-.125.637 1.7 1.7 0 0 0 .781 1.449c.245.154.521.231.828.231zm5.374-.188-.058.426a6.947 6.947 0 0 1-.199.977 24.144 24.144 0 0 1-.524 1.644h-.828l.141-.656c.06-.274.118-.58.175-.918.058-.339.101-.684.129-1.035l.039-.438h1.125zm4.129 1.203a3.545 3.545 0 0 1-1.437-.277 2.43 2.43 0 0 1-.996-.77 2.04 2.04 0 0 1-.391-1.148h1.227c.015.237.095.443.238.617.146.172.336.305.57.399.235.093.495.14.781.14.316 0 .594-.054.836-.164a1.36 1.36 0 0 0 .575-.457c.138-.198.207-.426.207-.683 0-.269-.069-.504-.207-.707a1.35 1.35 0 0 0-.598-.485c-.26-.117-.576-.176-.945-.176h-.676v-.984h.676c.297 0 .557-.053.781-.16a1.28 1.28 0 0 0 .531-.445c.128-.193.192-.418.192-.676 0-.248-.056-.462-.168-.645a1.13 1.13 0 0 0-.469-.433 1.528 1.528 0 0 0-.711-.157c-.26 0-.504.049-.731.145a1.343 1.343 0 0 0-.546.406 1.041 1.041 0 0 0-.227.629h-1.168c.013-.432.141-.812.383-1.141a2.48 2.48 0 0 1 .969-.769 3.15 3.15 0 0 1 1.336-.277c.513 0 .955.1 1.328.3.375.198.664.463.867.793.206.331.307.693.305 1.086.002.448-.123.828-.375 1.141-.25.312-.584.522-1 .629v.062c.531.081.942.292 1.234.633.294.341.44.764.437 1.27.003.44-.119.834-.367 1.183a2.493 2.493 0 0 1-1.004.824c-.424.198-.91.297-1.457.297zm6.946 0c-.49 0-.93-.093-1.321-.281a2.388 2.388 0 0 1-.929-.781 2.056 2.056 0 0 1-.371-1.133h1.171c.029.344.181.626.457.848.276.221.607.332.993.332.307 0 .579-.071.816-.211.24-.143.427-.34.563-.59a1.74 1.74 0 0 0 .207-.856c0-.325-.071-.615-.211-.871a1.564 1.564 0 0 0-.582-.601 1.647 1.647 0 0 0-.844-.223 2.27 2.27 0 0 0-.731.125 1.718 1.718 0 0 0-.593.328l-1.106-.164.449-4.031h4.399v1.035h-3.395l-.254 2.238h.047a1.86 1.86 0 0 1 .621-.378c.261-.102.539-.153.836-.153a2.447 2.447 0 0 1 2.203 1.297c.222.398.331.857.329 1.375a2.68 2.68 0 0 1-.352 1.387c-.234.406-.56.726-.977.961-.414.231-.889.347-1.425.347zm6.965.024c-.617-.003-1.144-.166-1.582-.488-.437-.323-.772-.793-1.004-1.411-.231-.617-.347-1.36-.347-2.23 0-.867.116-1.608.347-2.223.235-.614.571-1.083 1.008-1.406.44-.323.966-.484 1.578-.484.612 0 1.137.162 1.575.488.437.323.772.792 1.004 1.406.234.612.351 1.352.351 2.219 0 .872-.116 1.617-.348 2.234-.231.615-.566 1.085-1.003 1.41-.438.323-.964.485-1.579.485zm0-1.043c.542 0 .965-.264 1.27-.793.307-.529.461-1.293.461-2.293 0-.664-.07-1.225-.211-1.684-.138-.461-.337-.81-.598-1.047a1.31 1.31 0 0 0-.922-.359c-.539 0-.962.266-1.269.797-.307.531-.462 1.296-.465 2.293 0 .667.069 1.23.207 1.691.141.459.34.806.598 1.043.258.235.567.352.929.352z"/><rect width="20" height="75" x="320" y="25" fill="#25B670" opacity=".2" rx="6"/><path fill="#25B670" d="M320 57h20v37a6 6 0 0 1-6 6h-8a6 6 0 0 1-6-6V57z"/><path fill="#000" d="M376.596 124v-10h.64v10h-.64zm2.004-6.898a1.143 1.143 0 0 0-.516-.86c-.302-.206-.682-.308-1.141-.308-.328 0-.612.052-.851.156-.24.101-.426.242-.559.422a.997.997 0 0 0-.195.605c0 .19.044.354.133.492.091.138.209.254.355.348.149.091.307.168.477.231.169.059.332.109.488.148l.781.203c.255.063.517.147.785.254.269.107.517.247.747.422.229.174.414.39.554.648.143.258.215.567.215.926 0 .453-.117.856-.352 1.207-.231.352-.569.629-1.011.832-.44.203-.973.305-1.598.305-.599 0-1.117-.095-1.555-.285-.437-.19-.78-.46-1.027-.809a2.348 2.348 0 0 1-.41-1.25h1.211c.023.289.117.53.281.723.167.19.379.332.637.425.26.092.545.137.855.137.341 0 .645-.053.91-.16.269-.109.48-.26.633-.453.154-.195.231-.423.231-.684a.84.84 0 0 0-.203-.582 1.505 1.505 0 0 0-.543-.375 5.244 5.244 0 0 0-.77-.261l-.945-.258c-.641-.175-1.149-.431-1.524-.77-.372-.338-.558-.786-.558-1.344a2 2 0 0 1 .375-1.207c.25-.343.588-.61 1.015-.8a3.473 3.473 0 0 1 1.446-.289c.541 0 1.019.095 1.433.285.417.19.745.452.985.785.239.331.364.711.375 1.141H378.6zm5.391 6.007a3.545 3.545 0 0 1-1.437-.277 2.424 2.424 0 0 1-.996-.77 2.032 2.032 0 0 1-.391-1.148h1.227c.015.237.095.443.238.617.146.172.336.305.57.399.235.093.495.14.781.14.316 0 .594-.054.836-.164a1.36 1.36 0 0 0 .575-.457c.138-.198.207-.426.207-.683 0-.269-.069-.504-.207-.707a1.35 1.35 0 0 0-.598-.485c-.261-.117-.576-.176-.945-.176h-.676v-.984h.676c.296 0 .557-.053.781-.16.226-.107.403-.255.531-.445.128-.193.191-.418.191-.676 0-.248-.055-.462-.167-.645a1.13 1.13 0 0 0-.469-.433 1.528 1.528 0 0 0-.711-.157c-.261 0-.504.049-.731.145a1.353 1.353 0 0 0-.547.406c-.14.175-.216.384-.226.629h-1.168c.013-.432.141-.812.383-1.141.245-.328.567-.584.969-.769a3.149 3.149 0 0 1 1.335-.277c.513 0 .956.1 1.329.3.375.198.664.463.867.793.206.331.307.693.304 1.086.003.448-.122.828-.375 1.141-.25.312-.583.522-1 .629v.062c.532.081.943.292 1.235.633.294.341.44.764.437 1.27.003.44-.119.834-.367 1.183a2.493 2.493 0 0 1-1.004.824c-.424.198-.91.297-1.457.297zm4.305-.109v-.875l2.707-2.805c.289-.304.527-.571.715-.8a3.02 3.02 0 0 0 .426-.661c.093-.208.14-.429.14-.664 0-.265-.062-.494-.187-.687a1.228 1.228 0 0 0-.512-.449 1.626 1.626 0 0 0-.731-.161 1.54 1.54 0 0 0-.75.176 1.212 1.212 0 0 0-.492.496 1.572 1.572 0 0 0-.172.75h-1.152c0-.487.112-.912.336-1.277.224-.365.531-.647.922-.848a2.848 2.848 0 0 1 1.332-.304c.503 0 .945.1 1.328.3.385.198.686.469.902.813.217.341.325.726.325 1.156 0 .297-.056.587-.168.871-.11.284-.301.601-.575.949-.273.347-.653.767-1.14 1.262l-1.59 1.664v.059h3.602V123h-5.266zm7.016 0 3.492-6.906v-.059h-4.039V115h5.289v1.07l-3.481 6.93h-1.261z"/><path fill="#999" d="M371.756 141.109a3.545 3.545 0 0 1-1.437-.277 2.437 2.437 0 0 1-.996-.77 2.04 2.04 0 0 1-.391-1.148h1.227c.015.237.095.443.238.617.146.172.336.305.57.399.235.093.495.14.782.14.315 0 .593-.054.835-.164a1.36 1.36 0 0 0 .575-.457c.138-.198.207-.426.207-.683 0-.269-.069-.504-.207-.707a1.35 1.35 0 0 0-.598-.485c-.26-.117-.575-.176-.945-.176h-.676v-.984h.676c.297 0 .557-.053.781-.16.227-.107.404-.255.531-.445.128-.193.192-.418.192-.676 0-.248-.056-.462-.168-.645a1.13 1.13 0 0 0-.469-.433 1.528 1.528 0 0 0-.711-.157c-.26 0-.504.049-.73.145a1.347 1.347 0 0 0-.547.406 1.041 1.041 0 0 0-.227.629H369.1c.013-.432.141-.812.383-1.141a2.48 2.48 0 0 1 .969-.769 3.15 3.15 0 0 1 1.336-.277c.513 0 .955.1 1.328.3.375.198.664.463.867.793.206.331.307.693.305 1.086.002.448-.123.828-.375 1.141-.25.312-.584.522-1 .629v.062c.531.081.942.292 1.234.633.294.341.44.764.437 1.27.003.44-.119.834-.367 1.183a2.493 2.493 0 0 1-1.004.824c-.424.198-.91.297-1.457.297zm4.305-.109v-.875l2.707-2.805c.289-.304.527-.571.715-.8a3.02 3.02 0 0 0 .426-.661c.093-.208.14-.429.14-.664 0-.265-.062-.494-.187-.687a1.228 1.228 0 0 0-.512-.449 1.625 1.625 0 0 0-.73-.161c-.287 0-.537.059-.75.176a1.208 1.208 0 0 0-.493.496 1.572 1.572 0 0 0-.171.75h-1.153c0-.487.112-.912.336-1.277.224-.365.531-.647.922-.848a2.848 2.848 0 0 1 1.332-.304c.503 0 .945.1 1.328.3.386.198.686.469.903.813.216.341.324.726.324 1.156 0 .297-.056.587-.168.871-.11.284-.301.601-.574.949-.274.347-.654.767-1.141 1.262l-1.59 1.664v.059h3.602V141h-5.266zm8.281-1.094-.058.426a6.816 6.816 0 0 1-.2.977 24.144 24.144 0 0 1-.523 1.644h-.828l.141-.656c.059-.274.118-.58.175-.918.058-.339.101-.684.129-1.035l.039-.438h1.125zm1.466-.468v-.977l3.457-5.461h.77v1.437h-.489l-2.472 3.915v.062h4.738v1.024h-6.004zm3.793 1.562v-1.859l.008-.446V133h1.144v8h-1.152zm3.404-1.562v-.977l3.457-5.461h.77v1.437h-.488l-2.473 3.915v.062h4.738v1.024h-6.004zm3.793 1.562v-1.859l.008-.446V133h1.145v8h-1.153zm3.405-1.562v-.977L403.66 133h.769v1.437h-.488l-2.473 3.915v.062h4.739v1.024h-6.004zm3.793 1.562v-1.859l.007-.446V133h1.145v8h-1.152z"/><rect width="20" height="75" x="378" y="25" fill="#25B670" opacity=".2" rx="6"/><path fill="#25B670" d="M378 35h20v59a6 6 0 0 1-6 6h-8a6 6 0 0 1-6-6V35z"/><path fill="#666" d="M37.672 32.493a1.453 1.453 0 0 0-.656-1.094c-.385-.262-.869-.393-1.452-.393-.418 0-.779.067-1.084.2a1.653 1.653 0 0 0-.71.536 1.268 1.268 0 0 0-.25.77c0 .243.057.452.17.627.116.176.266.323.452.443.189.116.391.213.607.293.215.076.422.14.621.189l.994.258c.325.08.658.188 1 .324.341.136.658.315.95.536.29.223.526.498.705.826.183.328.274.72.274 1.178 0 .577-.15 1.089-.448 1.536-.295.448-.724.8-1.288 1.06-.56.258-1.237.387-2.033.387-.762 0-1.422-.12-1.979-.363-.556-.242-.992-.585-1.307-1.029-.315-.447-.489-.978-.522-1.59h1.541c.03.367.15.674.358.919.212.242.482.422.81.542.332.116.695.174 1.09.174.433 0 .82-.068 1.158-.204.341-.14.61-.332.805-.577.195-.248.293-.538.293-.87 0-.301-.086-.548-.258-.74a1.91 1.91 0 0 0-.691-.478 6.755 6.755 0 0 0-.98-.333l-1.203-.328c-.815-.222-1.461-.549-1.939-.98-.474-.43-.71-1-.71-1.71 0-.586.158-1.098.477-1.536a3.15 3.15 0 0 1 1.292-1.02c.544-.244 1.157-.367 1.84-.367.69 0 1.297.121 1.824.363.53.242.948.575 1.253 1 .305.42.464.904.477 1.45h-1.481zm5.47 7.676a3.12 3.12 0 0 1-1.313-.268 2.211 2.211 0 0 1-.93-.79c-.225-.346-.338-.768-.338-1.269 0-.43.083-.785.249-1.064.165-.278.39-.498.67-.66.283-.163.597-.286.945-.369a9.389 9.389 0 0 1 1.064-.189l1.114-.129c.285-.036.492-.094.621-.174.13-.08.194-.209.194-.388v-.035c0-.434-.122-.77-.368-1.009-.241-.238-.603-.358-1.083-.358-.5 0-.895.111-1.184.333-.285.22-.482.463-.591.731l-1.397-.318c.166-.464.407-.839.726-1.123a2.943 2.943 0 0 1 1.108-.627 4.328 4.328 0 0 1 1.318-.199c.305 0 .628.037.97.11.344.07.665.198.964.387.301.19.548.46.74.81.193.349.289.801.289 1.358V40h-1.452v-1.044h-.06c-.096.192-.24.381-.432.567-.192.185-.44.34-.74.462-.302.123-.664.184-1.085.184zm.322-1.193c.412 0 .763-.081 1.055-.244.294-.162.518-.374.67-.636a1.65 1.65 0 0 0 .234-.85v-.985c-.053.053-.156.103-.308.15a4.81 4.81 0 0 1-.512.114c-.192.03-.38.058-.562.084l-.457.06a3.688 3.688 0 0 0-.79.184c-.236.086-.425.21-.567.373-.14.159-.21.371-.21.636 0 .368.137.646.408.835.272.186.619.279 1.04.279zm6.822-9.158V40H48.8V29.818h1.486zm5.201 10.336c-.752 0-1.4-.16-1.944-.482a3.271 3.271 0 0 1-1.252-1.367c-.292-.59-.438-1.281-.438-2.074 0-.782.146-1.471.438-2.068a3.398 3.398 0 0 1 1.233-1.397c.53-.334 1.15-.502 1.859-.502.43 0 .848.072 1.253.214.404.142.767.366 1.088.671.322.305.576.701.761 1.188.186.484.279 1.073.279 1.765v.527h-6.07v-1.113h4.613c0-.392-.08-.738-.239-1.04a1.803 1.803 0 0 0-.67-.72 1.875 1.875 0 0 0-1.005-.264 1.94 1.94 0 0 0-1.094.308 2.068 2.068 0 0 0-.716.796 2.295 2.295 0 0 0-.248 1.059v.87c0 .51.09.944.268 1.302.182.358.436.632.76.82.325.186.705.28 1.14.28.28 0 .538-.04.77-.12a1.599 1.599 0 0 0 .99-.97l1.406.254a2.549 2.549 0 0 1-.606 1.089 2.941 2.941 0 0 1-1.09.72c-.433.17-.929.254-1.486.254zm10.558-5.926-1.347.239a1.599 1.599 0 0 0-.269-.493 1.33 1.33 0 0 0-.487-.382c-.205-.1-.462-.15-.77-.15-.421 0-.773.095-1.054.284-.282.185-.423.426-.423.72a.76.76 0 0 0 .283.617c.19.156.494.284.915.383l1.213.278c.703.163 1.227.413 1.571.751.345.338.517.777.517 1.318 0 .457-.132.865-.397 1.223-.262.354-.629.633-1.1.835-.466.202-1.008.303-1.625.303-.855 0-1.553-.182-2.093-.547-.54-.368-.872-.89-.994-1.566l1.437-.219c.09.375.273.658.552.85.278.19.64.284 1.088.284.487 0 .877-.101 1.169-.303.291-.206.437-.456.437-.751a.78.78 0 0 0-.268-.602c-.176-.162-.446-.285-.81-.367l-1.293-.284c-.713-.162-1.24-.42-1.581-.775-.338-.355-.508-.804-.508-1.348 0-.45.127-.845.378-1.183.252-.338.6-.602 1.044-.79.444-.193.953-.289 1.527-.289.825 0 1.475.18 1.949.537.474.355.787.83.94 1.427zm11.841-1.864L75.117 40h-1.59l-2.775-7.636h1.596l1.934 5.876h.08l1.929-5.876h1.596zm3.311 7.805a3.12 3.12 0 0 1-1.312-.268 2.211 2.211 0 0 1-.93-.79c-.225-.346-.338-.768-.338-1.269 0-.43.083-.785.248-1.064.166-.278.39-.498.672-.66.281-.163.596-.286.944-.369a9.389 9.389 0 0 1 1.064-.189l1.114-.129c.285-.036.492-.094.621-.174.13-.08.194-.209.194-.388v-.035c0-.434-.123-.77-.368-1.009-.242-.238-.603-.358-1.084-.358-.5 0-.895.111-1.183.333-.285.22-.482.463-.591.731l-1.398-.318c.166-.464.408-.839.726-1.123a2.943 2.943 0 0 1 1.109-.627 4.328 4.328 0 0 1 1.317-.199c.305 0 .629.037.97.11.345.07.666.198.964.387.302.19.549.46.741.81.192.349.288.801.288 1.358V40h-1.451v-1.044h-.06c-.096.192-.24.381-.432.567-.193.185-.44.34-.741.462-.302.123-.663.184-1.084.184zm.323-1.193c.411 0 .763-.081 1.054-.244.295-.162.519-.374.671-.636a1.65 1.65 0 0 0 .234-.85v-.985c-.053.053-.156.103-.308.15a4.81 4.81 0 0 1-.512.114c-.193.03-.38.058-.562.084l-.457.06a3.688 3.688 0 0 0-.791.184c-.235.086-.424.21-.567.373-.139.159-.209.371-.209.636 0 .368.136.646.408.835.272.186.618.279 1.04.279zm6.822-9.158V40h-1.486V29.818h1.486zm6.747 7.015v-4.47h1.492V40h-1.462v-1.322h-.08a2.383 2.383 0 0 1-.845 1.019c-.384.268-.863.402-1.437.402-.49 0-.924-.107-1.302-.323a2.27 2.27 0 0 1-.885-.97c-.212-.427-.318-.955-.318-1.585v-4.857h1.486v4.678c0 .52.144.935.433 1.243.288.308.663.462 1.123.462.279 0 .556-.07.83-.209.28-.139.51-.35.692-.631.185-.282.276-.64.273-1.074zm6.69 3.321c-.752 0-1.4-.16-1.944-.482a3.271 3.271 0 0 1-1.253-1.367c-.291-.59-.437-1.281-.437-2.074 0-.782.146-1.471.437-2.068a3.398 3.398 0 0 1 1.233-1.397c.531-.334 1.15-.502 1.86-.502.431 0 .848.072 1.253.214a3.03 3.03 0 0 1 1.088.671c.322.305.575.701.761 1.188.186.484.278 1.073.278 1.765v.527h-6.07v-1.113h4.614c0-.392-.08-.738-.239-1.04a1.805 1.805 0 0 0-.671-.72 1.875 1.875 0 0 0-1.004-.264 1.94 1.94 0 0 0-1.094.308 2.071 2.071 0 0 0-.716.796 2.296 2.296 0 0 0-.249 1.059v.87c0 .51.09.944.269 1.302.182.358.436.632.761.82.324.186.704.28 1.138.28.282 0 .539-.04.771-.12a1.593 1.593 0 0 0 .989-.97l1.407.254a2.549 2.549 0 0 1-.607 1.089 2.939 2.939 0 0 1-1.088.72c-.435.17-.93.254-1.487.254z"/><path fill="#999" d="M31.879 141v-8h1.207v6.961h3.625V141h-4.832zm7.693 0H38.29l2.879-8h1.394l2.879 8h-1.281l-2.262-6.547h-.063L39.572 141zm.215-3.133h4.156v1.016h-4.156v-1.016zm11.51-2.765a1.142 1.142 0 0 0-.516-.86c-.302-.206-.682-.308-1.14-.308-.328 0-.612.052-.852.156-.24.101-.425.242-.558.422a.996.996 0 0 0-.196.605c0 .19.045.354.133.492.091.138.21.254.356.348.148.091.307.168.476.231.17.059.332.109.489.148l.78.203a6 6 0 0 1 .786.254c.268.107.517.247.746.422.23.174.414.39.555.648.143.258.215.567.215.926 0 .453-.118.856-.352 1.207-.232.352-.57.629-1.012.832-.44.203-.972.305-1.597.305-.6 0-1.118-.095-1.555-.285-.438-.19-.78-.46-1.027-.809a2.33 2.33 0 0 1-.41-1.25h1.21c.024.289.117.53.282.723.166.19.379.332.636.425.26.092.546.137.856.137.34 0 .644-.053.91-.16.268-.109.48-.26.633-.453.153-.195.23-.423.23-.684a.839.839 0 0 0-.203-.582 1.501 1.501 0 0 0-.543-.375 5.245 5.245 0 0 0-.77-.261l-.945-.258c-.64-.175-1.148-.431-1.523-.77-.373-.338-.559-.786-.559-1.344a2 2 0 0 1 .375-1.207c.25-.343.589-.61 1.016-.8a3.472 3.472 0 0 1 1.445-.289c.542 0 1.02.095 1.434.285.416.19.745.452.984.785.24.331.365.711.375 1.141h-1.164zm2.721-1.063V133h6.192v1.039h-2.496V141H56.51v-6.961h-2.493zM68.215 133v8h-1.211v-6.789h-.047l-1.914 1.25v-1.156L67.039 133h1.176zm5.367 0h1.371l2.09 3.637h.086L79.22 133h1.371l-2.902 4.859V141h-1.203v-3.141L73.582 133zm8.548 8v-8h5.015v1.039h-3.808v2.438h3.547v1.035h-3.547v2.449h3.855V141H82.13zm7.703 0h-1.28l2.878-8h1.395l2.879 8h-1.282l-2.261-6.547h-.063L89.833 141zm.215-3.133h4.156v1.016h-4.156v-1.016zM97.26 141v-8h2.851c.62 0 1.134.107 1.543.32.412.214.719.509.922.887.203.375.305.809.305 1.301 0 .489-.103.92-.309 1.293-.203.37-.51.657-.922.863-.408.206-.923.309-1.543.309h-2.16v-1.039h2.051c.391 0 .708-.056.953-.168.248-.112.429-.275.543-.489a1.6 1.6 0 0 0 .172-.769c0-.302-.059-.564-.176-.785a1.126 1.126 0 0 0-.543-.508c-.245-.12-.566-.18-.965-.18h-1.515V141H97.26zm3.949-3.609 1.977 3.609h-1.375l-1.938-3.609h1.336z"/><path fill="#000" d="M36.888 118.818v-18.182h1.165v18.182h-1.165zm3.643-12.542c-.075-.673-.388-1.194-.937-1.563-.55-.374-1.24-.561-2.074-.561-.597 0-1.113.095-1.548.284-.436.185-.775.44-1.016.767a1.81 1.81 0 0 0-.355 1.101c0 .346.08.644.241.895.166.251.382.462.647.632.27.166.558.305.866.419.308.109.604.199.888.27l1.42.369c.464.114.94.268 1.428.462s.94.45 1.356.767c.417.317.753.71 1.009 1.179.26.469.39 1.03.39 1.683 0 .824-.212 1.556-.639 2.195-.421.639-1.034 1.143-1.84 1.513-.8.369-1.768.553-2.904.553-1.089 0-2.031-.172-2.827-.518-.795-.346-1.418-.836-1.867-1.47-.45-.639-.699-1.397-.746-2.273h2.201c.043.526.214.964.512 1.314.303.346.689.604 1.158.774.473.166.991.249 1.555.249.62 0 1.172-.097 1.655-.291.487-.199.87-.474 1.15-.824.28-.355.42-.77.42-1.243 0-.431-.124-.784-.37-1.058-.242-.275-.57-.502-.987-.682a9.607 9.607 0 0 0-1.4-.476l-1.718-.469c-1.165-.317-2.088-.783-2.77-1.399-.677-.616-1.016-1.43-1.016-2.443 0-.838.228-1.57.682-2.195.455-.625 1.07-1.11 1.847-1.456.776-.35 1.652-.525 2.628-.525.984 0 1.853.173 2.606.518.758.346 1.354.822 1.79 1.428.435.601.663 1.292.682 2.074H40.53zM44.941 117v-1.591l4.921-5.099c.526-.554.959-1.04 1.3-1.456.346-.422.604-.822.774-1.201.17-.378.256-.781.256-1.207 0-.483-.114-.9-.341-1.25a2.235 2.235 0 0 0-.93-.817 2.96 2.96 0 0 0-1.329-.291c-.52 0-.975.107-1.363.32a2.185 2.185 0 0 0-.895.902c-.209.388-.313.842-.313 1.363h-2.095c0-.885.204-1.659.61-2.322a4.143 4.143 0 0 1 1.677-1.541c.71-.37 1.517-.554 2.422-.554.914 0 1.719.182 2.415.547.7.359 1.247.852 1.64 1.477.393.62.59 1.321.59 2.102a4.28 4.28 0 0 1-.306 1.584c-.198.516-.546 1.091-1.044 1.726-.497.629-1.188 1.394-2.074 2.294l-2.89 3.025v.107h6.548V117H44.94zm16.999.199c-.976 0-1.847-.168-2.614-.504-.762-.337-1.366-.803-1.81-1.4-.441-.601-.678-1.297-.711-2.088h2.23c.028.431.173.805.433 1.123.265.312.611.554 1.037.724.426.17.9.256 1.42.256.574 0 1.08-.1 1.52-.299.446-.199.794-.475 1.045-.831.25-.359.376-.774.376-1.242a2.24 2.24 0 0 0-.376-1.286c-.247-.374-.609-.668-1.087-.881-.474-.213-1.047-.319-1.719-.319h-1.229v-1.79h1.23c.539 0 1.012-.097 1.42-.291.412-.194.734-.464.965-.81.233-.35.349-.76.349-1.229 0-.449-.102-.84-.306-1.171a2.052 2.052 0 0 0-.852-.789c-.365-.189-.796-.284-1.293-.284-.473 0-.916.088-1.328.263a2.45 2.45 0 0 0-.994.738 1.903 1.903 0 0 0-.412 1.144H57.11c.024-.786.256-1.477.696-2.074.445-.597 1.033-1.063 1.762-1.399.729-.336 1.538-.504 2.429-.504.932 0 1.737.182 2.414.547.682.359 1.208.84 1.577 1.441a3.62 3.62 0 0 1 .554 1.975c.005.814-.222 1.505-.682 2.074-.454.568-1.06.949-1.818 1.143v.114c.966.146 1.714.53 2.244 1.15.535.621.8 1.39.796 2.309.005.8-.218 1.517-.668 2.152-.445.634-1.053 1.134-1.825 1.498-.772.36-1.655.54-2.65.54zm12.333-14.943a5.612 5.612 0 0 1 1.918.355 4.53 4.53 0 0 1 1.704 1.136c.512.526.919 1.236 1.222 2.131.308.89.464 1.998.469 3.324 0 1.273-.128 2.407-.384 3.402-.256.989-.623 1.825-1.1 2.507-.474.682-1.05 1.2-1.727 1.555s-1.439.533-2.287.533c-.866 0-1.635-.171-2.308-.511a4.402 4.402 0 0 1-1.64-1.414 4.673 4.673 0 0 1-.789-2.088h2.166c.142.625.431 1.132.867 1.52.44.383 1.008.575 1.704.575 1.066 0 1.897-.464 2.493-1.392.597-.933.898-2.235.902-3.906h-.113a3.92 3.92 0 0 1-.924 1.051 4.145 4.145 0 0 1-1.228.682c-.455.161-.94.241-1.456.241a4.36 4.36 0 0 1-2.287-.618 4.546 4.546 0 0 1-1.64-1.697c-.408-.72-.612-1.541-.612-2.464 0-.919.209-1.752.625-2.5a4.661 4.661 0 0 1 1.762-1.776c.757-.44 1.645-.656 2.663-.646zm.007 1.846a2.8 2.8 0 0 0-1.498.412c-.44.27-.789.637-1.044 1.101a3.1 3.1 0 0 0-.384 1.534c0 .564.123 1.075.37 1.534a2.93 2.93 0 0 0 1.022 1.087c.436.265.933.398 1.492.398a2.82 2.82 0 0 0 1.164-.242c.36-.161.675-.383.945-.667.27-.289.48-.616.632-.981.152-.364.227-.748.227-1.15 0-.535-.127-1.032-.383-1.492a2.995 2.995 0 0 0-1.037-1.108 2.717 2.717 0 0 0-1.506-.426zm9.805 10.909-.106.775a12.44 12.44 0 0 1-.363 1.775c-.165.62-.338 1.196-.518 1.726-.175.53-.32.952-.433 1.264h-1.506c.062-.293.147-.691.256-1.193.109-.497.215-1.054.32-1.669a22.44 22.44 0 0 0 .234-1.882l.07-.796h2.046zm7.302-12.755a5.612 5.612 0 0 1 1.917.355 4.54 4.54 0 0 1 1.705 1.136c.511.526.918 1.236 1.221 2.131.308.89.464 1.998.47 3.324 0 1.273-.129 2.407-.384 3.402-.256.989-.623 1.825-1.101 2.507-.474.682-1.05 1.2-1.726 1.555-.677.355-1.44.533-2.287.533-.867 0-1.636-.171-2.308-.511a4.401 4.401 0 0 1-1.64-1.414 4.674 4.674 0 0 1-.79-2.088h2.167c.142.625.43 1.132.866 1.52.44.383 1.009.575 1.705.575 1.065 0 1.896-.464 2.493-1.392.596-.933.897-2.235.902-3.906h-.114a3.921 3.921 0 0 1-.923 1.051 4.146 4.146 0 0 1-1.229.682 4.33 4.33 0 0 1-1.456.241 4.36 4.36 0 0 1-2.287-.618 4.546 4.546 0 0 1-1.64-1.697c-.407-.72-.611-1.541-.611-2.464 0-.919.208-1.752.625-2.5a4.662 4.662 0 0 1 1.761-1.776c.758-.44 1.646-.656 2.664-.646zm.007 1.846c-.554 0-1.054.138-1.499.412-.44.27-.788.637-1.044 1.101a3.1 3.1 0 0 0-.383 1.534c0 .564.123 1.075.369 1.534.25.455.592.817 1.023 1.087.435.265.932.398 1.491.398a2.82 2.82 0 0 0 1.165-.242 2.94 2.94 0 0 0 .944-.667c.27-.289.481-.616.633-.981.151-.364.227-.748.227-1.15a3.02 3.02 0 0 0-.384-1.492 2.995 2.995 0 0 0-1.037-1.108 2.717 2.717 0 0 0-1.505-.426zm12.456 13.097c-1.018 0-1.918-.175-2.699-.526-.777-.35-1.385-.833-1.826-1.449a3.484 3.484 0 0 1-.653-2.102 3.704 3.704 0 0 1 1.435-2.997c.445-.35.942-.573 1.491-.668v-.085a2.934 2.934 0 0 1-1.74-1.165c-.436-.601-.651-1.292-.646-2.073a3.401 3.401 0 0 1 .59-1.989c.402-.587.953-1.049 1.654-1.385.701-.336 1.499-.504 2.394-.504.885 0 1.676.17 2.372.511.7.336 1.252.798 1.655 1.385a3.44 3.44 0 0 1 .61 1.982 3.45 3.45 0 0 1-.667 2.073 2.96 2.96 0 0 1-1.719 1.165v.085a3.186 3.186 0 0 1 1.47.668c.44.346.791.779 1.051 1.3.265.516.4 1.082.405 1.697a3.557 3.557 0 0 1-.668 2.102c-.44.616-1.051 1.099-1.832 1.449-.776.351-1.669.526-2.677.526zm0-1.797c.601 0 1.122-.099 1.562-.298.44-.204.781-.486 1.023-.845.241-.365.364-.791.369-1.279a2.39 2.39 0 0 0-.398-1.342 2.644 2.644 0 0 0-1.044-.916c-.44-.223-.944-.334-1.512-.334-.573 0-1.082.111-1.527.334a2.64 2.64 0 0 0-1.052.916 2.344 2.344 0 0 0-.376 1.342c-.005.488.111.914.348 1.279.241.359.585.641 1.03.845.445.199.97.298 1.577.298zm0-6.768c.482 0 .911-.098 1.285-.292.374-.194.668-.464.881-.809.218-.346.329-.751.334-1.215a2.254 2.254 0 0 0-.327-1.193 2.07 2.07 0 0 0-.874-.788c-.374-.19-.807-.284-1.299-.284-.502 0-.943.094-1.321.284a2.063 2.063 0 0 0-.874.788c-.208.341-.31.739-.305 1.193-.005.464.099.869.312 1.215.213.345.507.615.881.809.379.194.814.292 1.307.292zm12.193 8.565c-.891 0-1.691-.171-2.401-.511a4.37 4.37 0 0 1-1.69-1.421 3.742 3.742 0 0 1-.675-2.06h2.131c.052.625.329 1.139.831 1.542.502.402 1.103.603 1.804.603.558 0 1.053-.128 1.484-.383a2.75 2.75 0 0 0 1.023-1.073c.251-.454.376-.973.376-1.555 0-.592-.128-1.12-.383-1.584a2.84 2.84 0 0 0-1.059-1.094c-.445-.265-.956-.4-1.534-.404-.44 0-.883.075-1.328.227-.445.151-.805.35-1.079.596l-2.01-.298.816-7.329h7.998v1.882h-6.172l-.462 4.069h.085c.284-.274.661-.504 1.13-.689.473-.184.98-.277 1.519-.277.886 0 1.674.211 2.366.632a4.5 4.5 0 0 1 1.64 1.726c.403.725.601 1.558.597 2.5.004.943-.209 1.783-.639 2.522a4.636 4.636 0 0 1-1.776 1.747c-.753.421-1.617.632-2.592.632zm8.171-.064c-.388 0-.722-.137-1.001-.412a1.373 1.373 0 0 1-.419-1.009c0-.388.139-.719.419-.994a1.367 1.367 0 0 1 1.001-.419c.388 0 .722.14 1.001.419.28.275.42.606.42.994 0 .261-.067.5-.199.718a1.474 1.474 0 0 1-.512.511c-.213.128-.45.192-.71.192zm3.601-2.976v-1.775l6.286-9.929h1.399v2.613h-.888l-4.496 7.117v.113h8.615v1.861h-10.916zm6.896 2.841v-3.381l.015-.809v-10.355h2.081V117h-2.096zm11.229.241c-1.122-.004-2.081-.3-2.876-.887-.795-.587-1.404-1.442-1.825-2.564-.422-1.122-.632-2.474-.632-4.056 0-1.576.21-2.923.632-4.041.426-1.117 1.037-1.97 1.832-2.557.8-.587 1.757-.88 2.869-.88 1.113 0 2.067.296 2.863.887.795.588 1.404 1.44 1.825 2.557.426 1.113.639 2.458.639 4.034 0 1.587-.211 2.941-.632 4.063-.421 1.117-1.03 1.972-1.825 2.564-.796.587-1.752.88-2.87.88zm0-1.896c.985 0 1.755-.48 2.309-1.442.558-.961.838-2.35.838-4.169 0-1.207-.128-2.227-.384-3.061-.251-.838-.613-1.472-1.086-1.903a2.378 2.378 0 0 0-1.677-.654c-.98 0-1.749.483-2.308 1.449-.559.966-.84 2.356-.845 4.169 0 1.212.125 2.238.376 3.076.256.833.618 1.465 1.087 1.896.469.426 1.032.639 1.69.639z"/><g filter="url(#b)"><rect width="416" height="48" x="11" y="183" fill="#fff" rx="16"/></g><path fill="#666" d="M27.616 203.141v-1.323h7.88v1.323H32.32V212h-1.532v-8.859h-3.172zm11.522 9.013c-.716 0-1.341-.164-1.875-.492a3.318 3.318 0 0 1-1.243-1.377c-.295-.59-.442-1.28-.442-2.068 0-.793.147-1.485.442-2.079a3.32 3.32 0 0 1 1.243-1.382c.534-.328 1.159-.492 1.875-.492.715 0 1.34.164 1.874.492a3.32 3.32 0 0 1 1.243 1.382c.295.594.442 1.286.442 2.079 0 .788-.147 1.478-.442 2.068a3.318 3.318 0 0 1-1.243 1.377c-.534.328-1.159.492-1.874.492zm.005-1.248c.464 0 .848-.122 1.153-.368.305-.245.53-.571.676-.979.15-.408.224-.857.224-1.347a3.88 3.88 0 0 0-.224-1.343 2.188 2.188 0 0 0-.676-.989c-.305-.249-.69-.373-1.153-.373-.468 0-.855.124-1.164.373a2.223 2.223 0 0 0-.68.989 3.963 3.963 0 0 0-.22 1.343c0 .49.073.939.22 1.347.148.408.375.734.68.979.309.246.696.368 1.164.368zm8.688-6.542v1.193H43.66v-1.193h4.171zm-3.052-1.83h1.486v7.224c0 .288.043.505.13.651.086.143.197.24.332.293.14.05.29.075.453.075a1.7 1.7 0 0 0 .313-.025c.09-.016.16-.03.209-.04l.268 1.228a2.927 2.927 0 0 1-.965.159 2.624 2.624 0 0 1-1.093-.208 1.879 1.879 0 0 1-.82-.677c-.209-.304-.313-.687-.313-1.148v-7.532zm6.829 9.635a3.12 3.12 0 0 1-1.313-.268 2.214 2.214 0 0 1-.93-.791c-.225-.345-.337-.767-.337-1.268 0-.431.082-.785.248-1.064.166-.278.39-.498.671-.661a3.53 3.53 0 0 1 .945-.368 9.34 9.34 0 0 1 1.064-.189l1.113-.129c.285-.036.493-.094.622-.174.13-.079.194-.209.194-.388v-.034c0-.435-.123-.771-.368-1.01-.242-.238-.603-.358-1.084-.358-.5 0-.895.111-1.183.333-.285.219-.482.463-.592.731l-1.397-.318c.166-.464.408-.838.726-1.124a2.945 2.945 0 0 1 1.109-.626 4.315 4.315 0 0 1 1.317-.199c.305 0 .628.037.97.11.344.069.666.198.964.387.302.189.549.459.741.811.192.348.288.8.288 1.357V212h-1.451v-1.044h-.06a2.11 2.11 0 0 1-.433.567 2.314 2.314 0 0 1-.74.462c-.302.123-.663.184-1.084.184zm.323-1.193c.411 0 .762-.081 1.054-.244a1.7 1.7 0 0 0 .671-.636 1.65 1.65 0 0 0 .234-.85v-.985c-.053.053-.156.103-.308.15a4.79 4.79 0 0 1-.513.114c-.192.03-.379.058-.561.084l-.458.06a3.67 3.67 0 0 0-.79.184 1.35 1.35 0 0 0-.567.373c-.14.159-.209.371-.209.636 0 .368.136.647.408.835.272.186.618.279 1.039.279zm6.822-9.158V212h-1.487v-10.182h1.487zm8.741 10.336c-.716 0-1.34-.164-1.874-.492a3.318 3.318 0 0 1-1.243-1.377c-.295-.59-.442-1.28-.442-2.068 0-.793.147-1.485.442-2.079a3.32 3.32 0 0 1 1.243-1.382c.534-.328 1.158-.492 1.874-.492.716 0 1.34.164 1.875.492a3.32 3.32 0 0 1 1.243 1.382c.294.594.442 1.286.442 2.079 0 .788-.148 1.478-.442 2.068a3.318 3.318 0 0 1-1.243 1.377c-.534.328-1.159.492-1.875.492zm.005-1.248c.464 0 .849-.122 1.154-.368a2.15 2.15 0 0 0 .676-.979 3.9 3.9 0 0 0 .224-1.347c0-.488-.075-.935-.224-1.343a2.187 2.187 0 0 0-.676-.989c-.305-.249-.69-.373-1.154-.373-.467 0-.855.124-1.163.373a2.223 2.223 0 0 0-.681.989 3.96 3.96 0 0 0-.219 1.343c0 .49.073.939.219 1.347.149.408.376.734.68.979.31.246.697.368 1.164.368zM72.623 212v-7.636h1.437v1.213h.08a1.85 1.85 0 0 1 .735-.97 2.11 2.11 0 0 1 1.204-.358 7.163 7.163 0 0 1 .63.035v1.422a2.582 2.582 0 0 0-.317-.055 3.064 3.064 0 0 0-.458-.035c-.351 0-.664.075-.94.224a1.664 1.664 0 0 0-.884 1.497V212h-1.487zm7.868.149a2.958 2.958 0 0 1-1.65-.472c-.48-.318-.858-.771-1.134-1.357-.271-.59-.407-1.298-.407-2.123 0-.826.137-1.532.412-2.118.279-.587.66-1.036 1.144-1.347a2.97 2.97 0 0 1 1.645-.468c.474 0 .855.08 1.144.239.291.156.517.338.676.547.162.209.288.392.378.552h.09v-3.784h1.486V212h-1.452v-1.188H82.7a4.02 4.02 0 0 1-.388.557 2.153 2.153 0 0 1-.686.546c-.292.156-.67.234-1.133.234zm.329-1.268c.427 0 .788-.112 1.083-.338.299-.228.524-.545.676-.949.156-.405.234-.875.234-1.412 0-.53-.076-.995-.228-1.392-.153-.398-.377-.708-.672-.93-.295-.222-.66-.333-1.093-.333-.448 0-.82.116-1.119.348a2.13 2.13 0 0 0-.676.95c-.15.401-.224.853-.224 1.357 0 .51.076.969.229 1.377.152.408.378.731.676.969.302.236.673.353 1.114.353zm8.778 1.273c-.753 0-1.4-.161-1.944-.482a3.275 3.275 0 0 1-1.253-1.367c-.292-.59-.438-1.281-.438-2.073 0-.783.146-1.472.438-2.069a3.403 3.403 0 0 1 1.233-1.397c.53-.334 1.15-.502 1.86-.502.43 0 .848.071 1.252.214a3.04 3.04 0 0 1 1.089.671c.321.305.575.701.76 1.188.186.484.279 1.073.279 1.765v.527h-6.07v-1.113h4.613c0-.391-.08-.738-.238-1.039a1.8 1.8 0 0 0-.672-.721 1.873 1.873 0 0 0-1.004-.264c-.417 0-.782.103-1.094.308a2.077 2.077 0 0 0-.716.796 2.298 2.298 0 0 0-.248 1.059v.87c0 .51.09.944.268 1.302.183.358.436.632.761.821.325.185.704.278 1.139.278.281 0 .538-.04.77-.119a1.593 1.593 0 0 0 .99-.97l1.406.254a2.554 2.554 0 0 1-.606 1.089 2.951 2.951 0 0 1-1.089.721c-.434.169-.93.253-1.486.253zm4.835-.154v-7.636h1.437v1.213h.08a1.85 1.85 0 0 1 .735-.97 2.11 2.11 0 0 1 1.203-.358 7.167 7.167 0 0 1 .632.035v1.422a2.58 2.58 0 0 0-.318-.055 3.062 3.062 0 0 0-.458-.035c-.351 0-.664.075-.94.224a1.663 1.663 0 0 0-.884 1.497V212h-1.487zm11.006-5.772-1.348.239a1.6 1.6 0 0 0-.268-.493 1.33 1.33 0 0 0-.487-.382c-.206-.1-.463-.15-.771-.15-.421 0-.772.095-1.054.284-.282.185-.423.426-.423.721 0 .255.095.46.284.616.189.156.494.284.915.383l1.213.278c.702.163 1.226.413 1.571.751.344.338.517.777.517 1.318 0 .457-.133.865-.398 1.223-.262.354-.628.633-1.099.835-.467.202-1.009.303-1.625.303-.856 0-1.553-.182-2.093-.547-.54-.368-.872-.89-.995-1.566l1.437-.219c.09.375.273.658.552.851.278.189.641.283 1.089.283.487 0 .876-.101 1.168-.303.292-.206.437-.456.437-.751a.78.78 0 0 0-.268-.602c-.176-.162-.446-.285-.81-.367l-1.293-.284c-.713-.162-1.24-.421-1.581-.775-.338-.355-.507-.804-.507-1.348 0-.45.126-.845.378-1.183.252-.338.6-.602 1.044-.79.444-.193.953-.289 1.526-.289.825 0 1.475.179 1.949.537.474.355.787.83.94 1.427z"/><path fill="#000" d="M348.094 211.159v-1.775l6.285-9.929h1.399v2.613h-.887l-4.496 7.117v.113h8.615v1.861h-10.916zM354.99 214v-3.381l.014-.809v-10.355h2.081V214h-2.095zm5.86-2.841v-1.775l6.285-9.929h1.399v2.613h-.887l-4.496 7.117v.113h8.615v1.861H360.85zm6.896 2.841v-3.381l.014-.809v-10.355h2.081V214h-2.095zm8.409-1.989-.106.775c-.071.568-.192 1.16-.362 1.775-.166.62-.339 1.196-.519 1.726-.175.53-.319.952-.433 1.264h-1.506c.062-.293.147-.691.256-1.193.109-.497.215-1.054.319-1.669.105-.616.183-1.243.235-1.882l.071-.796h2.045zm7.177 2.188c-.975 0-1.846-.168-2.613-.504-.763-.337-1.366-.803-1.811-1.4-.441-.601-.677-1.297-.71-2.088h2.23c.028.431.172.805.433 1.123.265.312.611.554 1.037.724.426.17.899.256 1.42.256.573 0 1.08-.1 1.52-.299a2.48 2.48 0 0 0 1.044-.831c.251-.359.377-.774.377-1.242 0-.488-.126-.917-.377-1.286-.246-.374-.608-.668-1.086-.881-.474-.213-1.047-.319-1.719-.319h-1.229v-1.79h1.229c.54 0 1.013-.097 1.42-.291.412-.194.734-.464.966-.81.232-.35.348-.76.348-1.229 0-.449-.102-.84-.305-1.171a2.05 2.05 0 0 0-.853-.789c-.364-.189-.795-.284-1.292-.284a3.36 3.36 0 0 0-1.328.263 2.46 2.46 0 0 0-.995.738 1.908 1.908 0 0 0-.412 1.144h-2.123c.024-.786.256-1.477.696-2.074.445-.597 1.032-1.063 1.761-1.399.729-.336 1.539-.504 2.429-.504.933 0 1.738.182 2.415.547.682.359 1.207.84 1.577 1.441a3.63 3.63 0 0 1 .554 1.975c.004.814-.223 1.505-.682 2.074-.455.568-1.061.949-1.818 1.143v.114c.966.146 1.714.53 2.244 1.15.535.621.8 1.39.795 2.309a3.59 3.59 0 0 1-.667 2.152c-.445.634-1.054 1.134-1.825 1.498-.772.36-1.655.54-2.65.54zm12.334-14.943a5.608 5.608 0 0 1 1.917.355 4.54 4.54 0 0 1 1.705 1.136c.511.526.919 1.236 1.222 2.131.307.89.464 1.998.468 3.324 0 1.273-.128 2.407-.383 3.402-.256.989-.623 1.825-1.101 2.507-.474.682-1.049 1.2-1.726 1.555s-1.439.533-2.287.533c-.866 0-1.636-.171-2.308-.511a4.41 4.41 0 0 1-1.641-1.414 4.676 4.676 0 0 1-.788-2.088h2.166c.142.625.431 1.132.867 1.52.44.383 1.008.575 1.704.575 1.065 0 1.896-.464 2.493-1.392.597-.933.897-2.235.902-3.906h-.114a3.922 3.922 0 0 1-.923 1.051 4.134 4.134 0 0 1-1.229.682 4.323 4.323 0 0 1-1.456.241c-.838 0-1.6-.206-2.286-.618a4.542 4.542 0 0 1-1.641-1.697c-.407-.72-.611-1.541-.611-2.464 0-.919.208-1.752.625-2.5a4.664 4.664 0 0 1 1.761-1.776c.758-.44 1.646-.656 2.664-.646zm.007 1.846c-.554 0-1.054.138-1.499.412-.44.27-.788.637-1.044 1.101a3.107 3.107 0 0 0-.383 1.534c0 .564.123 1.075.369 1.534.251.455.592.817 1.023 1.087.435.265.933.398 1.491.398a2.82 2.82 0 0 0 1.165-.242c.36-.161.675-.383.945-.667.27-.289.48-.616.632-.981.151-.364.227-.748.227-1.15 0-.535-.128-1.032-.383-1.492a2.998 2.998 0 0 0-1.037-1.108 2.72 2.72 0 0 0-1.506-.426zm12.605 13.139c-1.122-.004-2.081-.3-2.877-.887-.795-.587-1.403-1.442-1.825-2.564-.421-1.122-.632-2.474-.632-4.056 0-1.576.211-2.923.632-4.041.426-1.117 1.037-1.97 1.833-2.557.8-.587 1.756-.88 2.869-.88 1.113 0 2.067.296 2.862.887.796.588 1.404 1.44 1.825 2.557.427 1.113.64 2.458.64 4.034 0 1.587-.211 2.941-.632 4.063-.422 1.117-1.03 1.972-1.826 2.564-.795.587-1.752.88-2.869.88zm0-1.896c.985 0 1.754-.48 2.308-1.442.559-.961.838-2.35.838-4.169 0-1.207-.128-2.227-.383-3.061-.251-.838-.613-1.472-1.087-1.903a2.376 2.376 0 0 0-1.676-.654c-.98 0-1.75.483-2.308 1.449-.559.966-.841 2.356-.845 4.169 0 1.212.125 2.238.376 3.076.256.833.618 1.465 1.087 1.896.468.426 1.032.639 1.69.639z"/><defs><filter id="a" width="437.521" height="179.521" x=".24" y=".421" color-interpolation-filters="sRGB" filterUnits="userSpaceOnUse"><feFlood flood-opacity="0" result="BackgroundImageFix"/><feColorMatrix in="SourceAlpha" result="hardAlpha" values="0 0 0 0 0 0 0 0 0 0 0 0 0 0 0 0 0 0 127 0"/><feOffset dy="1.84"/><feGaussianBlur stdDeviation="1.602"/><feColorMatrix values="0 0 0 0 0 0 0 0 0 0 0 0 0 0 0 0 0 0 0.0282725 0"/><feBlend in2="BackgroundImageFix" result="effect1_dropShadow_3175_23274"/><feColorMatrix in="SourceAlpha" result="hardAlpha" values="0 0 0 0 0 0 0 0 0 0 0 0 0 0 0 0 0 0 127 0"/><feOffset dy="6.182"/><feGaussianBlur stdDeviation="5.38"/><feColorMatrix values="0 0 0 0 0 0 0 0 0 0 0 0 0 0 0 0 0 0 0.0417275 0"/><feBlend in2="effect1_dropShadow_3175_23274" result="effect2_dropShadow_3175_23274"/><feBlend in="SourceGraphic" in2="effect2_dropShadow_3175_23274" result="shape"/></filter><filter id="b" width="437.521" height="69.521" x=".24" y="178.421" color-interpolation-filters="sRGB" filterUnits="userSpaceOnUse"><feFlood flood-opacity="0" result="BackgroundImageFix"/><feColorMatrix in="SourceAlpha" result="hardAlpha" values="0 0 0 0 0 0 0 0 0 0 0 0 0 0 0 0 0 0 127 0"/><feOffset dy="1.84"/><feGaussianBlur stdDeviation="1.602"/><feColorMatrix values="0 0 0 0 0 0 0 0 0 0 0 0 0 0 0 0 0 0 0.0282725 0"/><feBlend in2="BackgroundImageFix" result="effect1_dropShadow_3175_23274"/><feColorMatrix in="SourceAlpha" result="hardAlpha" values="0 0 0 0 0 0 0 0 0 0 0 0 0 0 0 0 0 0 127 0"/><feOffset dy="6.182"/><feGaussianBlur stdDeviation="5.38"/><feColorMatrix values="0 0 0 0 0 0 0 0 0 0 0 0 0 0 0 0 0 0 0.0417275 0"/><feBlend in2="effect1_dropShadow_3175_23274" result="effect2_dropShadow_3175_23274"/><feBlend in="SourceGraphic" in2="effect2_dropShadow_3175_23274" result="shape"/></filter></defs></svg>