<svg xmlns="http://www.w3.org/2000/svg" width="48" height="48" fill="none"><g clip-path="url(#a)"><path fill="#101C2D" d="M0 0h448v220H0z"/><circle cx="224" cy="110" r="132" fill="#00C091" opacity=".04"/><circle cx="224" cy="110" r="98" fill="#00C091" opacity=".1"/><circle cx="224" cy="110" r="65" fill="#00C091" opacity=".2"/><circle cx="224" cy="110" r="43" fill="#00C091"/><path fill="#fff" d="M220.907 103.792h18.277c.349 0 .635.287.635.637v2.134c0 .35-.286.637-.635.637h-18.277a.637.637 0 0 1-.634-.637v-2.134c0-.35.285-.637.634-.637zm-12.089 8.502h18.246c.349 0 .634.287.634.637v2.134c0 .35-.285.636-.634.636h-18.246a.637.637 0 0 1-.634-.636v-2.134c.032-.35.285-.637.634-.637z"/><path fill="#fff" fill-rule="evenodd" d="M210.531 106.116c.349.095.667-.096.762-.446 2.094-6.592 8.853-10.477 15.58-8.98a.634.634 0 0 0 .729-.446l.54-2.07c.095-.35-.127-.7-.444-.764h-.032c-8.504-1.911-17.04 3.025-19.642 11.4a.637.637 0 0 0 .445.796l2.062.51zm26.939 7.228c-.349-.095-.666.096-.761.446a13.362 13.362 0 0 1-15.58 9.012.634.634 0 0 0-.73.446l-.54 2.038c-.095.35.127.7.445.764h.031c8.504 1.911 17.04-3.057 19.642-11.4.095-.319-.095-.669-.413-.796h-.031l-2.063-.51z" clip-rule="evenodd"/><path fill="#fff" d="M233.663 100.098a1.875 1.875 0 0 0 1.872-1.879 1.875 1.875 0 0 0-1.872-1.879 1.876 1.876 0 0 0-1.873 1.88c0 1.037.839 1.878 1.873 1.878zm-19.326 23.055a1.875 1.875 0 0 0 1.872-1.879 1.876 1.876 0 0 0-1.872-1.879 1.876 1.876 0 0 0-1.872 1.879c0 1.038.838 1.879 1.872 1.879z"/></g><defs><clipPath id="a"><path fill="#fff" d="M0 0h448v220H0z"/></clipPath></defs></svg>