<svg xmlns="http://www.w3.org/2000/svg" width="50" height="24" viewBox="0 0 50 24" fill="none" id="svg-1797635433_1938">
<path d="M0 0.266697L5.15532 3.85172L10.3106 0.296325V10.6662H0.0296283L0 0.266697Z" fill="black"></path>
<path d="M19.8806 0.325987V3.46658H17.777V4.26655H19.8806V6.78495H17.777V7.58492H19.8806V10.607H11.3181V0.296358L19.8806 0.325987Z" fill="black"></path>
<path d="M31.7912 5.51094C31.7912 6.60214 31.4672 7.66878 30.8603 8.57567C30.2535 9.48255 29.391 10.1889 28.3823 10.6051C27.3736 11.0213 26.2641 11.1287 25.1943 10.9136C24.1245 10.6986 23.1426 10.1708 22.3731 9.39711C21.6035 8.62344 21.081 7.63873 20.8718 6.56778C20.6625 5.49683 20.7759 4.38786 21.1975 3.38141C21.6192 2.37497 22.3301 1.51635 23.2402 0.91439C24.1504 0.312426 25.2188 -0.005787 26.3099 7.96816e-05C29.7468 7.96816e-05 31.7912 2.45923 31.7912 5.51094Z" fill="black"></path>
<path d="M49.3015 0.326015L42.7833 10.9922C41.5389 8.91822 40.3241 7.22941 39.0797 5.15543L38.3983 5.68873L39.5242 7.61457L37.3613 10.9922L30.8431 0.326015H49.3015Z" fill="black"></path>
<path d="M19.1788 12.4198L12.6606 23.0859C11.4458 21.012 10.2014 19.3232 8.98666 17.2492L8.27558 17.8121L9.3422 19.5898L7.26822 23.1156L0.75 12.4494L19.1788 12.4198Z" fill="black"></path>
<path d="M29.0453 17.6046C29.0453 18.6946 28.7221 19.76 28.1165 20.6663C27.511 21.5725 26.6503 22.2789 25.6433 22.696C24.6364 23.1131 23.5283 23.2222 22.4593 23.0096C21.3903 22.7969 20.4084 22.2721 19.6377 21.5014C18.867 20.7307 18.3421 19.7487 18.1295 18.6797C17.9168 17.6107 18.026 16.5027 18.4431 15.4957C18.8602 14.4887 19.5665 13.628 20.4728 13.0225C21.379 12.417 22.4445 12.0938 23.5344 12.0938C24.996 12.0938 26.3977 12.6744 27.4312 13.7078C28.4647 14.7413 29.0453 16.143 29.0453 17.6046Z" fill="black"></path>
<path d="M38.0519 17.5456V22.7009H29.993V12.3902H35.2372V17.5159L38.0519 17.5456Z" fill="black"></path>
<path d="M47.6218 12.4199V15.6494H45.5182V16.4493H47.6218V19.6788H45.3108V22.7009H39.0296V12.3902L47.6218 12.4199Z" fill="black"></path>
</svg>