<svg xmlns="http://www.w3.org/2000/svg" width="24" height="24" fill="#000"><path fill="#000" d="M27.602 3.793c1.326 0 2.303 1.257 1.954 2.514l-3.77 13.055h6.004c1.327 0 2.444 1.117 2.444 2.443 0 .768-.35 1.396-.908 1.885L15.245 39.05c-.35.278-.768.418-1.257.418-1.326 0-2.304-1.257-1.955-2.513l3.77-13.125H9.73a2.324 2.324 0 0 1-2.303-2.304c0-.698.279-1.396.767-1.815L26.345 4.212c.349-.279.768-.488 1.257-.488v.07zm-2.514 5.865-12.636 10.82h5.585c.489 0 .978.28 1.327.699.279.419.418.977.279 1.466L16.5 33.603l12.776-10.89h-5.655c-.558 0-1.047-.21-1.396-.629-.28-.418-.419-.977-.28-1.466l3.142-10.96z"/></svg>