<svg xmlns="http://www.w3.org/2000/svg" width="44" height="44" fill="none"><path fill="#fff" d="M31.65 18.245c-.348.698-1.116 1.117-1.884 1.117H16.362c-.838 0-1.606-.42-1.955-1.117a2.143 2.143 0 0 1 0-2.234l6.702-11.17c.419-.699 1.117-1.117 1.955-1.117.768 0 1.466.418 1.885 1.117l6.702 11.17a2.143 2.143 0 0 1 0 2.234zM23.065 8.192l-4.748 7.819h9.425l-4.677-7.82zm12.845 14.52a2.8 2.8 0 0 1 2.793 2.793V35.56c0 1.605-1.257 2.792-2.793 2.792H25.856c-1.605 0-2.792-1.187-2.792-2.792V25.505c0-1.535 1.187-2.792 2.792-2.792H35.91zm-.558 3.352h-8.936V35h8.936v-8.936zM20.83 30.532c0 4.957-4.05 8.936-8.936 8.936a8.909 8.909 0 0 1-8.937-8.936c0-4.887 3.98-8.936 8.937-8.936 4.886 0 8.936 4.049 8.936 8.936zm-8.936-5.585a5.557 5.557 0 0 0-5.585 5.585c0 3.141 2.443 5.585 5.585 5.585a5.557 5.557 0 0 0 5.585-5.585c0-3.072-2.514-5.585-5.585-5.585z"/></svg>