<svg xmlns="http://www.w3.org/2000/svg" width="165" height="13" viewBox="0 0 165 13" fill="none" id="svg868562746_2606">
<path d="M145.131 5.31389V2.67974V2.60064H164.56V0.385742H142.664V12.362H164.56V10.155H145.131V7.52087H164.56V5.31389H145.131Z" fill="#C9C9C9"></path>
<path d="M122.206 5.23479H137.25V0.385742H139.716V12.3699H137.25V7.86103H122.206V12.3699H119.739V0.385742H122.206V5.23479Z" fill="#C9C9C9"></path>
<path d="M96.57 9.73577V3.01989C96.57 1.5802 97.6885 0.385742 99.1181 0.385742H116.954V3.01989H99.4366C99.2736 3.01989 99.0366 3.1069 99.0366 3.36003V9.39563C99.0366 9.56966 99.1996 9.73577 99.3551 9.73577H116.947V12.3699H99.0366C97.6811 12.3699 96.57 11.1834 96.57 9.73577Z" fill="#C9C9C9"></path>
<path d="M75.3191 5.3218H91.0814C92.4295 5.3218 93.548 6.50835 93.5406 7.95595V9.74369C93.5406 11.1913 92.4295 12.3778 91.074 12.3778H72.7637V10.1708H90.6814C90.9258 10.1708 91.0814 9.99682 91.0814 9.74369V7.95595C91.0814 7.6949 90.9184 7.52879 90.6814 7.52879H74.9192C73.5637 7.52879 72.4526 6.34224 72.4526 4.89465V3.1069C72.4526 1.65931 73.5637 0.472752 74.9192 0.472752H93.2294V2.67974H75.3191C75.0747 2.67974 74.9192 2.85377 74.9192 3.1069V4.89465C74.9192 5.15569 75.0821 5.3218 75.3191 5.3218Z" fill="#C9C9C9"></path>
<path fill-rule="evenodd" clip-rule="evenodd" d="M45.3798 3.01989V9.73577C45.3798 11.1834 44.2687 12.3699 42.9132 12.3699H27.0695C25.714 12.3699 24.6029 11.1834 24.6029 9.73577V3.01989C24.6029 1.57229 25.714 0.385742 27.151 0.385742H42.9947C44.2687 0.385742 45.3798 1.5802 45.3798 3.01989ZM42.5132 3.1069C42.7577 3.1069 42.9132 3.28093 42.9132 3.53406V9.39563C42.9132 9.65667 42.7503 9.8228 42.5132 9.8228H27.388C27.225 9.8228 27.0695 9.64876 27.0695 9.48264V3.44705C27.0695 3.27302 27.2324 3.1069 27.4695 3.1069H42.5132Z" fill="#C9C9C9"></path>
<path fill-rule="evenodd" clip-rule="evenodd" d="M69.5861 12.3778H67.1195V11.8716C67.1195 10.424 66.0085 9.23742 64.653 9.23742H50.8017V12.3857H48.3352V0.385742H67.0454C68.4009 0.385742 69.512 1.57229 69.512 3.01989V5.65403C69.512 7.10162 68.475 8.28818 67.1269 8.28818C68.6306 9.0634 69.5861 10.5901 69.5861 12.3778ZM66.7121 3.1069C66.9566 3.1069 67.1121 3.28093 67.1121 3.53406L67.1195 6.24731C67.1195 6.50835 66.9566 6.67447 66.7195 6.67447H50.8758V3.1069H66.7121Z" fill="#C9C9C9"></path>
<path fill-rule="evenodd" clip-rule="evenodd" d="M21.6549 3.01989V6.58746C21.6549 8.03505 20.5439 9.2216 19.1884 9.2216H3.02613V12.3699H0.55957V0.385742H19.1884C20.5439 0.385742 21.6549 1.5802 21.6549 3.01989ZM18.7884 3.1069C19.0328 3.1069 19.1884 3.28093 19.1884 3.53406L19.2698 6.24731C19.2698 6.50835 19.1069 6.67447 18.8699 6.67447H3.02613V3.1069H18.7884Z" fill="#C9C9C9"></path>
</svg>