<svg xmlns="http://www.w3.org/2000/svg" width="813" height="356" fill="none" id="svg-1588230253_19713"><path d="M469.079 72.574c.649-11.193.004-22.222 2.248-32.629 9.011-41.787 55.834-46.629 78.341-26.571 7.634 6.803 12.134 15.356 14.547 25.051 4.524 18.18 4.466 36.307-2.347 53.95-6.617 17.139-22.782 30.396-46.35 29.362-19.35-.848-35.429-11.418-41.907-29.838-2.134-6.069-3.033-12.57-4.532-19.325Zm73.127-33.382c-.268-.787-.521-1.58-.808-2.36-4.092-11.13-12.617-18.007-22.604-18.24-10.764-.25-19.686 5.52-23.85 17.033-6.066 16.774-6.266 34.111-.608 50.944 5.262 15.656 18.302 22.15 32.017 17.097 10.182-3.75 14.392-12.416 16.588-22.142 3.126-13.839 2.859-27.736-.735-42.332ZM446.77 24.839a522.88 522.88 0 0 1 2.601 6.722l-19.916 5.468c-1.452-3.168-2.563-6.1-4.078-8.807-5.837-10.432-20.215-13.367-29.757-6.177-7.038 5.304-6.933 18.247.829 22.902 5.183 3.107 11.33 4.607 17.047 6.824 7.735 3 15.796 5.36 23.144 9.117 20.178 10.318 19.086 42.124-.084 54.538-13.716 8.882-42.071 8.293-55.488-1.051-8.583-5.977-14.143-14.623-14.895-23.563l19.148-5.922c.761 2.098 1.372 3.765 1.971 5.436 5.21 14.525 25.233 20.481 37.53 11.163 6.189-4.69 7.403-16.57 1.385-21.813-3.993-3.48-9.203-5.833-14.216-7.81-7.106-2.804-14.802-4.184-21.768-7.257-17.165-7.57-23.859-20.21-18.915-40.399 2.536-10.355 10.919-15.679 20.114-19.33 9.562-3.799 19.678-3.592 29.523-1.38 11.873 2.666 20.706 9.603 25.825 21.339Zm173.793 95.221c-18.885-5.417-28.714-18.923-33.076-36.504-4.899-19.741-4.073-39.297 5.861-57.74 7.556-14.025 19.54-21.82 35.107-23.033 7.782-.606 16.132.045 23.568 2.298 15.462 4.685 23.215 16.846 27.185 32.636l-20.094 5.34c-.666-2.136-1.264-4.15-1.92-6.146-3.03-9.207-7.925-16.727-18.44-18.085-10.861-1.403-19.934 2.646-24.617 12.432-9.997 20.886-10.075 42.216.925 62.854 4.596 8.624 13.026 11.535 22.523 10.927 10.435-.668 16.499-6.953 20.011-16.266 2.926-7.764 2.929-7.757 11.121-5.328 1.915.568 3.815 1.342 5.775 1.572 4.747.557 5.488 2.573 3.927 7.047-6.635 19.019-20.875 29.532-41.089 29.46-5.459-.019-10.915-.874-16.767-1.464Zm155.37-99.97c-9.907.472-12.01 3.04-16.77 20.248l-18.634-3.987c1.324-21.076 19.632-35.086 41.004-31.82 18.366 2.808 27.609 12.569 28.036 29.962.293 11.925-5.031 21.541-13.222 29.717-7.307 7.293-15.026 14.183-22.151 21.645-4.96 5.193-9.223 11.051-13.798 16.612l.829 1.257c6.588 0 13.176.002 19.764-.001 8.331-.002 16.665.115 24.991-.077 3.041-.07 4.025.816 4.071 3.925.174 11.955.28 11.949-11.485 11.952-18.328.004-36.657-.06-54.984.089-3.388.027-4.616-.833-4.709-4.427-.161-6.174 1.021-11.539 4.457-16.94 7.919-12.447 17.142-23.683 27.758-33.88 4.316-4.145 8.266-8.68 12.276-13.135 4.069-4.521 6.06-9.949 6.073-15.993.016-7.312-3.637-14.98-13.506-15.147ZM652.989 242.583h-23.784v-95.942h62.848v13.418h-34.551c-11.171-.001-11.171-.003-11.159 11.338.002 1.832-.032 3.665.007 5.496.177 8.286-1.756 7.819 8.111 7.858 8.648.034 17.297.007 26.364.007v13.452h-34.494c0 9.644-.1 18.715.184 27.775.023.754 2.635 2.025 4.058 2.045 12.322.171 24.647.11 36.971.118h5.251v14.436l-39.806-.001Zm-95.992-96.276c10.292.334 20.175-.047 29.857 1.173 14.008 1.765 22.339 11.59 22.934 25.301.583 13.436-7.63 25.018-21.002 27.748-7.892 1.611-16.164 1.655-24.274 1.782-4.338.068-6.161.798-5.941 5.712.437 9.801-.091 19.642.233 29.451.143 4.317-1.347 5.527-5.395 5.196-3.788-.309-7.62-.066-11.857-.066v-96.297h15.445Zm32.999 20.134c-3.066-2.077-5.955-5.527-9.234-5.949-7.119-.914-14.436-.282-22.102-.282 0 8.722-.115 17.343.145 25.953.033 1.081 2.002 2.953 3.14 3.005 4.965.227 9.985.225 14.93-.258 12.601-1.232 17.678-9.593 13.121-22.469Zm-576.939-1.746c1.918-5.537 6.907-5.602 11.374-5.952 7.433-.583 7.515-.362 7.57-7.84.07-9.755-.506-19.547.161-29.256.906-13.186 1.682-26.537 4.493-39.384 2.127-9.72 5.875-19.224 11.81-27.89 5.996-8.759 12.716-16.551 20.009-24.196 4.795-5.027 10.328-8.76 15.68-12.78 4.274-3.211 9.483-5.29 14.473-7.41 7.521-3.195 14.994-7.08 22.89-8.657C129.916-.348 138.783.266 147.449.003c1.963-.059 3.955.668 5.91.569 10.512-.533 20.273 2.277 29.897 6.132 8.027 3.216 16.361 5.705 24.243 9.225 2.673 1.194 4.208 4.742 6.57 6.874 2.787 2.516 6.171 4.397 8.821 7.03 3.966 3.94 7.461 8.35 11.258 12.466 10.377 11.249 14.983 25.253 20.115 39.305 6.164 16.878 4.1 34.057 4.694 51.191.099 2.829.011 5.665.01 8.498-.005 16.253.09 15.858 15.417 19.537 6.095 1.464 11.349 5.919 13.577 12.023 1.837 5.035 2.848 10.656 2.873 16.023.214 46.659.151 93.32.107 139.98-.013 13.599-6.117 20.866-17.711 25.181-5.071 1.887-11.134 1.48-16.747 1.486-73.99.086-147.98.045-221.97.081-7.362.004-14.323-.446-21.066-4.46C4.73 345.953.123 338.733.094 328.907-.05 281.08 0 233.253.054 185.427c.01-9.24 3.001-16.913 12.517-20.45-7.84 6.885-9.912 15.46-9.839 25.615.33 45.664.121 91.332.143 136.998.007 15.375 9.517 24.974 24.889 24.982 78.832.044 157.665.046 236.497.03 14.128-.003 24.508-10.439 24.519-24.657.035-46.832-.098-93.666.078-140.498.055-14.826-11.667-27.459-25.41-26.028-4.627.481-6.701-1.299-6.672-6.515.095-17.482.675-35.053-.795-52.432-3.139-37.1-21.84-65.99-53.351-84.437-38.695-22.652-78.86-22.49-117.11 2.369-33.018 21.457-50.094 52.413-50.592 92.059-.178 14.164-.107 28.334.04 42.498.038 3.727-.643 5.673-5.017 6.134-5.695.601-11.268 2.347-16.894 3.6Zm466.539 11.193c1.949 3.497 3.721 6.671 5.944 10.654 3.911-7.636 7.46-14.656 11.093-21.632 2.765-5.31 5.478-10.661 8.57-15.778.816-1.35 2.899-2.57 4.491-2.694 4.586-.359 9.218-.127 14.89-.127-3.797 6.685-7.144 12.502-10.419 18.361-6.412 11.469-12.873 22.912-19.09 34.486-1.192 2.219-1.863 4.982-1.905 7.509-.196 11.77-.087 23.546-.087 35.904-5.531 0-10.486.198-15.397-.178-.91-.069-2.325-2.44-2.35-3.77-.195-10.319.056-20.648-.206-30.964-.077-3.022-.782-6.324-2.193-8.967-8.618-16.139-17.525-32.124-26.327-48.166-.618-1.126-1.158-2.295-2.14-4.254 6.384 0 12.148-.176 17.884.149 1.15.066 2.52 1.863 3.23 3.166 4.697 8.613 9.241 17.309 14.012 26.301Zm-72.52 16.732c-.002 15.483-.099 30.466.068 45.447.038 3.419-.809 4.896-4.426 4.568-2.971-.271-6.005-.244-8.98.011-3.642.314-4.37-1.159-4.344-4.625.176-23.97.112-47.942.096-71.914-.001-1.772-.237-3.543-.382-5.572h-26.764v-14.042h73.028v13.894c-8.065 0-15.847.177-23.614-.076-3.765-.123-4.883 1.102-4.774 4.843.261 8.982.089 17.977.092 27.466Zm-39.42 76.982c1.683-1.006 3.335-2.215 4.992-2.221 29.988-.109 59.976-.068 89.964-.07 115.457-.01 230.914-.012 346.371-.105 3.171-.003 4.401.797 3.566 4.231-.675.133-1.442.416-2.209.416-146.112.001-292.223-.012-438.334-.112-1.46-.001-2.919-1.162-4.35-2.139Zm289.332 82.871c-94.472-.001-188.444.014-282.417-.093-2.375-.003-6.828 1.882-6.739-2.442.091-4.383 4.488-2.072 6.796-2.075 145.122-.154 290.245-.178 435.368-.202.801 0 1.602.171 2.425.265 1.23 3.594-.185 4.626-3.478 4.581-8.163-.111-16.328-.034-24.492-.034H656.988ZM809.612 180.62v61.651h-17.339V146.72h17.339v33.9Zm-42.889 56.749a234.009 234.009 0 0 1-.382 4.987h-17.037v-95.747h17.422c0 30.137 0 60.213-.003 90.76Zm36.887 56.593c7.198 6.552 6.972 14.406 4.48 22.359-2.58 8.235-9.4 11.323-17.302 12.083-4.765.458-9.611.084-15.257.084v-7.531c-.005-8.994.102-17.99-.074-26.98-.065-3.272 1.142-4.45 4.324-4.402 8.086.123 16.426-1.365 23.829 4.387Zm-17.002 27.906c9.651-.295 14.156-4.615 14.138-13.558-.016-8.057-4.067-11.877-12.454-12.21-3.02-.119-4.189.654-4.091 3.823.189 6.151-.04 12.313.09 18.467.023 1.126.929 2.234 2.317 3.478ZM493.34 289.58c5.733.199 10.385 1.696 12.538 7.088 1.747 4.377.355 8.15-3.052 11.253-.714.649-1.441 1.284-1.433 1.278l6.678 18.581c-8.937 1.896-9.244 1.716-11.242-6.074-2.056-8.015-2.828-8.74-9.055-8.007v14.517h-8.949c0-12.041-.074-23.841.135-35.636.018-.993 1.859-2.673 2.987-2.795 3.624-.39 7.312-.2 11.393-.205Zm-5.745 15.818c1.166.422 2.333 1.203 3.497 1.199 3.781-.012 6.514-1.568 6.516-5.828.002-4.392-3.465-4.963-6.597-5.202-4.817-.368-3.18 3.495-3.47 6.004-.114.989-.088 1.993.054 3.827Zm-61.519-14.574c7.796-.8 15.452-1.213 23.435-1.644v7.596h-14.03c-1.844 7.721-1.529 8.142 5.743 8.171 2.284.009 4.569.002 7.195.002v7.092h-13.444l-.421 8.577h15.703l.549 7.556h-24.869c0-12.413 0-24.689.139-37.35Zm307.9 37.698c-3.986-.005-7.481-.003-10.976-.029-.316-.002-.631-.184-1.299-.392v-38.056h23.13v6.783h-13.776c-2.003 7.783-1.734 8.15 5.554 8.145 2.304-.002 4.608-.001 7.227-.001v7.081h-13.317l-.407 8.773c3.511 0 6.625.003 9.74 0 6.713-.008 6.713-.01 5.791 7.696h-11.667Zm-347.841.467c-14.471-1.322-21.039-9.014-19.551-22.406 1.281-11.52 11.105-18.79 23.591-17.401 2.098.234 4.169.71 6.73 1.158l-1.593 6.509c-15.359-.603-20.549 2.854-20.069 13.091.426 9.092 6.681 12.723 19.097 11.089 3.18 5.824 2.566 7.08-3.805 7.714-1.32.132-2.65.17-4.4.246Zm261.318-16.018c-3.397-.014-6.348-.014-9.87-.014v15.356h-8.145v-38.29h22.501v6.608h-14.006l-.688 8.268h14.041c-1.01 3.355 3.281 7.714-3.833 8.072Zm-88.987-23.333c1.251 2.039 2.057 4.048 3.175 6.833l-11.204.52v31.159h-8.679v-31.302H531.28v-7.242c8.908 0 17.825 0 27.186.032Zm30.935 28.927v-28.642h8.291v38.247H589.4l.001-9.605Zm100.838-9.944c-.004 6.804-.004 13.108-.004 19.678h-8.026v-38.378l8.034-.391c0 6.455 0 12.523-.004 19.091Z" fill="#000"></path><path d="M542.308 39.587c3.492 14.2 3.759 28.099.633 41.937-2.196 9.726-6.406 18.392-16.588 22.143-13.716 5.052-26.755-1.442-32.017-17.097-5.658-16.833-5.458-34.17.608-50.945 4.164-11.512 13.086-17.283 23.85-17.032 9.987.233 18.512 7.109 22.604 18.24.287.78.54 1.572.91 2.754Zm47.874 127.198c4.371 12.532-.706 20.894-13.307 22.125-4.945.483-9.965.485-14.93.258-1.138-.052-3.107-1.924-3.14-3.005-.26-8.61-.145-17.231-.145-25.953 7.666 0 14.984-.632 22.102.282 3.279.422 6.168 3.872 9.42 6.293Z" fill="#fff"></path><path d="M13.024 164.661c5.659-1.219 11.232-2.965 16.927-3.566 4.374-.461 5.055-2.407 5.017-6.134-.147-14.165-.218-28.334-.04-42.498.498-39.646 17.574-70.602 50.591-92.06 38.251-24.857 78.416-25.02 117.111-2.368 31.511 18.447 50.212 47.337 53.351 84.437 1.47 17.379.89 34.95.795 52.432-.029 5.215 2.045 6.996 6.672 6.514 13.743-1.43 25.465 11.203 25.41 26.029-.176 46.832-.043 93.666-.078 140.498-.011 14.218-10.391 24.654-24.519 24.657-78.832.016-157.665.014-236.497-.03-15.372-.008-24.882-9.607-24.89-24.982-.02-45.666.187-91.334-.142-136.998-.073-10.155 1.999-18.73 10.21-25.584.11-.317.05-.381.082-.347Zm242.447 185.977c2.999-.002 6.007.142 8.996-.033 12.367-.723 21.467-9.745 21.505-21.588.156-48.163.07-96.326.029-144.489-.001-1.796-.22-3.66-.726-5.378-2.782-9.446-12.045-15.557-23.403-15.576-6.931-.011-7.824-.873-7.827-7.668-.009-16.165-.478-32.349.159-48.489.431-10.944-3.307-20.974-6.277-30.859-2.941-9.786-7.749-19.329-15.248-27.33-7.328-7.819-13.268-16.738-22.325-23.125-8.317-5.865-16.704-11.255-26.391-14.331-5.324-1.691-10.811-2.91-16.276-4.105-5.424-1.185-10.887-2.73-16.379-2.951-10.694-.43-21.105.672-31.751 3.465-16.07 4.216-30.231 11.388-42.932 21.527-6.127 4.892-11.35 11.077-16.332 17.206-8.458 10.407-15.85 21.794-18.689 34.968-2.598 12.055-3.77 24.513-4.47 36.857-.736 12.957-.205 25.988-.132 38.987.019 3.425-1.46 7.025-4.567 6.429-6.609-1.268-11.292.943-16.991 4.015-7.469 4.026-10.338 9.721-10.371 17.042-.219 47.662-.262 95.326-.034 142.988.06 12.244 9.982 22.487 22.455 22.472 75.66-.09 151.321-.037 227.977-.034Z" fill="#000"></path><path d="M786.164 321.804c-.943-1.18-1.849-2.288-1.873-3.414-.13-6.154.1-12.316-.09-18.467-.098-3.169 1.071-3.942 4.091-3.823 8.387.333 12.439 4.153 12.455 12.21.018 8.943-4.487 13.263-14.583 13.494ZM487.505 304.98c-.052-1.415-.078-2.42.037-3.409.289-2.509-1.348-6.372 3.47-6.004 3.131.24 6.598.811 6.597 5.202-.002 4.261-2.736 5.816-6.517 5.829-1.164.003-2.331-.778-3.587-1.618Z" fill="#fff"></path><path d="M254.974 350.639c-76.158-.004-151.819-.056-227.48.034-12.472.014-22.395-10.229-22.454-22.473-.229-47.662-.185-95.326.033-142.988.034-7.321 2.903-13.016 10.371-17.041 5.7-3.072 10.383-5.283 16.991-4.016 3.108.596 4.587-3.004 4.567-6.429-.073-12.998-.603-26.03.132-38.987.7-12.343 1.873-24.801 4.47-36.857 2.84-13.174 10.232-24.56 18.69-34.968 4.981-6.128 10.205-12.314 16.332-17.206 12.7-10.14 26.862-17.31 42.932-21.527 10.646-2.793 21.056-3.895 31.75-3.465 5.493.22 10.955 1.766 16.379 2.951 5.466 1.195 10.953 2.414 16.277 4.105 9.687 3.077 18.074 8.466 26.39 14.331 9.058 6.388 14.997 15.306 22.326 23.125 7.499 8.001 12.307 17.544 15.247 27.33 2.971 9.885 6.709 19.915 6.277 30.859-.636 16.14-.168 32.324-.159 48.489.004 6.795.896 7.657 7.828 7.668 11.357.019 20.621 6.13 23.402 15.576.506 1.718.725 3.582.727 5.378.04 48.163.127 96.327-.029 144.489-.038 11.844-9.138 20.866-21.505 21.588-2.989.175-5.997.031-9.494.034Zm-93.375-122.75c-.857.426-1.9.665-2.544 1.306-8.22 8.178-16.442 16.358-24.535 24.661-3.477 3.567-6.742 4.011-10.225.599-6.912-6.771-14.077-13.339-20.432-20.608-6.277-7.179-16.419-5.662-21.74-.701a291.72 291.72 0 0 0-14.384 14.376c-4.877 5.229-4.074 16.162 1.031 21.044 5.347 5.115 10.473 10.461 15.68 15.722 4.974 5.026 9.915 10.085 14.894 15.107 4.777 4.818 9.462 9.738 14.424 14.36 3.07 2.859 6.218 6.13 9.967 7.66 7.927 3.235 14.096-1.207 19.397-6.549 9.126-9.196 17.903-18.74 27.05-27.914 7.59-7.612 15.644-14.762 23.237-22.372 8.65-8.668 17.007-17.628 25.517-26.437 1.151-1.192 2.364-2.359 3.694-3.34 9.243-6.818 9.84-19.256 1.351-27.088a335.708 335.708 0 0 1-12.433-12.05c-4.337-4.437-16.04-4.301-20.172.337-2.98 3.344-5.975 6.681-9.11 9.878-5.785 5.9-11.739 11.635-17.472 17.583-1.125 1.167-1.572 2.987-2.552 4.43 0 0 .041.22-.643-.004Zm-80.254-66.596c2.06.741 4.12 2.123 6.183 2.13 38.635.13 77.27.098 115.905.098 1.165 0 2.718.464 3.422-.109 1.865-1.518 4.422-3.296 4.787-5.316.745-4.12.313-8.469.22-12.72-.282-12.788-.551-25.577-1.015-38.358-.126-3.451-.162-7.235-1.568-10.246-4.035-8.646-8.608-17.055-13.28-25.383-1.565-2.79-3.698-5.547-6.231-7.434-3.356-2.503-7.301-4.255-11.098-6.117-5.706-2.8-11.267-6.84-17.305-7.839-17.492-2.895-35.175-2.975-50.211 8.303-7.714 5.786-14.963 12.698-20.8 20.34-6.506 8.519-9.056 19.087-9.721 30.147-.061.11-.203.275-.17.321.134.199.32.363.504 1.473-.031 15.657-.063 31.315-.748 47.091l-1.815 2.01c.856.32 1.711.639 2.94 1.609Z" fill="#000"></path><path d="M80.964 108.6c.333-10.872 2.883-21.44 9.39-29.958C96.19 71 103.44 64.087 111.153 58.302c15.036-11.278 32.72-11.198 50.211-8.303 6.039 1 11.6 5.04 17.306 7.838 3.796 1.863 7.742 3.615 11.098 6.117 2.532 1.888 4.666 4.646 6.23 7.435 4.673 8.328 9.245 16.737 13.281 25.383 1.405 3.01 1.442 6.795 1.567 10.246.465 12.781.733 25.57 1.015 38.358.094 4.251.526 8.6-.219 12.719-.366 2.021-2.922 3.799-4.788 5.317-.704.573-2.256.109-3.422.109-38.635 0-77.27.032-115.904-.098-2.064-.007-4.123-1.389-6.359-2.841a28.457 28.457 0 0 1-.296-3.027c.031-15.657.062-31.315.105-47.701.003-.904-.006-1.079-.014-1.254Zm11.91 52.037c11.665.006 23.331.03 34.996.012 9.64-.015 19.279-.105 28.918-.119 15.161-.023 30.323.029 45.483-.039 4.103-.018 6.457-1.224 6.238-6.424-.485-11.477-.355-22.998-.005-34.487.668-21.915-6.42-40.185-23.708-54.305-13.737-11.22-29.239-16.1-46.744-13.884-28.637 3.628-51.391 26.242-54.128 55.493-1.315 14.047-.818 28.268-1.011 42.412-.133 9.715-.033 9.717 9.961 11.341Zm69.588 67.332c.76-1.519 1.207-3.339 2.332-4.506 5.733-5.948 11.687-11.684 17.472-17.584 3.134-3.197 6.13-6.534 9.11-9.878 4.132-4.637 15.834-4.773 20.172-.336a335.708 335.708 0 0 0 12.433 12.05c8.488 7.832 7.892 20.269-1.351 27.087-1.33.982-2.543 2.148-3.695 3.341-8.509 8.809-16.867 17.769-25.516 26.437-7.593 7.61-15.647 14.759-23.237 22.371-9.148 9.174-17.924 18.718-27.05 27.915-5.302 5.342-11.471 9.783-19.398 6.549-3.748-1.53-6.897-4.801-9.966-7.66-4.962-4.622-9.647-9.542-14.424-14.361-4.98-5.021-9.92-10.08-14.894-15.107-5.207-5.26-10.333-10.606-15.68-15.721-5.105-4.883-5.909-15.816-1.031-21.044a291.697 291.697 0 0 1 14.383-14.377c5.322-4.96 15.464-6.477 21.741.702 6.355 7.269 13.519 13.837 20.431 20.608 3.484 3.412 6.749 2.968 10.226-.599 8.093-8.304 16.314-16.483 24.535-24.661.644-.641 1.687-.881 2.801-.893-9.627 10.695-19.534 20.954-29.381 31.271-2.776 2.909-4.983 2.219-7.538-.417-7.753-8.002-15.622-15.892-23.519-23.753-5.006-4.983-11.91-5.391-16.943-.766-4.76 4.373-9.225 9.072-13.745 13.701-4.71 4.824-5.649 11.731-1.299 16.686 5.45 6.207 11.708 11.703 17.744 17.774.727.761 1.327 1.255 2.005 2.074 2.99 3.131 5.902 5.937 8.811 8.745-.003.003.003-.002.096.321 3.221 3.48 6.28 6.709 9.495 9.773 3.654 3.482 7.448 6.816 11.336 10.368.359.356.566.559.848 1.108 5.609 6.51 13.927 5.868 20.879-1.231 8.502-8.68 16.971-17.393 25.544-26.003 18.919-19.001 37.911-37.929 56.836-56.923 6.486-6.509 6.36-13.57-.182-20.069-4.253-4.226-8.417-8.545-12.743-12.694-4.629-4.439-11.793-4.94-16.349-.694-5.819 5.424-11.11 11.411-16.799 16.981-4.701 4.603-9.65 8.953-14.49 13.415Zm-81.916-70.355c.367.713.408 1.485.436 2.643-.867.066-1.723-.254-2.579-.573.605-.67 1.21-1.341 2.143-2.07Z" fill="#000"></path><path d="M80.798 108.694c.174.081.182.256.171.693-.186.086-.372-.078-.507-.277-.032-.047.109-.211.336-.416Z" fill="#000"></path><path d="M92.414 160.601c-9.533-1.589-9.633-1.591-9.5-11.306.193-14.144-.304-28.365 1.01-42.411 2.737-29.252 25.492-51.866 54.129-55.493 17.504-2.218 33.007 2.663 46.744 13.883 17.287 14.12 24.375 32.39 23.708 54.305-.35 11.489-.481 23.01.004 34.487.22 5.2-2.135 6.406-6.237 6.424-15.161.068-30.322.016-45.483.039-9.64.014-19.279.104-28.918.119-11.666.018-23.331-.006-35.457-.047Zm-3.312 123.945c-.6-.493-1.2-.987-1.928-2.106-1.088-2.119-1.871-3.771-3.04-5.076-4.197-4.686-8.577-9.208-12.785-13.884-2.876-3.197-3.387-8.729-.941-11.511 4.14-4.709 8.345-9.377 12.79-13.794 3.338-3.316 7.14-6.112 12.294-3.577 1.579.776 3.338 1.449 4.564 2.635 6.243 6.04 12.385 12.188 18.462 18.396 2.314 2.363 3.978 5.607 6.667 7.277 1.873 1.163 5.877 1.418 7.383.187 5.141-4.201 9.685-9.156 14.293-13.979 6.118-6.403 11.946-13.087 18.147-19.406 7.744-7.893 15.716-15.564 23.646-23.273 2.133-2.073 4.684-3.743 6.665-5.939 3.222-3.572 8.635-4.255 12.071-.958 4.775 4.582 9.503 9.224 14.037 14.043 4.328 4.601 4.902 9.633 1.361 13.635-5.169 5.844-10.57 11.497-16.1 17.002-4.766 4.744-10.043 8.979-14.757 13.771-11.545 11.736-22.789 23.768-34.36 35.477-7.154 7.239-14.676 14.115-22.053 21.133-4.016 3.822-7.693 4.159-12.681 1.355-.956-.537-2.092-.751-3.145-1.114-.207-.202-.414-.405-.722-1.133-6.244-6.939-12.363-13.375-18.576-19.72-.454-.463-1.584-.264-2.4-.372 0 0-.005.005.01-.369-.868-5.388-4.48-7.478-8.902-8.7Z" fill="#fff"></path><path d="M119.765 315.187c.979.016 2.116.23 3.071.767 4.988 2.803 8.665 2.467 12.681-1.355 7.377-7.018 14.899-13.894 22.053-21.133 11.571-11.709 22.815-23.741 34.36-35.477 4.714-4.792 9.991-9.027 14.757-13.771 5.53-5.505 10.931-11.159 16.101-17.002 3.54-4.002 2.967-9.034-1.362-13.635-4.533-4.819-9.262-9.461-14.037-14.044-3.436-3.297-8.848-2.613-12.071.959-1.981 2.196-4.532 3.866-6.664 5.939-7.931 7.709-15.903 15.38-23.647 23.272-6.201 6.32-12.029 13.004-18.147 19.407-4.608 4.823-9.152 9.778-14.293 13.979-1.506 1.231-5.51.975-7.383-.187-2.688-1.67-4.352-4.914-6.666-7.277-6.078-6.208-12.219-12.356-18.463-18.396-1.226-1.187-2.985-1.859-4.564-2.635-5.153-2.535-8.956.261-12.294 3.577-4.445 4.417-8.65 9.085-12.79 13.794-2.446 2.782-1.934 8.314.942 11.51 4.207 4.677 8.587 9.199 12.783 13.884 1.17 1.306 1.953 2.958 2.915 4.809-5.908-5.445-12.167-10.941-17.616-17.148-4.35-4.955-3.412-11.862 1.299-16.687 4.52-4.628 8.985-9.327 13.745-13.7 5.033-4.625 11.936-4.218 16.942.766 7.897 7.861 15.767 15.751 23.52 23.753 2.554 2.636 4.761 3.326 7.538.417 9.846-10.317 19.754-20.576 29.723-31.159.085-.302.043-.521.154-.483 4.949-4.425 9.898-8.775 14.599-13.377 5.689-5.571 10.98-11.557 16.8-16.981 4.556-4.247 11.719-3.745 16.348.694 4.327 4.149 8.49 8.468 12.744 12.694 6.542 6.499 6.667 13.56.182 20.069-18.925 18.994-37.918 37.922-56.837 56.922-8.573 8.61-17.041 17.324-25.543 26.004-6.953 7.099-15.271 7.741-20.88 1.231Z" fill="#000"></path><path d="M98.087 293.938c.723-.215 1.853-.414 2.307.049 6.212 6.345 12.332 12.781 18.422 19.566-3.786-3.026-7.58-6.361-11.234-9.842-3.216-3.064-6.274-6.293-9.495-9.773Zm-8.907-9.066c4.343.896 7.955 2.986 8.826 8.371-2.924-2.434-5.836-5.24-8.826-8.371Z" fill="#000"></path></svg>