<svg xmlns="http://www.w3.org/2000/svg" width="23" height="24" viewBox="0 0 23 24" fill="none" id="svg2079066191_1957">
<path d="M9.81317 7.57812H22.4324C22.6734 7.57812 22.8706 7.77601 22.8706 8.01786V9.49099C22.8706 9.73284 22.6734 9.93073 22.4324 9.93073H9.81317C9.57218 9.93073 9.375 9.73284 9.375 9.49099V8.01786C9.375 7.77601 9.57218 7.57812 9.81317 7.57812Z" fill="black"></path>
<path d="M1.46942 13.4453H14.0668C14.3077 13.4453 14.5049 13.6432 14.5049 13.8851V15.3582C14.5049 15.6 14.3077 15.7979 14.0668 15.7979H1.46942C1.22843 15.7979 1.03125 15.6 1.03125 15.3582V13.8851C1.05316 13.6432 1.22843 13.4453 1.46942 13.4453Z" fill="black"></path>
<path fill-rule="evenodd" clip-rule="evenodd" d="M2.64997 9.18065C2.89096 9.24661 3.11005 9.11469 3.17577 8.87283C4.62173 4.32154 9.28822 1.63913 13.9328 2.67252C14.1519 2.71649 14.371 2.58457 14.4367 2.3647L14.8091 0.93555C14.8749 0.693693 14.7215 0.451838 14.5024 0.407865H14.4805C8.60906 -0.911352 2.71569 2.49662 0.919205 8.27918C0.85348 8.52104 0.984931 8.7629 1.22592 8.82886L2.64997 9.18065Z" fill="black"></path>
<path fill-rule="evenodd" clip-rule="evenodd" d="M21.2526 14.1732C21.0117 14.1072 20.7926 14.2391 20.7268 14.481C19.2809 19.0323 14.6144 21.7147 9.96981 20.7033C9.75073 20.6593 9.53165 20.7912 9.46592 21.0111L9.09348 22.4183C9.02775 22.6601 9.18111 22.902 9.40019 22.946H9.4221C15.2936 24.2652 21.1869 20.8352 22.9834 15.0746C23.0491 14.8548 22.9177 14.6129 22.6986 14.525C22.6986 14.525 22.6986 14.525 22.6767 14.525L21.2526 14.1732Z" fill="black"></path>
<path d="M18.6209 5.02452C19.3349 5.02452 19.9137 4.44365 19.9137 3.7271C19.9137 3.01056 19.3349 2.42969 18.6209 2.42969C17.9069 2.42969 17.3281 3.01056 17.3281 3.7271C17.3281 4.44365 17.9069 5.02452 18.6209 5.02452Z" fill="black"></path>
<path d="M5.27716 20.9464C5.99114 20.9464 6.56994 20.3655 6.56994 19.649C6.56994 18.9324 5.99114 18.3516 5.27716 18.3516C4.56317 18.3516 3.98438 18.9324 3.98438 19.649C3.98438 20.3655 4.56317 20.9464 5.27716 20.9464Z" fill="black"></path>
</svg>