<svg xmlns="http://www.w3.org/2000/svg" width="102" height="28" fill="none" id="svg1160476080_4147"><path d="m11 1 10 5.5L11 12 1 6.5 11 1Zm0 11 10 5.5L11 23l-9.999-5.5 10-5.5Z" stroke="#000" stroke-width="1.994" stroke-linejoin="round"></path><path d="M1 6.5 11 23l10-5.5L11 1 1 6.5Z" stroke="#000" stroke-width="1.994" stroke-linejoin="round"></path><path d="M34.32 20.276c-1.42 0-2.536-.315-3.35-.946-.814-.63-1.254-1.517-1.32-2.66h2.226c.04.552.27.979.69 1.281.433.29.985.433 1.655.433.59 0 1.037-.105 1.34-.315.315-.223.472-.538.472-.945 0-.237-.059-.427-.177-.572a1.016 1.016 0 0 0-.434-.334c-.183-.08-.44-.178-.768-.296a.322.322 0 0 0-.098-.02.752.752 0 0 0-.099-.04l-1.379-.452a.175.175 0 0 0-.079-.02.23.23 0 0 0-.059-.04 11.88 11.88 0 0 1-1.655-.67 3.022 3.022 0 0 1-1.044-.905c-.262-.381-.394-.867-.394-1.458 0-.618.151-1.156.453-1.616.316-.46.769-.814 1.36-1.064.59-.25 1.293-.374 2.108-.374 1.221 0 2.213.315 2.974.946.775.63 1.228 1.523 1.36 2.679h-2.187c-.066-.578-.289-1.011-.67-1.3-.368-.29-.867-.434-1.497-.434-.512 0-.913.105-1.202.316a.945.945 0 0 0-.433.827c0 .328.124.578.374.749.25.157.61.315 1.084.473a.767.767 0 0 0 .098.039.21.21 0 0 1 .099.02l1.28.433c.775.263 1.392.519 1.852.768.46.25.814.565 1.064.946.25.38.374.867.374 1.458 0 .643-.157 1.195-.473 1.655-.315.46-.775.814-1.379 1.063-.59.25-1.313.375-2.167.375ZM43.762 20c-1.13 0-1.99-.27-2.58-.808-.592-.538-.887-1.326-.887-2.364v-5.3h-1.832v-1.97h1.832V5.994h2.325V9.56h2.68v1.97h-2.68v5.122c0 .46.112.808.336 1.044.223.223.544.335.965.335h1.182V20h-1.34Zm6.096.217c-1.208 0-2.174-.276-2.896-.828-.723-.551-1.077-1.313-1.064-2.285 0-.762.217-1.36.65-1.793a3.575 3.575 0 0 1 1.596-.945 13.281 13.281 0 0 1 2.226-.454c.105-.013.204-.02.296-.02l.315-.039a9.738 9.738 0 0 0 1.182-.177c.289-.066.519-.164.69-.295a.62.62 0 0 0 .275-.532 1.532 1.532 0 0 0-1.005-1.478c-.328-.144-.715-.217-1.162-.217-.683 0-1.254.171-1.714.513a1.91 1.91 0 0 0-.788 1.32h-2.325a3.649 3.649 0 0 1 .75-1.931 4.489 4.489 0 0 1 1.733-1.32c.709-.315 1.504-.473 2.383-.473.933 0 1.728.158 2.384.473.657.315 1.156.755 1.498 1.32.341.565.512 1.215.512 1.95v4.728c0 .158.04.276.118.355.092.079.223.118.394.118h.552V20h-1.104c-.525 0-.952-.105-1.28-.315a1.363 1.363 0 0 1-.591-.906.768.768 0 0 1-.06-.158c-.012-.066-.026-.131-.039-.197a3.26 3.26 0 0 1-1.359 1.34c-.578.302-1.3.453-2.167.453Zm.473-1.813c.814 0 1.484-.21 2.01-.63.525-.434.787-.998.787-1.694v-1.458c-.17.262-.446.453-.827.571-.381.118-.913.217-1.596.296-.013 0-.026.006-.04.02h-.058a9.076 9.076 0 0 0-1.3.236 1.749 1.749 0 0 0-.789.413c-.197.184-.295.453-.295.808 0 .447.177.801.532 1.064.367.25.893.374 1.576.374Zm11.916 1.872c-1.09 0-2.049-.237-2.876-.71a4.878 4.878 0 0 1-1.872-1.99c-.42-.853-.63-1.805-.63-2.856 0-1.13.23-2.101.69-2.915a4.812 4.812 0 0 1 1.91-1.892c.815-.433 1.727-.65 2.739-.65.932 0 1.76.177 2.482.532.735.355 1.32.86 1.753 1.517.434.657.677 1.418.73 2.285h-2.266c-.106-.722-.401-1.293-.887-1.714-.486-.433-1.097-.65-1.832-.65-.591 0-1.11.145-1.556.434-.447.275-.795.676-1.045 1.201-.25.513-.374 1.13-.374 1.852 0 .736.131 1.38.394 1.93.263.54.624.953 1.084 1.242a3.07 3.07 0 0 0 1.576.414c.709 0 1.293-.21 1.753-.63.473-.434.768-1.025.887-1.774h2.265c-.079.893-.335 1.668-.768 2.325a4.175 4.175 0 0 1-1.714 1.517c-.71.355-1.524.532-2.443.532ZM68.452 20V5.224h2.324v8.866l4.453-4.531h2.837l-3.783 3.782L78.578 20h-2.7l-3.23-5.063-1.872 1.891V20h-2.324Zm14.835.276c-1.038 0-1.964-.23-2.778-.69a4.912 4.912 0 0 1-1.911-1.93c-.447-.84-.67-1.787-.67-2.837 0-1.117.223-2.095.67-2.936.46-.853 1.083-1.503 1.871-1.95.788-.447 1.662-.67 2.62-.67.986 0 1.846.217 2.581.65.749.434 1.333 1.064 1.754 1.892.433.814.656 1.78.67 2.896v.551h-7.861c.079.933.394 1.681.945 2.246.552.552 1.261.827 2.128.827.618 0 1.143-.137 1.576-.413.434-.29.736-.696.906-1.222h2.266c-.263 1.117-.814 1.997-1.655 2.64-.84.63-1.878.946-3.112.946Zm2.403-6.659c-.144-.749-.447-1.333-.906-1.753-.447-.434-1.012-.65-1.695-.65s-1.267.216-1.753.65c-.486.42-.814 1.004-.985 1.753h5.339ZM89.317 20V9.559h1.851l.296 2.049c.341-.71.814-1.242 1.418-1.596.604-.368 1.333-.552 2.187-.552h.414v2.246h-.414c-1.077 0-1.918.276-2.522.827-.604.552-.906 1.32-.906 2.305V20h-2.325Z" fill="#000"></path></svg>