<svg xmlns="http://www.w3.org/2000/svg" width="728" height="126" fill="none"><g filter="url(#a)"><rect width="96" height="96" x="315" y="9" fill="#fff" rx="32"/></g><path fill="#fff" d="M343 45.5 363 34l20.001 11.5L373 51.25l10.001 17.25L363 80l-20-11.5 10-5.75-10-17.25z"/><path stroke="#222" stroke-linejoin="round" stroke-width="3" d="M343 45.5 363 34l20.001 11.5L373 51.25m-30-5.75L363 57l10-5.75m-30-5.75 10 17.25M363 80l20.001-11.5L373 51.25M363 80l-20-11.5 10-5.75M363 80l-10-17.25"/><g filter="url(#b)"><rect width="169" height="44" x="106" y="5" fill="#fff" rx="16"/></g><path fill="#000" d="M150.616 23.14v-1.322h7.88v1.323h-3.176V32h-1.532v-8.86h-3.172zm11.596 9.014c-.752 0-1.4-.16-1.944-.482a3.273 3.273 0 0 1-1.253-1.367c-.291-.59-.437-1.281-.437-2.073 0-.783.146-1.472.437-2.069a3.398 3.398 0 0 1 1.233-1.397c.531-.334 1.151-.502 1.86-.502.431 0 .848.072 1.253.214a3.03 3.03 0 0 1 1.088.671c.322.305.575.701.761 1.188.186.484.278 1.073.278 1.765v.527h-6.07v-1.113h4.614a2.2 2.2 0 0 0-.239-1.04 1.805 1.805 0 0 0-.671-.72 1.875 1.875 0 0 0-1.004-.264c-.418 0-.782.103-1.094.308a2.071 2.071 0 0 0-.716.796 2.292 2.292 0 0 0-.248 1.059v.87c0 .51.089.945.268 1.302.182.358.436.632.761.82.324.186.704.28 1.138.28.282 0 .539-.04.771-.12a1.593 1.593 0 0 0 .989-.97l1.407.254a2.549 2.549 0 0 1-.607 1.089 2.939 2.939 0 0 1-1.088.72c-.434.17-.93.254-1.487.254zm7.058.015a3.13 3.13 0 0 1-1.312-.268 2.214 2.214 0 0 1-.93-.79c-.225-.346-.338-.768-.338-1.269 0-.43.083-.785.248-1.064.166-.278.39-.498.672-.66a3.49 3.49 0 0 1 .944-.369 9.396 9.396 0 0 1 1.064-.189l1.114-.129c.285-.036.492-.094.621-.174.129-.08.194-.209.194-.388v-.035c0-.434-.123-.77-.368-1.009-.242-.238-.603-.358-1.084-.358-.5 0-.894.111-1.183.333-.285.22-.482.463-.591.731l-1.397-.318c.165-.464.407-.838.725-1.123a2.945 2.945 0 0 1 1.109-.627 4.331 4.331 0 0 1 1.318-.199c.304 0 .628.037.969.11.345.07.666.198.964.387.302.19.549.46.741.81.192.349.289.801.289 1.358V32h-1.452v-1.044h-.06c-.096.192-.24.381-.432.567-.193.185-.439.34-.741.462-.302.123-.663.184-1.084.184zm.323-1.193c.411 0 .763-.081 1.054-.244.295-.162.519-.374.671-.636a1.65 1.65 0 0 0 .234-.85v-.985c-.053.053-.156.103-.308.15-.149.043-.32.08-.512.114-.192.03-.38.058-.562.084l-.457.06a3.687 3.687 0 0 0-.791.184c-.235.086-.424.21-.567.373-.139.159-.208.371-.208.636 0 .368.135.647.407.835.272.186.618.279 1.039.279zM174.929 32v-7.636h1.426v1.242h.095c.159-.42.419-.748.78-.984.362-.238.794-.358 1.298-.358.51 0 .938.12 1.283.358a2.1 2.1 0 0 1 .77.985h.08c.182-.408.472-.733.87-.975.398-.245.871-.368 1.422-.368.692 0 1.257.217 1.695.652.441.434.661 1.088.661 1.963V32h-1.486v-4.982c0-.517-.141-.891-.423-1.123a1.537 1.537 0 0 0-1.009-.348c-.484 0-.86.149-1.129.447-.268.295-.402.675-.402 1.139V32h-1.482v-5.076c0-.414-.129-.747-.388-1-.258-.251-.595-.377-1.009-.377a1.44 1.44 0 0 0-.78.224c-.236.145-.426.35-.572.611a1.868 1.868 0 0 0-.214.91V32h-1.486zm17.553 0-2.247-7.636h1.536l1.497 5.608h.074l1.502-5.608h1.536l1.491 5.583h.075l1.486-5.583h1.537L198.726 32h-1.516l-1.551-5.514h-.114L193.994 32h-1.512zm12.792.154c-.716 0-1.341-.164-1.875-.492a3.323 3.323 0 0 1-1.243-1.377c-.295-.59-.442-1.28-.442-2.068 0-.793.147-1.485.442-2.078a3.316 3.316 0 0 1 1.243-1.383c.534-.328 1.159-.492 1.875-.492.715 0 1.34.164 1.874.492.533.328.948.79 1.243 1.383.295.593.442 1.285.442 2.078 0 .788-.147 1.478-.442 2.068a3.323 3.323 0 0 1-1.243 1.377c-.534.328-1.159.492-1.874.492zm.005-1.248c.464 0 .848-.122 1.153-.368a2.15 2.15 0 0 0 .676-.98 3.89 3.89 0 0 0 .224-1.346c0-.488-.075-.935-.224-1.343a2.187 2.187 0 0 0-.676-.989c-.305-.249-.689-.373-1.153-.373-.468 0-.856.124-1.164.373a2.22 2.22 0 0 0-.681.99 3.956 3.956 0 0 0-.219 1.342c0 .49.073.94.219 1.347.149.408.376.734.681.98.308.245.696.367 1.164.367zM210.402 32v-7.636h1.437v1.213h.08c.139-.411.384-.734.736-.97a2.103 2.103 0 0 1 1.203-.358 6.372 6.372 0 0 1 .631.035v1.422a2.688 2.688 0 0 0-.318-.055 3.041 3.041 0 0 0-.457-.035 1.94 1.94 0 0 0-.94.224 1.66 1.66 0 0 0-.885 1.497V32h-1.487zm6.651-2.59-.01-1.815h.258l3.043-3.231h1.78l-3.47 3.679h-.234l-1.367 1.367zM215.686 32V21.818h1.486V32h-1.486zm4.822 0-2.734-3.63 1.024-1.038L222.333 32h-1.825zm8.603-5.772-1.347.239a1.605 1.605 0 0 0-.269-.493 1.33 1.33 0 0 0-.487-.382c-.206-.1-.463-.15-.771-.15-.421 0-.772.095-1.054.284-.281.186-.422.426-.422.72a.76.76 0 0 0 .283.617c.189.156.494.284.915.383l1.213.278c.703.163 1.226.413 1.571.751s.517.777.517 1.318c0 .457-.133.865-.398 1.223-.262.354-.628.633-1.098.835-.468.202-1.01.303-1.626.303-.855 0-1.553-.182-2.093-.547-.54-.368-.872-.89-.995-1.566l1.437-.219c.09.375.274.658.552.85.278.19.641.284 1.089.284.487 0 .877-.101 1.168-.303.292-.206.438-.456.438-.751a.78.78 0 0 0-.269-.602c-.175-.162-.446-.285-.81-.367l-1.293-.284c-.712-.162-1.239-.42-1.581-.775-.338-.355-.507-.804-.507-1.348 0-.45.126-.845.378-1.183.252-.338.6-.602 1.044-.79.444-.193.953-.289 1.526-.289.826 0 1.475.18 1.949.537.474.355.787.83.94 1.427zm1.693 8.636v-10.5h1.452v1.238h.124a4.28 4.28 0 0 1 .373-.552 2.12 2.12 0 0 1 .676-.547c.289-.16.67-.239 1.144-.239.616 0 1.166.156 1.65.468.484.311.864.76 1.139 1.347.278.587.418 1.292.418 2.118 0 .825-.138 1.533-.413 2.123-.275.586-.653 1.039-1.134 1.357a2.933 2.933 0 0 1-1.645.472c-.464 0-.844-.078-1.139-.233a2.165 2.165 0 0 1-.686-.547 4.164 4.164 0 0 1-.383-.557h-.089v4.052h-1.487zm1.457-6.682c0 .537.078 1.007.234 1.412.155.404.381.72.676.95.295.225.656.337 1.084.337.444 0 .815-.117 1.113-.353.299-.238.524-.561.676-.97.156-.407.234-.866.234-1.376 0-.504-.076-.956-.229-1.357a2.073 2.073 0 0 0-.676-.95c-.298-.232-.671-.348-1.118-.348-.431 0-.796.111-1.094.333-.295.222-.519.532-.671.93-.153.398-.229.861-.229 1.392zm9.316 3.987a3.13 3.13 0 0 1-1.312-.268 2.214 2.214 0 0 1-.93-.79c-.225-.346-.338-.768-.338-1.269 0-.43.083-.785.249-1.064.165-.278.389-.498.671-.66.282-.163.596-.286.944-.369a9.396 9.396 0 0 1 1.064-.189l1.114-.129c.285-.036.492-.094.621-.174.13-.08.194-.209.194-.388v-.035c0-.434-.122-.77-.368-1.009-.242-.238-.603-.358-1.083-.358-.501 0-.895.111-1.184.333-.285.22-.482.463-.591.731l-1.397-.318c.165-.464.407-.838.726-1.123a2.94 2.94 0 0 1 1.108-.627 4.331 4.331 0 0 1 1.318-.199c.305 0 .628.037.969.11.345.07.666.198.965.387.301.19.548.46.74.81.193.349.289.801.289 1.358V32h-1.452v-1.044h-.06c-.096.192-.24.381-.432.567-.192.185-.439.34-.741.462-.302.123-.663.184-1.084.184zm.323-1.193c.411 0 .763-.081 1.054-.244.295-.162.519-.374.672-.636.155-.265.233-.549.233-.85v-.985c-.053.053-.156.103-.308.15-.149.043-.32.08-.512.114-.192.03-.38.058-.562.084l-.457.06a3.687 3.687 0 0 0-.791.184c-.235.086-.424.21-.566.373-.14.159-.209.371-.209.636 0 .368.136.647.407.835.272.186.619.279 1.039.279zm8.552 1.178c-.739 0-1.375-.167-1.909-.502a3.327 3.327 0 0 1-1.223-1.397c-.285-.593-.427-1.273-.427-2.038 0-.776.145-1.46.437-2.054a3.356 3.356 0 0 1 1.233-1.397c.53-.334 1.155-.502 1.874-.502.58 0 1.097.108 1.552.323.454.212.82.51 1.098.895a2.7 2.7 0 0 1 .502 1.348h-1.446a1.737 1.737 0 0 0-.547-.925c-.282-.259-.66-.388-1.134-.388-.414 0-.777.11-1.089.328-.308.216-.548.524-.72.925-.173.398-.259.868-.259 1.412 0 .557.085 1.037.254 1.442.169.404.407.717.716.94a1.84 1.84 0 0 0 1.098.332c.282 0 .537-.051.766-.154a1.57 1.57 0 0 0 .582-.452c.159-.196.27-.431.333-.706h1.446a2.804 2.804 0 0 1-.482 1.322 2.77 2.77 0 0 1-1.079.915c-.447.222-.972.333-1.576.333zm7.928 0c-.752 0-1.4-.16-1.944-.482a3.265 3.265 0 0 1-1.252-1.367c-.292-.59-.438-1.281-.438-2.073 0-.783.146-1.472.438-2.069a3.389 3.389 0 0 1 1.232-1.397c.531-.334 1.151-.502 1.86-.502.431 0 .848.072 1.253.214a3.03 3.03 0 0 1 1.088.671c.322.305.576.701.761 1.188.186.484.279 1.073.279 1.765v.527h-6.071v-1.113h4.614a2.2 2.2 0 0 0-.239-1.04 1.805 1.805 0 0 0-.671-.72 1.875 1.875 0 0 0-1.004-.264c-.418 0-.782.103-1.094.308a2.071 2.071 0 0 0-.716.796 2.292 2.292 0 0 0-.248 1.059v.87c0 .51.089.945.268 1.302.182.358.436.632.761.82.324.186.704.28 1.138.28.282 0 .539-.04.771-.12a1.593 1.593 0 0 0 .989-.97l1.407.254a2.557 2.557 0 0 1-.606 1.089 2.951 2.951 0 0 1-1.089.72c-.434.17-.93.254-1.487.254z"/><path stroke="#5926DA" stroke-linecap="round" stroke-linejoin="round" stroke-width="2" d="M130 17v20m-10-12.5h10m0 5h10M127 37h6c5 0 7-2 7-7v-6c0-5-2-7-7-7h-6c-5 0-7 2-7 7v6c0 5 2 7 7 7z"/><g filter="url(#c)"><rect width="103" height="44" x="172" y="65" fill="#fff" rx="16"/></g><path fill="#000" d="M217.119 92V81.818h3.629c.792 0 1.448.144 1.969.433.52.288.909.682 1.168 1.183.258.497.388 1.057.388 1.68a3.59 3.59 0 0 1-.393 1.69c-.259.498-.65.892-1.173 1.184-.521.288-1.175.433-1.964.433h-2.496v-1.303h2.357c.5 0 .906-.086 1.218-.259.311-.175.54-.414.686-.715.146-.302.219-.645.219-1.03a2.3 2.3 0 0 0-.219-1.024 1.569 1.569 0 0 0-.691-.7c-.312-.17-.723-.254-1.233-.254h-1.929V92h-1.536zm11.866.154c-.716 0-1.34-.164-1.874-.492a3.316 3.316 0 0 1-1.243-1.377c-.295-.59-.442-1.28-.442-2.068 0-.793.147-1.485.442-2.079a3.31 3.31 0 0 1 1.243-1.382c.534-.328 1.158-.492 1.874-.492.716 0 1.341.164 1.875.492.533.329.947.79 1.242 1.382.295.594.443 1.286.443 2.079 0 .788-.148 1.478-.443 2.068a3.32 3.32 0 0 1-1.242 1.377c-.534.328-1.159.492-1.875.492zm.005-1.248c.464 0 .849-.122 1.154-.368a2.15 2.15 0 0 0 .676-.98 3.89 3.89 0 0 0 .224-1.346c0-.488-.075-.935-.224-1.343a2.187 2.187 0 0 0-.676-.989c-.305-.249-.69-.373-1.154-.373-.467 0-.855.124-1.163.373a2.22 2.22 0 0 0-.681.99 3.956 3.956 0 0 0-.219 1.342c0 .49.073.94.219 1.347.149.408.376.734.681.98.308.245.696.367 1.163.367zM234.114 92v-7.636h1.437v1.213h.08c.139-.411.384-.734.735-.97a2.107 2.107 0 0 1 1.203-.358 6.408 6.408 0 0 1 .632.035v1.422a2.688 2.688 0 0 0-.318-.055 3.044 3.044 0 0 0-.458-.034 1.94 1.94 0 0 0-.939.223 1.662 1.662 0 0 0-.885 1.497V92h-1.487zm9.299-7.636v1.193h-4.171v-1.193h4.171zm-3.052-1.83h1.486v7.224c0 .288.043.505.129.651a.67.67 0 0 0 .333.293c.14.05.29.075.453.075.119 0 .224-.008.313-.025.089-.016.159-.03.209-.04l.268 1.228a2.497 2.497 0 0 1-.368.1 2.913 2.913 0 0 1-.596.06 2.616 2.616 0 0 1-1.094-.21 1.877 1.877 0 0 1-.82-.675c-.209-.305-.313-.688-.313-1.149v-7.532zm6.829 9.635c-.484 0-.922-.09-1.313-.268a2.206 2.206 0 0 1-.929-.79c-.226-.346-.339-.768-.339-1.269 0-.43.083-.785.249-1.064a1.83 1.83 0 0 1 .671-.66 3.51 3.51 0 0 1 .945-.369 9.357 9.357 0 0 1 1.064-.189l1.113-.129c.285-.036.493-.094.622-.174.129-.08.194-.209.194-.388v-.034c0-.435-.123-.771-.368-1.01-.242-.238-.603-.358-1.084-.358-.5 0-.895.111-1.183.333-.285.22-.482.463-.592.731l-1.397-.318c.166-.464.408-.838.726-1.123a2.937 2.937 0 0 1 1.109-.627 4.32 4.32 0 0 1 1.317-.199c.305 0 .628.037.97.11.344.07.666.198.964.387.302.19.549.46.741.81.192.349.288.801.288 1.358V92h-1.452v-1.044h-.059a2.1 2.1 0 0 1-.433.567c-.192.185-.439.34-.74.462-.302.123-.663.184-1.084.184zm.323-1.193c.411 0 .762-.081 1.054-.244.295-.162.519-.374.671-.636a1.65 1.65 0 0 0 .234-.85v-.985c-.053.053-.156.103-.309.15a4.752 4.752 0 0 1-.512.114c-.192.03-.379.058-.561.084l-.458.06a3.678 3.678 0 0 0-.79.184 1.35 1.35 0 0 0-.567.373c-.139.159-.209.371-.209.636 0 .368.136.647.408.835.272.186.618.279 1.039.279zm6.822-9.158V92h-1.487V81.818h1.487zm7.632 4.41-1.348.239a1.58 1.58 0 0 0-.268-.493 1.33 1.33 0 0 0-.487-.382c-.206-.1-.463-.15-.771-.15-.421 0-.772.095-1.054.284-.282.186-.422.426-.422.72a.76.76 0 0 0 .283.617c.189.156.494.284.915.383l1.213.278c.702.163 1.226.413 1.571.751s.517.777.517 1.318c0 .457-.133.865-.398 1.223-.262.354-.628.633-1.099.835-.467.202-1.009.303-1.625.303-.855 0-1.553-.182-2.093-.547-.541-.368-.872-.89-.995-1.566l1.437-.219c.09.375.274.658.552.85.278.19.641.284 1.089.284.487 0 .876-.101 1.168-.303.292-.206.438-.456.438-.751a.78.78 0 0 0-.269-.602c-.176-.162-.446-.285-.81-.367l-1.293-.284c-.712-.162-1.239-.42-1.581-.775-.338-.355-.507-.804-.507-1.348 0-.45.126-.845.378-1.183.252-.338.6-.602 1.044-.79.444-.193.953-.289 1.526-.289.826 0 1.475.18 1.949.537.474.355.787.83.94 1.427z"/><path stroke="#2772FF" stroke-linecap="round" stroke-linejoin="round" stroke-width="2" d="M203.045 84.59c.684.119 1.332.356 1.865.71 1.41.94 1.41 2.48 0 3.42-.799.535-1.853.803-2.91.804m-11.999 0c-1.067.004-2.133-.264-2.94-.804-1.41-.94-1.41-2.48 0-3.42.553-.367 1.228-.608 1.94-.723m12.997-2.417a.605.605 0 0 0-.19 0 2.573 2.573 0 0 1-2.48-2.58c0-1.43 1.15-2.58 2.58-2.58a2.58 2.58 0 0 1 2.58 2.58 2.589 2.589 0 0 1-2.49 2.58zm-12.028 0c.06-.01.13-.01.19 0a2.573 2.573 0 0 0 2.48-2.58c0-1.43-1.15-2.58-2.58-2.58a2.58 2.58 0 0 0-2.58 2.58c.01 1.4 1.11 2.53 2.49 2.58zm6.028 7.47a.605.605 0 0 0-.19 0 2.573 2.573 0 0 1-2.48-2.58c0-1.43 1.15-2.58 2.58-2.58a2.58 2.58 0 0 1 2.58 2.58c-.01 1.4-1.11 2.54-2.49 2.58zm-2.909 3.15c-1.41.94-1.41 2.48 0 3.42 1.6 1.07 4.22 1.07 5.82 0 1.41-.94 1.41-2.48 0-3.42-1.59-1.06-4.22-1.06-5.82 0z"/><g filter="url(#d)"><rect width="145" height="44" x="11" y="65" fill="#fff" rx="16"/></g><path fill="#000" d="M64.575 85.13h-1.55a2.37 2.37 0 0 0-.93-1.517 2.574 2.574 0 0 0-.791-.398 3.086 3.086 0 0 0-.92-.134c-.586 0-1.112.147-1.576.442-.46.295-.825.728-1.093 1.298-.266.57-.398 1.266-.398 2.088 0 .829.132 1.528.398 2.098.268.57.634 1.001 1.098 1.293.464.291.986.437 1.566.437.322 0 .627-.043.915-.129.292-.09.555-.22.79-.393a2.379 2.379 0 0 0 .94-1.496l1.551.005c-.083.5-.243.96-.482 1.382a3.812 3.812 0 0 1-.91 1.084 4.115 4.115 0 0 1-1.263.7 4.67 4.67 0 0 1-1.55.25c-.882 0-1.668-.21-2.357-.627-.69-.421-1.233-1.023-1.63-1.805-.395-.782-.593-1.715-.593-2.799 0-1.087.2-2.02.597-2.799.398-.782.941-1.382 1.63-1.8.69-.42 1.474-.631 2.352-.631.54 0 1.044.078 1.512.234.47.152.893.377 1.267.676.375.295.685.656.93 1.084.245.424.411.91.497 1.456zm4.846 7.024c-.716 0-1.34-.164-1.875-.492a3.319 3.319 0 0 1-1.242-1.377c-.295-.59-.443-1.28-.443-2.068 0-.793.148-1.485.443-2.079a3.312 3.312 0 0 1 1.242-1.382c.534-.328 1.159-.492 1.875-.492s1.34.164 1.874.492c.534.329.948.79 1.243 1.382.295.594.443 1.286.443 2.079 0 .788-.148 1.478-.443 2.068a3.319 3.319 0 0 1-1.243 1.377c-.534.328-1.158.492-1.874.492zm.005-1.248c.464 0 .848-.122 1.153-.368a2.15 2.15 0 0 0 .676-.98c.15-.407.224-.856.224-1.346 0-.488-.075-.935-.224-1.343a2.187 2.187 0 0 0-.676-.989c-.305-.249-.69-.373-1.153-.373-.468 0-.855.124-1.163.373a2.221 2.221 0 0 0-.682.99 3.96 3.96 0 0 0-.218 1.342c0 .49.073.94.218 1.347a2.2 2.2 0 0 0 .681.98c.309.245.697.367 1.164.367zm6.61-9.088V92H74.55V81.818h1.486zm3.397 0V92h-1.487V81.818h1.487zm4.132 10.351a3.12 3.12 0 0 1-1.313-.268 2.211 2.211 0 0 1-.93-.79c-.225-.346-.338-.768-.338-1.269 0-.43.083-.785.249-1.064.166-.278.39-.498.671-.66.282-.163.597-.286.945-.369a9.387 9.387 0 0 1 1.064-.189l1.113-.129c.285-.036.493-.094.622-.174.13-.08.194-.209.194-.388v-.034c0-.435-.123-.771-.368-1.01-.242-.238-.603-.358-1.084-.358-.5 0-.895.111-1.183.333-.285.22-.482.463-.592.731l-1.397-.318c.166-.464.408-.838.726-1.123a2.942 2.942 0 0 1 1.109-.627 4.328 4.328 0 0 1 1.317-.199c.305 0 .628.037.97.11.344.07.666.198.964.387.302.19.549.46.74.81.193.349.29.801.29 1.358V92H85.88v-1.044h-.06c-.095.192-.24.381-.432.567-.192.185-.439.34-.74.462-.302.123-.663.184-1.084.184zm.323-1.193c.41 0 .762-.081 1.054-.244.295-.162.519-.374.671-.636a1.65 1.65 0 0 0 .234-.85v-.985c-.053.053-.156.103-.309.15-.149.043-.32.08-.512.114-.192.03-.38.058-.561.084l-.458.06a3.685 3.685 0 0 0-.79.184 1.35 1.35 0 0 0-.567.373c-.14.159-.209.371-.209.636 0 .368.136.647.408.835.272.186.618.279 1.039.279zM89.342 92V81.818h1.487v3.784h.09c.086-.16.21-.344.372-.552a2.11 2.11 0 0 1 .676-.547c.289-.16.67-.239 1.144-.239.616 0 1.167.156 1.65.468.484.311.864.76 1.139 1.347.278.587.418 1.292.418 2.118 0 .825-.138 1.533-.413 2.123-.275.586-.653 1.039-1.134 1.357a2.932 2.932 0 0 1-1.645.472c-.464 0-.844-.078-1.139-.234a2.157 2.157 0 0 1-.686-.546 4.142 4.142 0 0 1-.383-.557h-.124V92h-1.452zm1.457-3.818c0 .537.078 1.007.234 1.412.156.404.38.72.676.95.295.225.656.337 1.084.337.444 0 .815-.117 1.113-.353a2.19 2.19 0 0 0 .676-.97c.156-.407.234-.866.234-1.376 0-.504-.076-.956-.228-1.357a2.078 2.078 0 0 0-.677-.95c-.298-.232-.67-.348-1.118-.348-.431 0-.796.111-1.094.333-.295.222-.519.532-.671.93-.153.397-.229.861-.229 1.392zm10.314 3.972c-.716 0-1.34-.164-1.874-.492a3.319 3.319 0 0 1-1.243-1.377c-.295-.59-.442-1.28-.442-2.068 0-.793.147-1.485.442-2.079a3.312 3.312 0 0 1 1.243-1.382c.534-.328 1.158-.492 1.874-.492.716 0 1.341.164 1.875.492.533.329.948.79 1.243 1.382.295.594.442 1.286.442 2.079 0 .788-.147 1.478-.442 2.068a3.323 3.323 0 0 1-1.243 1.377c-.534.328-1.159.492-1.875.492zm.005-1.248c.464 0 .849-.122 1.154-.368a2.15 2.15 0 0 0 .676-.98 3.89 3.89 0 0 0 .224-1.346c0-.488-.075-.935-.224-1.343a2.187 2.187 0 0 0-.676-.989c-.305-.249-.69-.373-1.154-.373-.467 0-.855.124-1.163.373a2.222 2.222 0 0 0-.681.99 3.96 3.96 0 0 0-.219 1.342c0 .49.073.94.219 1.347a2.2 2.2 0 0 0 .681.98c.308.245.696.367 1.163.367zM106.242 92v-7.636h1.437v1.213h.08c.139-.411.384-.734.735-.97a2.108 2.108 0 0 1 1.204-.358 6.404 6.404 0 0 1 .631.035v1.422a2.688 2.688 0 0 0-.318-.055 3.044 3.044 0 0 0-.458-.034 1.94 1.94 0 0 0-.939.223 1.654 1.654 0 0 0-.885 1.496V92h-1.487zm7.437.169a3.13 3.13 0 0 1-1.312-.268 2.214 2.214 0 0 1-.93-.79c-.225-.346-.338-.768-.338-1.269 0-.43.083-.785.249-1.064.165-.278.389-.498.671-.66.282-.163.596-.286.944-.369a9.396 9.396 0 0 1 1.064-.189l1.114-.129c.285-.036.492-.094.621-.174.13-.08.194-.209.194-.388v-.034c0-.435-.122-.771-.368-1.01-.242-.238-.603-.358-1.083-.358-.501 0-.895.111-1.184.333-.285.22-.482.463-.591.731l-1.397-.318c.165-.464.407-.838.726-1.123a2.94 2.94 0 0 1 1.108-.627 4.331 4.331 0 0 1 1.318-.199c.305 0 .628.037.969.11.345.07.666.198.965.387.301.19.548.46.74.81.193.349.289.801.289 1.358V92h-1.452v-1.044h-.06c-.096.192-.24.381-.432.567-.192.185-.439.34-.741.462-.301.123-.663.184-1.084.184zm.323-1.193c.411 0 .763-.081 1.054-.244.295-.162.519-.374.672-.636.155-.265.233-.549.233-.85v-.985c-.053.053-.155.103-.308.15-.149.043-.32.08-.512.114-.192.03-.38.058-.562.084l-.457.06a3.687 3.687 0 0 0-.791.184c-.235.086-.424.21-.566.373-.14.159-.209.371-.209.636 0 .368.136.647.407.835.272.186.619.279 1.039.279zm8.9-6.612v1.193h-4.171v-1.193h4.171zm-3.052-1.83h1.486v7.224c0 .288.043.505.13.651a.67.67 0 0 0 .333.293c.139.05.29.075.452.075.119 0 .224-.008.313-.025.09-.016.159-.03.209-.04l.269 1.228a2.916 2.916 0 0 1-.965.16 2.616 2.616 0 0 1-1.094-.21 1.877 1.877 0 0 1-.82-.675c-.209-.305-.313-.688-.313-1.149v-7.532zM124.457 92v-7.636h1.486V92h-1.486zm.75-8.815a.946.946 0 0 1-.666-.258.841.841 0 0 1-.273-.627.83.83 0 0 1 .273-.626.936.936 0 0 1 .666-.264.92.92 0 0 1 .662.264.825.825 0 0 1 .278.626.837.837 0 0 1-.278.627.93.93 0 0 1-.662.258zm5.863 8.97c-.716 0-1.341-.165-1.875-.493a3.323 3.323 0 0 1-1.243-1.377c-.295-.59-.442-1.28-.442-2.068 0-.793.147-1.485.442-2.079a3.316 3.316 0 0 1 1.243-1.382c.534-.328 1.159-.492 1.875-.492s1.34.164 1.874.492a3.31 3.31 0 0 1 1.243 1.382c.295.594.442 1.286.442 2.079 0 .788-.147 1.478-.442 2.068a3.316 3.316 0 0 1-1.243 1.377c-.534.328-1.158.492-1.874.492zm.005-1.249c.464 0 .848-.122 1.153-.368a2.15 2.15 0 0 0 .676-.98 3.89 3.89 0 0 0 .224-1.346c0-.488-.075-.935-.224-1.343a2.187 2.187 0 0 0-.676-.989c-.305-.249-.689-.373-1.153-.373-.468 0-.855.124-1.164.373a2.22 2.22 0 0 0-.681.99 3.956 3.956 0 0 0-.219 1.342c0 .49.073.94.219 1.347.149.408.376.734.681.98.309.245.696.367 1.164.367zm6.61-3.44V92h-1.486v-7.636h1.426v1.242h.095c.176-.404.451-.729.825-.974.378-.245.854-.368 1.427-.368.52 0 .976.11 1.367.328.391.216.695.537.91.965.215.427.323.956.323 1.586V92h-1.486v-4.678c0-.554-.145-.986-.433-1.298-.288-.315-.684-.472-1.188-.472-.345 0-.651.074-.92.224a1.61 1.61 0 0 0-.631.656c-.153.285-.229.63-.229 1.034z"/><path stroke="#25B670" stroke-linecap="round" stroke-linejoin="round" stroke-width="2" d="M43 87c0 4.416-3.584 8-8 8s-7.112-4.448-7.112-4.448m0 0h3.616m-3.616 0v4M27 87c0-4.416 3.552-8 8-8 5.336 0 8 4.448 8 4.448m0 0v-4m0 4h-3.552"/><g filter="url(#e)"><rect width="173" height="44" x="451" y="5" fill="#fff" rx="16"/></g><path fill="#000" d="M496.119 32V21.818h6.314v1.323h-4.778v3.102h4.325v1.317h-4.325V32h-1.536zm9.48-10.182V32h-1.487V21.818h1.487zm5.201 10.336c-.752 0-1.4-.16-1.944-.482a3.273 3.273 0 0 1-1.253-1.367c-.291-.59-.437-1.281-.437-2.073 0-.783.146-1.472.437-2.069a3.398 3.398 0 0 1 1.233-1.397c.53-.334 1.15-.502 1.86-.502.43 0 .848.072 1.252.214.405.142.768.366 1.089.671.322.305.575.701.761 1.188.185.484.278 1.073.278 1.765v.527h-6.07v-1.113h4.614a2.2 2.2 0 0 0-.239-1.04 1.805 1.805 0 0 0-.671-.72 1.876 1.876 0 0 0-1.005-.264c-.417 0-.782.103-1.093.308a2.063 2.063 0 0 0-.716.796 2.293 2.293 0 0 0-.249 1.059v.87c0 .51.09.945.269 1.302.182.358.436.632.76.82.325.186.705.28 1.139.28.282 0 .538-.04.77-.12.232-.083.433-.206.602-.368.169-.163.298-.363.388-.602l1.407.254a2.549 2.549 0 0 1-.607 1.089 2.935 2.935 0 0 1-1.089.72c-.434.17-.929.254-1.486.254zm5.831-7.79 1.685 2.973 1.701-2.973h1.625l-2.381 3.818L521.662 32h-1.625l-1.721-2.854L516.601 32h-1.63l2.376-3.818L515 24.364h1.631zM523.079 32v-7.636h1.486V32h-1.486zm.75-8.815a.946.946 0 0 1-.666-.258.841.841 0 0 1-.273-.627.83.83 0 0 1 .273-.626.936.936 0 0 1 .666-.264.92.92 0 0 1 .662.264.825.825 0 0 1 .278.626.837.837 0 0 1-.278.627.93.93 0 0 1-.662.258zM526.594 32V21.818h1.487v3.784h.089a4.28 4.28 0 0 1 .373-.552 2.12 2.12 0 0 1 .676-.547c.289-.16.67-.239 1.144-.239a2.98 2.98 0 0 1 1.65.468c.484.311.864.76 1.139 1.347.278.587.418 1.292.418 2.118 0 .825-.138 1.533-.413 2.123-.275.586-.653 1.039-1.134 1.357a2.933 2.933 0 0 1-1.645.472c-.464 0-.844-.078-1.139-.233a2.165 2.165 0 0 1-.686-.547 4.164 4.164 0 0 1-.383-.557h-.124V32h-1.452zm1.457-3.818c0 .537.078 1.007.234 1.412.156.404.381.72.676.95.295.225.656.337 1.084.337.444 0 .815-.117 1.113-.353.299-.238.524-.561.676-.97.156-.407.234-.866.234-1.376 0-.504-.076-.956-.229-1.357a2.073 2.073 0 0 0-.676-.95c-.298-.232-.671-.348-1.118-.348-.431 0-.796.111-1.094.333-.295.222-.519.532-.671.93-.153.398-.229.861-.229 1.392zm8.584-6.364V32h-1.486V21.818h1.486zm5.201 10.336c-.752 0-1.4-.16-1.944-.482a3.271 3.271 0 0 1-1.252-1.367c-.292-.59-.438-1.281-.438-2.073 0-.783.146-1.472.438-2.069a3.396 3.396 0 0 1 1.232-1.397c.531-.334 1.151-.502 1.86-.502.431 0 .848.072 1.253.214a3.03 3.03 0 0 1 1.088.671c.322.305.576.701.761 1.188.186.484.279 1.073.279 1.765v.527h-6.071v-1.113h4.614a2.2 2.2 0 0 0-.239-1.04 1.805 1.805 0 0 0-.671-.72 1.875 1.875 0 0 0-1.004-.264c-.418 0-.782.103-1.094.308a2.071 2.071 0 0 0-.716.796 2.292 2.292 0 0 0-.248 1.059v.87c0 .51.089.945.268 1.302.182.358.436.632.761.82.324.186.704.28 1.138.28.282 0 .539-.04.771-.12a1.593 1.593 0 0 0 .989-.97l1.407.254a2.557 2.557 0 0 1-.606 1.089 2.951 2.951 0 0 1-1.089.72c-.434.17-.93.254-1.487.254zm11.31-.005a2.96 2.96 0 0 1-1.651-.472c-.481-.318-.858-.77-1.133-1.357-.272-.59-.408-1.298-.408-2.123 0-.826.137-1.531.412-2.118.279-.587.66-1.036 1.144-1.348a2.974 2.974 0 0 1 1.646-.467c.474 0 .855.08 1.143.239.292.156.517.338.676.547.163.209.289.392.378.552h.089v-3.784h1.487V32h-1.452v-1.188h-.124a3.9 3.9 0 0 1-.388.557 2.154 2.154 0 0 1-.686.547c-.292.155-.669.233-1.133.233zm.328-1.268c.427 0 .789-.112 1.084-.338.298-.228.523-.545.676-.95.155-.404.233-.874.233-1.411 0-.53-.076-.994-.228-1.392-.153-.398-.377-.708-.672-.93-.294-.222-.659-.333-1.093-.333-.448 0-.821.116-1.119.348a2.125 2.125 0 0 0-.676.95 3.876 3.876 0 0 0-.224 1.357c0 .51.076.97.229 1.377.152.408.378.73.676.97.302.235.673.352 1.114.352zm7.709 1.288c-.484 0-.921-.09-1.313-.268a2.206 2.206 0 0 1-.929-.79c-.226-.346-.338-.768-.338-1.269 0-.43.083-.785.248-1.064.166-.278.39-.498.671-.66a3.51 3.51 0 0 1 .945-.369 9.396 9.396 0 0 1 1.064-.189l1.114-.129c.285-.036.492-.094.621-.174.129-.08.194-.209.194-.388v-.035c0-.434-.123-.77-.368-1.009-.242-.238-.603-.358-1.084-.358-.5 0-.895.111-1.183.333-.285.22-.482.463-.592.731l-1.397-.318c.166-.464.408-.838.726-1.123a2.945 2.945 0 0 1 1.109-.627 4.325 4.325 0 0 1 1.317-.199c.305 0 .628.037.97.11.344.07.666.198.964.387.302.19.549.46.741.81.192.349.288.801.288 1.358V32H563.5v-1.044h-.06a2.1 2.1 0 0 1-.433.567c-.192.185-.439.34-.74.462-.302.123-.663.184-1.084.184zm.323-1.193c.411 0 .762-.081 1.054-.244.295-.162.519-.374.671-.636a1.65 1.65 0 0 0 .234-.85v-.985c-.053.053-.156.103-.308.15-.15.043-.32.08-.512.114-.193.03-.38.058-.562.084l-.458.06a3.692 3.692 0 0 0-.79.184c-.235.086-.424.21-.567.373-.139.159-.209.371-.209.636 0 .368.136.647.408.835.272.186.618.279 1.039.279zm8.9-6.612v1.193h-4.171v-1.193h4.171zm-3.053-1.83h1.487v7.224c0 .288.043.505.129.651a.67.67 0 0 0 .333.293c.139.05.29.075.453.075.119 0 .223-.008.313-.025.089-.016.159-.03.209-.04l.268 1.228a2.497 2.497 0 0 1-.368.1 2.913 2.913 0 0 1-.596.06 2.616 2.616 0 0 1-1.094-.21 1.871 1.871 0 0 1-.82-.675c-.209-.305-.314-.688-.314-1.149v-7.532zm6.83 9.635c-.484 0-.922-.09-1.313-.268a2.214 2.214 0 0 1-.93-.79c-.225-.346-.338-.768-.338-1.269 0-.43.083-.785.249-1.064a1.83 1.83 0 0 1 .671-.66 3.51 3.51 0 0 1 .945-.369 9.357 9.357 0 0 1 1.064-.189l1.113-.129c.285-.036.492-.094.622-.174.129-.08.194-.209.194-.388v-.035c0-.434-.123-.77-.368-1.009-.242-.238-.604-.358-1.084-.358-.501 0-.895.111-1.183.333-.285.22-.483.463-.592.731l-1.397-.318c.166-.464.408-.838.726-1.123a2.937 2.937 0 0 1 1.109-.627 4.32 4.32 0 0 1 1.317-.199c.305 0 .628.037.969.11.345.07.667.198.965.387.302.19.548.46.741.81.192.349.288.801.288 1.358V32h-1.452v-1.044h-.059a2.12 2.12 0 0 1-.433.567c-.192.185-.439.34-.741.462-.301.123-.662.184-1.083.184zm.323-1.193c.411 0 .762-.081 1.054-.244.295-.162.518-.374.671-.636a1.65 1.65 0 0 0 .234-.85v-.985c-.053.053-.156.103-.309.15-.149.043-.32.08-.512.114-.192.03-.379.058-.562.084l-.457.06a3.678 3.678 0 0 0-.79.184 1.35 1.35 0 0 0-.567.373c-.139.159-.209.371-.209.636 0 .368.136.647.408.835.271.186.618.279 1.039.279zM579.96 32V21.818h1.487v3.784h.089c.086-.16.211-.343.373-.552a2.12 2.12 0 0 1 .676-.547c.289-.16.67-.239 1.144-.239.616 0 1.166.156 1.65.468.484.311.864.76 1.139 1.347.278.587.417 1.292.417 2.118 0 .825-.137 1.533-.412 2.123-.275.586-.653 1.039-1.134 1.357a2.933 2.933 0 0 1-1.645.472c-.464 0-.844-.078-1.139-.233a2.165 2.165 0 0 1-.686-.547 4.164 4.164 0 0 1-.383-.557h-.124V32h-1.452zm1.457-3.818c0 .537.078 1.007.234 1.412.155.404.381.72.676.95.295.225.656.337 1.084.337.444 0 .815-.117 1.113-.353.299-.238.524-.561.676-.97.156-.407.234-.866.234-1.376 0-.504-.076-.956-.229-1.357a2.073 2.073 0 0 0-.676-.95c-.298-.232-.671-.348-1.118-.348-.431 0-.796.111-1.094.333-.295.222-.519.532-.671.93-.153.398-.229.861-.229 1.392zm9.32 3.987c-.484 0-.921-.09-1.313-.268a2.206 2.206 0 0 1-.929-.79c-.226-.346-.338-.768-.338-1.269 0-.43.083-.785.248-1.064.166-.278.39-.498.671-.66a3.51 3.51 0 0 1 .945-.369 9.396 9.396 0 0 1 1.064-.189l1.114-.129c.285-.036.492-.094.621-.174.129-.08.194-.209.194-.388v-.035c0-.434-.123-.77-.368-1.009-.242-.238-.603-.358-1.084-.358-.5 0-.895.111-1.183.333-.285.22-.482.463-.592.731l-1.397-.318c.166-.464.408-.838.726-1.123a2.945 2.945 0 0 1 1.109-.627 4.33 4.33 0 0 1 1.317-.199c.305 0 .628.037.97.11.345.07.666.198.964.387.302.19.549.46.741.81.192.349.288.801.288 1.358V32h-1.451v-1.044h-.06c-.096.192-.24.381-.432.567-.193.185-.44.34-.741.462-.302.123-.663.184-1.084.184zm.323-1.193c.411 0 .762-.081 1.054-.244.295-.162.519-.374.671-.636a1.65 1.65 0 0 0 .234-.85v-.985c-.053.053-.156.103-.308.15-.149.043-.32.08-.512.114-.193.03-.38.058-.562.084l-.458.06a3.692 3.692 0 0 0-.79.184c-.235.086-.424.21-.567.373-.139.159-.209.371-.209.636 0 .368.136.647.408.835.272.186.618.279 1.039.279zm11.058-4.748-1.348.239a1.58 1.58 0 0 0-.268-.493 1.33 1.33 0 0 0-.487-.382c-.206-.1-.463-.15-.771-.15-.421 0-.772.095-1.054.284-.282.186-.422.426-.422.72a.76.76 0 0 0 .283.617c.189.156.494.284.915.383l1.213.278c.702.163 1.226.413 1.571.751.344.338.517.777.517 1.318 0 .457-.133.865-.398 1.223-.262.354-.628.633-1.099.835-.467.202-1.009.303-1.625.303-.855 0-1.553-.182-2.093-.547-.541-.368-.872-.89-.995-1.566l1.437-.219c.09.375.274.658.552.85.278.19.641.284 1.089.284.487 0 .876-.101 1.168-.303.292-.206.438-.456.438-.751a.78.78 0 0 0-.269-.602c-.176-.162-.446-.285-.81-.367l-1.293-.284c-.712-.162-1.239-.42-1.581-.775-.338-.355-.507-.804-.507-1.348 0-.45.126-.845.378-1.183.252-.338.6-.602 1.044-.79.444-.193.953-.289 1.526-.289.825 0 1.475.18 1.949.537.474.355.787.83.94 1.427zm4.984 5.926c-.752 0-1.4-.16-1.943-.482a3.267 3.267 0 0 1-1.253-1.367c-.292-.59-.438-1.281-.438-2.073 0-.783.146-1.472.438-2.069a3.398 3.398 0 0 1 1.233-1.397c.53-.334 1.15-.502 1.859-.502.431 0 .849.072 1.253.214.404.142.767.366 1.089.671.321.305.575.701.76 1.188.186.484.279 1.073.279 1.765v.527h-6.071v-1.113h4.614a2.2 2.2 0 0 0-.239-1.04 1.798 1.798 0 0 0-.671-.72 1.875 1.875 0 0 0-1.004-.264c-.418 0-.782.103-1.094.308a2.071 2.071 0 0 0-.716.796 2.305 2.305 0 0 0-.248 1.059v.87c0 .51.089.945.268 1.302.182.358.436.632.761.82.325.186.704.28 1.138.28.282 0 .539-.04.771-.12a1.591 1.591 0 0 0 .989-.97l1.407.254a2.547 2.547 0 0 1-.606 1.089 2.951 2.951 0 0 1-1.089.72c-.434.17-.93.254-1.487.254z"/><path stroke="#FB6513" stroke-linecap="round" stroke-linejoin="round" stroke-width="2" d="M469.37 24.51c-4.08.29-4.07 6.2 0 6.49h9.66c1.17.01 2.3-.43 3.17-1.22 2.86-2.5 1.33-7.5-2.44-7.98-1.35-8.14-13.14-5.05-10.35 2.71M475 31v3m0 0a2 2 0 0 0-2 2m2-2a2 2 0 0 1 2 2m0 0a2 2 0 1 1-4 0m4 0h4m-8 0h-4"/><g filter="url(#f)"><rect width="101" height="44" x="451" y="65" fill="#fff" rx="16"/></g><path fill="#000" d="M496.979 92h-1.631l3.664-10.182h1.775L504.451 92h-1.631l-2.878-8.332h-.08L496.979 92zm.273-3.987h5.29v1.292h-5.29v-1.292zm8.46 6.85v-10.5h1.452v1.239h.124c.086-.16.21-.344.373-.552.162-.21.388-.391.676-.547.288-.16.67-.239 1.143-.239a2.98 2.98 0 0 1 1.651.468c.484.311.863.76 1.139 1.347.278.587.417 1.292.417 2.118 0 .825-.137 1.533-.412 2.123-.276.586-.653 1.039-1.134 1.357a2.936 2.936 0 0 1-1.646.472c-.464 0-.843-.078-1.138-.234a2.154 2.154 0 0 1-.686-.546 4.164 4.164 0 0 1-.383-.557h-.089v4.052h-1.487zm1.457-6.681c0 .537.078 1.007.233 1.412.156.404.382.72.677.95.294.225.656.337 1.083.337.444 0 .816-.117 1.114-.353a2.18 2.18 0 0 0 .676-.97c.156-.407.234-.866.234-1.376 0-.504-.076-.956-.229-1.357a2.073 2.073 0 0 0-.676-.95c-.298-.232-.671-.348-1.119-.348-.431 0-.795.111-1.093.333-.295.222-.519.532-.672.93-.152.397-.228.861-.228 1.392zm7.094 6.682v-10.5h1.451v1.238h.125c.086-.16.21-.344.373-.552.162-.21.387-.391.676-.547.288-.16.669-.239 1.143-.239a2.98 2.98 0 0 1 1.651.468c.484.311.863.76 1.138 1.347.279.587.418 1.292.418 2.118 0 .825-.138 1.533-.413 2.123-.275.586-.653 1.039-1.133 1.357a2.936 2.936 0 0 1-1.646.472c-.464 0-.843-.078-1.138-.234a2.159 2.159 0 0 1-.687-.546 4.146 4.146 0 0 1-.382-.557h-.09v4.052h-1.486zm1.456-6.682c0 .537.078 1.007.234 1.412.156.404.381.72.676.95.295.225.656.337 1.084.337.444 0 .815-.117 1.114-.353.298-.238.523-.561.676-.97.155-.407.233-.866.233-1.376 0-.504-.076-.956-.228-1.357a2.08 2.08 0 0 0-.676-.95c-.299-.232-.672-.348-1.119-.348-.431 0-.796.111-1.094.333-.295.222-.519.532-.671.93-.152.397-.229.861-.229 1.392zm17.376-6.364h1.541v6.697c0 .713-.167 1.344-.502 1.894a3.502 3.502 0 0 1-1.412 1.293c-.606.311-1.317.467-2.132.467-.812 0-1.522-.156-2.128-.467a3.508 3.508 0 0 1-1.412-1.293c-.335-.55-.502-1.181-.502-1.894v-6.697h1.536v6.573c0 .46.101.87.303 1.228.206.358.496.64.87.845.375.202.819.303 1.333.303.517 0 .962-.101 1.337-.303.378-.206.666-.487.865-.845.202-.358.303-.768.303-1.228v-6.573zm5.221 0V92h-1.536V81.818h1.536z"/><path stroke="#E93131" stroke-linecap="round" stroke-linejoin="round" stroke-width="2" d="M476.43 90h-9.03c-1.82 0-2.98-1.95-2.1-3.55l4.51-8.21c.91-1.65 3.29-1.65 4.2 0l2.19 3.97 1.05 1.91m-.82 5.88c1.82 0 2.98-1.95 2.1-3.55l-1.28-2.33m-.82 5.88h-4.41c-.01.17-.02.33-.02.5a6.5 6.5 0 1 0 5.25-6.38"/><g filter="url(#g)"><rect width="149" height="44" x="568" y="65" fill="#fff" rx="16"/></g><path fill="#000" d="M613.119 92V81.818h3.629c.792 0 1.448.144 1.969.433.52.288.909.682 1.168 1.183.258.497.388 1.057.388 1.68a3.59 3.59 0 0 1-.393 1.69c-.259.498-.65.892-1.173 1.184-.521.288-1.175.433-1.964.433h-2.496v-1.303h2.357c.5 0 .906-.086 1.218-.259.311-.175.54-.414.686-.715.146-.302.219-.645.219-1.03a2.3 2.3 0 0 0-.219-1.024 1.569 1.569 0 0 0-.691-.7c-.312-.17-.723-.254-1.233-.254h-1.929V92h-1.536zm10.899.169a3.13 3.13 0 0 1-1.312-.268 2.214 2.214 0 0 1-.93-.79c-.225-.346-.338-.768-.338-1.269 0-.43.083-.785.249-1.064.165-.278.389-.498.671-.66.282-.163.596-.286.944-.369a9.396 9.396 0 0 1 1.064-.189l1.114-.129c.285-.036.492-.094.621-.174.13-.08.194-.209.194-.388v-.034c0-.435-.122-.771-.368-1.01-.242-.238-.603-.358-1.083-.358-.501 0-.895.111-1.184.333-.285.22-.482.463-.591.731l-1.397-.318c.165-.464.407-.838.726-1.123a2.94 2.94 0 0 1 1.108-.627 4.331 4.331 0 0 1 1.318-.199c.305 0 .628.037.969.11.345.07.666.198.965.387.301.19.548.46.74.81.193.349.289.801.289 1.358V92h-1.452v-1.044h-.06c-.096.192-.24.381-.432.567-.192.185-.439.34-.741.462-.301.123-.663.184-1.084.184zm.323-1.193c.411 0 .763-.081 1.054-.244.295-.162.519-.374.672-.636.155-.265.233-.549.233-.85v-.985c-.053.053-.156.103-.308.15-.149.043-.32.08-.512.114-.192.03-.38.058-.562.084l-.457.06a3.687 3.687 0 0 0-.791.184c-.235.086-.424.21-.566.373-.14.159-.209.371-.209.636 0 .368.136.647.407.835.272.186.619.279 1.039.279zM629.677 92v-7.636h1.437v1.213h.079a1.85 1.85 0 0 1 .736-.97 2.105 2.105 0 0 1 1.203-.358 6.372 6.372 0 0 1 .631.035v1.422a2.61 2.61 0 0 0-.318-.055 3.031 3.031 0 0 0-.457-.034 1.94 1.94 0 0 0-.94.223 1.66 1.66 0 0 0-.885 1.497V92h-1.486zm9.299-7.636v1.193h-4.172v-1.193h4.172zm-3.053-1.83h1.487v7.224c0 .288.043.505.129.651a.67.67 0 0 0 .333.293c.139.05.29.075.452.075.12 0 .224-.008.313-.025.09-.016.16-.03.209-.04l.269 1.228a2.497 2.497 0 0 1-.368.1 2.916 2.916 0 0 1-.597.06 2.612 2.612 0 0 1-1.093-.21 1.874 1.874 0 0 1-.821-.675c-.209-.305-.313-.688-.313-1.149v-7.532zm6.093 4.932V92h-1.486v-7.636h1.427v1.242h.094c.176-.404.451-.729.826-.974.377-.245.853-.368 1.426-.368.521 0 .976.11 1.368.328.391.216.694.537.909.965.216.427.323.956.323 1.586V92h-1.486v-4.678c0-.554-.144-.986-.433-1.298-.288-.315-.684-.472-1.188-.472a1.86 1.86 0 0 0-.919.224 1.607 1.607 0 0 0-.632.656c-.152.285-.229.63-.229 1.034zm10.082 4.688c-.752 0-1.4-.16-1.944-.482a3.271 3.271 0 0 1-1.252-1.367c-.292-.59-.438-1.281-.438-2.074 0-.782.146-1.471.438-2.068a3.398 3.398 0 0 1 1.233-1.397c.53-.334 1.15-.502 1.859-.502.431 0 .848.072 1.253.214.404.143.767.366 1.089.671.321.305.575.701.76 1.188.186.484.279 1.073.279 1.765v.527h-6.071v-1.113h4.614c0-.392-.08-.738-.239-1.04a1.805 1.805 0 0 0-.671-.72 1.875 1.875 0 0 0-1.004-.264c-.418 0-.782.103-1.094.308a2.071 2.071 0 0 0-.716.796 2.292 2.292 0 0 0-.248 1.059v.87c0 .51.089.944.268 1.302.182.358.436.632.761.82.325.186.704.28 1.138.28.282 0 .539-.04.771-.12a1.593 1.593 0 0 0 .989-.97l1.407.254a2.557 2.557 0 0 1-.606 1.089 2.951 2.951 0 0 1-1.089.72c-.434.17-.93.254-1.487.254zm4.836-.154v-7.636h1.437v1.213h.079a1.85 1.85 0 0 1 .736-.97 2.107 2.107 0 0 1 1.203-.358 6.372 6.372 0 0 1 .632.035v1.422a2.676 2.676 0 0 0-.319-.055 3.031 3.031 0 0 0-.457-.034c-.351 0-.665.074-.94.223a1.666 1.666 0 0 0-.885 1.497V92h-1.486zm9.017 0V81.818h3.63c.792 0 1.448.144 1.968.433.521.288.91.682 1.169 1.183.258.497.387 1.057.387 1.68 0 .627-.13 1.19-.392 1.69-.259.498-.65.892-1.174 1.184-.52.288-1.175.433-1.963.433h-2.496v-1.303h2.356c.501 0 .907-.086 1.218-.259.312-.175.541-.414.687-.715a2.35 2.35 0 0 0 .218-1.03c0-.384-.073-.726-.218-1.024a1.571 1.571 0 0 0-.692-.7c-.311-.17-.722-.254-1.232-.254h-1.929V92h-1.537zm11.867.154c-.716 0-1.341-.164-1.874-.492a3.316 3.316 0 0 1-1.243-1.377c-.295-.59-.443-1.28-.443-2.068 0-.793.148-1.485.443-2.079a3.31 3.31 0 0 1 1.243-1.382c.533-.328 1.158-.492 1.874-.492.716 0 1.341.164 1.874.492a3.31 3.31 0 0 1 1.243 1.382c.295.594.443 1.286.443 2.079 0 .788-.148 1.478-.443 2.068a3.316 3.316 0 0 1-1.243 1.377c-.533.328-1.158.492-1.874.492zm.005-1.248c.464 0 .848-.122 1.153-.368.305-.245.531-.571.677-.98a3.89 3.89 0 0 0 .223-1.346c0-.488-.074-.935-.223-1.343a2.189 2.189 0 0 0-.677-.989c-.305-.249-.689-.373-1.153-.373-.467 0-.855.124-1.163.373a2.22 2.22 0 0 0-.681.99 3.956 3.956 0 0 0-.219 1.342c0 .49.073.94.219 1.347.149.408.376.734.681.98.308.245.696.367 1.163.367zM682.947 92v-7.636h1.437v1.213h.079a1.85 1.85 0 0 1 .736-.97 2.107 2.107 0 0 1 1.203-.358 6.372 6.372 0 0 1 .632.035v1.422a2.676 2.676 0 0 0-.319-.055 3.031 3.031 0 0 0-.457-.034c-.351 0-.665.074-.94.223a1.666 1.666 0 0 0-.885 1.497V92h-1.486zm9.299-7.636v1.193h-4.171v-1.193h4.171zm-3.053-1.83h1.487v7.224c0 .288.043.505.129.651a.67.67 0 0 0 .333.293c.139.05.29.075.453.075.119 0 .223-.008.313-.025.089-.016.159-.03.209-.04l.268 1.228a2.497 2.497 0 0 1-.368.1 2.913 2.913 0 0 1-.596.06 2.613 2.613 0 0 1-1.094-.21 1.88 1.88 0 0 1-.821-.675c-.208-.305-.313-.688-.313-1.149v-7.532zm6.829 9.635a3.12 3.12 0 0 1-1.312-.268 2.214 2.214 0 0 1-.93-.79c-.225-.346-.338-.768-.338-1.269 0-.43.083-.785.249-1.064.165-.278.389-.498.671-.66a3.51 3.51 0 0 1 .945-.369 9.38 9.38 0 0 1 1.063-.189l1.114-.129c.285-.036.492-.094.622-.174.129-.08.193-.209.193-.388v-.034c0-.435-.122-.771-.367-1.01-.242-.238-.604-.358-1.084-.358-.501 0-.895.111-1.184.333-.285.22-.482.463-.591.731l-1.397-.318c.166-.464.408-.838.726-1.123a2.94 2.94 0 0 1 1.108-.627 4.331 4.331 0 0 1 1.318-.199c.305 0 .628.037.969.11.345.07.666.198.965.387.301.19.548.46.741.81.192.349.288.801.288 1.358V92h-1.452v-1.044h-.059a2.141 2.141 0 0 1-.433.567c-.192.185-.439.34-.741.462-.301.123-.663.184-1.084.184zm.324-1.193c.411 0 .762-.081 1.054-.244.295-.162.518-.374.671-.636.156-.265.233-.549.233-.85v-.985c-.053.053-.155.103-.308.15-.149.043-.32.08-.512.114-.192.03-.379.058-.562.084l-.457.06a3.701 3.701 0 0 0-.791.184c-.235.086-.424.21-.566.373-.14.159-.209.371-.209.636 0 .368.136.647.408.835.271.186.618.279 1.039.279zm6.821-9.158V92h-1.486V81.818h1.486z"/><path stroke="#666" stroke-linecap="round" stroke-linejoin="round" stroke-width="2" d="M588.25 96.64c-2-.8-3.75-2.25-4.91-4.26a9.89 9.89 0 0 1-1.25-6.25m3.76-6.65a9.936 9.936 0 0 1 6.15-2.12c2.27 0 4.36.77 6.04 2.05m-2.29 17.23c2-.8 3.75-2.25 4.91-4.26a9.89 9.89 0 0 0 1.25-6.25m-5.49-3.18a6.253 6.253 0 0 1 0 8.84 6.253 6.253 0 0 1-8.84 0 6.253 6.253 0 0 1 0-8.84 6.253 6.253 0 0 1 8.84 0z"/><defs><filter id="a" width="117.521" height="117.521" x="304.24" y="4.421" color-interpolation-filters="sRGB" filterUnits="userSpaceOnUse"><feFlood flood-opacity="0" result="BackgroundImageFix"/><feColorMatrix in="SourceAlpha" result="hardAlpha" values="0 0 0 0 0 0 0 0 0 0 0 0 0 0 0 0 0 0 127 0"/><feOffset dy="1.84"/><feGaussianBlur stdDeviation="1.602"/><feColorMatrix values="0 0 0 0 0 0 0 0 0 0 0 0 0 0 0 0 0 0 0.0282725 0"/><feBlend in2="BackgroundImageFix" result="effect1_dropShadow_3194_6168"/><feColorMatrix in="SourceAlpha" result="hardAlpha" values="0 0 0 0 0 0 0 0 0 0 0 0 0 0 0 0 0 0 127 0"/><feOffset dy="6.182"/><feGaussianBlur stdDeviation="5.38"/><feColorMatrix values="0 0 0 0 0 0 0 0 0 0 0 0 0 0 0 0 0 0 0.0417275 0"/><feBlend in2="effect1_dropShadow_3194_6168" result="effect2_dropShadow_3194_6168"/><feBlend in="SourceGraphic" in2="effect2_dropShadow_3194_6168" result="shape"/></filter><filter id="b" width="190.521" height="65.521" x="95.24" y=".421" color-interpolation-filters="sRGB" filterUnits="userSpaceOnUse"><feFlood flood-opacity="0" result="BackgroundImageFix"/><feColorMatrix in="SourceAlpha" result="hardAlpha" values="0 0 0 0 0 0 0 0 0 0 0 0 0 0 0 0 0 0 127 0"/><feOffset dy="1.84"/><feGaussianBlur stdDeviation="1.602"/><feColorMatrix values="0 0 0 0 0 0 0 0 0 0 0 0 0 0 0 0 0 0 0.0282725 0"/><feBlend in2="BackgroundImageFix" result="effect1_dropShadow_3194_6168"/><feColorMatrix in="SourceAlpha" result="hardAlpha" values="0 0 0 0 0 0 0 0 0 0 0 0 0 0 0 0 0 0 127 0"/><feOffset dy="6.182"/><feGaussianBlur stdDeviation="5.38"/><feColorMatrix values="0 0 0 0 0 0 0 0 0 0 0 0 0 0 0 0 0 0 0.0417275 0"/><feBlend in2="effect1_dropShadow_3194_6168" result="effect2_dropShadow_3194_6168"/><feBlend in="SourceGraphic" in2="effect2_dropShadow_3194_6168" result="shape"/></filter><filter id="c" width="124.521" height="65.521" x="161.24" y="60.421" color-interpolation-filters="sRGB" filterUnits="userSpaceOnUse"><feFlood flood-opacity="0" result="BackgroundImageFix"/><feColorMatrix in="SourceAlpha" result="hardAlpha" values="0 0 0 0 0 0 0 0 0 0 0 0 0 0 0 0 0 0 127 0"/><feOffset dy="1.84"/><feGaussianBlur stdDeviation="1.602"/><feColorMatrix values="0 0 0 0 0 0 0 0 0 0 0 0 0 0 0 0 0 0 0.0282725 0"/><feBlend in2="BackgroundImageFix" result="effect1_dropShadow_3194_6168"/><feColorMatrix in="SourceAlpha" result="hardAlpha" values="0 0 0 0 0 0 0 0 0 0 0 0 0 0 0 0 0 0 127 0"/><feOffset dy="6.182"/><feGaussianBlur stdDeviation="5.38"/><feColorMatrix values="0 0 0 0 0 0 0 0 0 0 0 0 0 0 0 0 0 0 0.0417275 0"/><feBlend in2="effect1_dropShadow_3194_6168" result="effect2_dropShadow_3194_6168"/><feBlend in="SourceGraphic" in2="effect2_dropShadow_3194_6168" result="shape"/></filter><filter id="d" width="166.521" height="65.521" x=".24" y="60.421" color-interpolation-filters="sRGB" filterUnits="userSpaceOnUse"><feFlood flood-opacity="0" result="BackgroundImageFix"/><feColorMatrix in="SourceAlpha" result="hardAlpha" values="0 0 0 0 0 0 0 0 0 0 0 0 0 0 0 0 0 0 127 0"/><feOffset dy="1.84"/><feGaussianBlur stdDeviation="1.602"/><feColorMatrix values="0 0 0 0 0 0 0 0 0 0 0 0 0 0 0 0 0 0 0.0282725 0"/><feBlend in2="BackgroundImageFix" result="effect1_dropShadow_3194_6168"/><feColorMatrix in="SourceAlpha" result="hardAlpha" values="0 0 0 0 0 0 0 0 0 0 0 0 0 0 0 0 0 0 127 0"/><feOffset dy="6.182"/><feGaussianBlur stdDeviation="5.38"/><feColorMatrix values="0 0 0 0 0 0 0 0 0 0 0 0 0 0 0 0 0 0 0.0417275 0"/><feBlend in2="effect1_dropShadow_3194_6168" result="effect2_dropShadow_3194_6168"/><feBlend in="SourceGraphic" in2="effect2_dropShadow_3194_6168" result="shape"/></filter><filter id="e" width="194.521" height="65.521" x="440.24" y=".421" color-interpolation-filters="sRGB" filterUnits="userSpaceOnUse"><feFlood flood-opacity="0" result="BackgroundImageFix"/><feColorMatrix in="SourceAlpha" result="hardAlpha" values="0 0 0 0 0 0 0 0 0 0 0 0 0 0 0 0 0 0 127 0"/><feOffset dy="1.84"/><feGaussianBlur stdDeviation="1.602"/><feColorMatrix values="0 0 0 0 0 0 0 0 0 0 0 0 0 0 0 0 0 0 0.0282725 0"/><feBlend in2="BackgroundImageFix" result="effect1_dropShadow_3194_6168"/><feColorMatrix in="SourceAlpha" result="hardAlpha" values="0 0 0 0 0 0 0 0 0 0 0 0 0 0 0 0 0 0 127 0"/><feOffset dy="6.182"/><feGaussianBlur stdDeviation="5.38"/><feColorMatrix values="0 0 0 0 0 0 0 0 0 0 0 0 0 0 0 0 0 0 0.0417275 0"/><feBlend in2="effect1_dropShadow_3194_6168" result="effect2_dropShadow_3194_6168"/><feBlend in="SourceGraphic" in2="effect2_dropShadow_3194_6168" result="shape"/></filter><filter id="f" width="122.521" height="65.521" x="440.24" y="60.421" color-interpolation-filters="sRGB" filterUnits="userSpaceOnUse"><feFlood flood-opacity="0" result="BackgroundImageFix"/><feColorMatrix in="SourceAlpha" result="hardAlpha" values="0 0 0 0 0 0 0 0 0 0 0 0 0 0 0 0 0 0 127 0"/><feOffset dy="1.84"/><feGaussianBlur stdDeviation="1.602"/><feColorMatrix values="0 0 0 0 0 0 0 0 0 0 0 0 0 0 0 0 0 0 0.0282725 0"/><feBlend in2="BackgroundImageFix" result="effect1_dropShadow_3194_6168"/><feColorMatrix in="SourceAlpha" result="hardAlpha" values="0 0 0 0 0 0 0 0 0 0 0 0 0 0 0 0 0 0 127 0"/><feOffset dy="6.182"/><feGaussianBlur stdDeviation="5.38"/><feColorMatrix values="0 0 0 0 0 0 0 0 0 0 0 0 0 0 0 0 0 0 0.0417275 0"/><feBlend in2="effect1_dropShadow_3194_6168" result="effect2_dropShadow_3194_6168"/><feBlend in="SourceGraphic" in2="effect2_dropShadow_3194_6168" result="shape"/></filter><filter id="g" width="170.521" height="65.521" x="557.24" y="60.421" color-interpolation-filters="sRGB" filterUnits="userSpaceOnUse"><feFlood flood-opacity="0" result="BackgroundImageFix"/><feColorMatrix in="SourceAlpha" result="hardAlpha" values="0 0 0 0 0 0 0 0 0 0 0 0 0 0 0 0 0 0 127 0"/><feOffset dy="1.84"/><feGaussianBlur stdDeviation="1.602"/><feColorMatrix values="0 0 0 0 0 0 0 0 0 0 0 0 0 0 0 0 0 0 0.0282725 0"/><feBlend in2="BackgroundImageFix" result="effect1_dropShadow_3194_6168"/><feColorMatrix in="SourceAlpha" result="hardAlpha" values="0 0 0 0 0 0 0 0 0 0 0 0 0 0 0 0 0 0 127 0"/><feOffset dy="6.182"/><feGaussianBlur stdDeviation="5.38"/><feColorMatrix values="0 0 0 0 0 0 0 0 0 0 0 0 0 0 0 0 0 0 0.0417275 0"/><feBlend in2="effect1_dropShadow_3194_6168" result="effect2_dropShadow_3194_6168"/><feBlend in="SourceGraphic" in2="effect2_dropShadow_3194_6168" result="shape"/></filter></defs></svg>