<svg xmlns="http://www.w3.org/2000/svg" width="44" height="44" fill="none"><path fill="#fff" d="M24.18 24.947c6.773 0 12.288 5.515 12.288 12.287 0 1.257-1.047 2.234-2.234 2.234H7.426a2.205 2.205 0 0 1-2.234-2.234 12.26 12.26 0 0 1 12.287-12.287h6.702zM8.544 36.117h24.504c-.558-4.398-4.328-7.82-8.866-7.82H17.48c-4.608 0-8.378 3.422-8.936 7.82zM20.83 21.596a8.909 8.909 0 0 1-8.936-8.936c0-4.887 3.979-8.936 8.936-8.936 4.887 0 8.936 4.049 8.936 8.936 0 4.956-4.05 8.936-8.936 8.936zm0-14.521a5.557 5.557 0 0 0-5.585 5.585c0 3.141 2.443 5.585 5.585 5.585a5.557 5.557 0 0 0 5.585-5.585c0-3.072-2.514-5.585-5.585-5.585z"/></svg>