<svg xmlns="http://www.w3.org/2000/svg" xmlns:xlink="http://www.w3.org/1999/xlink" viewBox="0 0 24 24"><path d="M 16.41 4 C 18.35 4 19.91 5.57 19.91 7.5 C 19.91 9.39 18.41 10.93 16.54 11 C 16.46 10.99 16.37 10.99 16.28 11 M 18.34 20 C 19.06 19.85 19.74 19.56 20.3 19.13 C 21.86 17.96 21.86 16.03 20.3 14.86 C 19.75 14.44 19.08 14.16 18.37 14 M 9.16 10.87 C 9.06 10.86 8.94 10.86 8.83 10.87 C 6.45 10.79 4.56 8.84 4.56 6.44 C 4.56 3.99 6.54 2 9 2 C 11.45 2 13.44 3.99 13.44 6.44 C 13.43 8.84 11.54 10.79 9.16 10.87 Z M 4.16 14.56 C 1.74 16.18 1.74 18.82 4.16 20.43 C 6.91 22.27 11.42 22.27 14.17 20.43 C 16.59 18.81 16.59 16.17 14.17 14.56 C 11.43 12.73 6.92 12.73 4.16 14.56 Z" fill="transparent" stroke-width="2" stroke="rgb(0,0,0)" stroke-linecap="round" stroke-linejoin="round" stroke-dasharray=""></path></svg>