<svg xmlns="http://www.w3.org/2000/svg" width="77" height="21" viewBox="0 0 77 21" fill="none" id="svg1842664815_5350">
<path d="M55.1066 5.34375H51.6797V17.2998H55.1066V5.34375Z" fill="black"></path>
<path d="M53.4309 3.91211C53.6873 3.91999 53.9432 3.8748 54.1811 3.77915C54.4195 3.68298 54.6354 3.53898 54.8162 3.35504C54.993 3.16689 55.1297 2.94459 55.2196 2.70179C55.309 2.45899 55.3491 2.20043 55.3373 1.94133C55.3491 1.68329 55.3075 1.42578 55.2155 1.18508C55.1225 0.944383 54.9812 0.725758 54.8008 0.543396C54.6199 0.361033 54.4031 0.218612 54.1647 0.125066C53.9262 0.0320449 53.6708 -0.00999834 53.4155 0.0020891C53.1585 -0.00999834 52.9026 0.0304683 52.6616 0.120861C52.4211 0.211254 52.2007 0.349471 52.0142 0.52763C51.8307 0.708941 51.6868 0.927041 51.5918 1.16774C51.4967 1.40844 51.4525 1.66648 51.4623 1.92557C51.453 2.18676 51.4972 2.44743 51.5923 2.69023C51.6873 2.93355 51.8312 3.15481 52.0142 3.33927C52.1981 3.52847 52.4196 3.67667 52.6632 3.77547C52.9072 3.87427 53.1683 3.92052 53.4309 3.91211Z" fill="black"></path>
<path d="M59.5095 16.8446C60.5012 17.3927 61.6189 17.6666 62.7488 17.6382C63.6692 17.6676 64.5864 17.512 65.4466 17.181C66.1054 16.9229 66.6907 16.5041 67.1496 15.9617C67.5684 15.4325 67.8721 14.8202 68.0401 14.1644L65.0874 13.334C64.9518 13.7613 64.7015 14.1412 64.3634 14.4324C63.9153 14.7735 63.3609 14.9401 62.8007 14.9001C62.4112 14.9295 62.0202 14.8665 61.6589 14.7172C61.2972 14.5674 60.975 14.3352 60.7176 14.0382C60.3039 13.4475 60.0747 12.7443 60.0614 12.0201H68.1809C68.2097 11.7779 68.2251 11.534 68.2276 11.2896V10.6327C68.2482 9.63262 68.0432 8.6404 67.629 7.73174C67.2405 6.90454 66.6116 6.21555 65.8269 5.75571C64.9035 5.24278 63.8593 4.9942 62.8064 5.03572C60.8897 5.03572 59.3897 5.58596 58.3065 6.68591C57.2182 7.78955 56.6817 9.31362 56.6817 11.2423C56.6544 12.4122 56.9062 13.571 57.416 14.6216C57.8877 15.5502 58.6143 16.3222 59.5095 16.8446ZM62.697 7.67393C64.1656 7.67393 64.9626 8.49745 65.0874 10.144H60.103C60.1585 9.56325 60.363 9.00723 60.697 8.53056C60.9401 8.23941 61.2479 8.01028 61.5957 7.86155C61.9431 7.71282 62.3203 7.6487 62.697 7.67393Z" fill="black"></path>
<path d="M73.1952 11.174C73.1495 10.5376 73.3345 9.90645 73.7163 9.39772C74.0704 8.98254 74.7579 8.77758 75.7003 8.77758H77.0025V5.3458H76.32C75.8843 5.32899 75.4506 5.4157 75.0534 5.59806C74.6567 5.78043 74.3078 6.05423 74.0339 6.39688C73.6516 6.91507 73.3787 7.50735 73.2317 8.13642H73.0807L72.6953 5.36157H69.7734V17.3124H73.1952V11.174Z" fill="black"></path>
<path d="M13.75 14.3778V17.3103H24.5981V14.3883H18.161L18.0675 14.1045L24.4995 8.27101V5.34375H13.9478V8.27101H19.9996L20.1039 8.56531L13.75 14.3778Z" fill="black"></path>
<path d="M29.3016 9.22764C29.39 8.83401 29.6155 8.48505 29.9372 8.24488C30.3144 8.00944 30.7543 7.89592 31.1972 7.91904C31.4572 7.89697 31.7188 7.93271 31.9634 8.02363C32.208 8.11402 32.4305 8.25802 32.6139 8.44459C32.9305 8.86817 33.0857 9.39214 33.0517 9.92135V10.4469H29.9737C28.4075 10.4469 27.2826 10.7832 26.5987 11.4559C26.2539 11.7965 25.9825 12.2064 25.8037 12.6589C25.6239 13.1114 25.5401 13.5965 25.5571 14.0836C25.518 14.5729 25.5915 15.0648 25.7724 15.521C25.9527 15.9766 26.2359 16.3839 26.5987 16.7113C27.3874 17.3131 28.3607 17.6163 29.3483 17.568C29.8632 17.5869 30.3761 17.4907 30.8498 17.2868C31.3231 17.0824 31.746 16.7744 32.0883 16.3855C32.4736 15.9335 32.7686 15.4106 32.9577 14.8457H33.1504L33.5255 17.3157H36.4211V9.88457C36.5034 8.58543 36.0727 7.30626 35.2233 6.32666C34.4212 5.48579 33.1401 5.06536 31.3226 5.06536C30.3905 5.03908 29.4619 5.19412 28.5883 5.52258C27.9172 5.78115 27.3314 6.22365 26.8957 6.79964C26.481 7.37774 26.2112 8.04833 26.109 8.75465L29.3016 9.22764ZM30.5518 14.7773C30.0929 14.8262 29.632 14.7006 29.26 14.4252C29.0328 14.1861 28.9059 13.8682 28.9059 13.5371C28.9059 13.206 29.0328 12.8875 29.26 12.6489C29.5272 12.4093 29.8771 12.2863 30.2337 12.3073H33.062V12.712C33.0682 12.9963 33.0091 13.2785 32.8899 13.5365C32.7707 13.7941 32.5944 14.0211 32.3745 14.1993C31.8534 14.6102 31.2018 14.8162 30.541 14.7773H30.5518Z" fill="black"></path>
<path d="M41.7812 14.8367H41.9533C42.054 15.132 42.1794 15.419 42.3279 15.6933C42.6583 16.3313 43.1676 16.8579 43.7914 17.2069C44.3818 17.5148 45.038 17.672 45.703 17.6641C46.3468 17.6904 46.9871 17.5485 47.5611 17.2521C48.1351 16.9556 48.6233 16.5147 48.9788 15.9718C49.7445 14.8472 50.1299 13.2706 50.1299 11.242C50.1299 9.21338 49.7548 7.76815 49.0045 6.66451C48.634 6.12268 48.131 5.68596 47.5447 5.39691C46.9578 5.10786 46.3078 4.97595 45.6562 5.01431C45.1454 4.99592 44.6367 5.08631 44.1634 5.27919C43.6897 5.47206 43.2611 5.76321 42.906 6.13372C42.3994 6.70393 42.0237 7.38082 41.8074 8.115H41.6666L41.2812 5.34015H38.3594V20.728H41.7863L41.7812 14.8367ZM44.2811 8.12551C44.6403 8.09346 45.0016 8.15337 45.332 8.29947C45.6624 8.44557 45.9512 8.67313 46.1716 8.96112C46.6012 9.65326 46.8073 10.4631 46.76 11.2788C46.8093 12.1244 46.6043 12.9652 46.1716 13.691C45.9573 13.9837 45.6732 14.2171 45.3453 14.3689C45.017 14.5203 44.6562 14.5855 44.2965 14.5581C43.9456 14.5755 43.5956 14.5077 43.2755 14.36C42.9559 14.2129 42.6758 13.9905 42.4584 13.712C41.9831 13.0414 41.7498 12.2274 41.7966 11.4049V11.1789C41.7401 10.3664 41.9749 9.56077 42.4584 8.90857C42.6845 8.64895 42.9661 8.44347 43.2817 8.30788C43.5972 8.17229 43.9384 8.11027 44.2811 8.12551Z" fill="black"></path>
<path d="M11.8481 14.3906H0V17.3179H11.8481V14.3906Z" fill="black"></path>
</svg>